<svg id="svg" version="1.1" xmlns="http://www.w3.org/2000/svg" xmlns:xlink="http://www.w3.org/1999/xlink" width="400" height="400" viewBox="0, 0, 400,400"><g id="svgg"><path id="path0" d="M0.000 200.000 L 0.000 400.000 200.000 400.000 L 400.000 400.000 400.000 200.000 L 400.000 0.000 200.000 0.000 L 0.000 0.000 0.000 200.000 M394.026 2.814 C 394.991 3.330,395.034 4.612,394.100 5.021 C 393.592 5.243,341.060 5.747,336.400 5.575 C 335.744 5.550,306.821 5.527,305.200 5.549 C 304.650 5.557,297.450 5.557,289.200 5.549 C 280.950 5.542,273.750 5.542,273.200 5.549 C 272.650 5.557,265.450 5.557,257.200 5.549 C 248.950 5.542,241.750 5.542,241.200 5.549 C 240.650 5.557,233.450 5.557,225.200 5.549 C 216.950 5.542,209.750 5.542,209.200 5.549 C 208.650 5.557,201.450 5.557,193.200 5.549 C 184.950 5.542,177.750 5.542,177.200 5.549 C 176.650 5.557,169.450 5.557,161.200 5.549 C 152.950 5.542,145.750 5.542,145.200 5.549 C 144.650 5.557,137.450 5.557,129.200 5.549 C 120.950 5.542,113.750 5.542,113.200 5.549 C 112.650 5.557,105.450 5.557,97.200 5.549 C 88.950 5.542,81.750 5.542,81.200 5.549 C 80.650 5.557,73.450 5.557,65.200 5.549 C 56.950 5.542,49.750 5.544,49.200 5.554 C 48.650 5.565,38.689 5.534,27.065 5.486 L 5.929 5.400 5.141 4.427 L 4.353 3.453 5.276 2.941 C 6.482 2.272,392.777 2.146,394.026 2.814 M373.600 200.000 L 373.600 371.600 200.500 371.600 L 27.400 371.600 27.400 200.000 L 27.400 28.400 200.500 28.400 L 373.600 28.400 373.600 200.000 M378.790 377.514 C 378.778 378.360,374.831 380.304,372.344 380.689 C 369.061 381.198,29.648 381.283,27.000 380.776 C 23.656 380.136,22.052 379.348,21.766 378.206 C 21.459 376.982,21.893 376.271,22.740 376.608 C 25.331 377.641,39.307 377.688,316.800 377.589 C 367.696 377.571,374.884 377.427,376.790 376.389 C 377.573 375.962,378.802 376.654,378.790 377.514 " stroke="none" fill="#65e10c" fill-rule="evenodd"></path><path id="path1" d="M5.276 2.941 L 4.353 3.453 5.141 4.427 L 5.929 5.400 27.065 5.486 C 38.689 5.534,48.650 5.565,49.200 5.554 C 49.750 5.544,56.950 5.542,65.200 5.549 C 73.450 5.557,80.650 5.557,81.200 5.549 C 81.750 5.542,88.950 5.542,97.200 5.549 C 105.450 5.557,112.650 5.557,113.200 5.549 C 113.750 5.542,120.950 5.542,129.200 5.549 C 137.450 5.557,144.650 5.557,145.200 5.549 C 145.750 5.542,152.950 5.542,161.200 5.549 C 169.450 5.557,176.650 5.557,177.200 5.549 C 177.750 5.542,184.950 5.542,193.200 5.549 C 201.450 5.557,208.650 5.557,209.200 5.549 C 209.750 5.542,216.950 5.542,225.200 5.549 C 233.450 5.557,240.650 5.557,241.200 5.549 C 241.750 5.542,248.950 5.542,257.200 5.549 C 265.450 5.557,272.650 5.557,273.200 5.549 C 273.750 5.542,280.950 5.542,289.200 5.549 C 297.450 5.557,304.650 5.557,305.200 5.549 C 306.821 5.527,335.744 5.550,336.400 5.575 C 341.060 5.747,393.592 5.243,394.100 5.021 C 395.034 4.612,394.991 3.330,394.026 2.814 C 392.777 2.146,6.482 2.272,5.276 2.941 M376.790 376.389 C 374.884 377.427,367.696 377.571,316.800 377.589 C 39.307 377.688,25.331 377.641,22.740 376.608 C 21.893 376.271,21.459 376.982,21.766 378.206 C 22.052 379.348,23.656 380.136,27.000 380.776 C 29.648 381.283,369.061 381.198,372.344 380.689 C 374.831 380.304,378.778 378.360,378.790 377.514 C 378.802 376.654,377.573 375.962,376.790 376.389 " stroke="none" fill="#bbdcb0" fill-rule="evenodd"></path></g></svg>