<svg id="svg" version="1.1" xmlns="http://www.w3.org/2000/svg" xmlns:xlink="http://www.w3.org/1999/xlink" width="400" height="400" viewBox="0, 0, 400,400"><g id="svgg"><path id="path0" d="M185.000 23.963 C 184.560 24.142,183.527 24.201,182.704 24.092 C 180.601 23.816,179.858 24.529,180.131 26.563 C 180.272 27.611,180.219 27.960,179.979 27.579 C 179.722 27.174,179.610 27.498,179.606 28.660 L 179.600 30.319 177.700 30.554 C 176.655 30.683,175.302 30.788,174.693 30.787 C 173.324 30.786,172.800 31.948,172.800 34.982 L 172.800 37.113 169.827 37.263 C 166.186 37.447,166.247 37.387,166.065 40.985 L 165.917 43.917 162.985 44.065 C 159.224 44.255,159.455 43.813,159.268 51.183 L 159.106 57.528 156.352 57.805 C 152.831 58.158,153.036 57.554,152.982 67.739 C 152.932 77.234,153.011 77.596,155.129 77.604 C 155.718 77.607,156.875 77.720,157.700 77.857 L 159.200 78.105 159.200 81.407 L 159.200 84.710 156.377 84.869 C 153.085 85.055,152.690 85.413,152.925 88.000 C 153.232 91.384,152.941 91.761,150.113 91.646 C 146.413 91.495,146.038 91.827,146.070 95.221 C 146.102 98.636,146.106 98.632,143.205 98.465 C 139.883 98.274,139.109 98.791,139.217 101.132 C 139.409 105.294,139.550 105.090,136.356 105.270 C 132.734 105.475,132.298 105.961,132.474 109.600 L 132.600 112.200 130.260 112.451 C 126.456 112.860,125.628 114.648,125.608 122.500 L 125.600 125.600 123.500 125.637 C 122.345 125.657,120.860 125.702,120.200 125.737 L 119.000 125.800 118.884 129.100 L 118.768 132.400 116.260 132.400 C 112.246 132.400,112.221 132.443,112.083 139.651 C 111.945 146.827,112.312 146.103,108.821 146.070 C 105.486 146.039,105.070 146.464,105.228 149.741 C 105.282 150.873,105.298 153.555,105.263 155.700 L 105.200 159.600 102.676 159.600 C 98.360 159.600,98.618 158.760,98.488 173.267 C 98.355 188.091,98.627 186.800,95.641 186.800 C 91.390 186.800,91.455 186.390,91.694 211.442 C 91.906 233.560,91.713 232.688,96.548 233.413 L 98.400 233.691 98.448 241.145 C 98.474 245.245,98.459 249.601,98.415 250.824 C 98.322 253.416,98.869 254.115,100.881 253.975 C 101.607 253.925,102.875 253.910,103.700 253.942 L 105.200 254.000 105.203 260.300 C 105.208 271.341,105.921 273.391,109.918 273.865 L 112.000 274.111 112.034 276.156 C 112.127 281.647,111.566 281.069,116.900 281.166 L 118.800 281.200 118.800 284.547 L 118.800 287.895 109.010 288.076 C 100.942 288.225,99.096 288.366,98.510 288.875 C 98.120 289.215,97.334 289.603,96.765 289.738 C 95.115 290.128,93.656 291.519,93.160 293.175 C 92.648 294.883,91.407 295.331,87.498 295.215 C 85.203 295.148,84.800 295.825,84.800 299.745 L 84.800 302.238 82.300 302.088 C 78.091 301.835,78.026 302.003,78.004 313.300 L 78.000 315.600 75.600 315.600 C 71.065 315.600,71.269 314.219,71.243 345.106 C 71.222 369.958,71.136 369.176,73.890 369.258 C 76.497 369.335,319.573 369.330,320.694 369.252 C 322.043 369.158,322.029 369.516,321.910 338.668 C 321.783 305.498,322.225 308.577,317.644 308.923 C 316.091 309.041,315.306 308.979,315.644 308.765 C 316.102 308.474,316.090 308.411,315.574 308.406 C 315.059 308.401,314.979 307.986,315.119 306.056 C 315.349 302.876,314.776 301.834,312.961 302.129 C 312.213 302.250,311.600 302.181,311.600 301.975 C 311.600 301.769,310.880 301.600,310.000 301.600 C 308.247 301.600,308.222 301.551,308.380 298.523 C 308.523 295.800,308.167 295.182,306.471 295.203 C 302.359 295.254,301.689 294.918,301.403 292.661 C 301.260 291.527,301.057 290.296,300.952 289.925 C 300.694 289.009,298.541 288.358,295.727 288.345 C 294.447 288.339,289.125 288.245,283.900 288.135 L 274.400 287.936 274.400 284.584 L 274.400 281.232 277.700 281.116 L 281.000 281.000 281.113 277.600 L 281.226 274.200 283.781 274.333 C 287.348 274.518,288.074 273.785,287.996 270.074 C 287.965 268.603,287.953 265.936,287.970 264.147 L 288.000 260.893 290.605 260.727 C 294.796 260.460,294.583 261.171,294.706 247.086 C 294.837 232.009,294.533 233.328,297.872 233.368 C 301.866 233.416,301.589 235.475,301.487 206.465 L 301.400 181.529 300.456 180.765 C 299.765 180.205,298.879 180.000,297.156 180.000 L 294.800 180.000 294.752 172.500 C 294.726 168.375,294.741 163.999,294.785 162.776 C 294.880 160.145,294.390 159.558,292.144 159.611 C 291.295 159.631,290.015 159.526,289.300 159.378 L 288.000 159.109 287.938 154.455 C 287.904 151.895,287.915 149.364,287.964 148.831 C 288.190 146.345,287.861 146.077,284.541 146.043 C 280.770 146.004,281.179 146.776,281.152 139.647 C 281.124 132.359,281.042 132.194,277.577 132.509 C 274.555 132.783,274.455 132.675,274.318 128.988 L 274.200 125.800 270.960 125.685 L 267.719 125.570 267.488 120.357 C 267.182 113.488,266.592 112.572,262.326 112.349 L 260.600 112.259 260.600 109.543 C 260.600 106.063,260.191 105.636,256.568 105.334 L 253.800 105.103 253.925 102.651 C 254.099 99.222,253.666 98.755,250.070 98.498 L 247.200 98.293 247.144 96.846 C 247.113 96.051,247.127 94.739,247.175 93.931 C 247.305 91.755,246.860 91.656,236.904 91.657 C 227.429 91.658,227.071 91.732,227.242 93.666 C 227.287 94.180,227.297 95.500,227.263 96.600 L 227.202 98.600 224.634 98.467 C 220.988 98.279,220.304 99.002,220.409 102.934 C 220.451 104.510,220.466 107.249,220.443 109.019 L 220.400 112.238 217.900 112.088 C 213.485 111.823,213.641 111.292,213.612 126.619 L 213.600 132.638 211.100 132.488 C 206.535 132.214,206.848 130.548,206.815 155.300 L 206.800 166.400 205.260 166.400 C 200.427 166.400,200.339 166.658,200.095 181.500 L 199.896 193.600 196.548 193.600 L 193.200 193.600 193.200 183.025 L 193.200 172.449 195.090 172.166 C 199.032 171.575,200.193 167.984,199.989 157.019 C 199.939 154.368,199.922 149.203,199.949 145.539 L 200.000 138.879 202.326 138.609 C 206.544 138.119,206.729 137.378,206.790 120.700 C 206.800 118.000,206.800 118.000,207.940 118.000 C 209.586 118.000,211.557 117.228,211.994 116.411 C 212.727 115.041,213.664 109.409,213.588 106.822 C 213.546 105.380,213.531 102.895,213.556 101.300 L 213.600 98.400 215.500 98.353 C 218.880 98.268,219.802 97.918,219.787 96.720 C 219.779 96.137,219.930 95.757,220.123 95.876 C 220.315 95.995,220.411 94.919,220.336 93.486 L 220.200 90.880 221.894 90.690 C 224.266 90.424,225.490 89.499,225.983 87.602 C 226.213 86.721,226.580 85.304,226.800 84.454 C 227.020 83.603,227.200 81.734,227.200 80.300 L 227.200 77.692 229.860 77.906 C 231.675 78.051,232.438 77.985,232.260 77.697 C 232.094 77.428,232.313 77.357,232.863 77.500 C 233.591 77.691,233.691 77.591,233.501 76.863 C 233.376 76.388,233.438 76.000,233.637 76.000 C 233.846 76.000,234.000 70.907,234.000 64.000 C 234.000 57.400,233.865 52.000,233.700 52.001 C 233.535 52.001,233.460 50.748,233.532 49.215 C 233.709 45.487,232.780 44.400,229.418 44.400 L 227.200 44.400 227.200 42.400 C 227.200 41.300,227.063 40.400,226.896 40.400 C 226.729 40.400,226.594 39.815,226.596 39.100 C 226.600 37.898,226.502 37.800,225.300 37.804 C 224.585 37.806,224.000 37.671,224.000 37.504 C 224.000 37.337,223.190 37.200,222.200 37.200 C 220.755 37.200,220.399 37.062,220.394 36.500 C 220.389 35.926,220.322 35.903,220.025 36.373 C 219.797 36.733,219.743 36.055,219.880 34.550 C 220.181 31.228,219.569 30.629,216.157 30.903 C 213.318 31.130,213.216 31.012,213.205 27.500 C 213.197 24.616,212.339 23.967,208.480 23.928 C 206.786 23.911,200.990 23.838,195.600 23.766 C 190.210 23.695,185.440 23.783,185.000 23.963 M203.209 41.102 C 204.204 41.586,205.320 42.495,205.690 43.121 C 206.125 43.857,206.970 44.455,208.081 44.812 C 211.704 45.976,218.287 53.694,219.536 58.242 C 219.966 59.805,220.775 61.809,221.334 62.695 L 222.351 64.307 221.369 65.229 C 220.829 65.736,219.487 67.821,218.387 69.862 C 217.287 71.903,215.913 73.894,215.333 74.286 C 213.247 75.700,212.060 77.247,211.364 79.459 C 210.873 81.020,210.028 82.398,208.607 83.955 C 206.642 86.107,204.420 90.435,203.756 93.400 C 203.373 95.113,202.591 96.542,201.207 98.056 C 200.108 99.260,197.600 104.925,197.600 106.204 C 197.600 107.365,194.753 115.024,193.821 116.371 C 192.670 118.034,190.751 125.586,189.799 132.200 C 188.983 137.873,188.578 139.360,187.180 141.821 C 185.902 144.070,184.383 153.051,183.631 162.800 C 181.646 188.529,181.153 193.461,180.352 195.600 C 179.709 197.318,179.514 198.847,179.464 202.578 L 179.400 207.356 182.071 208.196 C 184.857 209.071,208.335 209.397,212.000 208.611 C 214.730 208.026,214.800 207.824,214.800 200.537 C 214.800 196.940,215.070 189.003,215.401 182.899 C 216.720 158.524,217.463 153.098,219.853 150.363 C 220.357 149.787,221.625 143.842,223.430 133.600 C 224.176 129.364,224.720 128.036,226.176 126.890 C 227.220 126.069,229.076 120.904,230.017 116.200 C 230.411 114.232,230.803 113.494,232.196 112.100 L 233.895 110.400 237.193 110.400 L 240.491 110.400 242.912 112.497 C 244.549 113.915,245.646 115.278,246.299 116.704 C 246.963 118.153,247.661 119.013,248.532 119.452 C 250.570 120.480,251.887 121.950,252.813 124.233 C 253.544 126.033,253.962 126.504,255.479 127.238 C 257.229 128.085,258.795 129.964,258.799 131.220 C 258.801 132.227,260.772 134.969,261.999 135.674 C 262.824 136.147,263.767 137.623,265.441 141.063 C 266.997 144.259,268.219 146.212,269.198 147.066 C 270.657 148.340,270.847 148.704,273.159 154.657 C 273.893 156.547,274.991 158.514,275.775 159.346 C 277.270 160.931,277.677 161.924,279.814 169.200 C 280.743 172.365,281.625 174.567,282.216 175.200 C 288.081 181.483,288.053 235.972,282.181 242.400 C 281.560 243.080,280.617 245.706,279.237 250.600 C 277.391 257.146,277.078 257.920,275.791 259.117 C 275.012 259.841,274.036 261.281,273.621 262.317 C 271.676 267.171,269.917 270.436,268.889 271.098 C 267.258 272.149,266.506 273.170,265.579 275.595 C 264.552 278.282,264.253 278.655,262.341 279.630 C 261.402 280.109,260.217 281.302,259.214 282.779 C 257.828 284.820,257.171 285.368,254.573 286.652 C 252.908 287.475,250.854 288.840,250.009 289.685 L 248.473 291.221 242.137 291.110 L 235.800 291.000 235.678 289.538 L 235.556 288.076 230.878 287.767 C 218.254 286.932,168.002 287.740,169.823 288.749 C 170.732 289.252,171.912 289.377,175.000 289.301 C 177.200 289.246,182.119 289.479,185.932 289.819 C 189.744 290.158,194.784 290.403,197.132 290.364 C 199.479 290.324,204.280 290.600,207.800 290.977 C 212.621 291.493,216.816 291.630,224.800 291.535 L 235.400 291.408 235.523 293.102 C 235.666 295.077,235.290 294.928,242.200 295.741 C 245.526 296.133,249.517 296.246,255.200 296.111 C 262.417 295.939,264.383 296.041,271.600 296.958 C 282.558 298.352,283.368 298.560,285.212 300.460 C 286.162 301.439,287.538 302.297,288.922 302.773 C 293.416 304.319,297.373 307.499,300.463 312.045 C 301.047 312.906,302.058 314.107,302.709 314.715 C 305.405 317.234,306.685 322.535,307.611 335.020 C 308.651 349.035,307.989 353.144,304.409 354.908 L 302.600 355.800 200.200 355.908 C 95.969 356.017,90.800 355.952,88.868 354.512 C 86.024 352.393,85.355 346.630,86.393 333.200 C 87.302 321.445,88.165 317.856,90.404 316.534 C 91.032 316.163,91.903 315.014,92.415 313.880 C 92.912 312.781,94.019 311.233,94.874 310.441 C 95.729 309.648,97.547 307.899,98.914 306.553 C 101.084 304.417,101.823 303.967,104.728 303.011 C 107.251 302.181,108.160 301.686,108.489 300.964 C 109.854 297.969,128.897 295.270,141.400 296.299 C 145.481 296.634,161.110 295.423,161.817 294.717 C 162.837 293.696,153.415 291.626,147.660 291.607 C 145.120 291.599,142.905 290.648,142.081 289.213 C 141.742 288.621,140.193 287.492,138.477 286.587 C 135.738 285.142,135.347 284.777,134.101 282.504 C 132.973 280.447,132.419 279.869,130.951 279.219 C 129.483 278.570,129.026 278.094,128.356 276.516 C 126.859 272.987,126.209 271.913,124.691 270.462 C 122.996 268.841,120.863 264.936,119.811 261.531 C 119.285 259.829,118.725 258.952,117.570 258.024 C 115.849 256.641,115.452 255.559,113.192 246.097 C 112.361 242.617,111.687 240.622,111.231 240.297 C 109.566 239.106,108.644 236.390,108.213 231.400 C 108.080 229.860,107.761 226.620,107.504 224.200 C 105.704 207.250,107.585 180.477,110.801 177.260 C 111.911 176.150,113.634 170.803,115.392 163.009 C 115.540 162.354,116.382 161.132,117.263 160.294 C 118.541 159.078,119.184 157.902,120.437 154.485 C 122.477 148.921,122.786 148.354,124.293 147.400 C 125.143 146.862,125.845 145.879,126.438 144.400 C 127.961 140.597,129.655 137.868,131.777 135.800 C 133.275 134.340,134.071 133.132,134.727 131.325 C 135.599 128.922,137.407 126.800,138.583 126.800 C 138.870 126.800,139.761 125.471,140.564 123.846 C 141.923 121.097,144.142 118.800,145.441 118.800 C 145.660 118.800,146.080 118.134,146.375 117.319 C 146.909 115.842,149.473 113.031,158.200 104.351 C 167.872 94.733,169.528 93.254,171.176 92.760 C 173.289 92.127,173.694 91.598,174.938 87.842 L 175.984 84.685 174.561 82.746 C 173.778 81.680,172.559 80.533,171.851 80.198 C 166.543 77.679,166.704 57.866,172.062 54.220 C 172.897 53.652,173.928 52.273,174.804 50.555 C 176.187 47.840,176.259 47.775,179.678 46.089 C 182.204 44.844,183.374 44.013,183.978 43.036 C 185.838 40.027,198.407 38.762,203.209 41.102 M231.346 46.029 C 231.926 46.485,232.386 47.070,232.368 47.329 C 232.348 47.628,232.259 47.606,232.124 47.267 C 232.007 46.974,231.346 46.390,230.656 45.969 C 229.965 45.548,229.601 45.202,229.846 45.201 C 230.091 45.201,230.766 45.573,231.346 46.029 M225.477 84.700 C 225.383 84.865,224.997 85.664,224.619 86.477 C 223.918 87.981,222.910 88.860,221.300 89.369 C 219.937 89.800,220.167 88.735,221.614 87.912 C 222.279 87.533,223.133 86.683,223.512 86.022 C 223.890 85.362,224.470 84.747,224.800 84.657 C 225.130 84.567,225.456 84.472,225.524 84.446 C 225.592 84.421,225.570 84.535,225.477 84.700 M259.171 107.454 C 259.627 108.034,259.993 108.799,259.984 109.154 C 259.976 109.509,259.722 109.233,259.421 108.540 C 259.119 107.847,258.541 107.088,258.136 106.852 C 257.731 106.617,257.612 106.419,257.871 106.412 C 258.130 106.405,258.715 106.874,259.171 107.454 M211.559 112.747 C 210.882 114.687,207.595 117.367,206.863 116.575 C 206.718 116.418,206.780 116.224,207.000 116.144 C 208.439 115.615,209.963 114.287,210.551 113.047 C 211.369 111.323,212.134 111.095,211.559 112.747 M265.490 115.568 C 265.991 116.311,266.393 117.387,266.384 117.959 C 266.370 118.931,266.329 118.907,265.763 117.603 C 264.940 115.705,263.745 114.510,262.141 113.981 C 261.404 113.737,260.800 113.375,260.800 113.176 C 260.800 112.323,264.614 114.268,265.490 115.568 M131.200 113.869 C 129.267 114.703,128.409 115.533,127.552 117.400 C 126.925 118.766,126.817 118.854,126.810 118.000 C 126.794 115.741,129.463 113.199,131.800 113.248 C 132.353 113.260,132.168 113.452,131.200 113.869 M131.600 115.725 C 131.600 115.794,131.015 116.379,130.300 117.025 L 129.000 118.200 130.175 116.900 C 131.270 115.688,131.600 115.416,131.600 115.725 M263.025 116.900 L 264.200 118.200 262.900 117.025 C 262.185 116.379,261.600 115.794,261.600 115.725 C 261.600 115.416,261.930 115.688,263.025 116.900 M205.008 135.327 C 204.652 136.076,203.912 136.894,203.362 137.145 C 201.806 137.854,201.756 137.685,203.228 136.693 C 204.050 136.139,204.726 135.256,204.964 134.425 C 205.179 133.676,205.422 133.267,205.505 133.514 C 205.587 133.761,205.364 134.577,205.008 135.327 M197.809 167.100 C 196.774 169.241,195.899 170.154,194.299 170.762 C 192.753 171.350,192.930 170.638,194.571 169.670 C 195.324 169.226,196.258 168.353,196.646 167.731 C 197.364 166.578,198.442 165.200,198.626 165.200 C 198.682 165.200,198.314 166.055,197.809 167.100 M203.407 168.466 C 202.801 168.942,202.064 169.887,201.769 170.566 C 201.473 171.245,201.224 171.566,201.216 171.280 C 201.191 170.451,202.336 168.477,203.100 168.032 C 204.347 167.306,204.538 167.576,203.407 168.466 M95.028 230.429 C 95.624 231.052,96.627 231.674,97.256 231.812 C 97.885 231.951,98.400 232.241,98.400 232.459 C 98.400 232.934,97.056 232.571,95.400 231.647 C 93.992 230.862,92.966 228.919,92.630 226.400 C 92.393 224.624,92.400 224.632,93.167 226.949 C 93.594 228.240,94.432 229.807,95.028 230.429 M96.603 228.799 L 97.800 230.197 96.663 229.199 C 96.038 228.649,95.341 227.840,95.114 227.400 C 94.680 226.558,94.707 226.582,96.603 228.799 M292.678 259.034 C 292.060 259.565,291.340 259.999,291.078 259.999 C 290.815 259.998,291.185 259.640,291.900 259.204 C 292.615 258.768,293.200 258.199,293.200 257.939 C 293.200 257.679,293.335 257.602,293.500 257.767 C 293.665 257.933,293.295 258.503,292.678 259.034 M110.612 271.887 C 112.586 273.006,112.129 273.086,109.992 271.996 C 109.126 271.554,108.143 270.663,107.808 270.016 C 106.912 268.283,107.068 268.087,108.112 269.635 C 108.613 270.379,109.738 271.393,110.612 271.887 M299.231 290.369 C 299.874 291.012,300.394 291.777,300.386 292.069 C 300.378 292.361,300.126 292.157,299.827 291.616 C 299.527 291.074,298.681 290.309,297.947 289.916 C 297.077 289.449,296.865 289.200,297.337 289.200 C 297.736 289.200,298.588 289.726,299.231 290.369 M98.400 292.951 C 98.400 294.189,97.519 294.890,96.166 294.729 L 95.083 294.600 96.302 293.300 C 97.748 291.758,98.400 291.650,98.400 292.951 M74.232 317.114 C 73.589 317.504,72.823 318.448,72.528 319.212 C 72.034 320.493,72.011 320.507,72.226 319.400 C 72.497 318.005,73.860 316.399,74.770 316.402 C 75.143 316.403,74.924 316.693,74.232 317.114 " stroke="none" fill="#454545" fill-rule="evenodd"></path><path id="path1" d="M192.000 46.244 C 191.230 46.578,189.610 47.086,188.400 47.374 C 187.190 47.662,185.363 48.347,184.341 48.895 C 183.318 49.444,181.932 50.085,181.260 50.319 C 180.329 50.644,179.738 51.344,178.769 53.272 C 178.070 54.663,177.188 56.250,176.808 56.800 C 176.428 57.350,176.002 58.274,175.862 58.854 C 175.722 59.434,174.976 60.847,174.204 61.994 C 172.202 64.968,172.092 70.364,173.984 72.723 C 174.635 73.536,175.452 75.006,175.799 75.992 C 176.495 77.970,178.733 81.505,180.529 83.465 L 181.688 84.729 180.657 86.665 C 180.089 87.729,179.251 89.624,178.793 90.876 C 177.891 93.343,175.942 95.405,174.093 95.853 C 172.414 96.258,170.925 97.468,169.934 99.232 C 169.418 100.150,168.255 101.313,167.209 101.956 C 166.205 102.574,164.848 103.750,164.192 104.570 C 162.681 106.460,160.864 108.279,159.007 109.760 C 158.207 110.398,156.996 111.770,156.316 112.809 C 155.636 113.849,154.521 115.018,153.839 115.407 C 151.841 116.549,150.751 117.691,149.994 119.435 C 149.604 120.334,148.719 121.504,148.028 122.035 C 145.054 124.319,144.000 125.318,144.000 125.855 C 144.000 127.287,141.939 130.411,140.417 131.287 C 139.155 132.013,138.671 132.643,138.022 134.399 C 136.915 137.394,134.230 141.512,133.027 142.061 C 132.007 142.525,130.590 145.046,129.358 148.589 C 128.972 149.698,127.908 151.388,126.953 152.409 C 125.342 154.131,122.800 159.367,122.800 160.962 C 122.800 162.202,121.278 165.561,119.676 167.860 C 117.835 170.500,117.353 172.106,115.554 181.600 C 114.864 185.241,113.678 189.904,112.908 192.000 C 110.743 197.901,110.545 216.419,112.595 221.325 C 113.561 223.638,114.672 228.809,115.620 235.400 C 116.734 243.154,118.074 248.216,119.369 249.568 C 120.622 250.875,122.539 255.077,123.401 258.405 C 124.251 261.686,124.915 262.942,126.328 263.948 C 127.493 264.778,129.397 267.941,131.225 272.082 C 132.024 273.891,132.652 274.659,134.068 275.557 C 135.718 276.604,137.600 279.324,137.600 280.664 C 137.600 281.455,139.049 282.376,142.013 283.468 C 145.383 284.709,145.736 284.723,157.400 284.044 C 161.580 283.801,174.090 283.599,185.200 283.596 C 199.713 283.592,207.258 283.424,212.000 283.000 C 221.822 282.122,235.620 282.379,244.391 283.603 C 247.235 284.000,247.598 283.958,251.000 282.844 L 254.600 281.665 255.192 279.764 C 255.829 277.717,257.464 275.789,259.444 274.753 C 260.622 274.137,262.413 271.025,264.527 265.924 C 264.905 265.013,265.756 264.059,266.751 263.431 C 267.933 262.685,268.472 262.010,268.769 260.906 C 271.691 250.039,271.758 249.861,273.411 248.483 C 275.360 246.860,276.826 238.695,278.416 220.600 C 278.648 217.960,278.999 214.360,279.197 212.600 C 279.672 208.373,279.692 200.922,279.234 198.520 C 279.033 197.464,278.666 194.980,278.418 193.000 C 276.947 181.256,275.165 172.084,273.981 170.169 C 272.839 168.322,271.010 163.742,270.403 161.211 C 269.621 157.953,268.222 155.061,266.069 152.252 C 264.813 150.614,263.909 148.901,263.466 147.322 C 262.794 144.927,260.773 141.600,259.989 141.600 C 259.385 141.600,255.877 136.051,255.216 134.050 C 254.815 132.834,254.214 132.037,253.221 131.403 C 251.172 130.095,250.113 128.820,249.403 126.808 C 248.761 124.990,247.764 123.600,247.100 123.600 C 246.151 123.600,244.284 121.743,243.345 119.865 C 241.514 116.205,241.104 115.938,238.628 116.790 C 233.850 118.434,232.991 119.797,231.398 128.260 C 230.642 132.278,229.577 135.429,228.063 138.134 C 226.342 141.209,224.969 147.991,224.204 157.200 C 223.860 161.335,222.581 169.475,221.595 173.800 C 220.064 180.521,219.200 190.871,219.200 202.506 C 219.200 213.174,218.639 213.490,199.400 213.635 C 172.950 213.836,173.623 214.519,174.174 188.000 C 174.668 164.232,175.923 153.382,178.643 149.375 C 179.514 148.091,179.819 146.862,180.460 142.052 C 181.921 131.083,183.331 125.562,185.580 122.005 C 186.245 120.951,187.426 117.702,188.416 114.200 C 190.209 107.854,190.960 106.022,192.535 104.150 C 193.607 102.876,195.253 99.197,196.002 96.402 C 196.631 94.055,197.697 91.996,198.801 91.000 C 199.816 90.084,201.620 86.662,202.859 83.301 C 203.410 81.806,204.296 80.440,205.387 79.400 C 206.311 78.520,207.275 77.193,207.530 76.451 C 208.263 74.313,211.649 68.819,212.775 67.940 C 216.145 65.308,215.960 59.019,212.425 56.084 C 211.384 55.218,210.323 53.826,209.785 52.619 C 208.613 49.987,207.440 48.947,205.038 48.408 C 203.959 48.167,202.249 47.629,201.238 47.213 C 200.227 46.797,198.320 46.344,197.000 46.205 C 195.680 46.066,194.330 45.882,194.000 45.795 C 193.670 45.709,192.770 45.911,192.000 46.244 M178.800 299.248 C 154.563 299.574,129.696 300.233,127.800 300.601 C 127.140 300.729,125.575 301.013,124.322 301.232 C 123.069 301.452,120.722 302.242,119.106 302.989 C 117.491 303.736,114.106 304.830,111.584 305.422 C 103.793 307.249,103.948 307.182,102.520 309.370 C 101.812 310.454,100.461 311.824,99.517 312.416 C 97.158 313.894,96.391 314.853,95.951 316.871 C 95.569 318.622,93.274 324.632,92.008 327.200 C 90.528 330.199,89.788 348.537,91.100 349.693 C 92.877 351.259,105.866 351.354,298.518 351.202 C 304.018 351.198,304.426 349.596,303.002 333.600 C 302.266 325.337,301.947 324.023,300.019 321.330 C 299.163 320.135,298.232 318.258,297.951 317.158 C 297.431 315.130,295.755 313.014,293.429 311.448 C 292.814 311.034,291.957 310.095,291.524 309.361 C 290.533 307.681,288.716 306.563,286.400 306.209 C 283.146 305.712,277.637 304.076,274.963 302.812 C 269.986 300.461,268.089 300.325,224.800 299.229 C 216.330 299.014,207.510 298.864,205.200 298.895 C 202.890 298.925,191.010 299.085,178.800 299.248 " stroke="none" fill="#f9f9f9" fill-rule="evenodd"></path><path id="path2" d="M188.800 40.417 C 185.955 41.006,184.868 41.596,183.978 43.036 C 183.374 44.013,182.204 44.844,179.678 46.089 C 176.259 47.775,176.187 47.840,174.804 50.555 C 173.928 52.273,172.897 53.652,172.062 54.220 C 166.704 57.866,166.543 77.679,171.851 80.198 C 172.559 80.533,173.778 81.680,174.561 82.746 L 175.984 84.685 174.938 87.842 C 173.694 91.598,173.289 92.127,171.176 92.760 C 169.528 93.254,167.872 94.733,158.200 104.351 C 149.473 113.031,146.909 115.842,146.375 117.319 C 146.080 118.134,145.660 118.800,145.441 118.800 C 144.142 118.800,141.923 121.097,140.564 123.846 C 139.761 125.471,138.870 126.800,138.583 126.800 C 137.407 126.800,135.599 128.922,134.727 131.325 C 134.071 133.132,133.275 134.340,131.777 135.800 C 129.655 137.868,127.961 140.597,126.438 144.400 C 125.845 145.879,125.143 146.862,124.293 147.400 C 122.786 148.354,122.477 148.921,120.437 154.485 C 119.184 157.902,118.541 159.078,117.263 160.294 C 116.382 161.132,115.540 162.354,115.392 163.009 C 113.634 170.803,111.911 176.150,110.801 177.260 C 107.585 180.477,105.704 207.250,107.504 224.200 C 107.761 226.620,108.080 229.860,108.213 231.400 C 108.644 236.390,109.566 239.106,111.231 240.297 C 111.687 240.622,112.361 242.617,113.192 246.097 C 115.452 255.559,115.849 256.641,117.570 258.024 C 118.725 258.952,119.285 259.829,119.811 261.531 C 120.863 264.936,122.996 268.841,124.691 270.462 C 126.209 271.913,126.859 272.987,128.356 276.516 C 129.026 278.094,129.483 278.570,130.951 279.219 C 132.419 279.869,132.973 280.447,134.101 282.504 C 135.347 284.777,135.738 285.142,138.477 286.587 C 140.193 287.492,141.742 288.621,142.081 289.213 C 142.905 290.648,145.120 291.599,147.660 291.607 C 153.415 291.626,162.837 293.696,161.817 294.717 C 161.110 295.423,145.481 296.634,141.400 296.299 C 128.897 295.270,109.854 297.969,108.489 300.964 C 108.160 301.686,107.251 302.181,104.728 303.011 C 101.823 303.967,101.084 304.417,98.914 306.553 C 97.547 307.899,95.729 309.648,94.874 310.441 C 94.019 311.233,92.912 312.781,92.415 313.880 C 91.903 315.014,91.032 316.163,90.404 316.534 C 88.165 317.856,87.302 321.445,86.393 333.200 C 85.355 346.630,86.024 352.393,88.868 354.512 C 90.800 355.952,95.969 356.017,200.200 355.908 L 302.600 355.800 304.409 354.908 C 307.989 353.144,308.651 349.035,307.611 335.020 C 306.685 322.535,305.405 317.234,302.709 314.715 C 302.058 314.107,301.047 312.906,300.463 312.045 C 297.373 307.499,293.416 304.319,288.922 302.773 C 287.538 302.297,286.162 301.439,285.212 300.460 C 283.368 298.560,282.558 298.352,271.600 296.958 C 264.383 296.041,262.417 295.939,255.200 296.111 C 249.517 296.246,245.526 296.133,242.200 295.741 C 235.290 294.928,235.666 295.077,235.523 293.102 L 235.400 291.408 224.800 291.535 C 216.816 291.630,212.621 291.493,207.800 290.977 C 204.280 290.600,199.479 290.324,197.132 290.364 C 194.784 290.403,189.744 290.158,185.932 289.819 C 182.119 289.479,177.200 289.246,175.000 289.301 C 171.912 289.377,170.732 289.252,169.823 288.749 C 168.002 287.740,218.254 286.932,230.878 287.767 L 235.556 288.076 235.678 289.538 L 235.800 291.000 242.137 291.110 L 248.473 291.221 250.009 289.685 C 250.854 288.840,252.908 287.475,254.573 286.652 C 257.171 285.368,257.828 284.820,259.214 282.779 C 260.217 281.302,261.402 280.109,262.341 279.630 C 264.253 278.655,264.552 278.282,265.579 275.595 C 266.506 273.170,267.258 272.149,268.889 271.098 C 269.917 270.436,271.676 267.171,273.621 262.317 C 274.036 261.281,275.012 259.841,275.791 259.117 C 277.078 257.920,277.391 257.146,279.237 250.600 C 280.617 245.706,281.560 243.080,282.181 242.400 C 283.620 240.824,284.374 237.911,285.202 230.725 C 287.102 214.236,287.234 200.844,285.617 188.695 C 284.267 178.553,283.867 176.969,282.216 175.200 C 281.625 174.567,280.743 172.365,279.814 169.200 C 277.677 161.924,277.270 160.931,275.775 159.346 C 274.991 158.514,273.893 156.547,273.159 154.657 C 270.847 148.704,270.657 148.340,269.198 147.066 C 268.219 146.212,266.997 144.259,265.441 141.063 C 263.767 137.623,262.824 136.147,261.999 135.674 C 260.772 134.969,258.801 132.227,258.799 131.220 C 258.795 129.964,257.229 128.085,255.479 127.238 C 253.962 126.504,253.544 126.033,252.813 124.233 C 251.887 121.950,250.570 120.480,248.532 119.452 C 247.661 119.013,246.963 118.153,246.299 116.704 C 245.646 115.278,244.549 113.915,242.912 112.497 L 240.491 110.400 237.193 110.400 L 233.895 110.400 232.196 112.100 C 230.803 113.494,230.411 114.232,230.017 116.200 C 229.076 120.904,227.220 126.069,226.176 126.890 C 224.720 128.036,224.176 129.364,223.430 133.600 C 221.625 143.842,220.357 149.787,219.853 150.363 C 217.463 153.098,216.720 158.524,215.401 182.899 C 215.070 189.003,214.800 196.940,214.800 200.537 C 214.800 207.824,214.730 208.026,212.000 208.611 C 208.335 209.397,184.857 209.071,182.071 208.196 L 179.400 207.356 179.464 202.578 C 179.514 198.847,179.709 197.318,180.352 195.600 C 181.153 193.461,181.646 188.529,183.631 162.800 C 184.383 153.051,185.902 144.070,187.180 141.821 C 188.578 139.360,188.983 137.873,189.799 132.200 C 190.751 125.586,192.670 118.034,193.821 116.371 C 194.753 115.024,197.600 107.365,197.600 106.204 C 197.600 104.925,200.108 99.260,201.207 98.056 C 202.591 96.542,203.373 95.113,203.756 93.400 C 204.420 90.435,206.642 86.107,208.607 83.955 C 210.028 82.398,210.873 81.020,211.364 79.459 C 212.060 77.247,213.247 75.700,215.333 74.286 C 215.913 73.894,217.287 71.903,218.387 69.862 C 219.487 67.821,220.829 65.736,221.369 65.229 L 222.351 64.307 221.334 62.695 C 220.775 61.809,219.966 59.805,219.536 58.242 C 218.287 53.694,211.704 45.976,208.081 44.812 C 206.970 44.455,206.125 43.857,205.690 43.121 C 204.149 40.512,195.236 39.085,188.800 40.417 M201.824 43.391 C 202.531 43.930,204.479 45.022,206.153 45.816 C 208.311 46.840,209.635 47.787,210.699 49.067 C 211.524 50.061,213.133 51.922,214.272 53.203 C 216.901 56.158,217.324 57.027,218.192 61.243 L 218.901 64.687 217.225 67.557 C 216.303 69.135,214.609 71.480,213.460 72.768 C 212.312 74.055,210.810 76.260,210.124 77.668 C 209.437 79.076,208.125 81.122,207.209 82.214 C 206.247 83.360,204.682 86.145,203.508 88.800 C 202.389 91.330,200.907 94.225,200.213 95.234 C 199.520 96.243,198.004 99.483,196.846 102.434 C 195.688 105.385,194.130 109.060,193.385 110.600 C 191.932 113.600,189.275 122.272,187.966 128.283 C 187.525 130.309,186.715 133.279,186.166 134.883 C 184.418 139.992,182.401 151.409,180.986 164.200 C 180.840 165.520,180.385 168.220,179.974 170.200 C 178.849 175.626,177.200 195.537,177.200 203.691 C 177.200 210.311,179.028 210.949,197.600 210.811 C 213.467 210.693,213.742 210.661,215.306 208.727 L 216.496 207.254 216.629 198.727 C 216.877 182.746,218.361 165.278,219.822 161.137 C 220.148 160.215,221.042 156.027,221.809 151.830 C 224.306 138.177,225.381 133.878,227.021 131.000 C 227.522 130.120,228.864 126.460,230.002 122.866 C 232.622 114.595,232.968 114.161,237.454 113.540 C 241.253 113.013,242.524 113.622,244.403 116.871 C 244.951 117.820,246.590 119.767,248.045 121.198 C 249.499 122.629,251.154 124.625,251.723 125.634 C 252.291 126.643,253.582 128.144,254.591 128.972 C 255.696 129.877,256.890 131.394,257.592 132.785 C 258.233 134.055,259.762 136.333,260.988 137.847 C 262.215 139.361,264.067 142.282,265.104 144.339 C 266.141 146.395,267.562 148.746,268.262 149.564 C 268.962 150.381,270.471 153.289,271.617 156.025 C 272.762 158.761,274.298 161.990,275.030 163.200 C 275.812 164.492,277.125 167.942,278.212 171.558 C 279.230 174.946,280.599 179.169,281.253 180.944 C 285.771 193.197,285.548 222.435,280.821 237.600 C 279.964 240.350,278.612 244.850,277.817 247.600 C 277.022 250.350,275.934 253.410,275.398 254.400 C 274.863 255.390,273.192 258.720,271.684 261.800 C 270.150 264.936,268.202 268.254,267.256 269.342 C 266.328 270.411,265.041 272.331,264.395 273.609 C 263.671 275.044,262.453 276.582,261.214 277.627 C 260.110 278.558,258.671 280.155,258.016 281.175 C 256.527 283.496,255.323 284.390,251.573 285.962 C 249.938 286.648,248.366 287.358,248.080 287.540 C 247.786 287.728,245.956 287.569,243.880 287.176 C 234.800 285.458,225.853 285.229,193.800 285.891 C 159.558 286.599,158.153 286.685,147.400 288.727 C 145.984 288.995,145.591 288.882,143.980 287.735 C 142.980 287.023,141.270 286.059,140.180 285.593 C 137.769 284.562,136.706 283.613,135.010 280.976 C 134.293 279.863,132.954 278.356,132.034 277.627 C 130.963 276.779,129.872 275.331,129.002 273.605 C 128.256 272.122,126.555 269.462,125.223 267.695 C 123.638 265.592,122.269 263.157,121.258 260.645 C 120.409 258.534,119.247 256.131,118.676 255.304 C 116.996 252.871,116.174 250.617,114.189 243.000 C 113.158 239.040,112.078 235.343,111.791 234.785 C 107.626 226.706,107.484 192.942,111.572 182.733 C 112.227 181.098,113.414 177.356,114.210 174.419 C 116.025 167.720,117.018 165.029,118.425 163.000 C 119.035 162.120,120.488 159.094,121.654 156.276 C 122.961 153.113,124.286 150.586,125.114 149.676 C 125.851 148.864,127.238 146.580,128.195 144.600 C 129.172 142.580,130.884 139.908,132.096 138.512 C 133.285 137.144,134.947 134.684,135.789 133.046 C 136.730 131.218,137.956 129.537,138.965 128.694 C 139.869 127.939,141.124 126.301,141.754 125.056 C 142.448 123.685,143.680 122.138,144.874 121.138 C 145.960 120.229,147.556 118.443,148.420 117.170 C 149.285 115.897,150.781 114.289,151.745 113.596 C 152.709 112.904,153.712 111.937,153.974 111.448 C 154.382 110.686,162.745 102.315,166.248 99.163 C 166.881 98.592,167.988 97.469,168.707 96.666 C 169.427 95.863,170.867 94.771,171.907 94.238 C 174.730 92.795,175.418 91.950,176.560 88.520 C 177.989 84.231,177.938 84.073,173.429 78.790 C 169.715 74.440,168.666 64.880,171.323 59.600 C 173.849 54.580,178.347 48.600,180.169 47.839 C 180.861 47.549,182.772 46.503,184.414 45.512 C 190.197 42.026,191.636 41.630,196.859 42.088 C 199.839 42.349,200.783 42.597,201.824 43.391 M230.656 45.969 C 231.346 46.390,232.007 46.974,232.124 47.267 C 232.259 47.606,232.348 47.628,232.368 47.329 C 232.405 46.791,230.518 45.199,229.846 45.201 C 229.601 45.202,229.965 45.548,230.656 45.969 M152.946 67.400 C 152.947 69.600,153.014 70.449,153.095 69.287 C 153.176 68.124,153.176 66.324,153.093 65.287 C 153.011 64.249,152.945 65.200,152.946 67.400 M224.800 84.657 C 224.470 84.747,223.890 85.362,223.512 86.022 C 223.133 86.683,222.279 87.533,221.614 87.912 C 220.167 88.735,219.937 89.800,221.300 89.369 C 222.910 88.860,223.918 87.981,224.619 86.477 C 224.997 85.664,225.383 84.865,225.477 84.700 C 225.570 84.535,225.592 84.421,225.524 84.446 C 225.456 84.472,225.130 84.567,224.800 84.657 M258.136 106.852 C 258.541 107.088,259.119 107.847,259.421 108.540 C 259.722 109.233,259.976 109.509,259.984 109.154 C 260.004 108.344,258.502 106.396,257.871 106.412 C 257.612 106.419,257.731 106.617,258.136 106.852 M210.551 113.047 C 209.963 114.287,208.439 115.615,207.000 116.144 C 206.780 116.224,206.718 116.418,206.863 116.575 C 207.595 117.367,210.882 114.687,211.559 112.747 C 212.134 111.095,211.369 111.323,210.551 113.047 M260.800 113.176 C 260.800 113.375,261.404 113.737,262.141 113.981 C 263.745 114.510,264.940 115.705,265.763 117.603 C 266.329 118.907,266.370 118.931,266.384 117.959 C 266.410 116.238,264.797 114.298,262.690 113.516 C 261.651 113.130,260.800 112.977,260.800 113.176 M129.708 113.793 C 128.237 114.433,126.799 116.519,126.810 118.000 C 126.817 118.854,126.925 118.766,127.552 117.400 C 128.409 115.533,129.267 114.703,131.200 113.869 C 132.168 113.452,132.353 113.260,131.800 113.248 C 131.360 113.239,130.419 113.484,129.708 113.793 M130.175 116.900 L 129.000 118.200 130.300 117.025 C 131.512 115.930,131.784 115.600,131.475 115.600 C 131.406 115.600,130.821 116.185,130.175 116.900 M261.600 115.725 C 261.600 115.794,262.185 116.379,262.900 117.025 L 264.200 118.200 263.025 116.900 C 261.930 115.688,261.600 115.416,261.600 115.725 M204.964 134.425 C 204.726 135.256,204.050 136.139,203.228 136.693 C 201.756 137.685,201.806 137.854,203.362 137.145 C 204.384 136.679,205.774 134.323,205.505 133.514 C 205.422 133.267,205.179 133.676,204.964 134.425 M197.937 165.900 C 197.614 166.285,197.033 167.109,196.646 167.731 C 196.258 168.353,195.324 169.226,194.571 169.670 C 192.930 170.638,192.753 171.350,194.299 170.762 C 195.899 170.154,196.774 169.241,197.809 167.100 C 198.809 165.032,198.830 164.835,197.937 165.900 M203.100 168.032 C 202.336 168.477,201.191 170.451,201.216 171.280 C 201.224 171.566,201.473 171.245,201.769 170.566 C 202.064 169.887,202.801 168.942,203.407 168.466 C 204.538 167.576,204.347 167.306,203.100 168.032 M301.293 222.800 C 301.293 223.570,301.375 223.885,301.476 223.500 C 301.576 223.115,301.576 222.485,301.476 222.100 C 301.375 221.715,301.293 222.030,301.293 222.800 M92.630 226.400 C 92.966 228.919,93.992 230.862,95.400 231.647 C 97.056 232.571,98.400 232.934,98.400 232.459 C 98.400 232.241,97.885 231.951,97.256 231.812 C 95.584 231.445,94.051 229.621,93.167 226.949 C 92.400 224.632,92.393 224.624,92.630 226.400 M95.114 227.400 C 95.341 227.840,96.038 228.649,96.663 229.199 L 97.800 230.197 96.603 228.799 C 94.707 226.582,94.680 226.558,95.114 227.400 M293.200 257.939 C 293.200 258.199,292.615 258.768,291.900 259.204 C 291.185 259.640,290.815 259.998,291.078 259.999 C 291.796 260.001,293.845 258.113,293.500 257.767 C 293.335 257.602,293.200 257.679,293.200 257.939 M107.200 268.561 C 107.200 269.526,108.651 271.312,109.992 271.996 C 112.129 273.086,112.586 273.006,110.612 271.887 C 109.738 271.393,108.613 270.379,108.112 269.635 C 107.610 268.891,107.200 268.407,107.200 268.561 M297.947 289.916 C 298.681 290.309,299.527 291.074,299.827 291.616 C 300.126 292.157,300.378 292.361,300.386 292.069 C 300.407 291.293,298.182 289.200,297.337 289.200 C 296.865 289.200,297.077 289.449,297.947 289.916 M96.302 293.300 L 95.083 294.600 96.166 294.729 C 97.519 294.890,98.400 294.189,98.400 292.951 C 98.400 291.650,97.748 291.758,96.302 293.300 M220.600 296.007 C 226.980 296.236,234.180 296.618,236.600 296.856 C 239.020 297.095,246.850 297.431,254.000 297.605 C 270.305 298.001,278.869 299.242,282.555 301.743 C 283.302 302.251,285.328 303.167,287.057 303.779 C 291.709 305.428,297.671 310.516,300.203 315.000 C 300.825 316.100,301.642 317.360,302.020 317.800 C 304.056 320.172,304.943 324.065,305.805 334.400 C 306.988 348.580,306.534 351.469,302.818 353.391 C 300.787 354.441,92.264 354.115,90.707 353.059 C 87.696 351.016,87.220 348.113,87.965 336.342 C 88.547 327.165,89.355 322.439,90.641 320.697 C 91.168 319.983,92.236 318.069,93.015 316.443 C 95.292 311.691,101.793 305.562,106.000 304.201 C 107.210 303.810,109.820 302.704,111.800 301.744 C 117.949 298.763,124.272 297.876,139.802 297.816 C 146.623 297.790,152.383 297.658,152.602 297.523 C 153.421 297.018,168.750 296.305,184.800 296.024 C 193.930 295.864,203.110 295.701,205.200 295.662 C 207.290 295.623,214.220 295.778,220.600 296.007 M73.299 317.300 C 72.837 317.795,72.354 318.740,72.226 319.400 C 72.011 320.507,72.034 320.493,72.528 319.212 C 72.823 318.448,73.589 317.504,74.232 317.114 C 74.924 316.693,75.143 316.403,74.770 316.402 C 74.423 316.401,73.761 316.805,73.299 317.300 M71.348 332.800 C 71.348 335.110,71.414 336.055,71.495 334.900 C 71.576 333.745,71.576 331.855,71.495 330.700 C 71.414 329.545,71.348 330.490,71.348 332.800 M71.293 360.000 C 71.293 360.770,71.375 361.085,71.476 360.700 C 71.576 360.315,71.576 359.685,71.476 359.300 C 71.375 358.915,71.293 359.230,71.293 360.000 M307.905 369.483 C 308.402 369.579,309.122 369.575,309.505 369.475 C 309.887 369.375,309.480 369.296,308.600 369.301 C 307.720 369.305,307.407 369.387,307.905 369.483 " stroke="none" fill="#848484" fill-rule="evenodd"></path><path id="path3" d="M191.169 42.280 C 188.879 42.866,188.513 43.041,184.414 45.512 C 182.772 46.503,180.861 47.549,180.169 47.839 C 178.347 48.600,173.849 54.580,171.323 59.600 C 168.666 64.880,169.715 74.440,173.429 78.790 C 177.938 84.073,177.989 84.231,176.560 88.520 C 175.418 91.950,174.730 92.795,171.907 94.238 C 170.867 94.771,169.427 95.863,168.707 96.666 C 167.988 97.469,166.881 98.592,166.248 99.163 C 162.745 102.315,154.382 110.686,153.974 111.448 C 153.712 111.937,152.709 112.904,151.745 113.596 C 150.781 114.289,149.285 115.897,148.420 117.170 C 147.556 118.443,145.960 120.229,144.874 121.138 C 143.680 122.138,142.448 123.685,141.754 125.056 C 141.124 126.301,139.869 127.939,138.965 128.694 C 137.956 129.537,136.730 131.218,135.789 133.046 C 134.947 134.684,133.285 137.144,132.096 138.512 C 130.884 139.908,129.172 142.580,128.195 144.600 C 127.238 146.580,125.851 148.864,125.114 149.676 C 124.286 150.586,122.961 153.113,121.654 156.276 C 120.488 159.094,119.035 162.120,118.425 163.000 C 117.018 165.029,116.025 167.720,114.210 174.419 C 113.414 177.356,112.227 181.098,111.572 182.733 C 107.484 192.942,107.626 226.706,111.791 234.785 C 112.078 235.343,113.158 239.040,114.189 243.000 C 116.174 250.617,116.996 252.871,118.676 255.304 C 119.247 256.131,120.409 258.534,121.258 260.645 C 122.269 263.157,123.638 265.592,125.223 267.695 C 126.555 269.462,128.256 272.122,129.002 273.605 C 129.872 275.331,130.963 276.779,132.034 277.627 C 132.954 278.356,134.293 279.863,135.010 280.976 C 136.706 283.613,137.769 284.562,140.180 285.593 C 141.270 286.059,142.980 287.023,143.980 287.735 C 145.591 288.882,145.984 288.995,147.400 288.727 C 158.153 286.685,159.558 286.599,193.800 285.891 C 225.853 285.229,234.800 285.458,243.880 287.176 C 245.956 287.569,247.786 287.728,248.080 287.540 C 248.366 287.358,249.938 286.648,251.573 285.962 C 255.323 284.390,256.527 283.496,258.016 281.175 C 258.671 280.155,260.110 278.558,261.214 277.627 C 262.453 276.582,263.671 275.044,264.395 273.609 C 265.041 272.331,266.328 270.411,267.256 269.342 C 268.202 268.254,270.150 264.936,271.684 261.800 C 273.192 258.720,274.863 255.390,275.398 254.400 C 275.934 253.410,277.022 250.350,277.817 247.600 C 278.612 244.850,279.964 240.350,280.821 237.600 C 285.548 222.435,285.771 193.197,281.253 180.944 C 280.599 179.169,279.230 174.946,278.212 171.558 C 277.125 167.942,275.812 164.492,275.030 163.200 C 274.298 161.990,272.762 158.761,271.617 156.025 C 270.471 153.289,268.962 150.381,268.262 149.564 C 267.562 148.746,266.141 146.395,265.104 144.339 C 264.067 142.282,262.215 139.361,260.988 137.847 C 259.762 136.333,258.233 134.055,257.592 132.785 C 256.890 131.394,255.696 129.877,254.591 128.972 C 253.582 128.144,252.291 126.643,251.723 125.634 C 251.154 124.625,249.499 122.629,248.045 121.198 C 246.590 119.767,244.951 117.820,244.403 116.871 C 242.524 113.622,241.253 113.013,237.454 113.540 C 232.968 114.161,232.622 114.595,230.002 122.866 C 228.864 126.460,227.522 130.120,227.021 131.000 C 225.381 133.878,224.306 138.177,221.809 151.830 C 221.042 156.027,220.148 160.215,219.822 161.137 C 218.361 165.278,216.877 182.746,216.629 198.727 L 216.496 207.254 215.306 208.727 C 213.742 210.661,213.467 210.693,197.600 210.811 C 179.028 210.949,177.200 210.311,177.200 203.691 C 177.200 195.537,178.849 175.626,179.974 170.200 C 180.385 168.220,180.840 165.520,180.986 164.200 C 182.401 151.409,184.418 139.992,186.166 134.883 C 186.715 133.279,187.525 130.309,187.966 128.283 C 189.275 122.272,191.932 113.600,193.385 110.600 C 194.130 109.060,195.688 105.385,196.846 102.434 C 198.004 99.483,199.520 96.243,200.213 95.234 C 200.907 94.225,202.389 91.330,203.508 88.800 C 204.682 86.145,206.247 83.360,207.209 82.214 C 208.125 81.122,209.437 79.076,210.124 77.668 C 210.810 76.260,212.312 74.055,213.460 72.768 C 214.609 71.480,216.303 69.135,217.225 67.557 L 218.901 64.687 218.192 61.243 C 217.324 57.027,216.901 56.158,214.272 53.203 C 213.133 51.922,211.524 50.061,210.699 49.067 C 209.635 47.787,208.311 46.840,206.153 45.816 C 204.479 45.022,202.531 43.930,201.824 43.391 C 200.134 42.102,194.258 41.489,191.169 42.280 M201.800 44.166 C 202.900 44.881,204.700 45.807,205.800 46.224 C 207.792 46.979,209.845 48.821,213.429 53.069 C 216.141 56.284,216.644 57.256,217.474 60.887 L 218.272 64.374 217.196 66.340 C 215.776 68.937,214.578 70.642,212.748 72.668 C 211.920 73.586,210.598 75.615,209.811 77.178 C 209.024 78.741,207.763 80.703,207.009 81.537 C 206.255 82.372,204.649 85.161,203.439 87.734 C 202.230 90.308,200.607 93.446,199.833 94.707 C 199.059 95.968,197.511 99.250,196.394 102.000 C 195.276 104.750,193.752 108.260,193.008 109.800 C 191.667 112.574,189.227 120.242,187.597 126.800 C 187.133 128.670,186.231 131.842,185.594 133.848 C 183.997 138.880,183.076 143.685,181.385 155.800 C 180.587 161.520,179.601 167.640,179.195 169.400 C 178.034 174.428,176.805 190.915,176.802 201.515 L 176.800 207.231 178.300 208.824 C 180.575 211.240,182.475 211.465,199.315 211.319 C 214.735 211.185,214.208 211.275,216.159 208.460 C 217.189 206.973,217.200 206.877,217.200 199.556 C 217.200 185.729,218.535 169.503,220.224 162.800 C 220.751 160.710,221.733 155.760,222.406 151.800 C 224.064 142.048,225.689 135.489,227.324 131.951 C 228.073 130.328,229.452 126.480,230.386 123.400 C 232.946 114.964,232.875 115.055,237.431 114.269 C 241.322 113.598,241.989 113.941,244.588 117.954 C 245.531 119.409,247.136 121.285,248.155 122.123 C 249.173 122.960,250.385 124.386,250.846 125.290 C 251.307 126.195,252.728 127.939,254.002 129.167 C 255.277 130.395,256.779 132.323,257.341 133.450 C 257.903 134.578,259.361 136.738,260.582 138.250 C 261.802 139.763,263.634 142.620,264.652 144.600 C 265.671 146.580,267.174 149.100,267.994 150.200 C 268.814 151.300,270.343 154.270,271.392 156.800 C 272.441 159.330,273.895 162.480,274.623 163.800 C 275.351 165.120,276.850 169.260,277.954 173.000 C 279.058 176.740,280.420 181.136,280.980 182.769 C 284.566 193.218,284.920 219.552,281.638 231.683 C 276.811 249.525,275.630 253.186,273.885 255.730 C 273.307 256.572,272.469 258.237,272.023 259.431 C 270.713 262.932,269.017 266.031,267.007 268.600 C 265.974 269.920,264.609 272.023,263.972 273.274 C 263.292 274.611,262.054 276.176,260.967 277.074 C 259.951 277.913,258.414 279.631,257.552 280.890 C 255.798 283.452,255.586 283.599,250.762 285.617 L 247.325 287.055 243.162 286.355 C 237.223 285.356,225.240 284.679,218.000 284.933 C 214.590 285.052,200.820 285.328,187.400 285.545 C 163.235 285.936,157.574 286.236,149.778 287.538 L 145.756 288.209 144.178 287.116 C 143.310 286.515,141.790 285.712,140.800 285.332 C 138.165 284.320,137.101 283.419,135.408 280.762 C 134.574 279.453,133.210 277.841,132.375 277.180 C 131.474 276.467,130.184 274.724,129.199 272.889 C 128.286 271.190,126.556 268.510,125.353 266.933 C 123.967 265.117,122.655 262.756,121.770 260.489 C 121.003 258.520,119.735 255.850,118.953 254.555 C 116.926 251.195,116.549 250.161,114.750 243.003 C 113.864 239.481,112.707 235.160,112.177 233.400 C 108.112 219.884,108.145 195.391,112.247 182.912 C 113.203 180.004,114.424 175.851,114.960 173.684 C 116.053 169.265,117.570 165.273,118.701 163.835 C 119.117 163.307,120.483 160.383,121.737 157.337 C 123.151 153.907,124.543 151.198,125.397 150.218 C 126.156 149.348,127.582 147.008,128.566 145.018 C 129.550 143.028,131.276 140.320,132.402 139.000 C 133.528 137.680,135.165 135.229,136.041 133.553 C 136.989 131.739,138.242 130.018,139.137 129.299 C 139.964 128.634,141.222 126.999,141.933 125.665 C 142.734 124.162,144.067 122.521,145.439 121.349 C 146.657 120.308,147.939 118.904,148.287 118.229 C 148.939 116.966,152.220 113.516,160.584 105.300 C 163.214 102.715,166.581 99.392,168.065 97.916 C 169.548 96.440,171.626 94.793,172.681 94.256 C 175.412 92.866,176.177 91.842,177.329 88.039 L 178.346 84.677 177.034 82.639 C 176.313 81.517,175.038 79.790,174.201 78.800 C 169.191 72.874,169.069 62.695,173.931 56.466 C 174.561 55.660,175.808 53.736,176.702 52.191 C 178.117 49.748,178.634 49.223,180.665 48.170 C 181.949 47.503,184.362 46.221,186.026 45.319 C 192.372 41.882,197.685 41.494,201.800 44.166 M184.800 296.024 C 168.750 296.305,153.421 297.018,152.602 297.523 C 152.383 297.658,146.623 297.790,139.802 297.816 C 124.272 297.876,117.949 298.763,111.800 301.744 C 109.820 302.704,107.210 303.810,106.000 304.201 C 101.793 305.562,95.292 311.691,93.015 316.443 C 92.236 318.069,91.168 319.983,90.641 320.697 C 89.355 322.439,88.547 327.165,87.965 336.342 C 87.220 348.113,87.696 351.016,90.707 353.059 C 92.264 354.115,300.787 354.441,302.818 353.391 C 306.534 351.469,306.988 348.580,305.805 334.400 C 304.943 324.065,304.056 320.172,302.020 317.800 C 301.642 317.360,300.825 316.100,300.203 315.000 C 297.671 310.516,291.709 305.428,287.057 303.779 C 285.328 303.167,283.302 302.251,282.555 301.743 C 278.869 299.242,270.305 298.001,254.000 297.605 C 246.850 297.431,239.020 297.095,236.600 296.856 C 231.438 296.349,210.686 295.559,205.200 295.662 C 203.110 295.701,193.930 295.864,184.800 296.024 M238.000 297.400 C 241.855 297.751,248.602 298.025,253.018 298.008 C 266.139 297.959,275.914 299.366,281.995 302.179 C 284.088 303.147,286.483 304.121,287.319 304.343 C 290.816 305.271,297.991 311.633,299.996 315.583 C 300.494 316.564,301.482 318.211,302.192 319.244 C 305.301 323.763,307.152 347.686,304.647 350.973 C 302.460 353.842,311.761 353.623,196.899 353.506 C 81.112 353.388,91.087 353.653,89.230 350.648 C 87.043 347.110,88.720 324.079,91.422 320.536 C 91.973 319.814,92.967 318.010,93.632 316.528 C 95.789 311.720,102.266 305.832,107.005 304.371 C 108.542 303.897,110.687 303.060,111.772 302.511 C 117.887 299.417,128.484 297.772,139.600 298.190 C 144.023 298.356,148.293 298.281,151.200 297.985 C 167.044 296.373,222.618 295.998,238.000 297.400 " stroke="none" fill="#949494" fill-rule="evenodd"></path><path id="path4" d="M190.826 43.041 C 189.851 43.392,187.691 44.418,186.026 45.319 C 184.362 46.221,181.949 47.503,180.665 48.170 C 178.634 49.223,178.117 49.748,176.702 52.191 C 175.808 53.736,174.561 55.660,173.931 56.466 C 169.069 62.695,169.191 72.874,174.201 78.800 C 175.038 79.790,176.313 81.517,177.034 82.639 L 178.346 84.677 177.329 88.039 C 176.177 91.842,175.412 92.866,172.681 94.256 C 171.626 94.793,169.548 96.440,168.065 97.916 C 166.581 99.392,163.214 102.715,160.584 105.300 C 152.220 113.516,148.939 116.966,148.287 118.229 C 147.939 118.904,146.657 120.308,145.439 121.349 C 144.067 122.521,142.734 124.162,141.933 125.665 C 141.222 126.999,139.964 128.634,139.137 129.299 C 138.242 130.018,136.989 131.739,136.041 133.553 C 135.165 135.229,133.528 137.680,132.402 139.000 C 131.276 140.320,129.550 143.028,128.566 145.018 C 127.582 147.008,126.156 149.348,125.397 150.218 C 124.543 151.198,123.151 153.907,121.737 157.337 C 120.483 160.383,119.117 163.307,118.701 163.835 C 117.570 165.273,116.053 169.265,114.960 173.684 C 114.424 175.851,113.203 180.004,112.247 182.912 C 108.145 195.391,108.112 219.884,112.177 233.400 C 112.707 235.160,113.864 239.481,114.750 243.003 C 116.549 250.161,116.926 251.195,118.953 254.555 C 119.735 255.850,121.003 258.520,121.770 260.489 C 122.655 262.756,123.967 265.117,125.353 266.933 C 126.556 268.510,128.286 271.190,129.199 272.889 C 130.184 274.724,131.474 276.467,132.375 277.180 C 133.210 277.841,134.574 279.453,135.408 280.762 C 137.101 283.419,138.165 284.320,140.800 285.332 C 141.790 285.712,143.310 286.515,144.178 287.116 L 145.756 288.209 149.778 287.538 C 157.574 286.236,163.235 285.936,187.400 285.545 C 200.820 285.328,214.590 285.052,218.000 284.933 C 225.240 284.679,237.223 285.356,243.162 286.355 L 247.325 287.055 250.762 285.617 C 255.586 283.599,255.798 283.452,257.552 280.890 C 258.414 279.631,259.951 277.913,260.967 277.074 C 262.054 276.176,263.292 274.611,263.972 273.274 C 264.609 272.023,265.974 269.920,267.007 268.600 C 269.017 266.031,270.713 262.932,272.023 259.431 C 272.469 258.237,273.307 256.572,273.885 255.730 C 275.630 253.186,276.811 249.525,281.638 231.683 C 284.920 219.552,284.566 193.218,280.980 182.769 C 280.420 181.136,279.058 176.740,277.954 173.000 C 276.850 169.260,275.351 165.120,274.623 163.800 C 273.895 162.480,272.441 159.330,271.392 156.800 C 270.343 154.270,268.814 151.300,267.994 150.200 C 267.174 149.100,265.671 146.580,264.652 144.600 C 263.634 142.620,261.802 139.763,260.582 138.250 C 259.361 136.738,257.903 134.578,257.341 133.450 C 256.779 132.323,255.277 130.395,254.002 129.167 C 252.728 127.939,251.307 126.195,250.846 125.290 C 250.385 124.386,249.173 122.960,248.155 122.123 C 247.136 121.285,245.531 119.409,244.588 117.954 C 241.989 113.941,241.322 113.598,237.431 114.269 C 232.875 115.055,232.946 114.964,230.386 123.400 C 229.452 126.480,228.073 130.328,227.324 131.951 C 225.689 135.489,224.064 142.048,222.406 151.800 C 221.733 155.760,220.751 160.710,220.224 162.800 C 218.535 169.503,217.200 185.729,217.200 199.556 C 217.200 206.877,217.189 206.973,216.159 208.460 C 214.208 211.275,214.735 211.185,199.315 211.319 C 182.475 211.465,180.575 211.240,178.300 208.824 L 176.800 207.231 176.802 201.515 C 176.805 190.915,178.034 174.428,179.195 169.400 C 179.601 167.640,180.587 161.520,181.385 155.800 C 183.076 143.685,183.997 138.880,185.594 133.848 C 186.231 131.842,187.133 128.670,187.597 126.800 C 189.227 120.242,191.667 112.574,193.008 109.800 C 193.752 108.260,195.276 104.750,196.394 102.000 C 197.511 99.250,199.059 95.968,199.833 94.707 C 200.607 93.446,202.230 90.308,203.439 87.734 C 204.649 85.161,206.255 82.372,207.009 81.537 C 207.763 80.703,209.024 78.741,209.811 77.178 C 210.598 75.615,211.920 73.586,212.748 72.668 C 214.578 70.642,215.776 68.937,217.196 66.340 L 218.272 64.374 217.474 60.887 C 216.644 57.256,216.141 56.284,213.429 53.069 C 209.845 48.821,207.792 46.979,205.800 46.224 C 204.700 45.807,202.900 44.881,201.800 44.166 C 199.258 42.515,193.830 41.959,190.826 43.041 M197.000 46.205 C 198.320 46.344,200.227 46.797,201.238 47.213 C 202.249 47.629,203.959 48.167,205.038 48.408 C 207.440 48.947,208.613 49.987,209.785 52.619 C 210.323 53.826,211.384 55.218,212.425 56.084 C 215.960 59.019,216.145 65.308,212.775 67.940 C 211.649 68.819,208.263 74.313,207.530 76.451 C 207.275 77.193,206.311 78.520,205.387 79.400 C 204.296 80.440,203.410 81.806,202.859 83.301 C 201.620 86.662,199.816 90.084,198.801 91.000 C 197.697 91.996,196.631 94.055,196.002 96.402 C 195.253 99.197,193.607 102.876,192.535 104.150 C 190.960 106.022,190.209 107.854,188.416 114.200 C 187.426 117.702,186.245 120.951,185.580 122.005 C 183.331 125.562,181.921 131.083,180.460 142.052 C 179.819 146.862,179.514 148.091,178.643 149.375 C 175.923 153.382,174.668 164.232,174.174 188.000 C 173.623 214.519,172.950 213.836,199.400 213.635 C 218.639 213.490,219.200 213.174,219.200 202.506 C 219.200 190.871,220.064 180.521,221.595 173.800 C 222.581 169.475,223.860 161.335,224.204 157.200 C 224.969 147.991,226.342 141.209,228.063 138.134 C 229.577 135.429,230.642 132.278,231.398 128.260 C 232.991 119.797,233.850 118.434,238.628 116.790 C 241.104 115.938,241.514 116.205,243.345 119.865 C 244.284 121.743,246.151 123.600,247.100 123.600 C 247.764 123.600,248.761 124.990,249.403 126.808 C 250.113 128.820,251.172 130.095,253.221 131.403 C 254.214 132.037,254.815 132.834,255.216 134.050 C 255.877 136.051,259.385 141.600,259.989 141.600 C 260.773 141.600,262.794 144.927,263.466 147.322 C 263.909 148.901,264.813 150.614,266.069 152.252 C 268.222 155.061,269.621 157.953,270.403 161.211 C 271.010 163.742,272.839 168.322,273.981 170.169 C 275.165 172.084,276.947 181.256,278.418 193.000 C 278.666 194.980,279.033 197.464,279.234 198.520 C 279.692 200.922,279.672 208.373,279.197 212.600 C 278.999 214.360,278.648 217.960,278.416 220.600 C 276.826 238.695,275.360 246.860,273.411 248.483 C 271.758 249.861,271.691 250.039,268.769 260.906 C 268.472 262.010,267.933 262.685,266.751 263.431 C 265.756 264.059,264.905 265.013,264.527 265.924 C 262.413 271.025,260.622 274.137,259.444 274.753 C 257.464 275.789,255.829 277.717,255.192 279.764 L 254.600 281.665 251.000 282.844 C 247.598 283.958,247.235 284.000,244.391 283.603 C 235.620 282.379,221.822 282.122,212.000 283.000 C 207.258 283.424,199.713 283.592,185.200 283.596 C 174.090 283.599,161.580 283.801,157.400 284.044 C 145.736 284.723,145.383 284.709,142.013 283.468 C 139.049 282.376,137.600 281.455,137.600 280.664 C 137.600 279.324,135.718 276.604,134.068 275.557 C 132.652 274.659,132.024 273.891,131.225 272.082 C 129.397 267.941,127.493 264.778,126.328 263.948 C 124.915 262.942,124.251 261.686,123.401 258.405 C 122.539 255.077,120.622 250.875,119.369 249.568 C 118.074 248.216,116.734 243.154,115.620 235.400 C 114.672 228.809,113.561 223.638,112.595 221.325 C 110.545 216.419,110.743 197.901,112.908 192.000 C 113.678 189.904,114.864 185.241,115.554 181.600 C 117.353 172.106,117.835 170.500,119.676 167.860 C 121.278 165.561,122.800 162.202,122.800 160.962 C 122.800 159.367,125.342 154.131,126.953 152.409 C 127.908 151.388,128.972 149.698,129.358 148.589 C 130.590 145.046,132.007 142.525,133.027 142.061 C 134.230 141.512,136.915 137.394,138.022 134.399 C 138.671 132.643,139.155 132.013,140.417 131.287 C 141.939 130.411,144.000 127.287,144.000 125.855 C 144.000 125.318,145.054 124.319,148.028 122.035 C 148.719 121.504,149.604 120.334,149.994 119.435 C 150.751 117.691,151.841 116.549,153.839 115.407 C 154.521 115.018,155.636 113.849,156.316 112.809 C 156.996 111.770,158.207 110.398,159.007 109.760 C 160.864 108.279,162.681 106.460,164.192 104.570 C 164.848 103.750,166.205 102.574,167.209 101.956 C 168.255 101.313,169.418 100.150,169.934 99.232 C 170.925 97.468,172.414 96.258,174.093 95.853 C 175.942 95.405,177.891 93.343,178.793 90.876 C 179.251 89.624,180.089 87.729,180.657 86.665 L 181.688 84.729 180.529 83.465 C 178.733 81.505,176.495 77.970,175.799 75.992 C 175.452 75.006,174.635 73.536,173.984 72.723 C 172.092 70.364,172.202 64.968,174.204 61.994 C 174.976 60.847,175.722 59.434,175.862 58.854 C 176.002 58.274,176.428 57.350,176.808 56.800 C 177.188 56.250,178.070 54.663,178.769 53.272 C 179.738 51.344,180.329 50.644,181.260 50.319 C 181.932 50.085,183.318 49.444,184.341 48.895 C 185.363 48.347,187.190 47.662,188.400 47.374 C 189.610 47.086,191.230 46.578,192.000 46.244 C 192.770 45.911,193.670 45.709,194.000 45.795 C 194.330 45.882,195.680 46.066,197.000 46.205 M167.600 296.986 C 161.110 297.278,153.730 297.727,151.200 297.985 C 148.293 298.281,144.023 298.356,139.600 298.190 C 128.484 297.772,117.887 299.417,111.772 302.511 C 110.687 303.060,108.542 303.897,107.005 304.371 C 102.266 305.832,95.789 311.720,93.632 316.528 C 92.967 318.010,91.973 319.814,91.422 320.536 C 88.720 324.079,87.043 347.110,89.230 350.648 C 91.087 353.653,81.112 353.388,196.899 353.506 C 311.761 353.623,302.460 353.842,304.647 350.973 C 307.152 347.686,305.301 323.763,302.192 319.244 C 301.482 318.211,300.494 316.564,299.996 315.583 C 297.991 311.633,290.816 305.271,287.319 304.343 C 286.483 304.121,284.088 303.147,281.995 302.179 C 275.914 299.366,266.139 297.959,253.018 298.008 C 248.602 298.025,241.855 297.751,238.000 297.400 C 228.223 296.509,184.000 296.249,167.600 296.986 M224.800 299.229 C 268.089 300.325,269.986 300.461,274.963 302.812 C 277.637 304.076,283.146 305.712,286.400 306.209 C 288.716 306.563,290.533 307.681,291.524 309.361 C 291.957 310.095,292.814 311.034,293.429 311.448 C 295.755 313.014,297.431 315.130,297.951 317.158 C 298.232 318.258,299.163 320.135,300.019 321.330 C 301.947 324.023,302.266 325.337,303.002 333.600 C 304.426 349.596,304.018 351.198,298.518 351.202 C 105.866 351.354,92.877 351.259,91.100 349.693 C 89.788 348.537,90.528 330.199,92.008 327.200 C 93.274 324.632,95.569 318.622,95.951 316.871 C 96.391 314.853,97.158 313.894,99.517 312.416 C 100.461 311.824,101.812 310.454,102.520 309.370 C 103.948 307.182,103.793 307.249,111.584 305.422 C 114.106 304.830,117.491 303.736,119.106 302.989 C 120.722 302.242,123.069 301.452,124.322 301.232 C 125.575 301.013,127.140 300.729,127.800 300.601 C 128.460 300.473,135.210 300.183,142.800 299.957 C 154.459 299.610,165.493 299.422,205.200 298.895 C 207.510 298.864,216.330 299.014,224.800 299.229 " stroke="none" fill="#9c9c9c" fill-rule="evenodd"></path></g></svg>