<svg id="svg" version="1.1" xmlns="http://www.w3.org/2000/svg" xmlns:xlink="http://www.w3.org/1999/xlink" width="400" height="400" viewBox="0, 0, 400,400"><g id="svgg"><path id="path0" d="M175.523 23.810 C 175.401 23.933,174.075 24.121,172.577 24.230 C 166.658 24.658,166.643 24.693,166.466 39.300 L 166.327 50.800 159.464 50.877 C 155.689 50.920,151.720 50.904,150.644 50.843 C 148.252 50.707,146.000 51.095,146.000 51.642 C 146.000 51.865,146.225 51.918,146.500 51.759 C 146.775 51.601,146.865 51.620,146.701 51.802 C 146.536 51.983,145.920 52.183,145.332 52.246 C 139.863 52.829,139.607 54.129,139.628 81.200 C 139.646 103.761,139.736 104.878,141.556 105.135 C 142.343 105.246,142.462 105.140,142.229 104.535 C 141.645 103.020,140.813 98.957,140.850 97.800 C 140.882 96.783,140.938 96.855,141.218 98.269 C 141.685 100.633,142.556 102.141,144.269 103.553 C 145.087 104.227,145.630 104.903,145.478 105.056 C 145.325 105.208,134.949 105.348,122.420 105.367 C 96.543 105.405,98.702 105.058,98.468 109.207 L 98.310 112.000 92.455 112.008 C 77.969 112.029,78.654 111.827,78.181 116.239 L 77.907 118.800 75.002 118.800 C 71.587 118.800,71.084 119.183,71.216 121.686 C 71.433 125.770,71.613 125.553,67.900 125.684 L 64.600 125.800 64.484 129.100 L 64.368 132.400 61.227 132.400 C 57.563 132.400,57.600 132.359,57.600 136.433 L 57.600 139.200 55.500 139.242 C 54.345 139.266,52.922 139.254,52.338 139.216 C 51.070 139.134,50.673 140.330,50.852 143.692 L 50.964 145.800 48.582 146.125 C 44.863 146.633,44.036 148.610,44.007 157.061 C 43.999 159.438,43.177 160.004,40.178 159.697 C 38.168 159.491,37.444 160.214,37.675 162.194 C 37.766 162.968,37.696 163.600,37.520 163.600 C 37.344 163.600,37.200 175.300,37.200 189.600 C 37.200 204.844,37.350 215.600,37.562 215.600 C 37.761 215.600,37.828 216.318,37.710 217.196 C 37.410 219.428,37.969 219.909,41.231 220.231 L 44.000 220.503 44.000 222.875 C 44.000 224.180,44.154 225.152,44.342 225.036 C 44.530 224.919,44.594 225.295,44.485 225.870 C 44.303 226.819,44.382 226.897,45.342 226.713 C 45.924 226.602,46.400 226.666,46.400 226.855 C 46.400 227.045,47.390 227.200,48.600 227.200 L 50.800 227.200 50.840 232.700 C 50.891 239.815,50.995 240.174,53.019 240.292 C 57.697 240.565,57.769 240.624,57.609 244.091 C 57.479 246.899,57.685 247.089,61.198 247.400 L 64.368 247.680 64.484 250.740 L 64.600 253.800 67.000 253.903 C 71.282 254.087,71.150 253.976,71.283 257.503 L 71.400 260.600 73.000 260.700 C 73.880 260.755,75.358 260.900,76.284 261.022 L 77.967 261.244 78.084 264.322 L 78.200 267.400 81.484 267.516 L 84.768 267.632 84.884 270.916 L 85.000 274.200 88.272 274.316 L 91.544 274.431 91.719 277.916 C 92.063 284.763,92.903 286.515,96.162 287.192 L 98.346 287.646 98.473 291.323 L 98.600 295.000 96.581 294.868 C 95.470 294.795,93.940 294.897,93.181 295.095 C 91.693 295.483,91.720 295.403,91.637 299.700 L 91.600 301.600 89.226 301.600 C 85.171 301.600,84.858 301.861,84.847 305.244 C 84.841 306.993,84.655 308.242,84.374 308.416 C 84.037 308.624,84.059 308.757,84.455 308.900 C 84.755 309.008,83.830 309.014,82.400 308.913 C 77.767 308.587,78.216 305.481,78.094 338.668 C 77.980 369.575,77.963 369.157,79.306 369.255 C 82.295 369.471,319.512 369.556,320.000 369.341 C 320.330 369.196,320.915 369.116,321.300 369.164 C 321.685 369.211,322.000 369.082,322.000 368.876 C 322.000 368.671,322.732 368.385,323.627 368.242 C 327.569 367.612,328.116 365.694,328.207 352.200 C 328.303 338.024,328.094 337.208,324.155 336.391 L 322.000 335.943 321.946 325.272 C 321.917 319.402,321.932 313.841,321.981 312.914 C 322.143 309.835,321.690 308.696,320.381 308.888 C 319.755 308.980,319.333 308.908,319.445 308.728 C 319.556 308.547,318.647 308.400,317.424 308.400 L 315.200 308.400 315.200 305.673 C 315.200 299.670,314.183 296.575,312.030 296.025 C 308.681 295.171,306.180 294.800,303.769 294.800 L 301.200 294.800 301.200 291.400 L 301.200 288.000 303.924 288.000 C 307.630 288.000,308.047 287.629,308.299 284.113 L 308.501 281.287 311.056 281.124 C 314.326 280.916,314.827 280.416,315.093 277.095 L 315.301 274.503 317.751 274.254 C 320.663 273.958,321.563 273.133,321.674 270.656 C 321.714 269.745,321.765 268.550,321.787 268.000 C 321.817 267.238,322.061 266.981,322.813 266.919 L 323.800 266.839 322.800 267.212 C 322.070 267.484,322.549 267.543,324.576 267.432 C 327.693 267.261,328.400 266.733,328.400 264.574 C 328.400 261.304,328.674 260.918,331.192 260.633 C 334.176 260.295,334.849 259.560,335.161 256.301 C 335.381 254.002,335.481 253.792,336.400 253.695 C 340.280 253.287,341.524 252.058,341.702 248.457 C 341.756 247.372,341.935 246.566,342.100 246.666 C 342.265 246.765,342.400 245.513,342.400 243.881 L 342.400 240.915 345.460 240.684 C 349.060 240.412,349.231 240.238,349.143 236.949 C 349.056 233.706,349.505 233.232,352.412 233.495 C 355.248 233.752,355.780 233.214,355.506 230.364 C 355.392 229.179,355.452 228.555,355.649 228.866 C 355.845 229.175,355.990 227.441,355.994 224.748 L 356.000 220.096 358.412 219.922 C 361.829 219.675,362.200 219.191,362.200 214.986 C 362.200 213.124,362.335 211.600,362.500 211.600 C 362.665 211.600,362.800 201.880,362.800 190.000 C 362.800 178.120,362.656 168.400,362.481 168.400 C 362.306 168.400,362.235 167.248,362.325 165.840 C 362.625 161.129,361.452 159.600,357.540 159.600 L 356.000 159.600 356.000 153.976 C 356.000 150.883,355.864 148.437,355.698 148.539 C 355.532 148.642,355.397 148.157,355.398 147.463 C 355.400 146.264,355.318 146.197,353.800 146.149 C 352.920 146.121,351.525 146.076,350.700 146.049 L 349.200 146.000 349.200 143.273 C 349.200 135.534,347.788 132.800,343.790 132.800 C 342.380 132.800,342.007 131.980,341.994 128.850 C 341.983 126.389,340.621 125.503,337.009 125.609 C 333.799 125.703,333.600 125.657,333.600 124.814 C 333.600 123.049,329.193 119.583,328.661 120.929 C 328.559 121.188,328.503 120.860,328.538 120.200 L 328.600 119.000 325.353 118.885 L 322.105 118.769 321.901 115.915 C 321.645 112.331,321.193 111.922,317.600 112.019 C 316.170 112.057,313.356 112.069,311.347 112.044 L 307.695 112.000 307.240 110.192 C 306.051 105.473,304.496 105.188,280.208 105.234 L 260.750 105.270 260.767 79.440 C 260.784 53.125,260.716 51.881,259.224 51.408 C 258.245 51.097,250.896 50.861,241.100 50.826 L 234.000 50.800 234.000 41.200 C 234.000 35.920,233.862 31.600,233.692 31.600 C 233.523 31.600,233.452 30.269,233.534 28.642 C 233.737 24.612,233.139 23.978,229.080 23.913 C 216.404 23.712,175.699 23.634,175.523 23.810 M232.000 25.600 C 232.440 26.040,232.788 26.625,232.773 26.900 C 232.758 27.175,232.559 27.014,232.331 26.542 C 232.102 26.071,231.529 25.498,231.058 25.269 C 230.586 25.041,230.425 24.842,230.700 24.827 C 230.975 24.812,231.560 25.160,232.000 25.600 M172.730 25.713 C 172.361 25.981,171.498 26.512,170.811 26.892 C 170.006 27.339,169.210 28.334,168.574 29.692 C 168.032 30.852,167.703 31.350,167.844 30.800 C 168.456 28.418,169.549 27.055,171.800 25.866 C 173.233 25.109,173.656 25.039,172.730 25.713 M167.076 35.900 C 166.975 36.285,166.893 35.970,166.893 35.200 C 166.893 34.430,166.975 34.115,167.076 34.500 C 167.176 34.885,167.176 35.515,167.076 35.900 M215.473 38.377 C 218.563 39.780,219.507 44.244,218.693 53.600 C 218.209 59.160,219.256 63.522,221.200 64.049 C 223.546 64.685,228.569 64.377,231.338 63.426 C 234.225 62.434,235.370 62.501,237.880 63.811 C 238.496 64.132,239.360 64.400,239.800 64.406 C 241.797 64.434,244.018 65.940,244.855 67.832 C 245.802 69.972,246.063 91.547,245.190 95.445 C 243.913 101.141,238.883 103.231,230.476 101.557 C 221.239 99.718,216.792 103.979,221.896 109.777 C 223.711 111.839,224.391 114.799,224.410 120.716 C 224.421 124.550,224.843 126.421,226.135 128.374 L 227.143 129.897 230.471 128.959 C 239.147 126.515,242.401 125.381,242.616 124.727 C 243.299 122.645,250.495 121.321,269.600 119.760 C 285.933 118.426,305.341 120.811,308.262 124.512 C 308.712 125.082,310.933 126.219,313.948 127.424 C 318.532 129.255,318.962 129.518,319.782 131.000 C 320.269 131.880,321.102 132.811,321.634 133.069 C 322.165 133.327,323.493 133.964,324.584 134.484 C 326.152 135.233,326.775 135.832,327.552 137.342 C 328.219 138.637,329.012 139.496,330.017 140.009 C 331.911 140.975,333.451 142.808,334.051 144.813 C 334.538 146.439,334.756 146.708,337.300 148.831 C 338.125 149.520,338.800 150.246,338.800 150.445 C 338.800 151.550,342.656 159.586,343.786 160.837 C 345.305 162.519,345.233 162.328,346.556 168.200 C 348.989 178.996,350.368 192.375,349.449 196.268 C 349.147 197.550,348.684 200.040,348.422 201.800 C 346.945 211.714,345.213 217.375,343.202 218.862 C 342.550 219.344,341.808 220.382,341.553 221.169 C 340.617 224.055,337.598 229.573,336.704 230.031 C 335.382 230.708,334.494 231.889,333.186 234.712 C 332.372 236.471,331.644 237.431,330.761 237.912 C 328.485 239.153,327.348 240.328,326.865 241.939 C 326.392 243.519,324.064 246.000,323.056 246.000 C 322.392 246.000,321.195 247.397,320.238 249.290 C 319.322 251.102,318.725 251.660,316.404 252.871 C 315.053 253.575,314.389 254.269,313.725 255.667 C 312.823 257.569,311.044 259.223,309.113 259.957 C 308.414 260.223,307.671 261.076,307.020 262.360 C 305.991 264.392,304.247 266.022,302.317 266.756 C 301.568 267.040,300.970 267.786,300.368 269.186 C 299.517 271.165,297.555 273.273,295.837 274.056 C 295.361 274.273,294.545 275.255,294.024 276.238 C 293.502 277.221,291.877 279.415,290.413 281.113 C 288.949 282.811,286.911 285.506,285.883 287.102 C 282.911 291.716,278.161 293.355,270.309 292.475 C 260.220 291.344,233.188 293.249,237.400 294.795 C 238.289 295.121,249.674 295.809,264.000 296.403 C 276.596 296.925,287.415 298.766,289.723 300.779 C 291.233 302.095,293.717 303.398,295.416 303.765 C 297.553 304.225,299.162 305.504,300.106 307.491 C 300.827 309.010,301.390 309.573,302.908 310.294 C 304.929 311.254,305.331 311.877,307.230 317.000 C 307.784 318.492,308.682 319.931,309.606 320.805 C 311.884 322.958,312.310 325.526,312.588 338.800 C 312.899 353.599,312.678 354.142,305.732 355.700 C 303.790 356.136,301.930 356.448,301.600 356.393 C 301.270 356.339,255.107 356.230,199.016 356.151 C 86.696 355.993,94.757 356.185,90.978 353.585 C 88.376 351.795,87.998 350.591,88.012 344.140 C 88.037 332.198,88.666 327.721,90.618 325.600 C 91.124 325.050,91.838 323.430,92.204 322.000 C 93.406 317.310,95.161 313.288,96.432 312.309 C 97.082 311.809,98.159 310.972,98.826 310.448 C 99.493 309.924,100.463 308.659,100.982 307.636 C 102.008 305.611,102.115 305.540,107.400 303.361 C 109.380 302.544,111.180 301.666,111.400 301.408 C 113.841 298.551,124.871 296.845,146.600 295.963 C 165.600 295.191,166.874 294.987,162.400 293.438 C 159.467 292.423,147.968 292.142,134.716 292.762 C 119.776 293.461,115.590 291.574,112.377 282.686 C 112.036 281.745,111.456 281.072,110.724 280.769 C 109.203 280.139,107.394 278.007,106.790 276.134 C 106.130 274.085,105.707 273.617,103.759 272.783 C 102.064 272.056,100.735 270.566,100.205 268.800 C 99.783 267.391,98.840 266.427,97.223 265.752 C 95.306 264.951,94.415 264.076,93.603 262.194 C 92.807 260.352,92.306 259.872,89.921 258.669 C 88.546 257.975,87.959 257.317,87.000 255.400 C 86.041 253.483,85.466 252.839,84.140 252.200 C 81.975 251.157,80.987 250.231,80.373 248.671 C 79.786 247.181,78.065 245.200,77.356 245.200 C 76.499 245.200,74.525 243.270,73.988 241.908 C 73.184 239.868,71.707 238.088,70.242 237.393 C 69.464 237.024,68.588 236.143,68.152 235.291 C 66.872 232.793,63.979 228.400,63.615 228.400 C 62.754 228.400,60.266 224.175,59.328 221.120 C 58.519 218.485,58.013 217.552,56.776 216.417 C 51.919 211.955,50.361 192.676,53.218 172.400 C 54.225 165.258,54.598 164.077,56.389 162.369 C 57.466 161.341,58.143 160.158,58.791 158.169 C 60.424 153.158,62.010 150.121,63.379 149.383 C 64.788 148.625,66.042 146.903,66.749 144.759 C 67.309 143.057,68.415 141.955,70.578 140.940 C 71.803 140.365,72.400 139.704,73.248 137.979 C 74.028 136.392,74.719 135.580,75.670 135.133 C 76.401 134.789,77.686 134.179,78.525 133.777 C 79.364 133.375,80.534 132.317,81.128 131.424 C 82.324 129.622,84.620 128.324,89.639 126.612 C 91.889 125.844,92.820 125.309,93.225 124.553 C 95.045 121.152,115.236 118.425,130.200 119.558 C 148.464 120.942,157.551 122.434,159.449 124.362 C 160.259 125.185,161.607 125.823,164.000 126.517 C 165.870 127.059,168.556 127.975,169.969 128.551 C 174.620 130.450,176.060 128.867,176.457 121.418 C 176.756 115.801,177.226 113.984,178.808 112.329 C 179.490 111.615,180.385 109.846,181.003 107.991 L 182.046 104.859 181.252 103.303 C 179.911 100.673,178.026 100.482,168.335 101.992 C 163.792 102.699,158.430 100.815,156.817 97.944 C 155.244 95.146,155.140 94.117,155.191 81.812 C 155.253 66.681,155.487 65.939,160.551 64.809 C 161.624 64.570,163.256 63.932,164.178 63.392 C 165.915 62.374,169.300 62.593,172.889 63.958 C 174.840 64.700,179.771 64.960,180.265 64.347 C 181.937 62.276,182.844 57.889,182.373 54.148 C 181.341 45.949,182.226 40.459,184.839 38.858 C 187.234 37.390,212.429 36.995,215.473 38.377 M167.097 48.484 C 167.018 49.868,166.953 48.840,166.953 46.200 C 166.952 43.560,167.016 42.428,167.095 43.684 C 167.174 44.941,167.175 47.101,167.097 48.484 M259.018 52.982 C 259.558 53.522,259.994 54.197,259.986 54.482 C 259.978 54.767,259.733 54.570,259.442 54.044 C 259.150 53.518,258.482 52.850,257.956 52.558 C 257.430 52.267,257.233 52.022,257.518 52.014 C 257.803 52.006,258.478 52.442,259.018 52.982 M146.000 55.009 C 146.000 55.630,145.386 56.684,144.405 57.748 C 142.656 59.645,141.687 61.636,141.166 64.400 C 140.859 66.029,140.844 65.965,141.004 63.728 C 141.244 60.395,142.482 57.310,144.298 55.520 C 146.107 53.737,146.000 53.769,146.000 55.009 M146.000 106.493 C 146.000 106.670,145.505 106.696,144.900 106.551 C 143.319 106.172,143.240 105.960,144.721 106.073 C 145.424 106.126,146.000 106.315,146.000 106.493 M303.583 110.242 C 304.280 111.035,304.772 111.761,304.678 111.855 C 304.512 112.021,301.600 109.282,301.600 108.960 C 301.600 108.422,302.491 108.998,303.583 110.242 M80.029 114.254 C 79.573 114.834,79.200 115.584,79.200 115.921 C 79.200 116.258,79.094 116.427,78.963 116.297 C 78.627 115.960,79.144 114.513,79.855 113.802 C 80.824 112.834,80.930 113.109,80.029 114.254 M330.759 123.814 C 332.323 125.595,332.322 125.600,330.400 125.600 L 328.800 125.600 328.800 124.000 C 328.800 122.033,329.165 121.998,330.759 123.814 M340.645 127.812 C 341.010 128.369,341.194 128.939,341.054 129.079 C 340.914 129.219,340.800 129.123,340.800 128.867 C 340.800 128.610,340.440 128.040,340.000 127.600 C 339.560 127.160,339.376 126.800,339.591 126.800 C 339.806 126.800,340.280 127.256,340.645 127.812 M49.474 147.331 C 47.580 147.913,46.115 149.292,45.637 150.941 C 45.434 151.640,45.256 151.871,45.236 151.460 C 45.127 149.231,47.645 146.789,50.000 146.840 C 50.794 146.857,50.685 146.958,49.474 147.331 M360.142 161.781 C 360.724 162.320,361.200 162.990,361.200 163.270 C 361.200 163.549,360.924 163.384,360.587 162.902 C 360.249 162.421,359.579 161.751,359.098 161.413 C 358.616 161.076,358.416 160.800,358.653 160.800 C 358.889 160.800,359.559 161.241,360.142 161.781 M134.099 172.384 C 131.732 172.602,130.997 172.844,130.099 173.697 C 129.495 174.272,128.460 174.861,127.800 175.006 C 127.140 175.150,124.741 176.185,122.469 177.306 L 118.339 179.344 116.586 183.096 C 112.850 191.089,114.572 206.854,119.531 210.054 C 120.418 210.626,121.396 211.791,122.000 212.992 C 122.550 214.087,124.009 215.980,125.241 217.199 C 126.474 218.418,128.249 220.312,129.186 221.408 C 131.657 224.298,137.724 230.800,141.252 234.339 C 142.930 236.022,144.668 238.120,145.114 239.000 C 145.559 239.880,146.526 240.940,147.262 241.357 C 147.998 241.773,149.511 242.788,150.625 243.613 L 152.651 245.113 155.962 244.583 C 158.788 244.130,159.770 244.140,162.671 244.646 L 166.069 245.239 167.944 244.036 C 172.258 241.267,172.511 240.422,170.527 235.400 C 169.500 232.799,169.275 206.493,170.184 195.281 L 170.874 186.762 168.985 184.681 C 164.660 179.917,161.194 177.590,157.600 177.038 C 154.446 176.553,149.161 174.715,147.921 173.672 C 146.240 172.257,140.892 171.759,134.099 172.384 M257.060 172.438 C 254.477 172.710,253.757 172.945,253.000 173.762 C 252.477 174.327,251.073 175.039,249.740 175.415 C 248.453 175.779,246.675 176.313,245.788 176.603 C 244.902 176.893,243.462 177.258,242.588 177.414 C 240.400 177.805,238.029 179.183,237.377 180.444 C 237.078 181.023,236.051 181.864,235.094 182.314 C 234.138 182.763,232.692 183.865,231.881 184.763 L 230.407 186.394 230.704 190.697 C 231.323 199.694,231.060 234.313,230.346 237.708 L 229.693 240.817 231.484 242.808 C 233.476 245.025,234.590 245.265,238.738 244.376 C 240.368 244.026,241.300 244.090,244.029 244.736 L 247.342 245.521 248.771 244.644 C 249.557 244.162,251.010 243.427,252.000 243.010 C 254.418 241.992,255.395 241.063,255.932 239.269 C 256.457 237.516,257.962 235.978,260.169 234.939 C 261.280 234.416,261.865 233.819,262.173 232.896 C 262.836 230.904,264.550 229.006,266.522 228.078 C 267.681 227.534,268.386 226.911,268.540 226.297 C 268.963 224.611,271.177 222.001,272.910 221.145 C 274.196 220.510,274.821 219.847,275.525 218.366 C 276.034 217.297,277.656 215.202,279.130 213.711 C 282.322 210.481,284.234 207.589,284.623 205.400 C 284.990 203.333,285.850 201.662,287.193 200.405 C 289.926 197.848,289.047 189.591,285.575 185.208 C 284.961 184.434,284.171 182.792,283.818 181.559 C 283.033 178.814,282.026 177.845,279.295 177.209 C 278.138 176.939,276.600 176.317,275.877 175.827 C 275.155 175.337,273.954 174.723,273.208 174.463 C 272.462 174.203,271.539 173.707,271.156 173.360 C 269.968 172.285,262.895 171.822,257.060 172.438 M152.856 187.900 C 152.887 188.725,152.871 190.074,152.822 190.897 C 152.713 192.704,153.619 193.200,157.026 193.200 L 159.200 193.200 159.175 211.300 C 159.160 221.690,159.004 229.041,158.809 228.557 C 158.434 227.631,156.955 227.200,154.150 227.200 C 152.214 227.200,152.256 227.280,152.362 223.800 C 152.452 220.859,152.149 220.600,148.615 220.600 L 145.600 220.600 145.546 219.200 C 145.517 218.430,145.532 217.049,145.580 216.132 C 145.694 213.934,144.805 213.426,141.334 213.704 L 138.800 213.908 138.744 212.254 C 138.713 211.344,138.727 209.939,138.775 209.131 C 138.888 207.229,137.931 206.684,134.795 206.865 C 131.910 207.031,132.008 207.146,131.956 203.566 C 131.904 200.072,131.845 200.014,128.300 200.006 L 125.600 200.000 125.600 196.643 C 125.600 192.886,125.663 192.804,128.533 192.794 C 131.137 192.784,132.000 191.567,132.000 187.903 L 132.000 186.400 142.400 186.400 L 152.800 186.400 152.856 187.900 M274.541 189.460 C 274.864 193.283,274.865 196.553,274.543 198.500 L 274.295 200.000 272.174 200.000 C 268.711 200.000,267.911 200.482,268.018 202.504 C 268.067 203.437,268.083 204.759,268.054 205.442 L 268.000 206.684 265.106 206.927 C 261.485 207.230,261.082 207.666,261.285 211.061 L 261.433 213.522 258.539 213.793 C 254.950 214.129,254.600 214.500,254.600 217.965 L 254.600 220.608 252.600 220.715 C 248.127 220.954,247.984 221.181,247.701 228.500 L 247.488 234.000 244.144 234.000 L 240.800 234.000 240.800 213.600 L 240.800 193.200 241.700 193.161 C 242.195 193.140,243.271 193.153,244.091 193.191 C 246.888 193.320,247.069 193.122,247.377 189.589 L 247.655 186.400 260.969 186.400 L 274.283 186.400 274.541 189.460 M263.967 207.704 C 263.875 207.762,263.395 208.150,262.900 208.566 C 262.405 208.983,262.000 209.219,262.000 209.091 C 262.000 208.687,263.237 207.600,263.695 207.600 C 263.936 207.600,264.058 207.647,263.967 207.704 M257.606 215.101 C 256.839 215.485,255.986 216.250,255.711 216.800 C 255.415 217.392,255.209 217.546,255.206 217.176 C 255.195 216.011,257.011 214.440,258.400 214.413 C 258.730 214.406,258.373 214.716,257.606 215.101 M361.600 216.231 C 361.600 217.100,359.424 219.201,358.531 219.194 C 357.961 219.190,358.021 219.077,358.799 218.683 C 359.349 218.405,360.159 217.604,360.599 216.904 C 361.526 215.430,361.600 215.381,361.600 216.231 M251.708 222.193 C 250.997 222.502,250.053 223.350,249.609 224.077 C 248.722 225.533,248.512 225.171,249.358 223.644 C 249.927 222.618,251.423 221.627,252.400 221.630 C 252.730 221.631,252.419 221.884,251.708 222.193 M340.363 248.300 C 339.621 250.259,336.370 252.939,335.663 252.175 C 335.518 252.018,335.580 251.824,335.800 251.744 C 337.099 251.267,338.680 249.974,339.199 248.965 C 339.708 247.976,340.341 247.230,340.690 247.206 C 340.740 247.203,340.593 247.695,340.363 248.300 M334.000 257.201 C 333.398 258.654,332.165 259.477,330.158 259.766 L 328.600 259.991 329.952 259.570 C 332.063 258.914,333.133 258.042,333.678 256.534 C 333.955 255.769,334.248 255.345,334.331 255.592 C 334.413 255.839,334.264 256.563,334.000 257.201 M327.600 264.418 C 327.600 265.110,325.689 266.801,324.918 266.791 C 324.457 266.785,324.661 266.554,325.487 266.147 C 326.195 265.798,326.882 265.172,327.014 264.756 C 327.274 263.935,327.600 263.747,327.600 264.418 M320.421 271.562 C 319.961 272.420,318.032 273.607,317.120 273.591 C 316.834 273.586,317.348 273.243,318.261 272.828 C 319.198 272.403,320.043 271.695,320.198 271.207 C 320.349 270.730,320.561 270.428,320.669 270.536 C 320.777 270.643,320.665 271.105,320.421 271.562 M94.947 282.418 C 95.343 283.088,96.279 284.033,97.028 284.518 C 98.771 285.647,98.892 286.530,97.224 285.948 C 95.720 285.424,94.176 283.880,93.652 282.376 C 93.088 280.758,93.984 280.787,94.947 282.418 M98.008 281.810 C 98.781 282.741,98.229 282.917,97.402 282.002 C 97.003 281.561,96.862 281.200,97.089 281.200 C 97.316 281.200,97.730 281.474,98.008 281.810 M307.002 286.398 C 306.603 286.839,306.130 287.200,305.952 287.200 C 305.774 287.200,306.027 286.786,306.514 286.280 C 307.590 285.163,308.025 285.268,307.002 286.398 M186.800 287.963 C 176.905 288.169,175.638 288.264,177.200 288.681 C 180.847 289.656,203.469 290.027,214.600 289.294 C 225.830 288.554,226.285 288.076,215.800 288.033 C 210.960 288.013,205.020 287.936,202.600 287.861 C 200.180 287.787,193.070 287.833,186.800 287.963 M310.681 297.584 C 311.941 298.352,313.478 300.655,313.029 301.104 C 312.903 301.230,312.800 301.137,312.800 300.897 C 312.800 300.129,310.680 297.911,309.420 297.363 C 308.749 297.070,308.470 296.825,308.800 296.817 C 309.130 296.809,309.976 297.154,310.681 297.584 M324.281 338.384 C 326.842 339.946,327.491 343.815,325.849 347.743 C 325.348 348.943,325.368 349.328,326.030 351.246 C 326.439 352.431,326.765 353.940,326.754 354.600 C 326.739 355.449,326.570 355.126,326.175 353.497 C 325.868 352.230,325.359 350.694,325.044 350.084 C 324.670 349.361,324.596 348.751,324.831 348.331 C 327.203 344.092,326.422 340.610,322.543 338.124 C 321.221 337.276,322.869 337.523,324.281 338.384 M326.383 359.311 C 325.770 361.923,325.170 363.121,323.783 364.508 C 322.012 366.279,321.796 365.755,323.499 363.820 C 324.978 362.140,326.362 358.947,326.432 357.054 C 326.449 356.584,326.556 356.430,326.669 356.711 C 326.782 356.993,326.653 358.163,326.383 359.311 " stroke="none" fill="#414141" fill-rule="evenodd"></path><path id="path1" d="M192.200 39.495 C 184.170 40.968,183.848 41.639,184.380 55.800 C 184.582 61.173,183.696 64.089,181.386 65.659 L 179.800 66.738 173.200 66.330 C 165.984 65.884,164.210 66.101,160.707 67.857 C 157.507 69.461,157.532 69.359,157.433 81.290 C 157.329 93.726,157.493 94.389,161.292 96.911 C 164.950 99.339,165.685 99.518,169.584 98.932 C 171.463 98.649,174.653 98.299,176.673 98.152 L 180.345 97.886 181.586 99.843 C 183.329 102.591,183.847 104.517,183.331 106.334 C 181.916 111.316,181.141 114.196,180.407 117.200 C 177.976 127.148,177.229 128.929,174.562 131.127 L 173.123 132.313 169.462 130.618 C 167.448 129.686,163.910 128.431,161.600 127.831 C 159.290 127.230,155.600 126.119,153.400 125.363 C 138.010 120.069,106.610 119.984,97.398 125.211 C 96.297 125.835,94.047 126.828,92.398 127.416 C 88.154 128.931,85.319 130.515,82.937 132.704 C 81.803 133.747,79.847 135.136,78.590 135.791 C 76.874 136.686,75.925 137.543,74.774 139.239 C 73.931 140.480,72.349 142.136,71.259 142.919 C 69.892 143.901,68.880 145.088,67.998 146.743 C 67.295 148.063,65.924 150.074,64.952 151.212 C 62.519 154.063,61.491 155.975,60.012 160.400 C 59.313 162.490,58.319 164.927,57.804 165.815 C 52.249 175.381,52.225 201.828,57.762 212.800 C 58.927 215.110,60.385 218.334,61.000 219.965 C 61.616 221.596,62.697 223.576,63.402 224.365 C 64.108 225.154,65.963 227.785,67.525 230.212 C 69.087 232.638,70.893 235.014,71.538 235.491 C 72.183 235.968,73.526 237.582,74.523 239.079 C 75.519 240.575,77.349 242.674,78.588 243.741 C 79.828 244.809,81.277 246.371,81.808 247.213 C 82.340 248.055,83.635 249.392,84.687 250.183 C 85.739 250.975,87.329 252.643,88.219 253.891 C 89.109 255.138,90.639 256.723,91.619 257.412 C 92.599 258.101,94.145 259.640,95.055 260.832 C 95.965 262.025,97.495 263.550,98.455 264.223 C 99.415 264.896,100.859 266.422,101.664 267.614 C 102.469 268.806,104.066 270.506,105.213 271.391 C 106.360 272.276,107.740 273.810,108.279 274.800 C 108.818 275.790,110.203 277.521,111.356 278.646 C 112.510 279.772,113.938 281.684,114.531 282.895 C 117.772 289.520,122.808 292.169,130.049 291.061 C 132.332 290.711,136.090 290.220,138.400 289.969 C 140.710 289.718,144.310 289.166,146.400 288.743 C 162.631 285.455,230.623 284.863,250.200 287.839 C 252.400 288.174,257.227 288.611,260.927 288.810 C 265.196 289.041,268.923 289.479,271.127 290.008 L 274.600 290.842 278.200 289.921 L 281.800 289.000 284.414 285.099 C 285.851 282.953,287.887 280.273,288.937 279.143 C 289.987 278.013,291.449 276.147,292.185 274.997 C 292.921 273.846,294.305 272.342,295.261 271.655 C 296.218 270.967,297.698 269.368,298.552 268.102 C 299.405 266.836,300.993 265.112,302.080 264.272 C 303.167 263.431,304.629 261.931,305.328 260.938 C 306.028 259.945,307.455 258.518,308.500 257.767 C 309.546 257.015,311.040 255.510,311.822 254.422 C 312.604 253.334,314.121 251.813,315.194 251.043 C 316.267 250.272,317.850 248.685,318.714 247.517 C 319.577 246.348,321.124 244.703,322.152 243.861 C 323.180 243.019,324.627 241.382,325.368 240.223 C 326.110 239.064,327.463 237.505,328.375 236.758 C 329.288 236.011,330.740 234.210,331.603 232.756 C 332.465 231.301,333.832 229.321,334.641 228.356 C 336.784 225.795,337.983 223.791,339.470 220.278 C 340.197 218.561,341.322 216.385,341.970 215.444 C 347.916 206.801,348.180 176.364,342.408 164.800 C 341.804 163.590,341.080 161.880,340.798 161.000 C 339.718 157.625,337.117 152.580,335.352 150.436 C 334.339 149.206,332.997 147.182,332.369 145.938 C 331.681 144.576,330.481 143.065,329.355 142.142 C 328.326 141.298,326.811 139.698,325.989 138.585 C 324.978 137.217,323.730 136.154,322.133 135.303 C 320.834 134.611,318.867 133.179,317.763 132.122 C 316.202 130.628,314.870 129.855,311.778 128.652 C 309.590 127.800,306.180 126.321,304.200 125.365 C 293.169 120.037,262.672 120.022,248.905 125.338 C 246.977 126.082,244.140 126.978,242.600 127.328 C 239.768 127.972,232.584 130.499,229.105 132.074 C 225.948 133.503,223.557 129.972,222.568 122.420 C 222.136 119.122,221.500 116.729,219.941 112.535 C 216.083 102.157,217.553 98.400,225.473 98.400 C 227.108 98.400,229.702 98.607,231.238 98.861 C 236.813 99.782,241.348 97.816,243.051 93.741 C 243.967 91.549,244.207 71.997,243.341 70.149 C 241.734 66.718,238.627 65.969,227.408 66.306 L 220.538 66.512 219.236 65.349 C 217.261 63.584,216.287 59.127,216.805 54.221 C 217.884 43.979,216.684 40.520,211.800 39.797 C 209.712 39.488,193.593 39.239,192.200 39.495 M209.600 40.885 C 213.197 41.293,213.472 41.392,214.752 42.742 L 216.104 44.167 215.820 51.623 C 215.244 66.746,215.957 67.665,228.200 67.591 C 243.223 67.499,242.788 67.070,242.607 81.757 C 242.443 95.044,242.523 94.829,237.210 96.402 C 234.690 97.148,233.714 97.243,231.010 97.002 C 219.754 96.003,216.850 97.583,216.717 104.781 C 216.687 106.462,219.168 116.039,220.076 117.740 C 220.293 118.147,220.903 120.565,221.432 123.112 C 223.616 133.648,225.764 135.587,231.800 132.474 C 235.063 130.790,239.646 129.213,244.257 128.186 C 246.866 127.605,250.260 126.631,251.800 126.021 C 263.667 121.322,294.344 121.420,302.550 126.183 C 303.458 126.709,305.460 127.541,307.000 128.032 C 311.662 129.516,315.689 131.526,316.870 132.958 C 317.469 133.685,319.218 134.941,320.757 135.750 C 322.297 136.559,323.971 137.789,324.478 138.484 C 324.985 139.178,326.598 140.928,328.062 142.373 C 329.684 143.974,331.195 145.946,331.928 147.422 C 332.591 148.754,333.804 150.644,334.624 151.622 C 336.098 153.378,339.200 159.256,339.200 160.291 C 339.200 160.585,340.094 163.138,341.187 165.965 C 346.808 180.511,346.567 201.911,340.644 214.093 C 339.410 216.631,338.400 218.914,338.400 219.167 C 338.400 220.071,336.409 223.454,334.024 226.600 C 332.691 228.360,331.142 230.717,330.583 231.838 C 329.988 233.031,328.657 234.661,327.375 235.769 C 326.150 236.826,324.742 238.530,324.185 239.630 C 323.555 240.872,322.610 241.962,321.620 242.587 C 319.603 243.860,318.440 245.088,317.768 246.652 C 317.197 247.980,315.716 249.356,313.639 250.488 C 312.944 250.867,312.067 251.739,311.688 252.428 C 310.473 254.637,309.569 255.595,307.377 256.998 C 306.038 257.854,304.940 258.939,304.455 259.885 C 303.619 261.515,302.644 262.490,300.333 264.007 C 299.526 264.537,298.352 265.871,297.723 266.973 C 297.048 268.156,295.659 269.676,294.329 270.686 C 292.910 271.765,291.625 273.200,290.852 274.569 C 290.178 275.764,288.926 277.304,288.070 277.992 C 287.215 278.679,285.454 280.965,284.157 283.070 C 281.460 287.450,281.102 287.750,277.263 288.836 L 274.444 289.634 271.522 288.573 C 269.176 287.720,267.458 287.440,262.800 287.151 C 259.610 286.952,253.940 286.513,250.200 286.174 C 223.019 283.712,157.204 284.586,142.600 287.603 C 140.620 288.012,137.650 288.553,136.000 288.806 C 134.350 289.059,131.292 289.605,129.205 290.020 L 125.410 290.775 122.670 289.512 C 119.548 288.073,117.283 285.775,115.389 282.126 C 114.735 280.867,113.333 279.018,112.273 278.018 C 111.214 277.018,109.724 275.178,108.963 273.930 C 108.138 272.577,106.762 271.073,105.558 270.208 C 104.447 269.410,103.237 268.186,102.869 267.488 C 102.501 266.790,101.570 265.627,100.800 264.904 C 98.967 263.183,96.410 260.639,94.263 258.400 C 93.314 257.410,92.057 256.277,91.469 255.882 C 90.882 255.487,89.783 254.197,89.027 253.014 C 88.215 251.745,86.861 250.348,85.720 249.601 C 84.540 248.828,83.246 247.475,82.394 246.123 C 81.627 244.906,80.230 243.378,79.289 242.728 C 78.335 242.069,76.888 240.454,76.015 239.074 C 75.155 237.713,73.578 235.764,72.510 234.742 C 71.443 233.721,69.676 231.408,68.585 229.602 C 67.493 227.797,65.839 225.436,64.908 224.356 C 63.053 222.202,62.263 220.830,61.825 219.000 C 61.447 217.419,59.475 212.769,57.989 209.952 C 53.549 201.535,53.842 178.853,58.532 167.920 C 59.542 165.566,60.658 162.518,61.013 161.148 C 61.818 158.045,63.231 155.219,64.946 153.286 C 66.729 151.275,68.583 148.494,69.328 146.711 C 69.712 145.791,70.713 144.687,71.998 143.764 C 73.128 142.951,74.716 141.288,75.526 140.068 C 76.659 138.362,77.532 137.578,79.297 136.682 C 80.561 136.040,82.683 134.543,84.015 133.355 C 86.855 130.821,89.085 129.620,93.200 128.406 C 94.850 127.920,97.190 127.003,98.400 126.369 C 107.912 121.385,135.507 121.074,149.388 125.795 C 150.935 126.320,155.260 127.504,159.000 128.425 C 166.042 130.159,168.709 131.132,171.343 132.930 C 173.101 134.129,173.473 134.036,175.994 131.758 C 178.411 129.575,180.981 122.945,182.182 115.800 C 182.552 113.600,183.310 110.327,183.866 108.527 C 184.759 105.636,184.827 105.015,184.442 103.221 C 182.962 96.323,181.199 95.642,168.800 97.182 C 165.758 97.560,163.709 96.716,160.569 93.792 L 158.800 92.144 158.800 81.499 L 158.800 70.854 160.003 69.998 C 163.381 67.593,165.254 67.235,173.228 67.469 L 180.600 67.686 182.476 66.421 C 185.397 64.452,186.017 61.480,185.704 50.946 L 185.488 43.692 186.618 42.952 C 190.312 40.531,199.329 39.720,209.600 40.885 M134.200 169.228 C 128.998 169.693,125.690 170.745,123.353 172.680 C 122.279 173.569,120.500 174.800,119.400 175.416 C 116.517 177.030,116.060 177.505,114.586 180.429 C 113.858 181.875,112.643 183.869,111.887 184.858 C 108.791 188.914,108.621 197.996,111.555 202.565 C 112.414 203.904,113.250 205.450,113.411 206.000 C 114.004 208.026,115.713 210.956,117.349 212.753 C 118.273 213.769,120.090 215.950,121.385 217.600 C 122.681 219.250,124.654 221.509,125.770 222.620 C 126.887 223.732,129.690 226.690,132.000 229.196 C 134.310 231.701,137.416 234.936,138.903 236.384 C 140.389 237.832,142.189 239.909,142.903 241.000 C 143.616 242.090,145.332 243.827,146.716 244.859 C 148.100 245.892,149.923 247.360,150.766 248.122 L 152.300 249.507 159.450 249.313 C 168.487 249.067,171.936 247.787,174.428 243.754 L 175.332 242.292 175.252 214.494 C 175.208 199.205,175.014 186.405,174.820 186.048 C 173.433 183.504,165.656 176.870,162.600 175.625 C 158.717 174.043,156.817 173.135,154.228 171.624 C 151.050 169.769,141.258 168.598,134.200 169.228 M257.400 169.268 C 251.866 169.804,248.063 170.810,245.833 172.327 C 244.715 173.087,242.304 174.302,240.475 175.026 C 238.646 175.751,236.498 176.841,235.701 177.448 C 232.804 179.658,228.723 183.789,227.674 185.573 L 226.600 187.400 226.733 207.600 C 226.816 220.074,226.693 230.288,226.411 234.305 L 225.956 240.810 227.064 242.847 C 229.551 247.416,232.710 249.187,238.460 249.234 C 240.737 249.252,243.680 249.407,245.000 249.578 C 247.761 249.936,247.674 249.969,252.738 246.650 C 255.969 244.532,256.676 243.859,257.950 241.685 C 258.860 240.135,260.187 238.595,261.413 237.669 C 262.506 236.842,264.056 235.176,264.857 233.965 C 265.658 232.754,267.053 231.274,267.956 230.677 C 268.859 230.079,270.382 228.513,271.340 227.196 C 272.298 225.880,273.896 224.181,274.892 223.421 C 275.887 222.661,277.156 221.263,277.711 220.315 C 278.267 219.367,279.784 217.594,281.084 216.374 C 282.383 215.154,284.318 212.726,285.384 210.978 C 286.451 209.230,287.996 206.720,288.818 205.400 C 292.951 198.762,292.711 186.499,288.370 182.574 C 287.900 182.148,287.148 181.080,286.700 180.200 C 285.281 177.415,284.054 176.140,281.492 174.787 C 280.121 174.064,278.383 172.938,277.629 172.286 C 274.659 169.716,266.038 168.430,257.400 169.268 M143.000 170.407 C 147.833 170.846,152.896 172.011,153.934 172.922 C 154.820 173.700,157.830 175.200,158.505 175.200 C 160.676 175.200,165.966 178.633,169.800 182.528 L 173.800 186.593 173.661 209.055 C 173.563 225.011,173.665 232.808,174.015 235.974 C 174.602 241.294,174.169 242.773,171.455 244.711 C 167.820 247.306,167.170 247.472,159.600 247.720 L 152.600 247.949 150.800 246.450 C 149.810 245.625,148.126 244.355,147.058 243.627 C 145.989 242.899,144.549 241.470,143.858 240.452 C 143.166 239.433,141.340 237.323,139.800 235.763 C 138.260 234.202,135.264 231.052,133.141 228.763 C 131.019 226.473,127.862 223.070,126.127 221.200 C 124.391 219.330,122.084 216.630,120.999 215.200 C 119.914 213.770,118.892 212.542,118.726 212.471 C 117.884 212.109,115.375 208.014,114.408 205.421 C 113.804 203.802,112.918 201.927,112.439 201.255 C 110.240 198.167,110.553 189.369,112.996 185.573 C 113.502 184.788,114.494 182.988,115.202 181.573 C 116.867 178.246,117.336 177.747,120.112 176.345 C 121.383 175.702,123.093 174.572,123.912 173.834 C 126.244 171.731,129.678 170.811,138.000 170.061 C 138.330 170.031,140.580 170.187,143.000 170.407 M271.328 171.074 C 274.265 171.604,275.135 171.943,276.517 173.097 C 277.430 173.860,279.308 175.019,280.691 175.673 C 283.284 176.897,284.679 178.328,285.702 180.807 C 286.021 181.581,287.012 183.059,287.905 184.091 C 289.566 186.010,289.704 186.378,290.369 190.692 C 290.935 194.363,290.272 199.923,288.983 202.309 C 284.865 209.936,282.754 213.155,280.364 215.456 C 279.025 216.745,277.595 218.449,277.186 219.242 C 276.777 220.035,275.334 221.645,273.978 222.819 C 272.621 223.994,271.076 225.646,270.544 226.489 C 270.011 227.333,268.584 228.783,267.372 229.712 C 266.160 230.640,264.643 232.244,264.002 233.276 C 263.361 234.308,261.883 235.898,260.718 236.810 C 259.553 237.722,258.128 239.274,257.550 240.260 C 256.114 242.711,254.565 244.249,252.550 245.224 C 251.616 245.676,250.185 246.576,249.371 247.223 C 247.643 248.596,248.175 248.551,242.600 247.804 C 240.180 247.481,237.102 247.212,235.760 247.208 C 231.583 247.194,227.215 242.897,227.823 239.400 C 227.976 238.520,228.159 227.360,228.229 214.600 C 228.300 201.840,228.367 190.157,228.379 188.637 L 228.400 185.875 231.700 182.623 C 235.838 178.545,237.818 177.186,241.600 175.827 C 243.250 175.234,245.410 174.236,246.400 173.608 C 251.468 170.395,261.756 169.349,271.328 171.074 M175.800 296.423 C 172.500 296.590,164.670 296.931,158.400 297.180 C 141.901 297.837,132.618 298.369,129.200 298.852 C 125.395 299.391,118.403 300.957,117.381 301.500 C 116.951 301.728,115.160 302.407,113.400 303.010 C 108.269 304.766,104.208 306.973,102.946 308.691 C 102.336 309.521,100.647 311.460,99.193 313.000 C 94.553 317.912,92.829 324.158,91.960 339.201 C 91.403 348.859,91.449 349.282,93.285 351.169 C 96.299 354.267,85.478 353.981,200.292 353.991 L 302.783 354.000 305.403 353.140 C 307.276 352.525,308.378 351.875,309.272 350.857 L 310.522 349.433 310.236 341.017 C 309.887 330.761,309.682 329.375,307.687 323.800 C 304.616 315.218,304.222 314.479,300.996 311.225 C 299.347 309.561,297.503 307.690,296.899 307.067 C 294.768 304.870,282.531 300.527,274.802 299.225 C 269.892 298.399,264.938 298.080,243.400 297.206 C 237.460 296.964,229.158 296.595,224.951 296.384 C 216.197 295.945,184.740 295.970,175.800 296.423 M221.400 297.591 C 228.000 297.808,239.430 298.180,246.800 298.417 C 271.957 299.226,276.293 299.900,291.000 305.282 C 295.681 306.995,296.009 307.204,297.573 309.453 C 298.358 310.581,299.913 312.225,301.030 313.106 C 305.047 316.275,308.337 328.856,309.063 343.816 L 309.316 349.031 308.064 350.085 C 307.376 350.664,305.813 351.512,304.591 351.969 L 302.370 352.800 200.165 352.800 C 112.832 352.800,97.803 352.718,96.880 352.234 C 96.286 351.923,95.179 351.022,94.420 350.233 L 93.040 348.797 93.524 338.891 C 94.234 324.378,96.021 317.109,99.516 314.525 C 100.157 314.052,101.691 312.322,102.925 310.682 C 105.070 307.832,110.668 304.400,113.171 304.400 C 113.433 304.400,115.752 303.692,118.324 302.827 C 128.106 299.537,134.751 298.892,168.400 297.970 C 177.970 297.708,185.875 297.427,185.967 297.347 C 186.307 297.047,209.802 297.209,221.400 297.591 " stroke="none" fill="#9c9c9c" fill-rule="evenodd"></path><path id="path2" d="M191.043 43.297 L 189.087 44.151 189.340 51.776 C 189.860 67.445,187.782 69.681,172.796 69.582 C 166.834 69.542,165.537 69.643,164.282 70.242 L 162.800 70.948 162.795 80.374 C 162.792 85.558,162.687 90.179,162.563 90.643 C 162.383 91.311,162.736 91.770,164.268 92.865 L 166.200 94.244 172.800 93.944 C 181.132 93.566,183.703 94.136,185.585 96.778 C 186.543 98.124,187.496 104.552,186.855 105.347 C 186.064 106.328,184.849 112.052,184.424 116.800 C 183.590 126.122,182.352 129.897,178.961 133.463 C 175.231 137.386,170.416 137.457,167.110 133.637 C 165.589 131.880,161.771 130.765,154.600 129.985 C 149.054 129.381,143.941 128.158,140.400 126.589 C 133.216 123.406,110.213 123.627,104.861 126.930 C 102.430 128.431,98.475 129.680,93.896 130.395 C 90.969 130.851,88.400 131.880,88.400 132.596 C 88.400 133.711,83.653 137.205,80.550 138.374 C 78.864 139.010,78.411 139.438,77.200 141.537 C 76.421 142.888,75.090 144.478,74.200 145.124 C 71.952 146.752,71.505 147.335,69.380 151.400 C 67.273 155.431,66.663 156.244,65.157 157.022 C 63.843 157.702,63.528 158.578,62.280 165.020 C 61.683 168.105,60.668 171.706,59.800 173.820 C 57.082 180.442,57.136 180.182,56.907 187.800 C 56.675 195.522,57.181 201.274,58.191 202.390 C 59.017 203.303,61.135 208.537,61.836 211.400 C 63.721 219.095,64.203 220.409,65.415 221.156 C 67.042 222.158,67.861 223.152,68.592 225.015 C 69.816 228.132,70.912 229.845,72.240 230.716 C 72.981 231.202,73.996 232.199,74.494 232.933 C 74.992 233.666,76.055 235.241,76.857 236.433 C 77.658 237.625,79.422 239.586,80.777 240.791 C 82.132 241.997,83.637 243.694,84.120 244.563 C 84.604 245.432,86.080 246.971,87.400 247.982 C 89.108 249.291,90.099 250.431,90.836 251.936 C 91.705 253.708,92.197 254.201,93.876 254.979 C 95.921 255.927,97.051 257.174,97.986 259.518 C 98.343 260.412,98.975 261.030,99.951 261.437 C 102.319 262.427,104.800 265.453,104.800 267.352 C 104.800 267.674,105.322 268.051,105.960 268.191 C 107.767 268.588,109.937 270.761,110.763 273.000 C 111.334 274.546,111.818 275.154,112.896 275.677 C 114.735 276.571,116.305 278.485,116.633 280.235 C 116.926 281.798,118.710 283.833,120.708 284.884 C 121.423 285.260,122.367 286.176,122.806 286.920 C 124.355 289.545,127.541 289.573,130.445 286.988 C 134.388 283.477,174.887 281.967,231.000 283.237 C 255.498 283.791,258.166 283.809,272.149 283.520 C 283.038 283.295,282.683 283.465,282.882 278.400 L 283.000 275.400 285.593 275.200 L 288.185 275.000 288.497 273.000 C 289.159 268.752,289.401 268.483,292.972 268.048 L 295.000 267.800 295.257 265.696 C 295.569 263.136,296.447 261.698,297.905 261.356 C 299.237 261.044,302.000 258.492,302.000 257.573 C 302.000 256.393,303.573 254.841,305.050 254.564 C 306.864 254.224,308.256 252.821,308.806 250.778 C 309.267 249.066,311.027 247.604,312.630 247.601 C 313.773 247.599,315.044 246.117,315.555 244.192 C 315.998 242.521,320.194 238.000,321.302 238.000 C 321.598 238.000,322.281 237.160,322.820 236.133 C 323.359 235.106,324.191 233.511,324.670 232.588 C 325.305 231.364,325.967 230.740,327.124 230.277 C 329.048 229.507,330.202 227.739,330.551 225.026 C 330.901 222.309,331.670 221.295,333.784 220.762 C 335.313 220.377,335.589 220.145,335.808 219.058 C 335.947 218.366,336.306 216.720,336.606 215.400 C 336.906 214.080,337.439 211.511,337.790 209.690 C 338.458 206.225,339.119 204.042,341.205 198.400 L 342.462 195.000 342.303 187.800 C 342.179 182.197,341.996 180.273,341.477 179.126 C 340.717 177.444,339.004 171.052,338.408 167.673 C 336.918 159.229,336.446 157.839,334.527 156.237 C 332.978 154.944,330.747 151.026,329.760 147.863 C 329.114 145.792,328.858 145.457,327.520 144.921 C 325.757 144.216,323.723 142.054,323.352 140.493 C 323.003 139.022,322.057 138.001,321.038 137.996 C 319.494 137.989,316.220 136.126,314.031 134.010 C 311.595 131.655,309.586 130.652,306.495 130.247 C 303.068 129.798,297.537 128.037,295.543 126.761 C 290.705 123.663,269.462 123.599,261.451 126.658 C 256.858 128.412,252.807 129.349,246.200 130.184 C 239.912 130.980,237.964 131.636,235.969 133.631 C 230.634 138.966,223.139 137.432,221.161 130.600 C 220.715 129.060,219.734 126.540,218.980 125.000 C 215.215 117.305,213.464 99.282,216.200 96.376 C 218.242 94.207,219.214 94.000,227.346 94.000 C 234.575 94.000,234.773 93.977,237.597 92.828 C 241.182 91.369,240.885 91.868,240.367 88.162 C 239.959 85.245,240.010 82.696,240.645 74.327 L 240.878 71.254 238.739 70.562 C 237.099 70.032,234.547 69.816,227.800 69.635 C 213.760 69.260,213.811 69.317,213.804 54.002 L 213.800 43.804 210.600 43.122 C 205.538 42.043,193.675 42.149,191.043 43.297 M142.006 103.881 C 142.020 104.585,142.731 105.271,143.311 105.139 C 143.789 105.031,143.711 104.839,142.963 104.281 C 142.434 103.886,142.003 103.706,142.006 103.881 M328.800 123.130 C 328.800 124.110,330.552 125.706,331.439 125.536 C 332.046 125.419,331.957 125.179,330.834 123.899 C 329.380 122.244,328.800 122.025,328.800 123.130 M145.395 167.417 C 153.882 168.187,156.841 169.007,159.454 171.312 C 160.785 172.486,162.632 173.509,165.300 174.550 C 169.172 176.062,169.876 176.604,171.275 179.149 C 171.646 179.824,172.848 180.929,173.947 181.606 C 177.780 183.964,177.563 182.037,177.620 214.228 C 177.674 244.415,177.680 244.309,175.548 247.663 C 173.406 251.034,169.820 251.986,159.226 251.994 C 150.638 252.001,149.094 251.575,147.488 248.760 C 146.920 247.764,146.007 246.922,144.956 246.426 C 142.954 245.480,141.363 243.668,140.989 241.910 C 140.624 240.191,139.763 239.253,137.754 238.385 C 136.213 237.720,134.400 235.810,134.400 234.852 C 134.400 234.285,132.023 231.600,131.520 231.600 C 130.581 231.600,128.784 229.836,127.618 227.769 C 126.902 226.501,125.833 225.250,125.140 224.870 C 122.926 223.653,122.092 222.828,120.846 220.619 C 120.160 219.404,118.830 217.850,117.848 217.118 C 115.960 215.708,113.898 212.675,112.600 209.399 C 112.160 208.289,111.071 206.656,110.180 205.770 C 105.911 201.528,105.890 185.985,110.148 182.593 C 112.316 180.866,112.664 180.430,113.138 178.849 C 113.818 176.580,115.081 175.209,117.460 174.157 C 118.974 173.487,119.865 172.764,120.588 171.618 C 122.286 168.930,125.074 168.020,134.000 167.241 C 136.090 167.059,137.978 166.885,138.195 166.855 C 138.412 166.825,141.652 167.078,145.395 167.417 M270.981 167.650 C 277.000 168.276,280.275 169.716,281.020 172.062 C 281.150 172.472,281.966 172.998,282.915 173.282 C 284.921 173.883,287.419 176.263,287.783 177.922 C 287.959 178.723,288.585 179.481,289.659 180.191 C 295.270 183.905,295.060 203.978,289.352 209.463 C 288.067 210.698,286.764 212.455,286.168 213.759 C 285.152 215.976,283.961 217.222,281.655 218.479 C 280.824 218.931,280.092 219.865,279.458 221.279 C 278.373 223.702,277.016 225.109,275.352 225.539 C 274.435 225.775,273.950 226.362,272.974 228.418 C 271.858 230.769,271.536 231.107,269.374 232.200 C 267.396 233.200,266.919 233.649,266.512 234.897 C 265.710 237.351,264.743 238.469,262.602 239.416 C 260.719 240.249,260.524 240.470,259.883 242.503 C 259.293 244.375,258.733 245.108,256.018 247.559 C 251.173 251.934,250.558 252.123,241.500 252.035 C 231.935 251.943,230.005 251.450,226.918 248.314 C 222.842 244.174,223.080 246.328,223.170 214.453 C 223.257 183.892,223.141 185.289,225.743 183.511 C 226.951 182.686,228.725 180.746,231.049 177.709 C 232.024 176.436,236.126 174.282,238.912 173.580 C 240.318 173.227,241.118 172.714,241.997 171.604 C 242.678 170.744,244.011 169.750,245.124 169.271 C 246.906 168.504,248.605 168.220,257.200 167.248 C 260.464 166.879,264.774 167.005,270.981 167.650 M281.435 274.698 C 281.005 275.128,280.777 274.526,281.079 273.757 C 281.362 273.036,281.383 273.035,281.524 273.731 C 281.604 274.134,281.565 274.569,281.435 274.698 M164.166 299.994 C 137.904 300.456,131.074 300.971,129.082 302.641 C 127.528 303.944,123.915 304.977,117.378 305.989 C 114.310 306.464,111.260 307.056,110.600 307.306 C 109.083 307.880,102.600 314.440,101.586 316.427 C 101.167 317.250,100.213 318.435,99.466 319.061 C 96.932 321.188,96.489 323.811,96.125 338.823 L 95.877 349.045 96.992 349.923 L 98.108 350.800 200.070 350.800 C 301.584 350.800,302.039 350.796,303.616 349.992 L 305.200 349.184 305.200 345.424 C 305.200 326.572,303.278 317.646,298.509 314.344 C 297.320 313.522,296.492 312.481,295.724 310.848 L 294.632 308.522 291.016 307.488 C 289.027 306.918,285.420 306.150,283.000 305.781 C 277.690 304.970,274.303 303.965,272.324 302.613 C 270.313 301.238,267.356 300.878,254.296 300.418 C 238.586 299.865,185.707 299.616,164.166 299.994 " stroke="none" fill="#fafafa" fill-rule="evenodd"></path><path id="path3" d="M231.058 25.269 C 231.529 25.498,232.102 26.071,232.331 26.542 C 232.559 27.014,232.758 27.175,232.773 26.900 C 232.808 26.252,231.348 24.792,230.700 24.827 C 230.425 24.842,230.586 25.041,231.058 25.269 M171.800 25.866 C 169.549 27.055,168.456 28.418,167.844 30.800 C 167.703 31.350,168.032 30.852,168.574 29.692 C 169.210 28.334,170.006 27.339,170.811 26.892 C 173.310 25.507,174.172 24.613,171.800 25.866 M166.893 35.200 C 166.893 35.970,166.975 36.285,167.076 35.900 C 167.176 35.515,167.176 34.885,167.076 34.500 C 166.975 34.115,166.893 34.430,166.893 35.200 M187.562 38.005 C 182.493 38.863,181.024 43.431,182.373 54.148 C 182.844 57.889,181.937 62.276,180.265 64.347 C 179.771 64.960,174.840 64.700,172.889 63.958 C 169.300 62.593,165.915 62.374,164.178 63.392 C 163.256 63.932,161.624 64.570,160.551 64.809 C 155.487 65.939,155.253 66.681,155.191 81.812 C 155.140 94.117,155.244 95.146,156.817 97.944 C 158.430 100.815,163.792 102.699,168.335 101.992 C 178.026 100.482,179.911 100.673,181.252 103.303 L 182.046 104.859 181.003 107.991 C 180.385 109.846,179.490 111.615,178.808 112.329 C 177.226 113.984,176.756 115.801,176.457 121.418 C 176.060 128.867,174.620 130.450,169.969 128.551 C 168.556 127.975,165.870 127.059,164.000 126.517 C 161.607 125.823,160.259 125.185,159.449 124.362 C 157.551 122.434,148.464 120.942,130.200 119.558 C 115.236 118.425,95.045 121.152,93.225 124.553 C 92.820 125.309,91.889 125.844,89.639 126.612 C 84.620 128.324,82.324 129.622,81.128 131.424 C 80.534 132.317,79.364 133.375,78.525 133.777 C 77.686 134.179,76.401 134.789,75.670 135.133 C 74.719 135.580,74.028 136.392,73.248 137.979 C 72.400 139.704,71.803 140.365,70.578 140.940 C 68.415 141.955,67.309 143.057,66.749 144.759 C 66.042 146.903,64.788 148.625,63.379 149.383 C 62.010 150.121,60.424 153.158,58.791 158.169 C 58.143 160.158,57.466 161.341,56.389 162.369 C 54.598 164.077,54.225 165.258,53.218 172.400 C 50.361 192.676,51.919 211.955,56.776 216.417 C 58.013 217.552,58.519 218.485,59.328 221.120 C 60.266 224.175,62.754 228.400,63.615 228.400 C 63.979 228.400,66.872 232.793,68.152 235.291 C 68.588 236.143,69.464 237.024,70.242 237.393 C 71.707 238.088,73.184 239.868,73.988 241.908 C 74.525 243.270,76.499 245.200,77.356 245.200 C 78.065 245.200,79.786 247.181,80.373 248.671 C 80.987 250.231,81.975 251.157,84.140 252.200 C 85.466 252.839,86.041 253.483,87.000 255.400 C 87.959 257.317,88.546 257.975,89.921 258.669 C 92.306 259.872,92.807 260.352,93.603 262.194 C 94.415 264.076,95.306 264.951,97.223 265.752 C 98.840 266.427,99.783 267.391,100.205 268.800 C 100.735 270.566,102.064 272.056,103.759 272.783 C 105.707 273.617,106.130 274.085,106.790 276.134 C 107.394 278.007,109.203 280.139,110.724 280.769 C 111.456 281.072,112.036 281.745,112.377 282.686 C 115.590 291.574,119.776 293.461,134.716 292.762 C 147.968 292.142,159.467 292.423,162.400 293.438 C 166.874 294.987,165.600 295.191,146.600 295.963 C 124.871 296.845,113.841 298.551,111.400 301.408 C 111.180 301.666,109.380 302.544,107.400 303.361 C 102.115 305.540,102.008 305.611,100.982 307.636 C 100.463 308.659,99.493 309.924,98.826 310.448 C 98.159 310.972,97.082 311.809,96.432 312.309 C 95.161 313.288,93.406 317.310,92.204 322.000 C 91.838 323.430,91.124 325.050,90.618 325.600 C 88.666 327.721,88.037 332.198,88.012 344.140 C 87.998 350.591,88.376 351.795,90.978 353.585 C 94.757 356.185,86.696 355.993,199.016 356.151 C 255.107 356.230,301.270 356.339,301.600 356.393 C 301.930 356.448,303.790 356.136,305.732 355.700 C 312.678 354.142,312.899 353.599,312.588 338.800 C 312.310 325.526,311.884 322.958,309.606 320.805 C 308.682 319.931,307.784 318.492,307.230 317.000 C 305.331 311.877,304.929 311.254,302.908 310.294 C 301.390 309.573,300.827 309.010,300.106 307.491 C 299.162 305.504,297.553 304.225,295.416 303.765 C 293.717 303.398,291.233 302.095,289.723 300.779 C 287.415 298.766,276.596 296.925,264.000 296.403 C 249.674 295.809,238.289 295.121,237.400 294.795 C 233.188 293.249,260.220 291.344,270.309 292.475 C 278.161 293.355,282.911 291.716,285.883 287.102 C 286.911 285.506,288.949 282.811,290.413 281.113 C 291.877 279.415,293.502 277.221,294.024 276.238 C 294.545 275.255,295.361 274.273,295.837 274.056 C 297.555 273.273,299.517 271.165,300.368 269.186 C 300.970 267.786,301.568 267.040,302.317 266.756 C 304.247 266.022,305.991 264.392,307.020 262.360 C 307.671 261.076,308.414 260.223,309.113 259.957 C 311.044 259.223,312.823 257.569,313.725 255.667 C 314.389 254.269,315.053 253.575,316.404 252.871 C 318.725 251.660,319.322 251.102,320.238 249.290 C 321.195 247.397,322.392 246.000,323.056 246.000 C 324.064 246.000,326.392 243.519,326.865 241.939 C 327.348 240.328,328.485 239.153,330.761 237.912 C 331.644 237.431,332.372 236.471,333.186 234.712 C 334.494 231.889,335.382 230.708,336.704 230.031 C 337.598 229.573,340.617 224.055,341.553 221.169 C 341.808 220.382,342.550 219.344,343.202 218.862 C 345.213 217.375,346.945 211.714,348.422 201.800 C 348.684 200.040,349.147 197.550,349.449 196.268 C 350.152 193.291,350.147 192.458,349.386 186.400 C 348.125 176.350,347.528 172.510,346.556 168.200 C 345.233 162.328,345.305 162.519,343.786 160.837 C 342.656 159.586,338.800 151.550,338.800 150.445 C 338.800 150.246,338.125 149.520,337.300 148.831 C 334.756 146.708,334.538 146.439,334.051 144.813 C 333.451 142.808,331.911 140.975,330.017 140.009 C 329.012 139.496,328.219 138.637,327.552 137.342 C 326.775 135.832,326.152 135.233,324.584 134.484 C 323.493 133.964,322.165 133.327,321.634 133.069 C 321.102 132.811,320.269 131.880,319.782 131.000 C 318.962 129.518,318.532 129.255,313.948 127.424 C 310.933 126.219,308.712 125.082,308.262 124.512 C 305.341 120.811,285.933 118.426,269.600 119.760 C 250.495 121.321,243.299 122.645,242.616 124.727 C 242.401 125.381,239.147 126.515,230.471 128.959 L 227.143 129.897 226.135 128.374 C 224.843 126.421,224.421 124.550,224.410 120.716 C 224.391 114.799,223.711 111.839,221.896 109.777 C 218.672 106.114,218.706 103.284,221.986 102.217 C 225.851 100.958,227.015 100.868,230.476 101.557 C 238.883 103.231,243.913 101.141,245.190 95.445 C 246.063 91.547,245.802 69.972,244.855 67.832 C 244.018 65.940,241.797 64.434,239.800 64.406 C 239.360 64.400,238.496 64.132,237.880 63.811 C 235.370 62.501,234.225 62.434,231.338 63.426 C 228.569 64.377,223.546 64.685,221.200 64.049 C 219.256 63.522,218.209 59.160,218.693 53.600 C 219.507 44.244,218.563 39.780,215.473 38.377 C 213.681 37.564,191.890 37.273,187.562 38.005 M211.800 39.797 C 216.684 40.520,217.884 43.979,216.805 54.221 C 216.287 59.127,217.261 63.584,219.236 65.349 L 220.538 66.512 227.408 66.306 C 238.627 65.969,241.734 66.718,243.341 70.149 C 244.207 71.997,243.967 91.549,243.051 93.741 C 241.348 97.816,236.813 99.782,231.238 98.861 C 229.702 98.607,227.108 98.400,225.473 98.400 C 217.553 98.400,216.083 102.157,219.941 112.535 C 221.500 116.729,222.136 119.122,222.568 122.420 C 223.557 129.972,225.948 133.503,229.105 132.074 C 232.584 130.499,239.768 127.972,242.600 127.328 C 244.140 126.978,246.977 126.082,248.905 125.338 C 257.961 121.841,279.038 120.328,292.604 122.201 C 298.695 123.042,300.292 123.477,304.200 125.365 C 306.180 126.321,309.590 127.800,311.778 128.652 C 314.870 129.855,316.202 130.628,317.763 132.122 C 318.867 133.179,320.834 134.611,322.133 135.303 C 323.730 136.154,324.978 137.217,325.989 138.585 C 326.811 139.698,328.326 141.298,329.355 142.142 C 330.481 143.065,331.681 144.576,332.369 145.938 C 332.997 147.182,334.339 149.206,335.352 150.436 C 337.117 152.580,339.718 157.625,340.798 161.000 C 341.080 161.880,341.804 163.590,342.408 164.800 C 348.180 176.364,347.916 206.801,341.970 215.444 C 341.322 216.385,340.197 218.561,339.470 220.278 C 337.983 223.791,336.784 225.795,334.641 228.356 C 333.832 229.321,332.465 231.301,331.603 232.756 C 330.740 234.210,329.288 236.011,328.375 236.758 C 327.463 237.505,326.110 239.064,325.368 240.223 C 324.627 241.382,323.180 243.019,322.152 243.861 C 321.124 244.703,319.577 246.348,318.714 247.517 C 317.850 248.685,316.267 250.272,315.194 251.043 C 314.121 251.813,312.604 253.334,311.822 254.422 C 311.040 255.510,309.546 257.015,308.500 257.767 C 307.455 258.518,306.028 259.945,305.328 260.938 C 304.629 261.931,303.167 263.431,302.080 264.272 C 300.993 265.112,299.405 266.836,298.552 268.102 C 297.698 269.368,296.218 270.967,295.261 271.655 C 294.305 272.342,292.921 273.846,292.185 274.997 C 291.449 276.147,289.987 278.013,288.937 279.143 C 287.887 280.273,285.851 282.953,284.414 285.099 L 281.800 289.000 278.200 289.921 L 274.600 290.842 271.127 290.008 C 268.923 289.479,265.196 289.041,260.927 288.810 C 257.227 288.611,252.400 288.174,250.200 287.839 C 230.623 284.863,162.631 285.455,146.400 288.743 C 144.310 289.166,140.710 289.718,138.400 289.969 C 136.090 290.220,132.332 290.711,130.049 291.061 C 122.808 292.169,117.772 289.520,114.531 282.895 C 113.938 281.684,112.510 279.772,111.356 278.646 C 110.203 277.521,108.818 275.790,108.279 274.800 C 107.740 273.810,106.360 272.276,105.213 271.391 C 104.066 270.506,102.469 268.806,101.664 267.614 C 100.859 266.422,99.415 264.896,98.455 264.223 C 97.495 263.550,95.965 262.025,95.055 260.832 C 94.145 259.640,92.599 258.101,91.619 257.412 C 90.639 256.723,89.109 255.138,88.219 253.891 C 87.329 252.643,85.739 250.975,84.687 250.183 C 83.635 249.392,82.340 248.055,81.808 247.213 C 81.277 246.371,79.828 244.809,78.588 243.741 C 77.349 242.674,75.519 240.575,74.523 239.079 C 73.526 237.582,72.183 235.968,71.538 235.491 C 70.893 235.014,69.087 232.638,67.525 230.212 C 65.963 227.785,64.108 225.154,63.402 224.365 C 62.697 223.576,61.616 221.596,61.000 219.965 C 60.385 218.334,58.927 215.110,57.762 212.800 C 52.225 201.828,52.249 175.381,57.804 165.815 C 58.319 164.927,59.313 162.490,60.012 160.400 C 61.491 155.975,62.519 154.063,64.952 151.212 C 65.924 150.074,67.295 148.063,67.998 146.743 C 68.880 145.088,69.892 143.901,71.259 142.919 C 72.349 142.136,73.931 140.480,74.774 139.239 C 75.925 137.543,76.874 136.686,78.590 135.791 C 79.847 135.136,81.803 133.747,82.937 132.704 C 85.319 130.515,88.154 128.931,92.398 127.416 C 94.047 126.828,96.297 125.835,97.398 125.211 C 106.610 119.984,138.010 120.069,153.400 125.363 C 155.600 126.119,159.290 127.230,161.600 127.831 C 163.910 128.431,167.448 129.686,169.462 130.618 L 173.123 132.313 174.562 131.127 C 177.229 128.929,177.976 127.148,180.407 117.200 C 181.141 114.196,181.916 111.316,183.331 106.334 C 183.847 104.517,183.329 102.591,181.586 99.843 L 180.345 97.886 176.673 98.152 C 174.653 98.299,171.463 98.649,169.584 98.932 C 165.685 99.518,164.950 99.339,161.292 96.911 C 157.493 94.389,157.329 93.726,157.433 81.290 C 157.532 69.359,157.507 69.461,160.707 67.857 C 164.210 66.101,165.984 65.884,173.200 66.330 L 179.800 66.738 181.386 65.659 C 183.696 64.089,184.582 61.173,184.380 55.800 C 183.848 41.639,184.170 40.968,192.200 39.495 C 193.593 39.239,209.712 39.488,211.800 39.797 M166.953 46.200 C 166.953 48.840,167.018 49.868,167.097 48.484 C 167.175 47.101,167.174 44.941,167.095 43.684 C 167.016 42.428,166.952 43.560,166.953 46.200 M257.956 52.558 C 258.482 52.850,259.150 53.518,259.442 54.044 C 259.733 54.570,259.978 54.767,259.986 54.482 C 260.004 53.810,258.190 51.996,257.518 52.014 C 257.233 52.022,257.430 52.267,257.956 52.558 M144.298 55.520 C 142.482 57.310,141.244 60.395,141.004 63.728 C 140.844 65.965,140.859 66.029,141.166 64.400 C 141.687 61.636,142.656 59.645,144.405 57.748 C 145.386 56.684,146.000 55.630,146.000 55.009 C 146.000 53.769,146.107 53.737,144.298 55.520 M140.844 97.633 C 140.683 101.436,142.666 105.200,144.831 105.200 C 145.948 105.200,145.782 104.745,144.202 103.485 C 142.582 102.192,141.683 100.620,141.218 98.269 C 140.992 97.129,140.874 96.927,140.844 97.633 M260.400 104.176 C 260.400 104.713,260.547 105.244,260.728 105.355 C 260.908 105.467,260.977 105.027,260.882 104.379 C 260.672 102.949,260.400 102.835,260.400 104.176 M139.300 105.491 C 140.125 105.578,141.475 105.578,142.300 105.491 C 143.125 105.405,142.450 105.334,140.800 105.334 C 139.150 105.334,138.475 105.405,139.300 105.491 M143.621 106.131 C 144.033 106.490,146.000 106.789,146.000 106.493 C 146.000 106.315,145.424 106.126,144.721 106.073 C 144.017 106.019,143.522 106.045,143.621 106.131 M301.600 108.960 C 301.600 109.282,304.512 112.021,304.678 111.855 C 304.914 111.620,302.404 108.800,301.959 108.800 C 301.761 108.800,301.600 108.872,301.600 108.960 M79.855 113.802 C 79.144 114.513,78.627 115.960,78.963 116.297 C 79.094 116.427,79.200 116.258,79.200 115.921 C 79.200 115.584,79.573 114.834,80.029 114.254 C 80.930 113.109,80.824 112.834,79.855 113.802 M328.800 124.800 C 328.800 125.353,329.067 125.600,329.662 125.600 C 330.499 125.600,330.503 125.576,329.800 124.800 C 329.402 124.360,329.014 124.000,328.938 124.000 C 328.862 124.000,328.800 124.360,328.800 124.800 M340.000 127.600 C 340.440 128.040,340.800 128.610,340.800 128.867 C 340.800 129.123,340.914 129.219,341.054 129.079 C 341.375 128.759,340.117 126.800,339.591 126.800 C 339.376 126.800,339.560 127.160,340.000 127.600 M47.728 147.445 C 46.435 148.083,45.171 150.120,45.236 151.460 C 45.256 151.871,45.434 151.640,45.637 150.941 C 46.115 149.292,47.580 147.913,49.474 147.331 C 50.685 146.958,50.794 146.857,50.000 146.840 C 49.450 146.828,48.428 147.100,47.728 147.445 M359.098 161.413 C 359.579 161.751,360.249 162.421,360.587 162.902 C 360.924 163.384,361.200 163.549,361.200 163.270 C 361.200 162.669,359.272 160.800,358.653 160.800 C 358.416 160.800,358.616 161.076,359.098 161.413 M134.200 170.417 C 129.807 170.831,125.745 172.180,123.912 173.834 C 123.093 174.572,121.383 175.702,120.112 176.345 C 117.336 177.747,116.867 178.246,115.202 181.573 C 114.494 182.988,113.502 184.788,112.996 185.573 C 110.553 189.369,110.240 198.167,112.439 201.255 C 112.918 201.927,113.804 203.802,114.408 205.421 C 115.375 208.014,117.884 212.109,118.726 212.471 C 118.892 212.542,119.914 213.770,120.999 215.200 C 122.084 216.630,124.391 219.330,126.127 221.200 C 127.862 223.070,131.019 226.473,133.141 228.763 C 135.264 231.052,138.260 234.202,139.800 235.763 C 141.340 237.323,143.166 239.433,143.858 240.452 C 144.549 241.470,145.989 242.899,147.058 243.627 C 148.126 244.355,149.810 245.625,150.800 246.450 L 152.600 247.949 159.600 247.720 C 167.170 247.472,167.820 247.306,171.455 244.711 C 174.169 242.773,174.602 241.294,174.015 235.974 C 173.665 232.808,173.563 225.011,173.661 209.055 L 173.800 186.593 169.800 182.528 C 165.966 178.633,160.676 175.200,158.505 175.200 C 157.830 175.200,154.820 173.700,153.934 172.922 C 152.579 171.733,141.509 169.745,138.000 170.061 C 137.670 170.091,135.960 170.251,134.200 170.417 M257.200 170.459 C 252.976 170.883,248.759 172.112,246.400 173.608 C 245.410 174.236,243.250 175.234,241.600 175.827 C 237.818 177.186,235.838 178.545,231.700 182.623 L 228.400 185.875 228.379 188.637 C 228.367 190.157,228.300 201.840,228.229 214.600 C 228.159 227.360,227.976 238.520,227.823 239.400 C 227.215 242.897,231.583 247.194,235.760 247.208 C 237.102 247.212,240.180 247.481,242.600 247.804 C 248.175 248.551,247.643 248.596,249.371 247.223 C 250.185 246.576,251.616 245.676,252.550 245.224 C 254.565 244.249,256.114 242.711,257.550 240.260 C 258.128 239.274,259.553 237.722,260.718 236.810 C 261.883 235.898,263.361 234.308,264.002 233.276 C 264.643 232.244,266.160 230.640,267.372 229.712 C 268.584 228.783,270.011 227.333,270.544 226.489 C 271.076 225.646,272.621 223.994,273.978 222.819 C 275.334 221.645,276.777 220.035,277.186 219.242 C 277.595 218.449,279.025 216.745,280.364 215.456 C 282.754 213.155,284.865 209.936,288.983 202.309 C 290.272 199.923,290.935 194.363,290.369 190.692 C 289.704 186.378,289.566 186.010,287.905 184.091 C 287.012 183.059,286.021 181.581,285.702 180.807 C 284.679 178.328,283.284 176.897,280.691 175.673 C 279.308 175.019,277.430 173.860,276.517 173.097 C 273.853 170.872,265.060 169.671,257.200 170.459 M143.261 172.360 C 146.114 172.610,146.934 172.841,147.921 173.672 C 149.161 174.715,154.446 176.553,157.600 177.038 C 161.194 177.590,164.660 179.917,168.985 184.681 L 170.874 186.762 170.184 195.281 C 169.275 206.493,169.500 232.799,170.527 235.400 C 172.511 240.422,172.258 241.267,167.944 244.036 L 166.069 245.239 162.671 244.646 C 159.770 244.140,158.788 244.130,155.962 244.583 L 152.651 245.113 150.625 243.613 C 149.511 242.788,147.998 241.773,147.262 241.357 C 146.526 240.940,145.559 239.880,145.114 239.000 C 144.668 238.120,142.930 236.022,141.252 234.339 C 137.724 230.800,131.657 224.298,129.186 221.408 C 128.249 220.312,126.474 218.418,125.241 217.199 C 124.009 215.980,122.550 214.087,122.000 212.992 C 121.396 211.791,120.418 210.626,119.531 210.054 C 114.572 206.854,112.850 191.089,116.586 183.096 L 118.339 179.344 122.469 177.306 C 124.741 176.185,127.140 175.150,127.800 175.006 C 128.460 174.861,129.495 174.272,130.099 173.697 C 131.618 172.253,136.443 171.763,143.261 172.360 M266.530 172.380 C 269.136 172.612,270.695 172.943,271.156 173.360 C 271.539 173.707,272.462 174.203,273.208 174.463 C 273.954 174.723,275.155 175.337,275.877 175.827 C 276.600 176.317,278.138 176.939,279.295 177.209 C 282.026 177.845,283.033 178.814,283.818 181.559 C 284.171 182.792,284.961 184.434,285.575 185.208 C 289.047 189.591,289.926 197.848,287.193 200.405 C 285.850 201.662,284.990 203.333,284.623 205.400 C 284.234 207.589,282.322 210.481,279.130 213.711 C 277.656 215.202,276.034 217.297,275.525 218.366 C 274.821 219.847,274.196 220.510,272.910 221.145 C 271.177 222.001,268.963 224.611,268.540 226.297 C 268.386 226.911,267.681 227.534,266.522 228.078 C 264.550 229.006,262.836 230.904,262.173 232.896 C 261.865 233.819,261.280 234.416,260.169 234.939 C 257.962 235.978,256.457 237.516,255.932 239.269 C 255.395 241.063,254.418 241.992,252.000 243.010 C 251.010 243.427,249.557 244.162,248.771 244.644 L 247.342 245.521 244.029 244.736 C 241.300 244.090,240.368 244.026,238.738 244.376 C 234.590 245.265,233.476 245.025,231.484 242.808 L 229.693 240.817 230.346 237.708 C 231.060 234.313,231.323 199.694,230.704 190.697 L 230.407 186.394 231.881 184.763 C 232.692 183.865,234.138 182.763,235.094 182.314 C 236.051 181.864,237.078 181.023,237.377 180.444 C 238.029 179.183,240.400 177.805,242.588 177.414 C 243.462 177.258,244.902 176.893,245.788 176.603 C 246.675 176.313,248.453 175.779,249.740 175.415 C 251.073 175.039,252.477 174.327,253.000 173.762 C 253.757 172.945,254.477 172.710,257.060 172.438 C 261.371 171.983,262.042 171.979,266.530 172.380 M262.629 208.229 C 261.677 209.180,261.876 209.428,262.900 208.566 C 263.395 208.150,263.875 207.762,263.967 207.704 C 264.058 207.647,263.936 207.600,263.695 207.600 C 263.454 207.600,262.974 207.883,262.629 208.229 M257.000 214.862 C 255.946 215.438,255.199 216.403,255.206 217.176 C 255.209 217.546,255.415 217.392,255.711 216.800 C 255.986 216.250,256.839 215.485,257.606 215.101 C 258.373 214.716,258.730 214.406,258.400 214.413 C 258.070 214.419,257.440 214.621,257.000 214.862 M360.599 216.904 C 360.159 217.604,359.349 218.405,358.799 218.683 C 358.021 219.077,357.961 219.190,358.531 219.194 C 359.424 219.201,361.600 217.100,361.600 216.231 C 361.600 215.381,361.526 215.430,360.599 216.904 M250.844 222.158 C 250.318 222.450,249.650 223.118,249.358 223.644 C 248.512 225.171,248.722 225.533,249.609 224.077 C 250.053 223.350,250.997 222.502,251.708 222.193 C 252.419 221.884,252.730 221.631,252.400 221.630 C 252.070 221.629,251.370 221.867,250.844 222.158 M340.199 247.506 C 339.979 247.668,339.529 248.324,339.199 248.965 C 338.680 249.974,337.099 251.267,335.800 251.744 C 335.580 251.824,335.518 252.018,335.663 252.175 C 336.370 252.939,339.621 250.259,340.363 248.300 C 340.814 247.111,340.804 247.063,340.199 247.506 M333.678 256.534 C 333.133 258.042,332.063 258.914,329.952 259.570 L 328.600 259.991 330.158 259.766 C 332.694 259.401,334.873 257.220,334.331 255.592 C 334.248 255.345,333.955 255.769,333.678 256.534 M327.014 264.756 C 326.882 265.172,326.195 265.798,325.487 266.147 C 324.661 266.554,324.457 266.785,324.918 266.791 C 325.689 266.801,327.600 265.110,327.600 264.418 C 327.600 263.747,327.274 263.935,327.014 264.756 M320.198 271.207 C 320.043 271.695,319.198 272.403,318.261 272.828 C 317.348 273.243,316.834 273.586,317.120 273.591 C 318.552 273.615,321.345 271.211,320.669 270.536 C 320.561 270.428,320.349 270.730,320.198 271.207 M93.652 282.376 C 94.176 283.880,95.720 285.424,97.224 285.948 C 98.892 286.530,98.771 285.647,97.028 284.518 C 96.279 284.033,95.343 283.088,94.947 282.418 C 93.984 280.787,93.088 280.758,93.652 282.376 M97.402 282.002 C 97.802 282.444,98.215 282.718,98.321 282.612 C 98.590 282.343,97.592 281.200,97.089 281.200 C 96.862 281.200,97.003 281.561,97.402 282.002 M306.514 286.280 C 306.027 286.786,305.774 287.200,305.952 287.200 C 306.342 287.200,307.798 285.645,307.564 285.477 C 307.474 285.413,307.001 285.774,306.514 286.280 M215.800 288.033 C 226.285 288.076,225.830 288.554,214.600 289.294 C 203.469 290.027,180.847 289.656,177.200 288.681 C 175.233 288.155,193.240 287.574,202.600 287.861 C 205.020 287.936,210.960 288.013,215.800 288.033 M301.342 291.400 C 301.341 293.380,301.408 294.240,301.492 293.312 C 301.576 292.384,301.577 290.764,301.495 289.712 C 301.412 288.660,301.343 289.420,301.342 291.400 M224.951 296.384 C 229.158 296.595,237.460 296.964,243.400 297.206 C 264.938 298.080,269.892 298.399,274.802 299.225 C 282.531 300.527,294.768 304.870,296.899 307.067 C 297.503 307.690,299.347 309.561,300.996 311.225 C 304.222 314.479,304.616 315.218,307.687 323.800 C 309.682 329.375,309.887 330.761,310.236 341.017 L 310.522 349.433 309.272 350.857 C 308.378 351.875,307.276 352.525,305.403 353.140 L 302.783 354.000 200.292 353.991 C 85.478 353.981,96.299 354.267,93.285 351.169 C 91.449 349.282,91.403 348.859,91.960 339.201 C 92.829 324.158,94.553 317.912,99.193 313.000 C 100.647 311.460,102.336 309.521,102.946 308.691 C 104.208 306.973,108.269 304.766,113.400 303.010 C 115.160 302.407,116.951 301.728,117.381 301.500 C 118.403 300.957,125.395 299.391,129.200 298.852 C 132.618 298.369,141.901 297.837,158.400 297.180 C 164.670 296.931,172.500 296.590,175.800 296.423 C 184.740 295.970,216.197 295.945,224.951 296.384 M309.420 297.363 C 310.680 297.911,312.800 300.129,312.800 300.897 C 312.800 301.137,312.903 301.230,313.029 301.104 C 313.848 300.286,310.389 296.780,308.800 296.817 C 308.470 296.825,308.749 297.070,309.420 297.363 M322.543 338.124 C 326.422 340.610,327.203 344.092,324.831 348.331 C 324.596 348.751,324.670 349.361,325.044 350.084 C 325.359 350.694,325.868 352.230,326.175 353.497 C 326.570 355.126,326.739 355.449,326.754 354.600 C 326.765 353.940,326.439 352.431,326.030 351.246 C 325.368 349.328,325.348 348.943,325.849 347.743 C 327.491 343.815,326.842 339.946,324.281 338.384 C 322.869 337.523,321.221 337.276,322.543 338.124 M326.432 357.054 C 326.362 358.947,324.978 362.140,323.499 363.820 C 321.796 365.755,322.012 366.279,323.783 364.508 C 325.511 362.780,327.235 358.121,326.669 356.711 C 326.556 356.430,326.449 356.584,326.432 357.054 " stroke="none" fill="#848484" fill-rule="evenodd"></path><path id="path4" d="M190.339 41.339 C 188.914 41.819,187.239 42.544,186.618 42.952 L 185.488 43.692 185.704 50.946 C 186.017 61.480,185.397 64.452,182.476 66.421 L 180.600 67.686 173.228 67.469 C 165.254 67.235,163.381 67.593,160.003 69.998 L 158.800 70.854 158.800 81.499 L 158.800 92.144 160.569 93.792 C 163.709 96.716,165.758 97.560,168.800 97.182 C 181.199 95.642,182.962 96.323,184.442 103.221 C 184.827 105.015,184.759 105.636,183.866 108.527 C 183.310 110.327,182.552 113.600,182.182 115.800 C 180.981 122.945,178.411 129.575,175.994 131.758 C 173.473 134.036,173.101 134.129,171.343 132.930 C 168.709 131.132,166.042 130.159,159.000 128.425 C 155.260 127.504,150.935 126.320,149.388 125.795 C 135.507 121.074,107.912 121.385,98.400 126.369 C 97.190 127.003,94.850 127.920,93.200 128.406 C 89.085 129.620,86.855 130.821,84.015 133.355 C 82.683 134.543,80.561 136.040,79.297 136.682 C 77.532 137.578,76.659 138.362,75.526 140.068 C 74.716 141.288,73.128 142.951,71.998 143.764 C 70.713 144.687,69.712 145.791,69.328 146.711 C 68.583 148.494,66.729 151.275,64.946 153.286 C 63.231 155.219,61.818 158.045,61.013 161.148 C 60.658 162.518,59.542 165.566,58.532 167.920 C 53.842 178.853,53.549 201.535,57.989 209.952 C 59.475 212.769,61.447 217.419,61.825 219.000 C 62.263 220.830,63.053 222.202,64.908 224.356 C 65.839 225.436,67.493 227.797,68.585 229.602 C 69.676 231.408,71.443 233.721,72.510 234.742 C 73.578 235.764,75.155 237.713,76.015 239.074 C 76.888 240.454,78.335 242.069,79.289 242.728 C 80.230 243.378,81.627 244.906,82.394 246.123 C 83.246 247.475,84.540 248.828,85.720 249.601 C 86.861 250.348,88.215 251.745,89.027 253.014 C 89.783 254.197,90.882 255.487,91.469 255.882 C 92.057 256.277,93.314 257.410,94.263 258.400 C 96.410 260.639,98.967 263.183,100.800 264.904 C 101.570 265.627,102.501 266.790,102.869 267.488 C 103.237 268.186,104.447 269.410,105.558 270.208 C 106.762 271.073,108.138 272.577,108.963 273.930 C 109.724 275.178,111.214 277.018,112.273 278.018 C 113.333 279.018,114.735 280.867,115.389 282.126 C 117.283 285.775,119.548 288.073,122.670 289.512 L 125.410 290.775 129.205 290.020 C 131.292 289.605,134.350 289.059,136.000 288.806 C 137.650 288.553,140.620 288.012,142.600 287.603 C 157.204 284.586,223.019 283.712,250.200 286.174 C 253.940 286.513,259.610 286.952,262.800 287.151 C 267.458 287.440,269.176 287.720,271.522 288.573 L 274.444 289.634 277.263 288.836 C 281.102 287.750,281.460 287.450,284.157 283.070 C 285.454 280.965,287.215 278.679,288.070 277.992 C 288.926 277.304,290.178 275.764,290.852 274.569 C 291.625 273.200,292.910 271.765,294.329 270.686 C 295.659 269.676,297.048 268.156,297.723 266.973 C 298.352 265.871,299.526 264.537,300.333 264.007 C 302.644 262.490,303.619 261.515,304.455 259.885 C 304.940 258.939,306.038 257.854,307.377 256.998 C 309.569 255.595,310.473 254.637,311.688 252.428 C 312.067 251.739,312.944 250.867,313.639 250.488 C 315.716 249.356,317.197 247.980,317.768 246.652 C 318.440 245.088,319.603 243.860,321.620 242.587 C 322.610 241.962,323.555 240.872,324.185 239.630 C 324.742 238.530,326.150 236.826,327.375 235.769 C 328.657 234.661,329.988 233.031,330.583 231.838 C 331.142 230.717,332.691 228.360,334.024 226.600 C 336.409 223.454,338.400 220.071,338.400 219.167 C 338.400 218.914,339.410 216.631,340.644 214.093 C 346.567 201.911,346.808 180.511,341.187 165.965 C 340.094 163.138,339.200 160.585,339.200 160.291 C 339.200 159.256,336.098 153.378,334.624 151.622 C 333.804 150.644,332.591 148.754,331.928 147.422 C 331.195 145.946,329.684 143.974,328.062 142.373 C 326.598 140.928,324.985 139.178,324.478 138.484 C 323.971 137.789,322.297 136.559,320.757 135.750 C 319.218 134.941,317.469 133.685,316.870 132.958 C 315.689 131.526,311.662 129.516,307.000 128.032 C 305.460 127.541,303.458 126.709,302.550 126.183 C 294.344 121.420,263.667 121.322,251.800 126.021 C 250.260 126.631,246.866 127.605,244.257 128.186 C 239.646 129.213,235.063 130.790,231.800 132.474 C 225.764 135.587,223.616 133.648,221.432 123.112 C 220.903 120.565,220.293 118.147,220.076 117.740 C 219.168 116.039,216.687 106.462,216.717 104.781 C 216.850 97.583,219.754 96.003,231.010 97.002 C 233.714 97.243,234.690 97.148,237.210 96.402 C 242.523 94.829,242.443 95.044,242.607 81.757 C 242.788 67.070,243.223 67.499,228.200 67.591 C 215.957 67.665,215.244 66.746,215.820 51.623 L 216.104 44.167 214.752 42.742 C 212.466 40.332,196.122 39.393,190.339 41.339 M210.600 43.122 L 213.800 43.804 213.804 54.002 C 213.811 69.317,213.760 69.260,227.800 69.635 C 234.547 69.816,237.099 70.032,238.739 70.562 L 240.878 71.254 240.645 74.327 C 240.010 82.696,239.959 85.245,240.367 88.162 C 240.885 91.868,241.182 91.369,237.597 92.828 C 234.773 93.977,234.575 94.000,227.346 94.000 C 219.214 94.000,218.242 94.207,216.200 96.376 C 213.464 99.282,215.215 117.305,218.980 125.000 C 219.734 126.540,220.715 129.060,221.161 130.600 C 223.139 137.432,230.634 138.966,235.969 133.631 C 237.964 131.636,239.912 130.980,246.200 130.184 C 252.807 129.349,256.858 128.412,261.451 126.658 C 269.462 123.599,290.705 123.663,295.543 126.761 C 297.537 128.037,303.068 129.798,306.495 130.247 C 309.586 130.652,311.595 131.655,314.031 134.010 C 316.220 136.126,319.494 137.989,321.038 137.996 C 322.057 138.001,323.003 139.022,323.352 140.493 C 323.723 142.054,325.757 144.216,327.520 144.921 C 328.858 145.457,329.114 145.792,329.760 147.863 C 330.747 151.026,332.978 154.944,334.527 156.237 C 336.446 157.839,336.918 159.229,338.408 167.673 C 339.004 171.052,340.717 177.444,341.477 179.126 C 341.996 180.273,342.179 182.197,342.303 187.800 L 342.462 195.000 341.205 198.400 C 339.119 204.042,338.458 206.225,337.790 209.690 C 337.439 211.511,336.906 214.080,336.606 215.400 C 336.306 216.720,335.947 218.366,335.808 219.058 C 335.589 220.145,335.313 220.377,333.784 220.762 C 331.670 221.295,330.901 222.309,330.551 225.026 C 330.202 227.739,329.048 229.507,327.124 230.277 C 325.967 230.740,325.305 231.364,324.670 232.588 C 324.191 233.511,323.359 235.106,322.820 236.133 C 322.281 237.160,321.598 238.000,321.302 238.000 C 320.194 238.000,315.998 242.521,315.555 244.192 C 315.044 246.117,313.773 247.599,312.630 247.601 C 311.027 247.604,309.267 249.066,308.806 250.778 C 308.256 252.821,306.864 254.224,305.050 254.564 C 303.573 254.841,302.000 256.393,302.000 257.573 C 302.000 258.492,299.237 261.044,297.905 261.356 C 296.447 261.698,295.569 263.136,295.257 265.696 L 295.000 267.800 292.972 268.048 C 289.401 268.483,289.159 268.752,288.497 273.000 L 288.185 275.000 285.593 275.200 L 283.000 275.400 282.882 278.400 C 282.683 283.465,283.038 283.295,272.149 283.520 C 258.166 283.809,255.498 283.791,231.000 283.237 C 174.887 281.967,134.388 283.477,130.445 286.988 C 127.541 289.573,124.355 289.545,122.806 286.920 C 122.367 286.176,121.423 285.260,120.708 284.884 C 118.710 283.833,116.926 281.798,116.633 280.235 C 116.305 278.485,114.735 276.571,112.896 275.677 C 111.818 275.154,111.334 274.546,110.763 273.000 C 109.937 270.761,107.767 268.588,105.960 268.191 C 105.322 268.051,104.800 267.674,104.800 267.352 C 104.800 265.453,102.319 262.427,99.951 261.437 C 98.975 261.030,98.343 260.412,97.986 259.518 C 97.051 257.174,95.921 255.927,93.876 254.979 C 92.197 254.201,91.705 253.708,90.836 251.936 C 90.099 250.431,89.108 249.291,87.400 247.982 C 86.080 246.971,84.604 245.432,84.120 244.563 C 83.637 243.694,82.132 241.997,80.777 240.791 C 79.422 239.586,77.658 237.625,76.857 236.433 C 76.055 235.241,74.992 233.666,74.494 232.933 C 73.996 232.199,72.981 231.202,72.240 230.716 C 70.912 229.845,69.816 228.132,68.592 225.015 C 67.861 223.152,67.042 222.158,65.415 221.156 C 64.203 220.409,63.721 219.095,61.836 211.400 C 61.135 208.537,59.017 203.303,58.191 202.390 C 57.181 201.274,56.675 195.522,56.907 187.800 C 57.136 180.182,57.082 180.442,59.800 173.820 C 60.668 171.706,61.683 168.105,62.280 165.020 C 63.528 158.578,63.843 157.702,65.157 157.022 C 66.663 156.244,67.273 155.431,69.380 151.400 C 71.505 147.335,71.952 146.752,74.200 145.124 C 75.090 144.478,76.421 142.888,77.200 141.537 C 78.411 139.438,78.864 139.010,80.550 138.374 C 83.653 137.205,88.400 133.711,88.400 132.596 C 88.400 131.880,90.969 130.851,93.896 130.395 C 98.475 129.680,102.430 128.431,104.861 126.930 C 110.213 123.627,133.216 123.406,140.400 126.589 C 143.941 128.158,149.054 129.381,154.600 129.985 C 161.771 130.765,165.589 131.880,167.110 133.637 C 170.416 137.457,175.231 137.386,178.961 133.463 C 182.352 129.897,183.590 126.122,184.424 116.800 C 184.849 112.052,186.064 106.328,186.855 105.347 C 187.496 104.552,186.543 98.124,185.585 96.778 C 183.703 94.136,181.132 93.566,172.800 93.944 L 166.200 94.244 164.268 92.865 C 162.736 91.770,162.383 91.311,162.563 90.643 C 162.687 90.179,162.792 85.558,162.795 80.374 L 162.800 70.948 164.282 70.242 C 165.537 69.643,166.834 69.542,172.796 69.582 C 187.782 69.681,189.860 67.445,189.340 51.776 L 189.087 44.151 191.043 43.297 C 193.675 42.149,205.538 42.043,210.600 43.122 M134.000 167.241 C 125.074 168.020,122.286 168.930,120.588 171.618 C 119.865 172.764,118.974 173.487,117.460 174.157 C 115.081 175.209,113.818 176.580,113.138 178.849 C 112.664 180.430,112.316 180.866,110.148 182.593 C 105.890 185.985,105.911 201.528,110.180 205.770 C 111.071 206.656,112.160 208.289,112.600 209.399 C 113.898 212.675,115.960 215.708,117.848 217.118 C 118.830 217.850,120.160 219.404,120.846 220.619 C 122.092 222.828,122.926 223.653,125.140 224.870 C 125.833 225.250,126.902 226.501,127.618 227.769 C 128.784 229.836,130.581 231.600,131.520 231.600 C 132.023 231.600,134.400 234.285,134.400 234.852 C 134.400 235.810,136.213 237.720,137.754 238.385 C 139.763 239.253,140.624 240.191,140.989 241.910 C 141.363 243.668,142.954 245.480,144.956 246.426 C 146.007 246.922,146.920 247.764,147.488 248.760 C 149.094 251.575,150.638 252.001,159.226 251.994 C 169.820 251.986,173.406 251.034,175.548 247.663 C 177.680 244.309,177.674 244.415,177.620 214.228 C 177.563 182.037,177.780 183.964,173.947 181.606 C 172.848 180.929,171.646 179.824,171.275 179.149 C 169.876 176.604,169.172 176.062,165.300 174.550 C 162.632 173.509,160.785 172.486,159.454 171.312 C 156.763 168.938,143.379 166.132,138.195 166.855 C 137.978 166.885,136.090 167.059,134.000 167.241 M257.200 167.248 C 248.605 168.220,246.906 168.504,245.124 169.271 C 244.011 169.750,242.678 170.744,241.997 171.604 C 241.118 172.714,240.318 173.227,238.912 173.580 C 236.126 174.282,232.024 176.436,231.049 177.709 C 228.725 180.746,226.951 182.686,225.743 183.511 C 223.141 185.289,223.257 183.892,223.170 214.453 C 223.080 246.328,222.842 244.174,226.918 248.314 C 230.005 251.450,231.935 251.943,241.500 252.035 C 250.558 252.123,251.173 251.934,256.018 247.559 C 258.733 245.108,259.293 244.375,259.883 242.503 C 260.524 240.470,260.719 240.249,262.602 239.416 C 264.743 238.469,265.710 237.351,266.512 234.897 C 266.919 233.649,267.396 233.200,269.374 232.200 C 271.536 231.107,271.858 230.769,272.974 228.418 C 273.950 226.362,274.435 225.775,275.352 225.539 C 277.016 225.109,278.373 223.702,279.458 221.279 C 280.092 219.865,280.824 218.931,281.655 218.479 C 283.961 217.222,285.152 215.976,286.168 213.759 C 286.764 212.455,288.067 210.698,289.352 209.463 C 295.060 203.978,295.270 183.905,289.659 180.191 C 288.585 179.481,287.959 178.723,287.783 177.922 C 287.419 176.263,284.921 173.883,282.915 173.282 C 281.966 172.998,281.150 172.472,281.020 172.062 C 279.893 168.512,267.743 166.056,257.200 167.248 M148.028 169.862 C 151.213 170.322,152.743 170.757,154.228 171.624 C 156.817 173.135,158.717 174.043,162.600 175.625 C 165.656 176.870,173.433 183.504,174.820 186.048 C 175.014 186.405,175.208 199.205,175.252 214.494 L 175.332 242.292 174.428 243.754 C 171.936 247.787,168.487 249.067,159.450 249.313 L 152.300 249.507 150.766 248.122 C 149.923 247.360,148.100 245.892,146.716 244.859 C 145.332 243.827,143.616 242.090,142.903 241.000 C 142.189 239.909,140.389 237.832,138.903 236.384 C 137.416 234.936,134.310 231.701,132.000 229.196 C 129.690 226.690,126.887 223.732,125.770 222.620 C 124.654 221.509,122.681 219.250,121.385 217.600 C 120.090 215.950,118.273 213.769,117.349 212.753 C 115.713 210.956,114.004 208.026,113.411 206.000 C 113.250 205.450,112.414 203.904,111.555 202.565 C 108.621 197.996,108.791 188.914,111.887 184.858 C 112.643 183.869,113.858 181.875,114.586 180.429 C 116.060 177.505,116.517 177.030,119.400 175.416 C 120.500 174.800,122.279 173.569,123.353 172.680 C 127.597 169.167,136.327 168.170,148.028 169.862 M270.600 169.667 C 274.412 170.186,275.800 170.703,277.629 172.286 C 278.383 172.938,280.121 174.064,281.492 174.787 C 284.054 176.140,285.281 177.415,286.700 180.200 C 287.148 181.080,287.900 182.148,288.370 182.574 C 292.711 186.499,292.951 198.762,288.818 205.400 C 287.996 206.720,286.451 209.230,285.384 210.978 C 284.318 212.726,282.383 215.154,281.084 216.374 C 279.784 217.594,278.267 219.367,277.711 220.315 C 277.156 221.263,275.887 222.661,274.892 223.421 C 273.896 224.181,272.298 225.880,271.340 227.196 C 270.382 228.513,268.859 230.079,267.956 230.677 C 267.053 231.274,265.658 232.754,264.857 233.965 C 264.056 235.176,262.506 236.842,261.413 237.669 C 260.187 238.595,258.860 240.135,257.950 241.685 C 256.676 243.859,255.969 244.532,252.738 246.650 C 247.674 249.969,247.761 249.936,245.000 249.578 C 243.680 249.407,240.737 249.252,238.460 249.234 C 232.710 249.187,229.551 247.416,227.064 242.847 L 225.956 240.810 226.411 234.305 C 226.693 230.288,226.816 220.074,226.733 207.600 L 226.600 187.400 227.674 185.573 C 228.723 183.789,232.804 179.658,235.701 177.448 C 236.498 176.841,238.646 175.751,240.475 175.026 C 242.304 174.302,244.715 173.087,245.833 172.327 C 250.094 169.429,260.589 168.302,270.600 169.667 M281.079 273.757 C 280.915 274.174,280.875 274.609,280.991 274.724 C 281.355 275.089,281.676 274.491,281.524 273.731 C 281.383 273.035,281.362 273.036,281.079 273.757 M185.967 297.347 C 185.875 297.427,177.970 297.708,168.400 297.970 C 134.751 298.892,128.106 299.537,118.324 302.827 C 115.752 303.692,113.433 304.400,113.171 304.400 C 110.668 304.400,105.070 307.832,102.925 310.682 C 101.691 312.322,100.157 314.052,99.516 314.525 C 96.021 317.109,94.234 324.378,93.524 338.891 L 93.040 348.797 94.420 350.233 C 95.179 351.022,96.286 351.923,96.880 352.234 C 97.803 352.718,112.832 352.800,200.165 352.800 L 302.370 352.800 304.591 351.969 C 305.813 351.512,307.376 350.664,308.064 350.085 L 309.316 349.031 309.063 343.816 C 308.337 328.856,305.047 316.275,301.030 313.106 C 299.913 312.225,298.358 310.581,297.573 309.453 C 296.009 307.204,295.681 306.995,291.000 305.282 C 276.293 299.900,271.957 299.226,246.800 298.417 C 239.430 298.180,228.000 297.808,221.400 297.591 C 209.802 297.209,186.307 297.047,185.967 297.347 M254.296 300.418 C 267.356 300.878,270.313 301.238,272.324 302.613 C 274.303 303.965,277.690 304.970,283.000 305.781 C 285.420 306.150,289.027 306.918,291.016 307.488 L 294.632 308.522 295.724 310.848 C 296.492 312.481,297.320 313.522,298.509 314.344 C 303.278 317.646,305.200 326.572,305.200 345.424 L 305.200 349.184 303.616 349.992 C 302.039 350.796,301.584 350.800,200.070 350.800 L 98.108 350.800 96.992 349.923 L 95.877 349.045 96.125 338.823 C 96.489 323.811,96.932 321.188,99.466 319.061 C 100.213 318.435,101.167 317.250,101.586 316.427 C 102.600 314.440,109.083 307.880,110.600 307.306 C 111.260 307.056,114.310 306.464,117.378 305.989 C 123.915 304.977,127.528 303.944,129.082 302.641 C 130.504 301.449,131.210 301.318,139.166 300.770 C 155.012 299.679,227.066 299.459,254.296 300.418 " stroke="none" fill="#b8b8b8" fill-rule="evenodd"></path></g></svg>