<svg id="svg" version="1.1" xmlns="http://www.w3.org/2000/svg" xmlns:xlink="http://www.w3.org/1999/xlink" width="400" height="400" viewBox="0, 0, 400,400"><g id="svgg"><path id="path0" d="M181.200 78.372 C 180.295 78.621,180.202 78.843,180.216 80.712 C 180.226 81.848,180.093 82.557,179.923 82.288 C 179.743 82.006,179.610 82.434,179.606 83.300 L 179.600 84.800 177.426 84.800 C 173.708 84.800,173.064 85.243,173.295 87.643 C 173.408 88.824,173.348 89.445,173.151 89.134 C 172.931 88.787,172.810 89.126,172.806 90.100 L 172.800 91.600 168.100 91.610 C 160.246 91.625,159.931 91.778,159.625 95.708 L 159.400 98.600 156.938 98.465 C 153.466 98.276,152.706 98.769,152.832 101.132 C 153.043 105.091,152.996 105.200,151.100 105.202 C 146.505 105.208,145.998 105.820,146.039 111.317 C 146.053 113.204,145.944 115.713,145.796 116.891 L 145.529 119.033 143.035 118.875 C 138.844 118.608,139.005 117.536,139.012 145.600 C 139.019 173.998,138.804 172.600,143.161 172.600 L 145.800 172.600 145.935 175.794 C 146.096 179.615,146.088 179.600,147.809 179.600 C 149.888 179.600,152.376 182.370,152.390 184.700 L 152.400 186.400 146.900 186.440 C 139.179 186.496,139.415 186.386,139.331 189.953 C 139.248 193.498,139.474 193.271,136.030 193.271 C 134.452 193.271,133.295 193.430,133.419 193.631 C 133.541 193.829,133.347 193.878,132.986 193.739 C 132.509 193.556,132.353 193.694,132.411 194.244 C 132.456 194.660,132.471 196.100,132.446 197.445 L 132.400 199.889 129.509 200.245 C 125.557 200.731,125.504 200.852,125.744 208.800 C 126.011 217.647,126.617 219.097,130.218 219.503 C 132.496 219.760,132.365 219.348,132.494 226.715 C 132.617 233.834,132.567 233.746,136.315 233.436 C 137.883 233.306,138.740 233.373,138.592 233.614 C 138.460 233.826,138.543 234.000,138.776 234.000 C 139.009 234.000,139.201 234.585,139.202 235.300 C 139.210 240.044,139.989 240.409,149.998 240.360 C 157.770 240.322,158.637 240.161,158.918 238.701 C 159.025 238.142,159.112 238.370,159.146 239.300 L 159.200 240.800 157.100 240.806 C 153.525 240.816,153.014 241.305,152.918 244.814 C 152.873 246.456,152.712 249.285,152.561 251.100 L 152.286 254.400 150.032 254.400 C 146.365 254.400,146.002 254.866,146.048 259.519 C 146.069 261.654,145.956 264.435,145.797 265.700 L 145.508 268.000 142.354 268.000 L 139.200 268.000 139.194 270.700 C 139.186 274.382,139.025 274.553,135.420 274.735 L 132.400 274.887 132.400 277.986 L 132.400 281.084 128.300 281.370 C 126.045 281.528,123.177 281.634,121.927 281.605 C 119.122 281.541,118.631 282.187,118.878 285.607 L 119.044 287.903 116.622 288.168 C 115.290 288.313,113.750 288.470,113.200 288.516 C 112.238 288.597,112.196 288.717,112.083 291.700 L 111.966 294.800 109.850 294.800 C 108.686 294.800,107.604 294.930,107.445 295.088 C 107.287 295.246,106.762 295.381,106.279 295.388 C 105.345 295.401,105.318 295.515,105.237 299.700 L 105.200 301.600 103.400 301.600 C 102.410 301.600,101.600 301.769,101.600 301.975 C 101.600 302.181,100.989 302.250,100.241 302.129 C 98.653 301.871,98.274 302.536,98.420 305.323 C 98.468 306.245,98.483 308.821,98.454 311.047 L 98.400 315.095 95.359 315.290 C 91.833 315.516,91.552 315.767,91.638 318.600 C 91.745 322.106,91.888 321.923,88.807 322.227 C 84.683 322.633,85.015 320.652,84.896 345.561 C 84.781 369.771,84.743 369.141,86.304 369.230 C 87.594 369.304,311.592 369.322,313.493 369.249 C 315.291 369.179,315.227 370.106,315.107 345.714 C 314.983 320.664,315.358 322.733,310.887 322.400 L 308.200 322.200 308.337 320.260 C 308.603 316.499,308.177 315.467,306.473 315.741 C 305.458 315.904,305.187 315.858,305.600 315.595 C 306.022 315.326,305.517 315.210,303.900 315.206 L 301.600 315.200 301.552 311.300 C 301.526 309.155,301.541 306.399,301.585 305.176 C 301.676 302.654,301.057 301.781,299.402 302.097 C 298.851 302.203,298.400 302.134,298.400 301.945 C 298.400 301.755,297.590 301.600,296.600 301.600 L 294.800 301.600 294.763 299.700 C 294.682 295.515,294.655 295.401,293.721 295.388 C 293.238 295.381,292.713 295.246,292.555 295.088 C 292.396 294.930,291.307 294.800,290.133 294.800 L 288.000 294.800 287.963 292.900 C 287.890 289.105,287.804 288.615,287.200 288.531 C 286.870 288.486,285.405 288.335,283.944 288.197 L 281.287 287.946 281.129 285.149 C 280.940 281.795,280.703 281.581,277.200 281.597 C 275.770 281.604,273.025 281.499,271.100 281.364 L 267.600 281.118 267.600 278.003 L 267.600 274.887 264.580 274.735 C 260.975 274.553,260.814 274.382,260.806 270.700 L 260.800 268.000 257.600 268.000 C 255.840 268.000,254.386 267.865,254.368 267.700 C 254.351 267.535,254.213 264.752,254.063 261.514 C 253.741 254.599,253.759 254.629,250.092 254.612 L 247.400 254.600 247.344 252.200 C 247.313 250.880,247.270 248.450,247.248 246.800 C 247.177 241.477,246.646 240.800,242.540 240.800 L 240.800 240.800 240.854 239.300 C 240.888 238.370,240.975 238.142,241.082 238.701 C 241.363 240.161,242.230 240.322,250.002 240.360 C 260.131 240.409,260.793 240.081,260.797 235.000 L 260.798 233.400 263.299 233.525 C 267.530 233.736,267.379 234.117,267.520 222.833 L 267.640 213.200 269.976 213.200 C 273.618 213.200,274.120 212.594,274.322 207.952 C 274.415 205.832,274.287 203.462,274.029 202.504 C 273.537 200.682,273.468 200.644,269.832 200.224 C 267.397 199.943,267.631 200.306,267.561 196.688 C 267.493 193.180,267.596 193.271,263.655 193.255 C 260.547 193.242,260.672 193.367,260.724 190.305 C 260.789 186.517,260.980 186.623,253.815 186.458 L 247.600 186.315 247.600 182.974 L 247.600 179.634 250.700 179.517 L 253.800 179.400 253.903 177.000 C 254.080 172.869,254.028 172.939,257.070 172.695 C 261.150 172.368,260.981 173.551,260.984 145.200 C 260.987 117.821,261.144 118.800,256.761 118.800 C 254.041 118.800,254.003 118.707,253.995 112.050 C 253.986 105.729,253.603 105.209,248.947 105.202 C 247.029 105.200,246.815 104.806,247.071 101.759 C 247.310 98.912,246.958 98.600,243.515 98.600 L 240.600 98.600 240.374 95.894 C 240.047 91.980,239.361 91.649,231.500 91.617 C 227.516 91.601,227.200 91.543,227.200 90.824 C 227.200 90.397,227.046 89.952,226.858 89.836 C 226.669 89.719,226.602 88.723,226.708 87.621 C 226.936 85.246,226.282 84.800,222.574 84.800 L 220.400 84.800 220.394 83.300 C 220.390 82.434,220.257 82.006,220.077 82.288 C 219.907 82.557,219.774 81.852,219.784 80.723 C 219.799 78.788,219.732 78.650,218.636 78.352 C 217.220 77.966,182.607 77.985,181.200 78.372 M163.167 92.521 C 163.075 92.588,162.460 92.958,161.800 93.345 L 160.600 94.047 161.544 93.224 C 162.064 92.771,162.679 92.400,162.911 92.400 C 163.143 92.400,163.258 92.454,163.167 92.521 M238.771 93.854 C 239.227 94.434,239.599 95.109,239.599 95.354 C 239.598 95.599,239.252 95.235,238.831 94.544 C 238.410 93.854,237.826 93.193,237.533 93.076 C 237.194 92.941,237.172 92.852,237.471 92.832 C 237.730 92.814,238.315 93.274,238.771 93.854 M209.200 96.147 C 209.970 96.558,210.960 97.215,211.400 97.607 C 211.840 98.000,214.620 99.077,217.578 100.002 C 223.634 101.895,224.545 102.374,225.281 104.045 C 225.614 104.801,226.446 105.529,227.600 106.078 C 230.413 107.413,231.604 108.379,232.838 110.324 C 233.466 111.315,234.691 112.549,235.561 113.068 C 237.267 114.086,238.410 115.686,239.207 118.175 C 239.487 119.050,240.535 120.573,241.566 121.604 C 243.595 123.633,245.334 127.907,246.610 134.000 C 246.955 135.650,247.499 137.476,247.817 138.059 C 249.527 141.184,249.430 151.510,247.669 153.739 C 247.469 153.992,247.081 155.190,246.807 156.400 C 245.322 162.954,243.197 168.365,241.605 169.644 C 240.544 170.497,239.698 171.723,238.940 173.506 C 237.863 176.041,235.566 178.400,234.176 178.400 C 233.237 178.400,228.800 184.954,228.800 186.342 C 228.800 186.848,232.887 190.021,234.800 191.000 C 235.570 191.394,237.074 192.500,238.143 193.458 C 239.212 194.416,240.308 195.200,240.579 195.200 C 241.533 195.200,245.994 197.666,246.728 198.599 C 247.137 199.119,248.355 200.029,249.435 200.623 C 251.352 201.676,253.807 203.353,255.892 205.034 C 258.414 207.067,258.102 215.744,255.440 217.580 C 254.978 217.898,253.702 219.131,252.604 220.319 C 249.383 223.805,245.969 224.572,237.493 223.715 C 230.720 223.030,226.505 223.985,225.142 226.514 C 224.671 227.387,226.362 234.729,228.063 239.200 C 228.691 240.850,229.921 245.040,230.798 248.511 C 232.469 255.132,233.096 256.756,234.616 258.400 C 235.573 259.436,238.678 265.247,239.459 267.465 C 239.724 268.219,240.539 269.130,241.479 269.724 C 243.170 270.791,244.214 272.119,244.613 273.709 C 244.896 274.836,246.733 276.766,248.800 278.107 C 249.570 278.607,250.504 279.621,250.875 280.360 C 251.849 282.300,253.552 283.941,255.470 284.790 C 256.562 285.273,257.378 285.994,257.819 286.865 C 258.683 288.570,260.068 289.737,262.682 290.963 C 264.037 291.598,265.155 292.502,265.882 293.549 C 266.655 294.662,267.624 295.416,269.026 295.995 C 272.267 297.335,275.685 299.628,278.026 302.032 C 279.222 303.260,280.960 304.744,281.889 305.330 C 282.817 305.916,283.880 306.981,284.249 307.696 C 285.478 310.071,287.752 313.377,289.419 315.211 C 291.105 317.065,291.493 317.944,293.391 324.200 C 293.991 326.180,295.089 328.700,295.830 329.800 C 299.295 334.946,300.273 349.713,297.376 353.155 C 295.368 355.542,301.526 355.400,199.800 355.400 L 106.200 355.400 104.288 354.517 C 100.774 352.894,100.062 348.845,101.387 338.000 C 102.037 332.677,102.837 330.080,104.231 328.771 C 104.886 328.156,105.637 326.477,106.446 323.820 C 108.478 317.152,108.809 316.431,110.817 314.304 C 111.879 313.178,113.345 311.177,114.074 309.856 C 115.400 307.454,116.364 306.373,119.802 303.432 C 120.811 302.569,121.937 301.353,122.305 300.730 C 122.673 300.107,123.610 299.278,124.387 298.887 C 128.544 296.795,131.216 295.003,133.094 293.047 C 134.350 291.739,135.791 290.673,136.694 290.384 C 138.801 289.711,140.800 288.440,140.800 287.774 C 140.800 286.791,142.928 284.799,145.171 283.681 C 146.916 282.812,147.525 282.234,148.273 280.734 C 149.233 278.810,151.244 276.800,152.210 276.800 C 152.909 276.800,154.619 274.521,154.939 273.165 C 155.277 271.727,156.618 270.125,158.450 268.969 C 159.302 268.430,160.000 267.780,160.000 267.524 C 160.000 267.268,160.698 265.605,161.552 263.829 C 162.405 262.053,163.229 260.190,163.382 259.689 C 163.535 259.188,164.351 257.981,165.194 257.007 C 166.905 255.030,168.901 249.325,169.394 245.000 C 169.862 240.901,171.150 236.058,172.190 234.486 C 172.738 233.659,173.646 231.636,174.208 229.991 L 175.230 227.000 173.821 225.700 C 172.179 224.185,172.586 224.229,160.000 224.212 C 150.290 224.198,149.076 223.911,147.287 221.200 C 146.779 220.430,145.696 219.345,144.881 218.789 C 142.404 217.100,141.949 215.723,142.083 210.341 C 142.215 205.095,142.466 204.550,145.400 203.147 C 146.280 202.726,147.746 201.801,148.658 201.091 C 154.086 196.867,155.489 195.938,157.607 195.165 C 159.980 194.300,160.574 193.865,162.008 191.938 C 162.448 191.347,163.642 190.590,164.699 190.231 C 166.402 189.654,170.800 186.979,170.800 186.521 C 170.800 185.398,166.177 178.800,165.390 178.800 C 164.168 178.800,161.698 176.400,160.821 174.359 C 160.288 173.120,159.103 171.461,158.002 170.411 C 156.128 168.624,154.129 163.695,152.988 158.051 C 152.838 157.310,152.194 155.960,151.557 155.051 C 148.631 150.879,148.818 139.055,151.875 134.962 C 152.384 134.281,152.801 133.471,152.801 133.162 C 152.808 130.178,156.326 121.649,158.182 120.119 C 158.951 119.485,160.138 117.850,160.820 116.487 C 161.651 114.823,162.608 113.612,163.729 112.806 C 164.648 112.145,166.196 110.679,167.168 109.549 C 168.298 108.236,169.709 107.140,171.076 106.514 C 172.418 105.900,173.571 105.011,174.168 104.132 C 175.538 102.117,176.193 101.762,181.880 99.943 C 184.692 99.044,187.485 97.895,188.086 97.389 C 189.078 96.554,190.372 96.000,192.600 95.457 C 194.969 94.879,207.825 95.413,209.200 96.147 M149.567 106.121 C 149.475 106.188,148.860 106.558,148.200 106.945 L 147.000 107.647 147.944 106.824 C 148.464 106.371,149.079 106.000,149.311 106.000 C 149.543 106.000,149.658 106.054,149.567 106.121 M252.056 106.824 L 253.000 107.647 251.800 106.945 C 250.221 106.020,250.197 106.000,250.689 106.000 C 250.921 106.000,251.536 106.371,252.056 106.824 M130.123 216.644 C 130.668 217.060,131.448 217.614,131.857 217.876 C 132.478 218.275,132.495 218.357,131.959 218.376 C 130.761 218.420,128.603 216.599,127.716 214.796 C 126.469 212.260,126.604 211.864,127.974 214.044 C 128.611 215.059,129.578 216.229,130.123 216.644 M135.267 232.800 C 135.523 232.800,135.619 232.914,135.479 233.054 C 135.159 233.375,133.200 232.117,133.200 231.591 C 133.200 231.376,133.560 231.560,134.000 232.000 C 134.440 232.440,135.010 232.800,135.267 232.800 M158.208 237.974 C 157.897 238.955,155.839 240.126,154.873 239.871 C 154.368 239.737,154.411 239.681,155.046 239.646 C 156.150 239.586,158.000 238.119,158.000 237.304 C 158.000 236.954,158.106 236.773,158.237 236.903 C 158.367 237.033,158.354 237.515,158.208 237.974 M243.260 238.957 C 243.765 239.311,244.528 239.600,244.956 239.600 C 245.383 239.600,245.622 239.712,245.485 239.848 C 244.667 240.666,241.577 238.626,241.625 237.300 C 241.646 236.741,241.720 236.772,241.997 237.457 C 242.187 237.929,242.756 238.604,243.260 238.957 M313.199 324.198 C 313.714 324.748,314.061 325.248,313.968 325.311 C 313.876 325.374,313.316 324.924,312.726 324.312 C 312.135 323.701,311.788 323.200,311.956 323.200 C 312.123 323.200,312.683 323.649,313.199 324.198 " stroke="none" fill="#454545" fill-rule="evenodd"></path><path id="path1" d="M194.800 99.437 C 194.250 99.537,192.180 99.897,190.200 100.237 C 183.736 101.349,178.962 103.087,176.964 105.056 C 176.004 106.003,174.343 107.221,173.274 107.763 C 170.298 109.271,162.996 116.657,161.794 119.375 C 161.259 120.584,160.180 122.284,159.396 123.152 C 152.174 131.145,152.309 159.130,159.612 168.000 C 160.427 168.990,161.697 170.953,162.435 172.362 C 163.323 174.056,164.323 175.301,165.389 176.039 C 168.606 178.266,169.153 178.852,171.358 182.436 C 172.591 184.441,173.600 186.221,173.600 186.390 C 173.600 187.091,169.892 190.042,167.534 191.217 C 166.140 191.912,164.280 193.169,163.400 194.010 C 162.520 194.852,160.579 196.119,159.087 196.827 C 157.594 197.535,155.339 199.033,154.075 200.157 C 152.811 201.281,150.322 203.151,148.544 204.314 L 145.311 206.428 145.056 208.873 C 144.582 213.405,144.548 213.309,148.039 217.373 C 152.058 222.053,150.783 221.678,162.516 221.633 C 173.496 221.592,173.689 221.629,175.935 224.187 C 177.803 226.315,177.825 226.982,176.224 232.872 C 172.719 245.766,168.486 257.511,166.110 260.936 C 165.017 262.511,163.360 265.275,162.428 267.078 C 161.396 269.075,160.199 270.764,159.363 271.401 C 158.609 271.976,157.614 273.201,157.152 274.123 C 156.690 275.045,154.936 277.163,153.256 278.829 C 151.575 280.495,149.866 282.355,149.457 282.962 C 149.048 283.569,147.759 284.676,146.592 285.423 C 145.425 286.169,143.791 287.608,142.961 288.621 C 142.040 289.745,140.534 290.926,139.098 291.652 C 137.803 292.305,135.902 293.706,134.872 294.766 C 133.842 295.825,131.288 297.702,129.196 298.938 C 126.617 300.461,124.735 301.931,123.351 303.503 C 122.228 304.778,120.650 306.267,119.844 306.811 C 118.929 307.429,117.375 309.377,115.705 312.000 C 114.234 314.310,112.302 317.280,111.411 318.600 C 110.225 320.358,109.384 322.391,108.269 326.200 C 107.432 329.060,106.114 333.200,105.341 335.400 C 103.319 341.156,102.628 348.473,103.933 350.306 C 105.987 353.191,98.542 352.972,198.994 353.097 L 288.989 353.209 291.916 352.340 C 297.136 350.790,297.917 346.884,294.851 337.660 C 293.998 335.097,293.083 332.010,292.818 330.800 C 291.863 326.455,289.904 321.149,288.568 319.292 C 287.820 318.251,286.771 316.590,286.237 315.600 C 282.974 309.552,274.384 301.258,268.148 298.135 C 266.462 297.291,264.344 295.914,263.441 295.075 C 262.539 294.235,261.084 293.176,260.209 292.720 C 259.334 292.264,257.624 290.867,256.409 289.615 C 255.194 288.363,253.343 286.736,252.297 285.999 C 251.250 285.262,249.861 283.830,249.211 282.817 C 248.560 281.803,247.242 280.420,246.282 279.743 C 245.322 279.066,244.010 277.647,243.368 276.590 C 242.726 275.533,241.247 273.680,240.082 272.472 C 238.860 271.205,237.364 269.047,236.546 267.368 C 235.765 265.768,234.539 263.770,233.820 262.929 C 232.057 260.867,230.815 258.312,228.800 252.600 C 227.869 249.960,226.791 247.170,226.404 246.400 C 225.403 244.405,224.560 241.210,223.820 236.600 C 223.467 234.400,222.930 231.340,222.626 229.800 C 221.232 222.722,227.211 219.063,238.014 220.383 C 246.150 221.377,248.054 220.735,252.458 215.516 L 254.048 213.631 253.595 210.316 C 253.074 206.496,251.634 204.726,247.338 202.622 C 246.132 202.032,244.483 200.959,243.673 200.237 C 242.863 199.516,241.095 198.344,239.745 197.632 C 237.498 196.446,235.943 195.301,227.883 188.897 C 224.787 186.437,224.806 186.591,227.091 182.446 C 228.816 179.319,230.879 176.981,232.773 176.010 C 234.729 175.007,235.856 173.707,237.164 170.947 C 237.776 169.656,238.776 168.008,239.387 167.284 C 246.219 159.190,246.491 133.007,239.833 124.279 C 239.273 123.545,238.260 121.697,237.581 120.172 C 236.692 118.174,235.657 116.725,233.874 114.982 C 232.513 113.652,230.841 111.849,230.157 110.976 C 229.473 110.103,227.943 108.872,226.757 108.241 C 225.571 107.610,223.790 106.319,222.800 105.373 C 218.749 101.502,202.466 98.050,194.800 99.437 M210.060 101.589 C 216.251 102.665,220.288 104.231,222.132 106.273 C 222.924 107.149,224.343 108.202,225.286 108.613 C 227.464 109.563,230.000 111.502,230.000 112.217 C 230.000 112.731,231.111 113.948,234.482 117.124 C 235.281 117.876,236.099 119.171,236.378 120.124 C 236.647 121.046,237.804 123.510,238.949 125.600 C 240.093 127.690,241.264 129.938,241.550 130.595 C 243.312 134.646,243.753 147.590,242.387 155.173 C 241.547 159.839,241.286 160.561,238.975 164.600 C 237.790 166.672,237.125 167.993,234.727 173.041 C 234.507 173.504,233.359 174.284,232.176 174.775 C 230.912 175.299,229.515 176.271,228.790 177.133 C 228.110 177.940,226.933 179.237,226.174 180.016 C 222.610 183.670,223.281 186.891,228.410 190.753 C 230.274 192.156,231.941 193.547,232.114 193.843 C 232.604 194.681,237.305 197.915,239.344 198.817 C 240.355 199.264,241.637 200.226,242.193 200.955 C 242.749 201.684,243.968 202.594,244.902 202.977 C 250.533 205.287,251.118 205.888,251.782 210.032 C 252.399 213.883,252.403 213.871,249.510 216.707 L 247.360 218.815 240.580 218.344 C 228.839 217.530,224.738 218.894,222.047 224.510 L 220.855 227.000 221.797 232.800 C 222.315 235.990,222.946 239.917,223.200 241.526 C 223.770 245.145,224.908 248.520,226.235 250.524 C 226.790 251.363,227.880 253.884,228.658 256.125 C 230.393 261.128,231.774 263.744,233.037 264.420 C 233.636 264.740,234.715 266.379,235.899 268.767 C 237.342 271.677,238.160 272.841,239.293 273.600 C 240.214 274.218,241.188 275.410,241.838 276.719 C 242.417 277.885,243.519 279.325,244.287 279.919 C 246.019 281.260,247.258 282.535,248.838 284.600 C 249.512 285.480,250.785 286.688,251.667 287.284 C 252.550 287.880,254.201 289.321,255.336 290.486 C 256.471 291.650,258.120 292.963,259.000 293.402 C 259.880 293.841,261.449 294.967,262.488 295.904 C 263.526 296.842,265.686 298.207,267.288 298.938 C 270.013 300.181,273.169 302.642,279.658 308.585 C 281.731 310.483,284.382 314.188,285.361 316.554 C 285.715 317.408,286.610 318.778,287.350 319.598 C 288.940 321.358,290.741 326.457,292.013 332.800 C 292.476 335.110,293.389 338.335,294.042 339.967 C 295.089 342.583,295.216 343.338,295.115 346.366 L 295.000 349.798 292.600 350.799 L 290.200 351.800 199.800 351.800 L 109.400 351.800 107.000 350.792 L 104.600 349.783 104.647 345.955 C 104.687 342.667,104.892 341.568,106.100 338.163 C 106.873 335.984,107.797 332.788,108.152 331.061 C 109.296 325.503,110.813 321.261,112.285 319.498 C 113.040 318.595,114.014 317.157,114.449 316.303 C 117.468 310.386,124.959 302.561,130.886 299.133 C 132.973 297.926,134.931 296.434,135.767 295.414 C 136.647 294.340,138.148 293.222,139.834 292.383 C 141.797 291.407,142.863 290.558,143.851 289.182 C 144.669 288.044,145.940 286.927,147.094 286.333 C 148.214 285.757,149.517 284.627,150.271 283.578 C 151.829 281.410,152.611 280.589,154.757 278.871 C 155.669 278.139,156.861 276.665,157.403 275.593 C 157.946 274.522,159.112 273.066,159.993 272.358 C 161.102 271.466,162.114 270.014,163.280 267.636 C 164.207 265.748,165.642 263.469,166.468 262.572 C 167.890 261.029,169.988 257.183,169.996 256.102 C 170.003 255.193,171.681 250.647,173.208 247.400 C 174.638 244.358,178.809 229.185,178.793 227.080 C 178.784 225.756,177.187 223.227,175.507 221.874 C 173.553 220.301,169.745 219.959,159.800 220.467 L 152.600 220.834 151.600 219.528 C 151.050 218.809,149.660 217.103,148.511 215.735 L 146.421 213.249 146.672 209.993 L 146.923 206.738 150.562 204.306 C 152.563 202.968,154.830 201.201,155.600 200.380 C 156.428 199.497,158.422 198.211,160.479 197.234 C 162.728 196.166,164.265 195.152,164.824 194.366 C 165.300 193.697,166.615 192.737,167.745 192.232 C 173.050 189.863,175.923 186.692,174.431 184.852 C 173.962 184.273,173.088 183.014,172.489 182.054 C 170.326 178.587,169.123 177.120,167.907 176.466 C 165.567 175.208,163.817 173.326,163.106 171.302 C 162.724 170.215,161.716 168.533,160.865 167.563 C 153.768 159.477,153.324 131.057,160.184 124.013 C 160.941 123.236,162.036 121.521,162.618 120.203 C 163.992 117.089,171.249 109.742,174.245 108.430 C 175.320 107.960,176.920 106.801,177.800 105.854 C 181.690 101.671,198.070 99.505,210.060 101.589 " stroke="none" fill="#b4b4b4" fill-rule="evenodd"></path><path id="path2" d="M161.544 93.224 L 160.600 94.047 161.800 93.345 C 163.379 92.420,163.403 92.400,162.911 92.400 C 162.679 92.400,162.064 92.771,161.544 93.224 M237.533 93.076 C 237.826 93.193,238.410 93.854,238.831 94.544 C 239.252 95.235,239.598 95.599,239.599 95.354 C 239.601 94.682,238.009 92.795,237.471 92.832 C 237.172 92.852,237.194 92.941,237.533 93.076 M192.600 95.457 C 190.372 96.000,189.078 96.554,188.086 97.389 C 187.485 97.895,184.692 99.044,181.880 99.943 C 176.193 101.762,175.538 102.117,174.168 104.132 C 173.571 105.011,172.418 105.900,171.076 106.514 C 169.709 107.140,168.298 108.236,167.168 109.549 C 166.196 110.679,164.648 112.145,163.729 112.806 C 162.608 113.612,161.651 114.823,160.820 116.487 C 160.138 117.850,158.951 119.485,158.182 120.119 C 156.326 121.649,152.808 130.178,152.801 133.162 C 152.801 133.471,152.384 134.281,151.875 134.962 C 148.818 139.055,148.631 150.879,151.557 155.051 C 152.194 155.960,152.838 157.310,152.988 158.051 C 154.129 163.695,156.128 168.624,158.002 170.411 C 159.103 171.461,160.288 173.120,160.821 174.359 C 161.698 176.400,164.168 178.800,165.390 178.800 C 166.177 178.800,170.800 185.398,170.800 186.521 C 170.800 186.979,166.402 189.654,164.699 190.231 C 163.642 190.590,162.448 191.347,162.008 191.938 C 160.574 193.865,159.980 194.300,157.607 195.165 C 155.489 195.938,154.086 196.867,148.658 201.091 C 147.746 201.801,146.280 202.726,145.400 203.147 C 140.747 205.373,140.403 215.735,144.881 218.789 C 145.696 219.345,146.779 220.430,147.287 221.200 C 149.076 223.911,150.290 224.198,160.000 224.212 C 172.586 224.229,172.179 224.185,173.821 225.700 L 175.230 227.000 174.208 229.991 C 173.646 231.636,172.738 233.659,172.190 234.486 C 171.150 236.058,169.862 240.901,169.394 245.000 C 168.901 249.325,166.905 255.030,165.194 257.007 C 164.351 257.981,163.535 259.188,163.382 259.689 C 163.229 260.190,162.405 262.053,161.552 263.829 C 160.698 265.605,160.000 267.268,160.000 267.524 C 160.000 267.780,159.302 268.430,158.450 268.969 C 156.618 270.125,155.277 271.727,154.939 273.165 C 154.619 274.521,152.909 276.800,152.210 276.800 C 151.244 276.800,149.233 278.810,148.273 280.734 C 147.525 282.234,146.916 282.812,145.171 283.681 C 142.928 284.799,140.800 286.791,140.800 287.774 C 140.800 288.440,138.801 289.711,136.694 290.384 C 135.791 290.673,134.350 291.739,133.094 293.047 C 131.216 295.003,128.544 296.795,124.387 298.887 C 123.610 299.278,122.673 300.107,122.305 300.730 C 121.937 301.353,120.811 302.569,119.802 303.432 C 116.364 306.373,115.400 307.454,114.074 309.856 C 113.345 311.177,111.879 313.178,110.817 314.304 C 108.809 316.431,108.478 317.152,106.446 323.820 C 105.637 326.477,104.886 328.156,104.231 328.771 C 102.837 330.080,102.037 332.677,101.387 338.000 C 100.062 348.845,100.774 352.894,104.288 354.517 L 106.200 355.400 199.800 355.400 C 301.526 355.400,295.368 355.542,297.376 353.155 C 300.273 349.713,299.295 334.946,295.830 329.800 C 295.089 328.700,293.991 326.180,293.391 324.200 C 291.493 317.944,291.105 317.065,289.419 315.211 C 287.752 313.377,285.478 310.071,284.249 307.696 C 283.880 306.981,282.817 305.916,281.889 305.330 C 280.960 304.744,279.222 303.260,278.026 302.032 C 275.685 299.628,272.267 297.335,269.026 295.995 C 267.624 295.416,266.655 294.662,265.882 293.549 C 265.155 292.502,264.037 291.598,262.682 290.963 C 260.068 289.737,258.683 288.570,257.819 286.865 C 257.378 285.994,256.562 285.273,255.470 284.790 C 253.552 283.941,251.849 282.300,250.875 280.360 C 250.504 279.621,249.570 278.607,248.800 278.107 C 246.733 276.766,244.896 274.836,244.613 273.709 C 244.214 272.119,243.170 270.791,241.479 269.724 C 240.539 269.130,239.724 268.219,239.459 267.465 C 238.678 265.247,235.573 259.436,234.616 258.400 C 233.096 256.756,232.469 255.132,230.798 248.511 C 229.921 245.040,228.691 240.850,228.063 239.200 C 226.362 234.729,224.671 227.387,225.142 226.514 C 226.505 223.985,230.720 223.030,237.493 223.715 C 245.969 224.572,249.383 223.805,252.604 220.319 C 253.702 219.131,254.978 217.898,255.440 217.580 C 258.102 215.744,258.414 207.067,255.892 205.034 C 253.807 203.353,251.352 201.676,249.435 200.623 C 248.355 200.029,247.137 199.119,246.728 198.599 C 245.994 197.666,241.533 195.200,240.579 195.200 C 240.308 195.200,239.212 194.416,238.143 193.458 C 237.074 192.500,235.570 191.394,234.800 191.000 C 232.887 190.021,228.800 186.848,228.800 186.342 C 228.800 184.954,233.237 178.400,234.176 178.400 C 235.566 178.400,237.863 176.041,238.940 173.506 C 239.698 171.723,240.544 170.497,241.605 169.644 C 243.197 168.365,245.322 162.954,246.807 156.400 C 247.081 155.190,247.469 153.992,247.669 153.739 C 249.430 151.510,249.527 141.184,247.817 138.059 C 247.499 137.476,246.955 135.650,246.610 134.000 C 245.334 127.907,243.595 123.633,241.566 121.604 C 240.535 120.573,239.487 119.050,239.207 118.175 C 238.410 115.686,237.267 114.086,235.561 113.068 C 234.691 112.549,233.466 111.315,232.838 110.324 C 231.604 108.379,230.413 107.413,227.600 106.078 C 226.446 105.529,225.614 104.801,225.281 104.045 C 224.545 102.374,223.634 101.895,217.578 100.002 C 214.620 99.077,211.840 98.000,211.400 97.607 C 209.163 95.612,208.174 95.404,200.600 95.331 C 196.640 95.293,193.040 95.350,192.600 95.457 M211.000 100.538 C 217.409 102.004,220.673 103.341,222.800 105.373 C 223.790 106.319,225.571 107.610,226.757 108.241 C 227.943 108.872,229.473 110.103,230.157 110.976 C 230.841 111.849,232.513 113.652,233.874 114.982 C 235.657 116.725,236.692 118.174,237.581 120.172 C 238.260 121.697,239.273 123.545,239.833 124.279 C 246.491 133.007,246.219 159.190,239.387 167.284 C 238.776 168.008,237.776 169.656,237.164 170.947 C 235.856 173.707,234.729 175.007,232.773 176.010 C 230.879 176.981,228.816 179.319,227.091 182.446 C 224.806 186.591,224.787 186.437,227.883 188.897 C 235.943 195.301,237.498 196.446,239.745 197.632 C 241.095 198.344,242.863 199.516,243.673 200.237 C 244.483 200.959,246.132 202.032,247.338 202.622 C 251.634 204.726,253.074 206.496,253.595 210.316 L 254.048 213.631 252.458 215.516 C 248.054 220.735,246.150 221.377,238.014 220.383 C 227.211 219.063,221.232 222.722,222.626 229.800 C 222.930 231.340,223.467 234.400,223.820 236.600 C 224.560 241.210,225.403 244.405,226.404 246.400 C 226.791 247.170,227.869 249.960,228.800 252.600 C 230.815 258.312,232.057 260.867,233.820 262.929 C 234.539 263.770,235.765 265.768,236.546 267.368 C 237.364 269.047,238.860 271.205,240.082 272.472 C 241.247 273.680,242.726 275.533,243.368 276.590 C 244.010 277.647,245.322 279.066,246.282 279.743 C 247.242 280.420,248.560 281.803,249.211 282.817 C 249.861 283.830,251.250 285.262,252.297 285.999 C 253.343 286.736,255.194 288.363,256.409 289.615 C 257.624 290.867,259.334 292.264,260.209 292.720 C 261.084 293.176,262.539 294.235,263.441 295.075 C 264.344 295.914,266.462 297.291,268.148 298.135 C 274.384 301.258,282.974 309.552,286.237 315.600 C 286.771 316.590,287.820 318.251,288.568 319.292 C 289.904 321.149,291.863 326.455,292.818 330.800 C 293.083 332.010,293.998 335.097,294.851 337.660 C 297.917 346.884,297.136 350.790,291.916 352.340 L 288.989 353.209 198.994 353.097 C 98.542 352.972,105.987 353.191,103.933 350.306 C 102.628 348.473,103.319 341.156,105.341 335.400 C 106.114 333.200,107.432 329.060,108.269 326.200 C 109.384 322.391,110.225 320.358,111.411 318.600 C 112.302 317.280,114.234 314.310,115.705 312.000 C 117.375 309.377,118.929 307.429,119.844 306.811 C 120.650 306.267,122.228 304.778,123.351 303.503 C 124.735 301.931,126.617 300.461,129.196 298.938 C 131.288 297.702,133.842 295.825,134.872 294.766 C 135.902 293.706,137.803 292.305,139.098 291.652 C 140.534 290.926,142.040 289.745,142.961 288.621 C 143.791 287.608,145.425 286.169,146.592 285.423 C 147.759 284.676,149.048 283.569,149.457 282.962 C 149.866 282.355,151.575 280.495,153.256 278.829 C 154.936 277.163,156.690 275.045,157.152 274.123 C 157.614 273.201,158.609 271.976,159.363 271.401 C 160.199 270.764,161.396 269.075,162.428 267.078 C 163.360 265.275,165.017 262.511,166.110 260.936 C 168.486 257.511,172.719 245.766,176.224 232.872 C 177.825 226.982,177.803 226.315,175.935 224.187 C 173.689 221.629,173.496 221.592,162.516 221.633 C 150.783 221.678,152.058 222.053,148.039 217.373 C 144.548 213.309,144.582 213.405,145.056 208.873 L 145.311 206.428 148.544 204.314 C 150.322 203.151,152.811 201.281,154.075 200.157 C 155.339 199.033,157.594 197.535,159.087 196.827 C 160.579 196.119,162.520 194.852,163.400 194.010 C 164.280 193.169,166.140 191.912,167.534 191.217 C 169.892 190.042,173.600 187.091,173.600 186.390 C 173.600 186.221,172.591 184.441,171.358 182.436 C 169.153 178.852,168.606 178.266,165.389 176.039 C 164.323 175.301,163.323 174.056,162.435 172.362 C 161.697 170.953,160.427 168.990,159.612 168.000 C 152.309 159.130,152.174 131.145,159.396 123.152 C 160.180 122.284,161.259 120.584,161.794 119.375 C 162.996 116.657,170.298 109.271,173.274 107.763 C 174.343 107.221,176.004 106.003,176.964 105.056 C 178.962 103.087,183.736 101.349,190.200 100.237 C 192.180 99.897,194.250 99.537,194.800 99.437 C 197.540 98.941,206.756 99.568,211.000 100.538 M147.944 106.824 L 147.000 107.647 148.200 106.945 C 149.779 106.020,149.803 106.000,149.311 106.000 C 149.079 106.000,148.464 106.371,147.944 106.824 M250.433 106.121 C 250.525 106.188,251.140 106.558,251.800 106.945 L 253.000 107.647 252.056 106.824 C 251.536 106.371,250.921 106.000,250.689 106.000 C 250.457 106.000,250.342 106.054,250.433 106.121 M126.824 212.600 C 126.869 214.604,130.277 218.438,131.959 218.376 C 132.495 218.357,132.478 218.275,131.857 217.876 C 129.978 216.672,129.048 215.754,127.974 214.044 C 127.336 213.030,126.819 212.380,126.824 212.600 M133.200 231.591 C 133.200 232.117,135.159 233.375,135.479 233.054 C 135.619 232.914,135.523 232.800,135.267 232.800 C 135.010 232.800,134.440 232.440,134.000 232.000 C 133.560 231.560,133.200 231.376,133.200 231.591 M158.000 237.304 C 158.000 238.119,156.150 239.586,155.046 239.646 C 154.411 239.681,154.368 239.737,154.873 239.871 C 156.359 240.263,159.141 237.808,158.237 236.903 C 158.106 236.773,158.000 236.954,158.000 237.304 M241.625 237.300 C 241.577 238.626,244.667 240.666,245.485 239.848 C 245.622 239.712,245.383 239.600,244.956 239.600 C 243.919 239.600,242.425 238.518,241.997 237.457 C 241.720 236.772,241.646 236.741,241.625 237.300 M312.726 324.312 C 313.316 324.924,313.876 325.374,313.968 325.311 C 314.199 325.155,312.335 323.200,311.956 323.200 C 311.788 323.200,312.135 323.701,312.726 324.312 " stroke="none" fill="#8c8c8c" fill-rule="evenodd"></path><path id="path3" d="M189.400 101.581 C 182.736 102.723,179.657 103.857,177.800 105.854 C 176.920 106.801,175.320 107.960,174.245 108.430 C 171.249 109.742,163.992 117.089,162.618 120.203 C 162.036 121.521,160.941 123.236,160.184 124.013 C 153.324 131.057,153.768 159.477,160.865 167.563 C 161.716 168.533,162.724 170.215,163.106 171.302 C 163.817 173.326,165.567 175.208,167.907 176.466 C 169.123 177.120,170.326 178.587,172.489 182.054 C 173.088 183.014,173.962 184.273,174.431 184.852 C 175.923 186.692,173.050 189.863,167.745 192.232 C 166.615 192.737,165.300 193.697,164.824 194.366 C 164.265 195.152,162.728 196.166,160.479 197.234 C 158.422 198.211,156.428 199.497,155.600 200.380 C 154.830 201.201,152.563 202.968,150.562 204.306 L 146.923 206.738 146.672 209.993 L 146.421 213.249 148.511 215.735 C 149.660 217.103,151.050 218.809,151.600 219.528 L 152.600 220.834 159.800 220.467 C 169.745 219.959,173.553 220.301,175.507 221.874 C 177.187 223.227,178.784 225.756,178.793 227.080 C 178.809 229.185,174.638 244.358,173.208 247.400 C 171.681 250.647,170.003 255.193,169.996 256.102 C 169.988 257.183,167.890 261.029,166.468 262.572 C 165.642 263.469,164.207 265.748,163.280 267.636 C 162.114 270.014,161.102 271.466,159.993 272.358 C 159.112 273.066,157.946 274.522,157.403 275.593 C 156.861 276.665,155.669 278.139,154.757 278.871 C 152.611 280.589,151.829 281.410,150.271 283.578 C 149.517 284.627,148.214 285.757,147.094 286.333 C 145.940 286.927,144.669 288.044,143.851 289.182 C 142.863 290.558,141.797 291.407,139.834 292.383 C 138.148 293.222,136.647 294.340,135.767 295.414 C 134.931 296.434,132.973 297.926,130.886 299.133 C 124.959 302.561,117.468 310.386,114.449 316.303 C 114.014 317.157,113.040 318.595,112.285 319.498 C 110.813 321.261,109.296 325.503,108.152 331.061 C 107.797 332.788,106.873 335.984,106.100 338.163 C 104.892 341.568,104.687 342.667,104.647 345.955 L 104.600 349.783 107.000 350.792 L 109.400 351.800 199.800 351.800 L 290.200 351.800 292.600 350.799 L 295.000 349.798 295.115 346.366 C 295.216 343.338,295.089 342.583,294.042 339.967 C 293.389 338.335,292.476 335.110,292.013 332.800 C 290.741 326.457,288.940 321.358,287.350 319.598 C 286.610 318.778,285.715 317.408,285.361 316.554 C 284.382 314.188,281.731 310.483,279.658 308.585 C 273.169 302.642,270.013 300.181,267.288 298.938 C 265.686 298.207,263.526 296.842,262.488 295.904 C 261.449 294.967,259.880 293.841,259.000 293.402 C 258.120 292.963,256.471 291.650,255.336 290.486 C 254.201 289.321,252.550 287.880,251.667 287.284 C 250.785 286.688,249.512 285.480,248.838 284.600 C 247.258 282.535,246.019 281.260,244.287 279.919 C 243.519 279.325,242.417 277.885,241.838 276.719 C 241.188 275.410,240.214 274.218,239.293 273.600 C 238.160 272.841,237.342 271.677,235.899 268.767 C 234.715 266.379,233.636 264.740,233.037 264.420 C 231.774 263.744,230.393 261.128,228.658 256.125 C 227.880 253.884,226.790 251.363,226.235 250.524 C 224.908 248.520,223.770 245.145,223.200 241.526 C 222.946 239.917,222.315 235.990,221.797 232.800 L 220.855 227.000 222.047 224.510 C 224.738 218.894,228.839 217.530,240.580 218.344 L 247.360 218.815 249.510 216.707 C 252.403 213.871,252.399 213.883,251.782 210.032 C 251.118 205.888,250.533 205.287,244.902 202.977 C 243.968 202.594,242.749 201.684,242.193 200.955 C 241.637 200.226,240.355 199.264,239.344 198.817 C 237.305 197.915,232.604 194.681,232.114 193.843 C 231.941 193.547,230.274 192.156,228.410 190.753 C 223.281 186.891,222.610 183.670,226.174 180.016 C 226.933 179.237,228.110 177.940,228.790 177.133 C 229.515 176.271,230.912 175.299,232.176 174.775 C 233.359 174.284,234.507 173.504,234.727 173.041 C 237.125 167.993,237.790 166.672,238.975 164.600 C 241.286 160.561,241.547 159.839,242.387 155.173 C 243.753 147.590,243.312 134.646,241.550 130.595 C 241.264 129.938,240.093 127.690,238.949 125.600 C 237.804 123.510,236.647 121.046,236.378 120.124 C 236.099 119.171,235.281 117.876,234.482 117.124 C 231.111 113.948,230.000 112.731,230.000 112.217 C 230.000 111.502,227.464 109.563,225.286 108.613 C 224.343 108.202,222.924 107.149,222.132 106.273 C 218.086 101.793,201.790 99.458,189.400 101.581 M210.324 102.854 C 215.618 103.430,218.181 104.413,220.600 106.794 C 221.700 107.877,223.500 109.143,224.600 109.608 C 228.132 111.098,228.389 111.303,229.351 113.405 C 230.203 115.266,232.114 117.200,233.100 117.200 C 233.736 117.200,234.723 118.537,235.019 119.800 C 235.594 122.248,238.555 129.049,239.678 130.501 C 243.184 135.033,242.705 153.897,238.942 159.508 C 237.417 161.782,236.409 164.131,236.402 165.425 C 236.401 165.659,236.044 166.587,235.608 167.489 C 235.173 168.390,234.598 169.944,234.331 170.942 C 233.870 172.667,233.750 172.780,231.930 173.217 C 230.877 173.469,229.331 174.171,228.496 174.777 C 227.660 175.382,226.016 176.196,224.841 176.586 C 223.667 176.976,222.159 177.784,221.491 178.381 L 220.277 179.466 221.146 180.641 C 221.635 181.303,222.194 182.930,222.425 184.362 C 223.080 188.429,223.433 188.916,227.720 191.669 C 228.777 192.347,230.069 193.532,230.591 194.302 C 231.568 195.739,234.948 198.204,237.553 199.379 C 238.551 199.829,239.323 200.606,239.954 201.795 C 241.026 203.817,242.392 204.587,245.600 204.978 C 248.914 205.383,249.564 206.122,250.162 210.165 L 250.663 213.552 249.223 215.224 C 247.810 216.865,247.748 216.891,245.792 216.648 C 231.420 214.862,224.201 216.716,221.054 223.000 C 220.303 224.499,219.595 225.248,218.226 225.992 C 217.222 226.537,216.400 227.098,216.400 227.238 C 216.400 227.575,218.058 229.726,218.586 230.073 C 220.379 231.253,220.413 231.352,221.205 237.802 C 222.199 245.889,223.150 251.559,223.679 252.547 C 224.193 253.509,226.054 255.170,226.635 255.187 C 226.874 255.194,227.660 257.315,228.381 259.900 C 229.806 265.005,230.597 266.251,232.660 266.638 C 233.817 266.855,234.049 267.106,234.419 268.544 C 235.248 271.768,235.639 272.712,236.448 273.444 C 236.898 273.851,237.518 274.787,237.826 275.524 C 238.182 276.377,238.825 277.030,239.594 277.320 C 240.258 277.571,240.895 278.070,241.009 278.430 C 241.124 278.789,241.748 279.605,242.397 280.242 C 243.047 280.879,243.583 281.729,243.589 282.131 C 243.602 283.015,245.701 285.200,246.537 285.200 C 246.866 285.200,248.275 286.438,249.668 287.951 C 251.060 289.465,252.753 290.983,253.429 291.325 C 254.105 291.667,254.904 292.243,255.204 292.605 C 255.504 292.966,256.571 293.680,257.575 294.190 C 258.579 294.699,260.210 295.828,261.200 296.696 C 263.345 298.579,264.228 299.073,266.828 299.845 C 268.328 300.291,269.396 301.041,271.341 303.014 C 272.742 304.437,274.095 305.600,274.347 305.600 C 274.954 305.600,282.462 313.181,283.090 314.427 C 283.359 314.962,283.953 316.424,284.409 317.676 C 284.932 319.109,285.761 320.410,286.648 321.188 C 288.482 322.799,289.860 326.740,290.638 332.600 C 290.959 335.020,291.559 338.260,291.971 339.800 C 292.383 341.340,292.847 344.083,293.001 345.897 L 293.283 349.193 291.386 350.006 C 288.558 351.218,111.768 351.299,108.545 350.090 L 106.600 349.360 106.663 346.148 C 106.700 344.261,107.063 341.793,107.543 340.168 C 107.993 338.645,108.649 335.600,109.001 333.400 C 110.080 326.647,111.598 321.806,112.907 320.940 C 113.522 320.533,114.490 319.210,115.057 318.000 C 115.625 316.790,116.384 315.170,116.744 314.400 C 118.054 311.604,129.192 301.071,132.641 299.367 C 134.803 298.298,135.919 297.484,136.364 296.648 C 137.331 294.835,138.513 293.870,140.718 293.097 C 142.747 292.386,145.200 290.133,145.200 288.981 C 145.200 288.654,146.140 287.968,147.300 287.447 C 149.723 286.358,151.293 284.832,152.184 282.700 C 152.529 281.875,153.037 281.200,153.313 281.200 C 154.704 281.200,156.933 279.016,158.045 276.565 C 158.837 274.819,159.560 273.835,160.351 273.425 C 161.935 272.606,163.477 270.682,163.809 269.110 C 164.202 267.255,165.501 265.219,167.290 263.657 C 169.174 262.011,170.093 260.249,170.970 256.600 C 171.937 252.571,172.662 250.888,174.206 249.085 C 175.252 247.862,175.719 246.783,176.211 244.446 C 178.308 234.494,179.750 229.200,180.366 229.199 C 181.147 229.197,183.600 227.737,183.600 227.274 C 183.600 227.089,182.734 226.531,181.675 226.035 C 180.185 225.337,179.574 224.756,178.975 223.467 C 178.455 222.349,177.344 221.155,175.602 219.844 L 173.005 217.887 162.795 218.170 L 152.585 218.452 150.527 215.883 L 148.468 213.314 148.693 210.036 L 148.917 206.758 150.559 205.634 C 151.461 205.015,152.951 204.129,153.868 203.663 C 154.786 203.197,156.046 202.074,156.668 201.167 C 157.911 199.357,158.902 198.716,161.568 198.001 C 162.766 197.680,164.055 196.846,165.568 195.413 C 166.796 194.250,168.576 192.907,169.524 192.429 C 177.238 188.537,178.203 186.368,174.166 182.000 C 173.251 181.010,172.138 179.480,171.694 178.600 C 170.696 176.625,169.826 175.819,167.785 174.975 C 165.505 174.033,164.904 173.364,164.217 171.000 C 163.603 168.886,161.361 165.161,159.971 163.945 C 158.334 162.513,157.443 158.317,156.626 148.200 C 155.881 138.980,157.682 129.324,160.813 125.746 C 162.587 123.719,164.000 120.818,164.000 119.204 C 164.000 118.430,165.602 116.885,167.710 115.625 C 168.540 115.129,169.506 114.155,169.855 113.461 C 170.826 111.536,172.378 110.068,173.756 109.771 C 175.963 109.295,177.977 108.020,178.944 106.488 C 181.205 102.907,195.541 101.247,210.324 102.854 M192.500 226.682 C 191.446 226.885,191.366 227.587,192.210 229.220 L 192.821 230.400 199.800 230.400 L 206.779 230.400 207.390 229.220 C 208.230 227.595,208.155 226.935,207.100 226.652 C 206.100 226.384,193.918 226.409,192.500 226.682 M192.252 237.500 C 190.769 240.369,191.956 242.800,194.841 242.800 C 198.176 242.800,198.348 240.111,195.184 237.448 C 193.601 236.116,192.961 236.127,192.252 237.500 M198.480 243.680 C 196.488 245.672,198.843 249.467,202.200 249.676 L 204.200 249.800 204.319 252.067 C 204.480 255.128,206.205 256.640,209.051 256.213 C 213.331 255.571,210.938 250.233,206.126 249.691 C 204.620 249.521,204.400 249.372,204.400 248.528 C 204.400 245.467,200.163 241.997,198.480 243.680 M212.221 257.300 C 211.091 260.966,211.867 262.072,215.800 262.400 L 218.200 262.600 218.320 265.139 C 218.498 268.891,220.686 270.854,221.985 268.428 C 222.529 267.412,220.481 262.400,219.523 262.400 C 219.125 262.400,218.800 262.139,218.800 261.819 C 218.800 261.500,218.035 260.709,217.100 260.062 C 216.165 259.415,214.964 258.416,214.430 257.842 C 213.387 256.721,212.469 256.495,212.221 257.300 M225.616 272.875 C 224.535 274.036,224.583 274.443,225.962 275.763 L 227.124 276.876 227.962 276.038 C 228.962 275.038,228.987 274.723,228.190 273.180 C 227.463 271.775,226.722 271.688,225.616 272.875 M232.976 280.838 C 232.488 281.629,233.775 282.553,234.369 281.838 C 234.644 281.506,234.753 281.047,234.611 280.818 C 234.273 280.270,233.320 280.283,232.976 280.838 " stroke="none" fill="#bcbcbc" fill-rule="evenodd"></path><path id="path4" d="M196.200 102.272 C 185.742 102.847,180.422 104.147,178.944 106.488 C 177.977 108.020,175.963 109.295,173.756 109.771 C 172.378 110.068,170.826 111.536,169.855 113.461 C 169.506 114.155,168.540 115.129,167.710 115.625 C 165.602 116.885,164.000 118.430,164.000 119.204 C 164.000 120.818,162.587 123.719,160.813 125.746 C 157.682 129.324,155.881 138.980,156.626 148.200 C 157.443 158.317,158.334 162.513,159.971 163.945 C 161.361 165.161,163.603 168.886,164.217 171.000 C 164.904 173.364,165.505 174.033,167.785 174.975 C 169.826 175.819,170.696 176.625,171.694 178.600 C 172.138 179.480,173.251 181.010,174.166 182.000 C 178.203 186.368,177.238 188.537,169.524 192.429 C 168.576 192.907,166.796 194.250,165.568 195.413 C 164.055 196.846,162.766 197.680,161.568 198.001 C 158.902 198.716,157.911 199.357,156.668 201.167 C 156.046 202.074,154.786 203.197,153.868 203.663 C 152.951 204.129,151.461 205.015,150.559 205.634 L 148.917 206.758 148.693 210.036 L 148.468 213.314 150.527 215.883 L 152.585 218.452 162.795 218.170 L 173.005 217.887 175.602 219.844 C 177.344 221.155,178.455 222.349,178.975 223.467 C 179.574 224.756,180.185 225.337,181.675 226.035 C 182.734 226.531,183.600 227.089,183.600 227.274 C 183.600 227.737,181.147 229.197,180.366 229.199 C 179.750 229.200,178.308 234.494,176.211 244.446 C 175.719 246.783,175.252 247.862,174.206 249.085 C 172.662 250.888,171.937 252.571,170.970 256.600 C 170.093 260.249,169.174 262.011,167.290 263.657 C 165.501 265.219,164.202 267.255,163.809 269.110 C 163.477 270.682,161.935 272.606,160.351 273.425 C 159.560 273.835,158.837 274.819,158.045 276.565 C 156.933 279.016,154.704 281.200,153.313 281.200 C 153.037 281.200,152.529 281.875,152.184 282.700 C 151.293 284.832,149.723 286.358,147.300 287.447 C 146.140 287.968,145.200 288.654,145.200 288.981 C 145.200 290.133,142.747 292.386,140.718 293.097 C 138.513 293.870,137.331 294.835,136.364 296.648 C 135.919 297.484,134.803 298.298,132.641 299.367 C 129.192 301.071,118.054 311.604,116.744 314.400 C 116.384 315.170,115.625 316.790,115.057 318.000 C 114.490 319.210,113.522 320.533,112.907 320.940 C 111.598 321.806,110.080 326.647,109.001 333.400 C 108.649 335.600,107.993 338.645,107.543 340.168 C 107.063 341.793,106.700 344.261,106.663 346.148 L 106.600 349.360 108.545 350.090 C 111.768 351.299,288.558 351.218,291.386 350.006 L 293.283 349.193 293.001 345.897 C 292.847 344.083,292.383 341.340,291.971 339.800 C 291.559 338.260,290.959 335.020,290.638 332.600 C 289.860 326.740,288.482 322.799,286.648 321.188 C 285.761 320.410,284.932 319.109,284.409 317.676 C 283.953 316.424,283.359 314.962,283.090 314.427 C 282.462 313.181,274.954 305.600,274.347 305.600 C 274.095 305.600,272.742 304.437,271.341 303.014 C 269.396 301.041,268.328 300.291,266.828 299.845 C 264.228 299.073,263.345 298.579,261.200 296.696 C 260.210 295.828,258.579 294.699,257.575 294.190 C 256.571 293.680,255.504 292.966,255.204 292.605 C 254.904 292.243,254.105 291.667,253.429 291.325 C 252.753 290.983,251.060 289.465,249.668 287.951 C 248.275 286.438,246.866 285.200,246.537 285.200 C 245.701 285.200,243.602 283.015,243.589 282.131 C 243.583 281.729,243.047 280.879,242.397 280.242 C 241.748 279.605,241.124 278.789,241.009 278.430 C 240.895 278.070,240.258 277.571,239.594 277.320 C 238.825 277.030,238.182 276.377,237.826 275.524 C 237.518 274.787,236.898 273.851,236.448 273.444 C 235.639 272.712,235.248 271.768,234.419 268.544 C 234.049 267.106,233.817 266.855,232.660 266.638 C 230.597 266.251,229.806 265.005,228.381 259.900 C 227.660 257.315,226.874 255.194,226.635 255.187 C 226.054 255.170,224.193 253.509,223.679 252.547 C 223.150 251.559,222.199 245.889,221.205 237.802 C 220.413 231.352,220.379 231.253,218.586 230.073 C 218.058 229.726,216.400 227.575,216.400 227.238 C 216.400 227.098,217.222 226.537,218.226 225.992 C 219.595 225.248,220.303 224.499,221.054 223.000 C 224.201 216.716,231.420 214.862,245.792 216.648 C 247.748 216.891,247.810 216.865,249.223 215.224 L 250.663 213.552 250.162 210.165 C 249.564 206.122,248.914 205.383,245.600 204.978 C 242.392 204.587,241.026 203.817,239.954 201.795 C 239.323 200.606,238.551 199.829,237.553 199.379 C 234.948 198.204,231.568 195.739,230.591 194.302 C 230.069 193.532,228.777 192.347,227.720 191.669 C 223.433 188.916,223.080 188.429,222.425 184.362 C 222.194 182.930,221.635 181.303,221.146 180.641 L 220.277 179.466 221.491 178.381 C 222.159 177.784,223.667 176.976,224.841 176.586 C 226.016 176.196,227.660 175.382,228.496 174.777 C 229.331 174.171,230.877 173.469,231.930 173.217 C 233.750 172.780,233.870 172.667,234.331 170.942 C 234.598 169.944,235.173 168.390,235.608 167.489 C 236.044 166.587,236.401 165.659,236.402 165.425 C 236.409 164.131,237.417 161.782,238.942 159.508 C 242.705 153.897,243.184 135.033,239.678 130.501 C 238.555 129.049,235.594 122.248,235.019 119.800 C 234.723 118.537,233.736 117.200,233.100 117.200 C 232.114 117.200,230.203 115.266,229.351 113.405 C 228.389 111.303,228.132 111.098,224.600 109.608 C 223.500 109.143,221.700 107.877,220.600 106.794 C 217.128 103.376,207.746 101.637,196.200 102.272 M207.100 226.652 C 208.155 226.935,208.230 227.595,207.390 229.220 L 206.779 230.400 199.800 230.400 L 192.821 230.400 192.210 229.220 C 191.366 227.587,191.446 226.885,192.500 226.682 C 193.918 226.409,206.100 226.384,207.100 226.652 M195.184 237.448 C 198.348 240.111,198.176 242.800,194.841 242.800 C 191.956 242.800,190.769 240.369,192.252 237.500 C 192.961 236.127,193.601 236.116,195.184 237.448 M201.984 244.248 C 203.445 245.477,204.400 247.169,204.400 248.528 C 204.400 249.372,204.620 249.521,206.126 249.691 C 210.938 250.233,213.331 255.571,209.051 256.213 C 206.205 256.640,204.480 255.128,204.319 252.067 L 204.200 249.800 202.200 249.676 C 199.485 249.507,198.000 248.139,198.000 245.805 C 198.000 243.027,199.730 242.351,201.984 244.248 M214.430 257.842 C 214.964 258.416,216.165 259.415,217.100 260.062 C 218.035 260.709,218.800 261.500,218.800 261.819 C 218.800 262.139,219.125 262.400,219.523 262.400 C 220.481 262.400,222.529 267.412,221.985 268.428 C 220.686 270.854,218.498 268.891,218.320 265.139 L 218.200 262.600 215.800 262.400 C 212.426 262.119,211.558 261.463,211.843 259.410 C 212.265 256.372,212.775 256.063,214.430 257.842 M228.190 273.180 C 228.987 274.723,228.962 275.038,227.962 276.038 L 227.124 276.876 225.962 275.763 C 224.583 274.443,224.535 274.036,225.616 272.875 C 226.722 271.688,227.463 271.775,228.190 273.180 M234.611 280.818 C 234.753 281.047,234.644 281.506,234.369 281.838 C 233.775 282.553,232.488 281.629,232.976 280.838 C 233.320 280.283,234.273 280.270,234.611 280.818 " stroke="none" fill="#e4e4e4" fill-rule="evenodd"></path></g></svg>