<svg id="svg" version="1.1" xmlns="http://www.w3.org/2000/svg" xmlns:xlink="http://www.w3.org/1999/xlink" width="400" height="400" viewBox="0, 0, 400,400"><g id="svgg"><path id="path0" d="M145.400 30.767 C 144.740 30.931,143.274 30.982,142.142 30.881 C 139.514 30.646,138.982 31.403,139.344 34.867 L 139.588 37.200 138.194 37.200 C 137.427 37.200,136.800 37.363,136.800 37.562 C 136.800 37.761,136.082 37.828,135.204 37.710 C 132.822 37.390,132.257 38.046,132.510 40.834 C 132.792 43.943,132.586 44.155,129.393 44.039 C 127.725 43.978,126.808 44.089,126.959 44.334 C 127.100 44.562,126.866 44.638,126.401 44.516 C 125.648 44.319,125.600 44.503,125.600 47.553 C 125.600 51.165,125.839 50.927,122.326 50.807 C 119.281 50.704,118.895 51.107,118.844 54.457 C 118.792 57.892,119.079 57.541,116.066 57.856 C 111.850 58.297,112.214 56.434,112.102 78.120 C 111.995 98.985,111.913 98.280,114.396 97.915 C 115.058 97.818,115.600 97.887,115.600 98.069 C 115.600 98.251,116.320 98.400,117.200 98.400 L 118.800 98.400 118.810 102.900 C 118.826 110.579,119.143 111.216,123.063 111.448 C 124.971 111.561,125.558 111.496,125.000 111.233 C 124.435 110.967,124.379 110.848,124.811 110.828 C 125.594 110.792,126.606 111.974,126.943 113.316 C 127.339 114.893,128.812 116.369,130.600 116.979 L 132.200 117.526 132.270 145.463 C 132.332 170.436,132.211 178.421,131.904 169.617 C 131.784 166.189,131.690 166.113,127.500 166.040 L 125.200 166.000 125.156 163.700 C 125.131 162.435,125.141 161.020,125.177 160.556 C 125.249 159.629,123.816 159.213,120.524 159.204 L 118.847 159.200 118.644 142.100 C 118.531 132.695,118.433 123.920,118.426 122.600 C 118.406 119.309,118.168 119.058,114.870 118.872 L 112.094 118.715 111.789 116.258 C 111.621 114.906,111.465 113.440,111.442 113.000 C 111.398 112.162,111.198 112.117,107.140 112.037 L 105.281 112.000 105.047 110.100 C 104.919 109.055,104.816 107.620,104.819 106.911 C 104.824 105.531,104.006 105.051,101.969 105.236 C 101.436 105.285,98.885 105.296,96.300 105.262 L 91.600 105.200 91.594 103.100 C 91.590 101.611,91.477 101.174,91.205 101.600 C 90.941 102.014,90.895 101.747,91.057 100.739 C 91.421 98.477,91.159 98.432,77.874 98.462 C 64.044 98.495,64.788 98.279,64.498 102.330 L 64.293 105.200 60.246 105.263 C 58.021 105.298,55.300 105.293,54.200 105.252 C 51.416 105.147,51.183 105.409,50.916 108.940 L 50.685 112.000 49.442 112.047 C 48.759 112.072,47.403 112.117,46.429 112.147 C 44.360 112.209,43.827 113.301,44.068 116.981 L 44.200 119.000 42.379 119.037 C 38.306 119.119,37.348 120.274,37.657 124.733 C 37.736 125.870,37.665 126.800,37.500 126.800 C 37.335 126.800,37.200 133.640,37.200 142.000 C 37.200 152.431,37.333 157.200,37.624 157.200 C 37.857 157.200,37.945 157.365,37.821 157.567 C 36.355 159.937,39.126 164.918,42.163 165.374 L 44.000 165.649 44.006 167.525 C 44.010 168.756,44.133 169.210,44.363 168.846 C 44.579 168.505,44.635 168.988,44.509 170.107 C 44.252 172.392,45.041 172.927,48.387 172.734 L 50.701 172.600 50.952 175.582 C 51.301 179.722,50.821 179.540,61.500 179.587 L 64.400 179.600 64.412 182.300 C 64.449 190.355,65.345 192.414,68.942 192.712 L 71.131 192.893 71.266 199.227 C 71.421 206.562,71.314 206.356,75.120 206.675 L 77.964 206.913 78.097 213.356 C 78.295 222.916,79.336 225.547,83.177 226.196 L 84.800 226.470 84.810 231.535 C 84.825 239.794,85.111 240.384,89.100 240.394 L 91.600 240.400 91.650 244.300 C 91.677 246.445,91.661 249.128,91.615 250.262 C 91.497 253.153,92.079 254.086,93.931 253.975 C 94.739 253.927,96.075 253.913,96.900 253.944 L 98.400 254.000 98.421 260.500 C 98.459 272.665,98.790 273.657,102.985 274.181 L 105.200 274.458 105.214 277.729 C 105.248 286.012,105.359 287.135,106.200 287.771 C 107.080 288.435,105.765 288.631,101.600 288.456 C 98.979 288.346,98.654 288.711,98.469 291.977 L 98.310 294.800 96.222 294.800 C 95.073 294.800,94.004 294.930,93.845 295.088 C 93.687 295.246,93.162 295.381,92.679 295.388 C 91.752 295.401,91.723 295.526,91.634 299.900 L 91.600 301.600 89.200 301.600 C 87.880 301.600,86.800 301.749,86.800 301.932 C 86.800 302.114,86.395 302.249,85.900 302.232 C 84.946 302.198,84.926 302.289,84.832 307.044 L 84.800 308.689 82.347 308.911 C 77.908 309.314,78.006 308.560,78.021 342.403 C 78.034 369.438,78.012 369.077,79.601 369.214 C 82.123 369.431,319.870 369.577,320.400 369.362 C 320.730 369.228,321.900 369.046,323.000 368.957 C 328.464 368.516,328.804 367.014,328.556 344.400 C 328.394 329.618,328.432 329.752,324.241 329.319 L 322.000 329.088 321.946 321.444 C 321.917 317.240,321.932 313.045,321.980 312.123 C 322.112 309.603,321.711 308.686,320.573 308.903 C 320.051 309.003,319.719 308.930,319.836 308.742 C 319.952 308.554,318.983 308.400,317.683 308.400 L 315.319 308.400 315.094 302.900 C 314.791 295.516,314.416 294.991,309.613 295.246 C 308.516 295.304,307.494 295.228,307.343 295.076 C 307.191 294.924,305.837 294.800,304.333 294.800 C 301.300 294.800,301.375 294.890,301.577 291.518 C 301.740 288.794,301.456 288.480,298.827 288.480 C 294.794 288.480,294.800 288.486,294.800 284.425 L 294.800 280.903 296.767 280.642 C 300.683 280.123,301.516 277.811,301.578 267.298 C 301.621 260.050,301.387 260.573,304.533 260.697 C 308.480 260.851,308.276 261.414,308.375 250.100 L 308.400 247.200 310.374 247.200 C 315.083 247.200,315.188 246.880,315.197 232.500 L 315.200 227.200 317.000 227.200 C 317.990 227.200,318.800 227.051,318.800 226.869 C 318.800 226.687,319.324 226.615,319.964 226.709 C 321.512 226.937,322.095 225.827,321.987 222.862 C 321.942 221.618,321.926 219.036,321.952 217.124 L 322.000 213.648 324.793 213.373 C 328.577 213.000,328.543 213.068,328.734 205.558 L 328.895 199.205 330.548 198.767 C 332.676 198.202,333.921 197.027,334.250 195.273 C 334.395 194.504,334.746 193.424,335.032 192.874 C 335.387 192.189,335.555 189.987,335.564 185.882 C 335.571 182.586,335.640 179.827,335.716 179.751 C 335.792 179.674,338.561 179.591,341.869 179.566 C 348.123 179.518,349.088 179.327,348.663 178.220 C 348.502 177.802,348.568 177.657,348.841 177.825 C 349.138 178.009,349.230 177.267,349.136 175.445 L 349.000 172.798 351.000 172.757 C 352.100 172.734,353.482 172.747,354.071 172.785 C 355.535 172.880,356.078 171.716,355.956 168.743 C 355.838 165.850,356.125 165.588,359.084 165.894 C 360.286 166.018,361.626 165.927,362.118 165.689 C 362.603 165.454,363.805 165.023,364.788 164.731 C 366.828 164.125,368.400 162.214,368.400 160.341 C 368.400 159.713,368.579 159.200,368.797 159.200 C 369.309 159.200,369.322 158.791,369.357 142.200 C 369.407 117.853,369.935 118.895,357.500 118.810 L 356.000 118.800 355.995 116.300 C 355.985 111.984,355.999 112.000,352.353 112.000 C 348.847 112.000,349.073 112.234,349.193 108.726 C 349.300 105.561,348.890 105.200,345.186 105.200 L 342.000 105.200 342.000 103.587 C 342.000 98.621,341.922 98.600,323.686 98.600 C 307.741 98.600,308.617 98.410,308.971 101.800 C 309.113 103.158,309.056 103.608,308.796 103.200 C 308.506 102.747,308.411 102.919,308.406 103.900 L 308.400 105.200 305.300 105.246 C 303.595 105.271,301.069 105.255,299.686 105.209 C 295.909 105.084,295.029 105.795,295.311 108.744 C 295.624 112.028,295.473 112.200,292.268 112.200 C 288.811 112.200,288.347 112.703,288.386 116.400 C 288.402 117.830,288.302 120.485,288.165 122.300 C 287.887 125.972,288.071 125.807,284.486 125.616 C 282.035 125.486,281.697 125.937,281.561 129.517 C 281.390 134.030,281.391 148.920,281.563 152.400 C 281.915 159.550,281.674 159.978,277.484 159.648 C 275.215 159.469,274.810 160.026,274.870 163.248 C 274.898 164.768,274.804 166.130,274.660 166.273 C 274.343 166.591,274.189 153.268,274.338 138.400 C 274.511 121.206,274.142 119.643,269.824 119.285 C 267.601 119.101,266.944 118.665,268.341 118.300 C 268.748 118.193,269.975 118.192,271.068 118.297 C 273.936 118.573,274.561 117.846,274.296 114.544 L 274.096 112.043 275.339 111.769 C 276.023 111.619,277.532 111.505,278.692 111.515 C 280.964 111.536,281.374 111.080,281.164 108.769 C 281.115 108.236,281.103 107.080,281.137 106.200 L 281.198 104.600 283.699 104.725 C 288.175 104.948,287.785 107.139,287.900 81.174 C 288.008 57.098,288.049 57.600,285.962 57.600 C 285.142 57.600,284.311 57.090,283.011 55.789 L 281.200 53.979 281.153 50.889 C 281.057 44.648,280.937 44.548,273.075 44.153 L 267.600 43.878 267.540 42.239 C 267.507 41.338,267.520 40.089,267.570 39.465 C 267.620 38.841,267.401 38.031,267.084 37.665 C 266.767 37.299,266.380 36.460,266.225 35.800 C 265.928 34.537,264.159 32.400,263.410 32.400 C 263.167 32.400,262.283 32.050,261.445 31.623 C 259.639 30.702,259.720 30.708,247.200 30.654 C 226.753 30.567,227.275 30.253,227.207 42.700 L 227.200 44.000 222.900 44.028 C 220.042 44.047,218.868 44.175,219.400 44.411 C 219.911 44.638,219.255 44.683,217.587 44.537 C 214.319 44.250,213.965 44.602,213.692 48.406 L 213.493 51.200 212.006 51.200 C 207.831 51.200,207.287 52.150,206.927 60.075 L 206.677 65.563 205.529 65.816 C 202.651 66.448,200.400 70.588,200.400 75.250 C 200.400 76.396,200.282 77.215,200.138 77.071 C 199.993 76.926,199.900 74.523,199.930 71.729 C 200.022 63.313,198.107 58.800,194.443 58.800 C 193.292 58.800,193.114 58.288,193.054 54.797 C 192.988 50.995,193.110 51.125,189.407 50.888 C 186.051 50.672,186.203 50.865,186.356 47.000 C 186.451 44.609,186.075 44.310,182.692 44.093 L 179.702 43.901 179.491 41.275 C 179.223 37.935,178.713 37.500,175.275 37.673 L 172.750 37.800 172.675 34.961 C 172.575 31.169,172.191 30.749,168.831 30.757 C 167.384 30.760,161.790 30.697,156.400 30.616 C 151.010 30.535,146.060 30.603,145.400 30.767 M234.421 31.774 C 234.159 32.090,233.442 32.459,232.829 32.594 C 231.476 32.891,229.881 34.505,229.067 36.400 C 228.711 37.227,228.452 37.508,228.433 37.087 C 228.314 34.496,230.992 32.013,234.749 31.231 C 234.831 31.214,234.683 31.458,234.421 31.774 M263.202 35.897 C 263.677 36.504,264.366 37.137,264.733 37.304 C 265.100 37.472,264.680 37.508,263.800 37.384 C 262.087 37.144,260.800 36.010,260.800 34.742 C 260.800 33.746,261.950 34.300,263.202 35.897 M233.200 34.525 C 233.200 34.594,232.615 35.179,231.900 35.825 L 230.600 37.000 231.775 35.700 C 232.870 34.488,233.200 34.216,233.200 34.525 M177.475 38.700 C 177.894 39.085,178.040 39.272,177.797 39.116 C 177.555 38.960,176.917 38.656,176.378 38.441 C 175.760 38.194,175.641 38.041,176.056 38.025 C 176.416 38.011,177.055 38.315,177.475 38.700 M216.543 45.197 C 216.071 45.387,215.396 45.956,215.043 46.460 C 214.689 46.965,214.400 47.158,214.400 46.889 C 214.400 46.149,215.907 44.797,216.700 44.825 C 217.259 44.846,217.228 44.920,216.543 45.197 M278.420 45.810 C 279.069 46.146,279.600 46.491,279.600 46.578 C 279.600 46.664,279.704 47.064,279.830 47.467 C 280.052 48.173,280.043 48.174,279.595 47.473 C 279.339 47.073,278.561 46.398,277.865 45.974 C 276.359 45.056,276.743 44.943,278.420 45.810 M160.336 47.842 C 161.117 47.964,162.363 48.680,163.336 49.569 C 164.251 50.404,165.907 51.385,167.017 51.748 C 171.830 53.325,175.937 56.814,179.095 62.007 C 179.565 62.781,180.429 63.861,181.014 64.407 C 187.365 70.336,186.878 88.971,180.204 95.397 C 178.745 96.801,177.368 98.577,176.890 99.670 C 176.440 100.699,175.333 102.342,174.430 103.321 L 172.788 105.102 174.156 107.134 C 175.616 109.304,177.009 113.180,178.421 119.000 C 178.984 121.322,179.861 123.558,180.892 125.299 C 182.142 127.410,182.874 129.502,184.253 134.899 C 185.223 138.695,186.351 142.259,186.761 142.820 C 188.489 145.187,189.634 148.243,191.182 154.623 C 192.256 159.049,193.159 161.879,193.790 162.796 C 194.683 164.094,196.800 170.498,196.800 171.900 C 196.800 173.088,199.213 180.313,199.762 180.768 C 200.619 181.479,201.719 179.781,203.585 174.869 C 204.477 172.521,205.651 169.700,206.194 168.600 C 207.221 166.518,208.786 160.618,209.588 155.800 C 210.153 152.405,211.094 150.207,212.682 148.569 C 213.931 147.281,214.818 144.585,216.366 137.376 C 217.259 133.219,218.305 130.622,219.675 129.161 C 220.667 128.102,222.826 120.599,223.403 116.200 C 223.767 113.428,224.956 110.894,226.147 110.351 C 229.086 109.012,229.227 103.353,226.374 101.244 C 225.744 100.779,224.137 98.733,222.802 96.699 C 221.467 94.664,219.678 92.268,218.826 91.373 C 216.353 88.774,215.179 81.827,216.026 74.800 C 216.709 69.132,217.296 67.757,219.663 66.289 C 220.353 65.861,220.967 64.905,221.413 63.561 C 222.181 61.249,224.233 58.732,225.921 58.033 C 226.533 57.779,227.376 56.935,227.795 56.157 C 228.821 54.252,230.226 53.328,233.905 52.137 C 236.040 51.446,237.449 50.701,238.449 49.737 C 241.787 46.514,252.426 46.529,255.676 49.761 C 256.404 50.486,258.080 51.476,259.400 51.963 C 263.742 53.563,265.064 54.376,265.850 55.931 C 266.729 57.672,267.983 59.200,268.532 59.200 C 269.876 59.200,271.604 61.370,272.816 64.581 C 273.681 66.873,274.580 68.464,275.594 69.499 C 279.077 73.052,278.669 87.937,275.051 89.325 C 274.737 89.446,274.258 90.232,273.986 91.072 C 272.397 95.976,266.851 102.155,262.668 103.680 C 260.164 104.593,259.642 105.179,257.395 109.606 L 256.281 111.800 256.921 115.000 C 257.821 119.504,257.959 121.587,258.410 137.600 C 258.630 145.410,259.098 157.650,259.450 164.800 C 260.110 178.212,260.309 187.076,260.052 191.600 C 259.971 193.030,260.128 194.944,260.402 195.854 L 260.899 197.509 262.245 196.595 C 262.985 196.093,264.538 195.460,265.695 195.189 C 268.334 194.570,268.640 194.320,269.661 191.947 C 270.431 190.158,273.496 186.800,274.360 186.800 C 274.568 186.800,274.937 186.196,275.181 185.458 C 275.773 183.665,278.073 181.035,279.994 179.955 C 280.852 179.473,281.761 178.578,282.015 177.965 C 282.505 176.780,284.486 174.557,286.819 172.573 C 287.599 171.910,288.547 170.924,288.924 170.383 C 289.302 169.843,291.014 167.960,292.730 166.200 C 294.445 164.440,296.603 162.169,297.526 161.154 L 299.202 159.308 298.436 155.754 C 298.015 153.799,297.173 151.030,296.565 149.600 C 293.605 142.635,295.715 129.129,300.249 126.022 C 301.023 125.492,301.993 124.398,302.404 123.591 C 303.284 121.867,305.328 119.976,307.107 119.238 C 307.802 118.950,308.725 118.115,309.157 117.382 C 312.746 111.300,335.458 111.755,339.392 117.988 C 339.946 118.865,341.223 120.036,342.291 120.646 C 345.170 122.289,345.503 122.675,347.237 126.377 C 348.119 128.260,349.370 130.348,350.018 131.017 C 353.544 134.660,353.723 148.615,350.292 152.412 C 349.314 153.495,345.600 159.505,345.600 160.005 C 345.600 160.410,343.519 162.142,340.335 164.389 C 338.941 165.373,337.563 166.501,337.274 166.895 C 336.488 167.963,334.142 169.023,331.000 169.731 C 327.588 170.499,326.297 171.723,325.634 174.818 C 325.147 177.085,323.574 180.512,322.428 181.800 C 321.553 182.784,320.387 185.802,318.952 190.800 C 317.699 195.165,317.072 196.598,315.804 198.000 C 314.988 198.902,312.849 204.835,311.601 209.655 C 311.337 210.675,310.461 212.309,309.655 213.285 C 308.660 214.488,307.825 216.208,307.059 218.630 C 304.855 225.600,303.387 229.311,302.424 230.349 C 301.490 231.356,300.357 234.318,298.155 241.521 C 297.532 243.556,296.686 245.358,295.969 246.174 C 294.693 247.628,293.251 251.130,291.985 255.855 C 291.092 259.189,289.978 261.617,288.570 263.302 C 288.047 263.927,286.774 267.152,285.623 270.765 C 284.081 275.609,283.278 277.510,282.255 278.734 C 281.375 279.787,280.536 281.557,279.818 283.870 C 277.879 290.123,273.161 292.939,265.752 292.266 C 264.458 292.149,258.810 291.858,253.200 291.621 C 241.453 291.123,240.075 290.877,239.744 289.218 L 239.515 288.076 234.458 287.738 C 222.267 286.924,173.897 287.916,176.125 288.935 C 177.338 289.489,179.018 289.657,184.325 289.754 C 192.264 289.899,205.025 290.573,216.559 291.456 C 222.216 291.890,226.807 292.012,230.759 291.836 C 237.287 291.544,238.507 291.825,238.723 293.669 C 238.883 295.042,238.785 295.028,253.600 295.785 C 260.310 296.128,267.870 296.678,270.400 297.007 C 272.930 297.337,277.070 297.783,279.600 298.000 C 288.038 298.722,288.002 298.713,289.878 300.616 C 290.985 301.739,292.369 302.617,293.885 303.158 C 297.536 304.462,298.925 305.384,300.001 307.212 C 300.552 308.149,301.362 309.108,301.801 309.345 C 305.029 311.086,305.540 311.594,306.373 313.882 C 307.845 317.923,308.494 319.176,309.237 319.412 C 311.653 320.179,312.383 324.597,312.507 339.200 C 312.630 353.745,312.290 354.559,305.675 355.569 C 303.577 355.889,273.745 356.012,200.235 356.004 C 83.641 355.991,95.003 356.363,91.151 352.430 L 88.901 350.134 88.702 346.167 C 88.335 338.860,89.419 329.270,90.775 327.826 C 91.231 327.340,91.874 325.514,92.339 323.386 C 92.772 321.399,93.638 318.444,94.263 316.821 C 95.384 313.911,95.702 313.500,99.129 310.545 C 100.080 309.725,101.200 308.384,101.619 307.563 C 102.376 306.079,105.177 304.428,110.200 302.504 C 111.080 302.167,112.324 301.354,112.965 300.698 C 114.784 298.834,116.439 298.367,122.562 297.988 C 125.663 297.796,129.190 297.461,130.400 297.244 C 131.610 297.026,136.380 296.657,141.000 296.424 C 168.401 295.040,168.419 295.038,165.670 293.635 C 162.809 292.176,156.182 291.806,142.962 292.367 C 130.146 292.911,129.916 292.876,125.310 289.645 C 122.835 287.909,121.841 286.411,121.393 283.740 C 120.729 279.789,118.755 274.849,117.228 273.321 C 116.149 272.241,115.577 271.220,115.255 269.800 C 113.904 263.834,112.104 258.836,110.959 257.873 C 109.798 256.895,108.670 253.978,106.404 246.083 C 105.844 244.131,105.126 242.674,104.238 241.683 C 102.578 239.831,101.747 238.225,101.393 236.186 C 100.974 233.770,98.396 225.600,98.053 225.600 C 96.713 225.600,95.860 223.585,92.561 212.631 C 92.158 211.296,91.426 209.899,90.884 209.431 C 89.525 208.259,88.207 205.471,87.464 202.200 C 86.276 196.969,84.896 193.545,83.436 192.208 C 82.563 191.408,81.912 190.320,81.624 189.180 C 79.701 181.567,78.523 178.148,77.332 176.721 C 76.634 175.885,75.943 174.652,75.796 173.981 C 75.409 172.220,72.172 169.775,69.490 169.219 C 67.274 168.759,64.800 167.490,64.800 166.814 C 64.800 166.595,64.035 166.033,63.100 165.564 C 61.222 164.623,54.370 157.877,53.414 156.027 C 53.081 155.382,52.381 153.513,51.861 151.872 C 51.164 149.678,50.555 148.570,49.557 147.679 C 47.048 145.441,47.307 137.302,49.938 135.714 C 50.457 135.401,51.103 134.051,51.756 131.914 C 53.055 127.664,55.255 124.367,58.642 121.600 C 60.123 120.390,62.128 118.559,63.098 117.531 C 67.529 112.836,80.471 111.494,89.336 114.811 C 93.390 116.327,101.137 124.522,103.846 130.159 C 104.575 131.677,105.517 133.297,105.939 133.759 C 109.164 137.293,109.093 146.806,105.826 148.946 C 104.381 149.893,103.398 152.091,102.698 155.938 L 102.091 159.276 103.308 160.661 C 103.977 161.424,105.213 162.398,106.054 162.827 C 106.927 163.273,107.857 164.164,108.221 164.904 C 108.572 165.617,110.241 167.579,111.930 169.264 C 113.618 170.950,115.720 173.182,116.600 174.225 C 117.480 175.268,118.716 176.438,119.346 176.825 C 119.977 177.212,121.009 178.309,121.640 179.264 C 122.271 180.219,124.010 182.170,125.505 183.600 C 128.063 186.046,135.745 194.589,138.043 197.543 L 139.086 198.884 139.954 197.665 C 141.968 194.837,142.127 193.888,141.611 187.808 C 141.141 182.270,141.555 163.431,142.797 133.800 C 143.010 128.740,143.187 123.315,143.192 121.745 C 143.199 119.171,143.331 118.699,144.535 116.945 C 146.831 113.600,146.806 111.992,144.420 109.543 C 143.325 108.419,142.238 106.922,142.005 106.216 C 141.589 104.955,139.826 103.769,137.200 102.984 C 135.441 102.458,134.461 101.579,133.562 99.722 C 132.975 98.509,132.126 97.573,130.988 96.886 C 128.847 95.592,128.410 94.814,126.791 89.400 C 126.067 86.980,125.246 84.640,124.967 84.200 C 123.210 81.433,123.015 77.422,124.562 75.875 C 125.131 75.305,125.647 74.033,125.966 72.411 C 127.273 65.766,129.040 62.454,132.770 59.659 C 133.461 59.141,134.361 58.061,134.770 57.259 C 135.849 55.146,136.553 54.640,141.210 52.636 C 143.514 51.644,145.677 50.491,146.017 50.075 C 148.044 47.585,153.349 46.757,160.336 47.842 M213.600 51.955 C 213.600 52.151,212.984 52.427,212.231 52.568 C 210.729 52.850,208.400 55.141,208.400 56.337 C 208.400 56.728,208.139 57.396,207.820 57.824 C 207.363 58.436,207.387 58.099,207.934 56.233 C 208.692 53.649,209.771 52.539,212.049 52.001 C 212.792 51.825,213.445 51.663,213.500 51.641 C 213.555 51.618,213.600 51.760,213.600 51.955 M212.400 54.125 C 212.400 54.194,211.815 54.779,211.100 55.425 L 209.800 56.600 210.975 55.300 C 212.070 54.088,212.400 53.816,212.400 54.125 M195.781 63.428 C 196.132 63.963,196.288 64.400,196.128 64.400 C 195.721 64.400,193.200 61.914,193.200 61.512 C 193.200 60.972,195.093 62.376,195.781 63.428 M206.507 70.453 C 206.311 70.649,205.352 71.212,204.375 71.705 C 203.254 72.270,202.329 73.116,201.864 74.000 C 201.152 75.353,201.136 75.360,201.392 74.217 C 201.658 73.029,203.571 70.579,205.543 68.901 L 206.600 68.001 206.731 69.049 C 206.803 69.626,206.702 70.258,206.507 70.453 M201.689 89.806 C 202.324 90.352,203.562 90.830,204.775 90.997 L 206.800 91.275 206.830 94.138 C 206.847 95.712,206.843 98.170,206.822 99.600 C 206.759 103.839,207.121 104.595,209.232 104.626 C 210.205 104.641,211.585 104.790,212.300 104.958 L 213.600 105.264 213.600 108.632 L 213.600 112.000 212.500 112.004 C 207.040 112.026,206.800 112.700,206.800 127.969 L 206.800 132.400 204.489 132.400 C 201.633 132.400,200.422 133.137,200.344 134.923 C 200.313 135.625,200.130 134.134,199.938 131.609 C 199.520 126.118,199.368 125.900,195.805 125.673 L 193.200 125.507 193.183 121.253 C 193.130 107.466,192.734 106.142,188.495 105.599 L 186.200 105.305 188.600 105.213 C 193.228 105.035,193.062 105.235,193.168 99.700 L 193.200 98.000 195.556 98.000 C 199.509 98.000,199.739 97.625,199.874 90.951 C 200.118 78.945,200.112 79.021,200.380 84.147 C 200.615 88.641,200.684 88.942,201.689 89.806 M201.082 82.100 C 200.987 82.595,200.909 82.190,200.909 81.200 C 200.909 80.210,200.987 79.805,201.082 80.300 C 201.178 80.795,201.178 81.605,201.082 82.100 M203.210 87.810 C 203.720 88.354,204.737 89.015,205.469 89.279 C 206.943 89.812,207.330 90.617,205.900 90.176 C 202.835 89.231,201.710 87.932,201.395 84.974 L 201.185 83.000 201.734 84.912 C 202.035 85.963,202.700 87.267,203.210 87.810 M198.056 96.434 C 197.536 96.855,196.906 97.193,196.656 97.184 C 196.405 97.175,196.695 96.899,197.300 96.571 C 197.905 96.243,198.400 95.770,198.400 95.521 C 198.400 95.271,198.535 95.202,198.700 95.368 C 198.865 95.533,198.575 96.013,198.056 96.434 M286.961 102.558 C 286.686 103.274,284.784 104.414,283.920 104.379 C 283.634 104.368,284.068 104.082,284.885 103.743 C 285.701 103.404,286.483 102.770,286.621 102.333 C 286.760 101.897,286.951 101.618,287.046 101.713 C 287.141 101.808,287.103 102.188,286.961 102.558 M122.487 110.198 C 123.223 110.518,123.495 110.776,123.106 110.784 C 122.066 110.808,120.062 108.764,119.787 107.400 C 119.589 106.418,119.693 106.511,120.359 107.914 C 120.908 109.070,121.600 109.813,122.487 110.198 M189.216 107.208 C 190.087 107.653,190.800 108.058,190.800 108.108 C 190.800 108.159,191.165 109.158,191.610 110.330 C 192.566 112.844,191.969 112.750,190.845 110.208 C 190.241 108.844,189.633 108.223,188.133 107.443 C 187.070 106.890,186.522 106.429,186.916 106.419 C 187.310 106.408,188.345 106.764,189.216 107.208 M131.932 112.595 C 132.224 112.869,132.404 113.611,132.332 114.246 L 132.200 115.400 130.550 113.750 C 129.643 112.843,128.653 111.997,128.350 111.871 C 128.047 111.745,128.610 111.745,129.600 111.870 C 130.590 111.996,131.639 112.322,131.932 112.595 M290.664 113.252 C 290.259 113.488,289.681 114.247,289.379 114.940 C 289.078 115.633,288.824 115.909,288.816 115.554 C 288.796 114.744,290.298 112.796,290.929 112.812 C 291.188 112.819,291.069 113.017,290.664 113.252 M208.889 114.774 C 208.518 115.420,208.142 115.876,208.053 115.787 C 207.878 115.611,209.108 113.600,209.391 113.600 C 209.485 113.600,209.260 114.128,208.889 114.774 M40.935 120.774 C 40.239 121.198,39.480 121.873,39.247 122.273 C 39.015 122.673,38.819 122.791,38.812 122.536 C 38.797 121.974,41.072 119.999,41.731 120.001 C 41.989 120.002,41.631 120.350,40.935 120.774 M273.883 133.695 C 273.787 134.193,273.705 133.880,273.701 133.000 C 273.696 132.120,273.775 131.713,273.875 132.095 C 273.975 132.478,273.979 133.198,273.883 133.695 M202.867 133.476 C 202.574 133.593,201.990 134.254,201.569 134.944 C 201.148 135.635,200.802 135.999,200.801 135.754 C 200.799 135.082,202.391 133.195,202.929 133.232 C 203.228 133.252,203.206 133.341,202.867 133.476 M41.410 161.790 C 42.075 162.456,42.975 163.204,43.410 163.453 C 44.776 164.236,43.821 164.418,42.376 163.650 C 40.898 162.864,39.185 160.686,39.224 159.641 C 39.242 159.129,39.343 159.159,39.724 159.790 C 39.986 160.225,40.744 161.125,41.410 161.790 M365.199 160.401 C 364.408 161.512,362.800 162.720,362.800 162.203 C 362.800 161.843,365.367 159.216,365.727 159.207 C 365.907 159.203,365.670 159.740,365.199 160.401 M68.523 190.819 C 69.225 191.247,69.557 191.598,69.260 191.599 C 68.551 191.600,65.995 189.034,66.016 188.340 C 66.025 188.043,66.305 188.304,66.639 188.920 C 66.973 189.536,67.821 190.390,68.523 190.819 M331.199 194.401 C 330.374 195.561,328.800 196.712,328.800 196.157 C 328.800 195.767,331.336 193.209,331.727 193.204 C 331.907 193.202,331.670 193.740,331.199 194.401 M314.175 243.759 C 313.880 244.932,312.241 246.405,311.246 246.391 C 310.891 246.386,311.181 246.095,311.891 245.746 C 312.704 245.344,313.361 244.613,313.667 243.765 C 314.229 242.211,314.564 242.207,314.175 243.759 M299.590 275.427 C 299.375 275.992,299.013 276.801,298.786 277.226 C 298.308 278.119,295.249 279.793,294.861 279.373 C 294.718 279.218,294.780 279.024,295.000 278.944 C 296.457 278.409,298.109 276.999,298.679 275.803 C 299.449 274.189,300.174 273.890,299.590 275.427 M312.831 297.169 C 313.474 297.812,313.994 298.577,313.986 298.869 C 313.978 299.161,313.726 298.957,313.427 298.416 C 313.127 297.874,312.281 297.109,311.547 296.716 C 310.677 296.249,310.465 296.000,310.937 296.000 C 311.336 296.000,312.188 296.526,312.831 297.169 M82.933 310.039 C 81.561 310.436,79.600 312.471,79.600 313.497 C 79.600 313.847,79.486 314.019,79.346 313.879 C 78.380 312.913,81.586 309.559,83.400 309.638 C 83.917 309.660,83.753 309.802,82.933 310.039 M325.395 331.267 C 326.542 332.170,327.619 334.257,327.573 335.487 C 327.559 335.879,327.306 335.429,327.012 334.487 C 326.356 332.388,325.754 331.632,324.200 330.954 C 323.540 330.667,323.291 330.424,323.646 330.416 C 324.001 330.407,324.788 330.790,325.395 331.267 M327.887 340.295 C 327.795 340.903,327.717 340.500,327.714 339.400 C 327.711 338.300,327.787 337.803,327.882 338.295 C 327.977 338.786,327.979 339.686,327.887 340.295 M327.894 351.100 C 327.812 352.145,327.744 351.290,327.744 349.200 C 327.744 347.110,327.812 346.255,327.894 347.300 C 327.976 348.345,327.976 350.055,327.894 351.100 M327.883 358.495 C 327.787 358.993,327.705 358.680,327.701 357.800 C 327.696 356.920,327.775 356.513,327.875 356.895 C 327.975 357.278,327.979 357.998,327.883 358.495 M326.792 363.329 C 325.936 365.617,324.712 366.853,322.800 367.360 C 322.110 367.543,322.254 367.376,323.264 366.822 C 325.236 365.739,326.227 364.385,326.863 361.905 C 327.156 360.764,327.449 360.110,327.515 360.453 C 327.581 360.796,327.256 362.090,326.792 363.329 " stroke="none" fill="#444444" fill-rule="evenodd"></path><path id="path1" d="M148.880 54.636 C 143.979 55.481,141.597 56.858,137.800 61.039 C 136.040 62.978,134.027 65.139,133.327 65.841 C 128.218 70.970,128.163 89.420,133.248 92.630 C 134.951 93.705,136.457 95.558,137.311 97.631 C 137.692 98.554,138.309 99.213,139.051 99.488 C 139.683 99.722,141.035 100.210,142.056 100.573 C 144.856 101.568,147.328 103.378,148.336 105.171 C 149.272 106.837,150.582 112.182,150.204 112.793 C 150.085 112.985,149.812 119.860,149.596 128.071 C 148.993 150.997,147.803 172.934,146.616 183.000 C 145.569 191.881,145.545 192.626,146.195 196.370 C 147.054 201.323,146.272 202.418,141.038 203.591 C 138.519 204.156,137.216 203.423,135.019 200.207 C 134.129 198.904,132.609 197.235,131.641 196.498 C 130.674 195.761,129.349 194.421,128.696 193.520 C 128.044 192.620,126.675 191.098,125.655 190.140 C 124.635 189.181,123.620 188.196,123.400 187.951 C 123.180 187.706,121.470 185.926,119.600 183.997 C 117.730 182.067,113.860 178.017,111.000 174.996 C 108.140 171.975,104.540 168.190,103.000 166.585 C 101.460 164.980,99.365 162.795,98.344 161.729 L 96.488 159.792 96.344 156.098 C 96.206 152.569,96.247 152.354,97.246 151.295 C 100.345 148.010,101.415 142.476,100.233 135.848 C 99.885 133.894,99.600 132.167,99.600 132.010 C 99.600 131.853,98.610 130.702,97.400 129.453 C 96.190 128.204,95.200 126.916,95.200 126.592 C 95.200 125.536,92.301 122.762,89.965 121.582 C 88.709 120.948,87.345 120.001,86.933 119.478 C 84.457 116.331,72.756 116.424,69.400 119.617 C 68.520 120.455,66.804 121.576,65.587 122.109 C 63.599 122.980,60.000 126.275,60.000 127.224 C 60.000 127.395,59.379 127.919,58.620 128.388 C 55.752 130.160,54.628 133.976,54.729 141.600 C 54.837 149.785,56.046 153.485,59.344 155.722 C 59.930 156.119,60.852 157.318,61.393 158.387 C 62.390 160.353,64.197 162.000,65.357 162.000 C 66.624 162.000,70.084 163.572,71.722 164.892 C 72.645 165.635,74.210 166.714,75.200 167.288 C 79.838 169.978,81.185 171.789,82.421 176.994 C 83.352 180.913,84.254 182.995,86.217 185.750 C 86.982 186.823,87.884 188.713,88.222 189.950 C 90.214 197.243,91.341 200.256,92.597 201.648 C 94.045 203.252,95.278 206.227,96.385 210.786 C 97.365 214.818,97.814 215.883,99.207 217.469 C 100.905 219.402,101.506 220.742,102.436 224.659 C 103.588 229.509,104.716 232.369,106.108 233.971 C 107.633 235.725,108.160 237.017,110.010 243.537 C 111.221 247.808,111.763 249.108,112.719 250.043 C 114.309 251.597,115.102 253.363,116.082 257.530 C 117.207 262.316,117.933 264.207,119.304 265.926 C 120.955 267.996,121.917 270.003,122.544 272.687 C 123.996 278.904,125.219 281.736,127.045 283.107 C 128.002 283.826,129.501 285.384,130.377 286.569 C 132.188 289.021,132.273 289.027,137.000 287.067 C 142.676 284.713,152.545 284.081,188.400 283.776 C 205.397 283.632,216.025 283.363,221.600 282.938 C 228.396 282.420,230.964 282.391,236.600 282.772 C 240.340 283.024,247.639 283.388,252.821 283.579 C 261.137 283.887,262.577 284.040,265.103 284.887 C 267.518 285.697,268.108 285.769,268.882 285.348 C 269.387 285.073,270.908 284.546,272.261 284.175 C 275.186 283.376,275.344 283.102,276.984 276.039 C 278.179 270.890,278.720 269.636,280.266 268.419 C 281.431 267.503,282.734 264.046,283.817 259.000 C 284.529 255.686,286.151 252.161,287.231 251.583 C 288.170 251.081,289.055 249.057,289.846 245.600 C 291.127 240.008,292.143 237.470,293.714 235.941 C 295.039 234.650,295.376 233.905,296.431 229.934 C 298.573 221.868,298.741 221.420,300.246 219.785 C 301.819 218.075,302.913 215.387,303.618 211.503 C 304.296 207.764,305.893 204.147,307.422 202.886 C 308.380 202.096,308.886 201.231,309.229 199.795 C 311.479 190.386,312.551 187.473,314.374 185.823 C 314.830 185.411,315.805 183.093,316.636 180.449 C 318.082 175.849,319.961 171.650,321.857 168.785 C 323.538 166.245,330.118 162.508,334.200 161.775 C 335.886 161.472,338.800 159.482,338.800 158.633 C 338.800 158.358,339.367 157.608,340.059 156.967 C 343.673 153.619,343.774 153.461,344.891 149.375 C 347.310 140.526,345.694 129.885,341.338 125.980 C 339.314 124.165,333.013 119.679,330.709 118.412 C 326.625 116.167,317.313 117.145,313.946 120.173 C 312.920 121.095,311.298 122.080,310.341 122.361 C 308.254 122.976,306.607 124.429,305.540 126.600 C 305.107 127.480,303.846 129.025,302.737 130.034 C 297.988 134.356,297.909 146.479,302.600 151.070 C 303.651 152.098,303.988 152.859,304.372 155.070 C 304.633 156.571,304.933 158.217,305.038 158.726 C 305.190 159.467,304.639 160.228,302.284 162.526 C 300.664 164.107,298.857 166.063,298.269 166.874 C 297.681 167.684,296.453 168.854,295.541 169.474 C 294.628 170.093,293.130 171.680,292.211 173.000 C 291.292 174.320,289.797 175.901,288.889 176.514 C 287.216 177.642,286.262 178.697,284.677 181.169 C 284.195 181.923,282.990 183.105,282.000 183.797 C 281.010 184.488,279.840 185.657,279.400 186.394 C 278.544 187.828,276.517 189.930,274.304 191.678 C 273.495 192.318,272.752 193.381,272.479 194.293 C 271.915 196.178,270.169 198.022,268.040 198.982 C 267.129 199.393,266.012 200.347,265.453 201.192 C 264.887 202.048,263.733 203.028,262.734 203.502 L 261.000 204.325 259.500 203.489 C 256.865 202.020,256.462 200.569,256.196 191.600 C 255.779 177.560,254.461 157.029,253.615 151.400 C 252.970 147.110,252.032 136.769,251.602 129.200 C 251.370 125.130,250.993 119.528,250.764 116.751 C 249.857 105.779,252.777 100.000,259.229 100.000 C 261.075 100.000,263.025 98.506,263.399 96.806 C 263.664 95.596,266.025 93.200,266.952 93.200 C 272.367 93.200,271.482 66.791,265.947 63.205 C 264.603 62.333,263.572 61.229,262.760 59.791 C 259.826 54.592,249.448 52.784,237.924 55.464 L 233.647 56.458 231.756 58.673 C 230.612 60.011,229.189 61.176,228.158 61.618 C 226.176 62.468,225.345 63.576,224.616 66.340 C 224.327 67.435,223.719 69.111,223.265 70.065 C 221.397 73.989,220.000 77.590,220.006 78.467 C 220.018 80.367,221.232 84.489,222.197 85.910 C 222.745 86.716,223.582 88.551,224.057 89.988 C 224.792 92.208,225.329 92.990,227.639 95.201 C 230.450 97.891,231.612 99.883,232.387 103.344 C 233.082 106.443,230.293 116.428,227.791 119.800 C 226.645 121.345,225.795 123.997,224.600 129.760 C 223.587 134.646,222.482 137.636,221.174 139.028 C 220.094 140.177,218.992 143.480,217.793 149.157 C 216.645 154.595,216.159 155.922,214.464 158.254 C 213.181 160.018,211.931 163.757,211.204 168.000 C 209.440 178.288,206.701 183.825,202.084 186.431 L 199.912 187.657 198.917 186.728 C 196.974 184.916,196.257 183.437,194.793 178.227 C 193.664 174.205,192.980 172.519,191.911 171.118 C 190.489 169.256,189.517 166.330,188.218 160.000 C 187.622 157.095,187.101 155.861,184.501 151.200 C 183.770 149.888,182.684 146.670,181.810 143.227 C 180.335 137.414,179.989 136.539,178.172 134.025 C 177.626 133.269,176.930 131.739,176.625 130.625 C 173.840 120.431,173.107 118.210,172.003 116.605 C 167.062 109.423,166.809 97.753,171.560 96.173 C 173.235 95.615,176.184 91.877,176.569 89.823 C 176.756 88.826,177.399 87.726,178.379 86.726 C 180.852 84.204,181.075 78.781,178.932 73.267 C 178.391 71.874,177.603 70.167,177.182 69.474 C 176.761 68.781,176.200 67.250,175.936 66.072 C 175.557 64.378,175.089 63.581,173.697 62.265 C 172.729 61.349,171.097 59.776,170.069 58.769 C 167.383 56.139,166.595 55.737,162.800 55.062 C 157.597 54.136,152.653 53.985,148.880 54.636 M174.000 299.078 C 142.238 299.688,132.622 300.377,128.038 302.375 C 126.587 303.008,123.690 303.813,121.600 304.164 C 109.789 306.152,108.329 306.965,100.984 315.652 C 96.089 321.442,95.811 322.615,95.350 339.409 L 95.086 349.017 96.557 350.309 L 98.028 351.600 200.114 351.600 L 302.200 351.599 304.649 350.441 L 307.098 349.282 307.383 346.244 C 307.923 340.484,306.043 326.764,303.486 317.804 L 302.574 314.607 300.187 313.378 C 298.163 312.335,295.809 310.067,295.141 308.518 C 294.741 307.591,284.472 304.564,276.400 302.994 C 275.630 302.844,274.638 302.493,274.197 302.215 C 270.013 299.576,223.667 298.125,174.000 299.078 " stroke="none" fill="#fafafa" fill-rule="evenodd"></path><path id="path2" d="M243.600 51.181 C 235.869 52.945,232.115 54.575,229.390 57.352 C 228.284 58.478,226.634 59.982,225.724 60.694 C 224.546 61.614,223.645 62.880,222.601 65.079 C 221.794 66.779,220.624 68.751,220.000 69.461 C 218.415 71.266,217.783 74.431,217.880 80.081 C 217.963 84.955,218.226 85.919,220.204 88.600 C 220.691 89.260,221.692 90.948,222.428 92.351 C 223.164 93.755,224.806 96.050,226.077 97.453 C 231.370 103.293,231.495 105.534,227.025 114.352 C 225.539 117.283,224.633 119.946,222.789 126.800 C 222.108 129.330,220.958 132.570,220.235 134.000 C 218.826 136.782,217.588 140.365,215.606 147.400 C 214.924 149.820,213.774 152.790,213.049 154.000 C 212.222 155.382,211.248 158.059,210.429 161.200 C 206.878 174.817,202.836 183.600,200.122 183.600 C 199.100 183.600,197.552 180.423,195.995 175.131 C 195.120 172.156,193.795 168.390,193.050 166.761 C 192.305 165.132,190.871 160.870,189.862 157.290 C 188.758 153.373,187.476 149.788,186.642 148.290 C 185.880 146.920,184.600 143.503,183.798 140.695 C 182.316 135.507,181.037 132.043,179.408 128.801 C 178.910 127.810,177.744 124.390,176.818 121.200 C 175.891 118.010,174.321 113.690,173.328 111.600 C 170.312 105.248,170.308 105.229,171.541 103.097 C 173.067 100.458,175.550 97.021,178.283 93.766 C 183.754 87.248,184.949 76.211,180.939 69.231 C 180.361 68.224,179.238 66.234,178.444 64.809 C 172.607 54.332,159.875 48.718,148.943 51.798 C 142.708 53.556,138.575 55.818,136.292 58.724 C 135.251 60.049,133.676 61.706,132.792 62.406 C 125.323 68.322,125.053 87.476,132.327 95.417 C 133.797 97.022,135.433 98.907,135.962 99.606 C 136.559 100.394,138.025 101.379,139.823 102.198 C 146.684 105.325,148.354 108.980,147.314 118.600 C 147.052 121.020,146.643 127.410,146.404 132.800 C 146.165 138.190,145.714 145.030,145.402 148.000 C 145.090 150.970,144.644 156.910,144.411 161.200 C 144.179 165.490,143.811 171.970,143.595 175.600 C 143.379 179.230,143.246 185.260,143.301 189.000 C 143.428 197.696,142.791 199.709,139.536 200.904 C 139.051 201.081,138.007 200.153,135.675 197.474 C 133.916 195.453,129.895 191.073,126.739 187.740 C 111.844 172.012,106.809 166.722,103.492 163.312 L 99.904 159.623 100.163 156.512 C 100.381 153.890,100.730 152.770,102.383 149.400 C 106.462 141.084,105.074 134.170,97.466 124.900 C 90.498 116.411,83.242 113.538,73.307 115.337 C 68.635 116.182,64.277 118.934,58.869 124.453 C 50.003 133.498,49.186 149.208,57.162 157.254 C 58.173 158.274,59.755 160.002,60.678 161.093 C 61.729 162.336,63.375 163.623,65.078 164.535 C 66.575 165.337,68.250 166.253,68.800 166.571 C 69.350 166.889,70.684 167.565,71.765 168.074 C 76.489 170.299,78.709 173.297,81.190 180.800 C 82.100 183.550,83.580 187.143,84.479 188.785 C 85.378 190.426,86.990 194.386,88.061 197.585 C 89.133 200.783,90.516 204.120,91.135 205.000 C 92.415 206.819,93.519 209.491,95.019 214.400 C 95.590 216.270,96.833 219.153,97.780 220.807 C 98.728 222.462,100.358 226.332,101.402 229.407 C 103.428 235.376,103.854 236.361,105.389 238.622 C 105.928 239.416,107.178 242.567,108.166 245.624 C 109.225 248.899,110.629 252.286,111.584 253.870 C 112.503 255.393,113.828 258.553,114.643 261.165 C 116.073 265.745,116.904 267.691,118.962 271.272 C 119.553 272.302,120.829 275.504,121.796 278.389 C 124.198 285.549,125.838 287.877,129.966 289.983 C 132.154 291.099,138.605 290.617,145.600 288.815 C 151.787 287.221,164.667 286.435,193.400 285.895 C 238.040 285.058,253.207 285.710,263.354 288.903 L 267.308 290.148 271.004 289.220 L 274.700 288.292 276.122 286.133 C 276.903 284.946,277.941 282.766,278.428 281.287 C 278.915 279.809,280.166 276.890,281.209 274.800 C 282.251 272.710,283.867 268.840,284.800 266.200 C 285.732 263.560,287.172 260.050,288.000 258.400 C 288.828 256.750,290.416 252.967,291.529 249.994 C 292.642 247.021,294.279 243.151,295.167 241.394 C 296.055 239.637,297.588 235.890,298.575 233.067 C 299.561 230.243,301.000 226.804,301.771 225.424 C 302.543 224.045,304.068 220.360,305.160 217.235 C 306.252 214.111,307.683 210.710,308.340 209.678 C 308.997 208.645,310.467 205.100,311.606 201.800 C 312.745 198.500,314.276 194.720,315.009 193.400 C 315.742 192.080,317.080 188.840,317.983 186.200 C 321.783 175.086,325.457 169.263,329.667 167.680 C 344.254 162.196,352.832 148.052,348.973 135.848 C 346.973 129.525,344.223 124.587,341.662 122.721 C 340.418 121.814,338.495 120.229,337.390 119.198 C 331.949 114.127,317.541 113.282,312.515 117.741 C 311.735 118.433,309.912 119.720,308.464 120.600 C 306.855 121.578,305.358 122.880,304.616 123.948 C 303.947 124.910,302.560 126.554,301.533 127.603 C 296.644 132.600,295.328 142.720,298.665 149.666 C 299.581 151.572,300.633 154.495,301.004 156.161 L 301.678 159.191 300.619 160.496 C 299.057 162.418,290.623 171.362,287.441 174.470 C 285.924 175.952,284.184 177.918,283.575 178.838 C 282.966 179.758,281.597 181.167,280.534 181.971 C 279.470 182.774,278.240 184.050,277.800 184.806 C 277.360 185.562,275.894 187.265,274.542 188.590 C 273.189 189.916,271.592 191.810,270.992 192.800 C 269.411 195.408,268.448 196.342,266.411 197.240 C 265.415 197.679,263.867 198.756,262.970 199.634 C 259.713 202.821,258.313 199.409,258.383 188.457 C 258.405 185.078,258.241 179.228,258.019 175.457 C 257.600 168.333,257.209 161.172,256.203 142.200 C 255.455 128.086,254.941 122.066,253.993 116.339 L 253.241 111.800 254.557 109.000 C 256.359 105.166,257.435 104.025,260.870 102.304 C 264.271 100.601,269.920 95.103,271.195 92.255 C 275.883 81.789,276.046 77.963,272.203 68.600 C 271.481 66.840,270.773 65.014,270.632 64.543 C 270.490 64.072,269.721 63.082,268.922 62.343 C 266.585 60.180,265.098 58.630,263.526 56.717 C 261.952 54.803,258.293 53.236,250.696 51.223 C 247.141 50.281,247.536 50.283,243.600 51.181 M162.800 55.062 C 166.595 55.737,167.383 56.139,170.069 58.769 C 171.097 59.776,172.729 61.349,173.697 62.265 C 175.089 63.581,175.557 64.378,175.936 66.072 C 176.200 67.250,176.761 68.781,177.182 69.474 C 180.867 75.534,181.428 83.616,178.379 86.726 C 177.399 87.726,176.756 88.826,176.569 89.823 C 176.184 91.877,173.235 95.615,171.560 96.173 C 166.809 97.753,167.062 109.423,172.003 116.605 C 173.107 118.210,173.840 120.431,176.625 130.625 C 176.930 131.739,177.626 133.269,178.172 134.025 C 179.989 136.539,180.335 137.414,181.810 143.227 C 182.684 146.670,183.770 149.888,184.501 151.200 C 187.101 155.861,187.622 157.095,188.218 160.000 C 189.517 166.330,190.489 169.256,191.911 171.118 C 192.980 172.519,193.664 174.205,194.793 178.227 C 196.257 183.437,196.974 184.916,198.917 186.728 L 199.912 187.657 202.084 186.431 C 206.701 183.825,209.440 178.288,211.204 168.000 C 211.931 163.757,213.181 160.018,214.464 158.254 C 216.159 155.922,216.645 154.595,217.793 149.157 C 218.992 143.480,220.094 140.177,221.174 139.028 C 222.482 137.636,223.587 134.646,224.600 129.760 C 225.795 123.997,226.645 121.345,227.791 119.800 C 230.293 116.428,233.082 106.443,232.387 103.344 C 231.612 99.883,230.450 97.891,227.639 95.201 C 225.329 92.990,224.792 92.208,224.057 89.988 C 223.582 88.551,222.745 86.716,222.197 85.910 C 221.232 84.489,220.018 80.367,220.006 78.467 C 220.000 77.590,221.397 73.989,223.265 70.065 C 223.719 69.111,224.327 67.435,224.616 66.340 C 225.345 63.576,226.176 62.468,228.158 61.618 C 229.189 61.176,230.612 60.011,231.756 58.673 L 233.647 56.458 237.924 55.464 C 245.792 53.634,250.857 53.744,257.400 55.887 C 261.285 57.160,261.268 57.148,262.760 59.791 C 263.572 61.229,264.603 62.333,265.947 63.205 C 271.482 66.791,272.367 93.200,266.952 93.200 C 266.025 93.200,263.664 95.596,263.399 96.806 C 263.025 98.506,261.075 100.000,259.229 100.000 C 252.777 100.000,249.857 105.779,250.764 116.751 C 250.993 119.528,251.370 125.130,251.602 129.200 C 252.032 136.769,252.970 147.110,253.615 151.400 C 254.461 157.029,255.779 177.560,256.196 191.600 C 256.462 200.569,256.865 202.020,259.500 203.489 L 261.000 204.325 262.734 203.502 C 263.733 203.028,264.887 202.048,265.453 201.192 C 266.012 200.347,267.129 199.393,268.040 198.982 C 270.169 198.022,271.915 196.178,272.479 194.293 C 272.752 193.381,273.495 192.318,274.304 191.678 C 276.517 189.930,278.544 187.828,279.400 186.394 C 279.840 185.657,281.010 184.488,282.000 183.797 C 282.990 183.105,284.195 181.923,284.677 181.169 C 286.262 178.697,287.216 177.642,288.889 176.514 C 289.797 175.901,291.292 174.320,292.211 173.000 C 293.130 171.680,294.628 170.093,295.541 169.474 C 296.453 168.854,297.681 167.684,298.269 166.874 C 298.857 166.063,300.664 164.107,302.284 162.526 C 304.639 160.228,305.190 159.467,305.038 158.726 C 304.933 158.217,304.633 156.571,304.372 155.070 C 303.988 152.859,303.651 152.098,302.600 151.070 C 297.909 146.479,297.988 134.356,302.737 130.034 C 303.846 129.025,305.107 127.480,305.540 126.600 C 306.607 124.429,308.254 122.976,310.341 122.361 C 311.298 122.080,312.920 121.095,313.946 120.173 C 317.313 117.145,326.625 116.167,330.709 118.412 C 333.013 119.679,339.314 124.165,341.338 125.980 C 345.694 129.885,347.310 140.526,344.891 149.375 C 343.774 153.461,343.673 153.619,340.059 156.967 C 339.367 157.608,338.800 158.358,338.800 158.633 C 338.800 159.482,335.886 161.472,334.200 161.775 C 325.357 163.363,320.324 168.714,316.636 180.449 C 315.805 183.093,314.830 185.411,314.374 185.823 C 312.551 187.473,311.479 190.386,309.229 199.795 C 308.886 201.231,308.380 202.096,307.422 202.886 C 305.893 204.147,304.296 207.764,303.618 211.503 C 302.913 215.387,301.819 218.075,300.246 219.785 C 298.741 221.420,298.573 221.868,296.431 229.934 C 295.376 233.905,295.039 234.650,293.714 235.941 C 292.143 237.470,291.127 240.008,289.846 245.600 C 289.055 249.057,288.170 251.081,287.231 251.583 C 286.151 252.161,284.529 255.686,283.817 259.000 C 282.734 264.046,281.431 267.503,280.266 268.419 C 278.720 269.636,278.179 270.890,276.984 276.039 C 275.344 283.102,275.186 283.376,272.261 284.175 C 270.908 284.546,269.387 285.073,268.882 285.348 C 268.108 285.769,267.518 285.697,265.103 284.887 C 262.577 284.040,261.137 283.887,252.821 283.579 C 247.639 283.388,240.340 283.024,236.600 282.772 C 230.964 282.391,228.396 282.420,221.600 282.938 C 216.025 283.363,205.397 283.632,188.400 283.776 C 152.545 284.081,142.676 284.713,137.000 287.067 C 132.273 289.027,132.188 289.021,130.377 286.569 C 129.501 285.384,128.002 283.826,127.045 283.107 C 125.219 281.736,123.996 278.904,122.544 272.687 C 121.917 270.003,120.955 267.996,119.304 265.926 C 117.933 264.207,117.207 262.316,116.082 257.530 C 115.102 253.363,114.309 251.597,112.719 250.043 C 111.763 249.108,111.221 247.808,110.010 243.537 C 108.160 237.017,107.633 235.725,106.108 233.971 C 104.716 232.369,103.588 229.509,102.436 224.659 C 101.506 220.742,100.905 219.402,99.207 217.469 C 97.814 215.883,97.365 214.818,96.385 210.786 C 95.278 206.227,94.045 203.252,92.597 201.648 C 91.341 200.256,90.214 197.243,88.222 189.950 C 87.884 188.713,86.982 186.823,86.217 185.750 C 84.254 182.995,83.352 180.913,82.421 176.994 C 81.185 171.789,79.838 169.978,75.200 167.288 C 74.210 166.714,72.645 165.635,71.722 164.892 C 70.084 163.572,66.624 162.000,65.357 162.000 C 64.197 162.000,62.390 160.353,61.393 158.387 C 60.852 157.318,59.930 156.119,59.344 155.722 C 56.046 153.485,54.837 149.785,54.729 141.600 C 54.628 133.976,55.752 130.160,58.620 128.388 C 59.379 127.919,60.000 127.395,60.000 127.224 C 60.000 126.275,63.599 122.980,65.587 122.109 C 66.804 121.576,68.520 120.455,69.400 119.617 C 72.756 116.424,84.457 116.331,86.933 119.478 C 87.345 120.001,88.709 120.948,89.965 121.582 C 92.301 122.762,95.200 125.536,95.200 126.592 C 95.200 126.916,96.190 128.204,97.400 129.453 C 98.610 130.702,99.600 131.853,99.600 132.010 C 99.600 132.167,99.885 133.894,100.233 135.848 C 101.415 142.476,100.345 148.010,97.246 151.295 C 96.247 152.354,96.206 152.569,96.344 156.098 L 96.488 159.792 98.344 161.729 C 99.365 162.795,101.460 164.980,103.000 166.585 C 104.540 168.190,108.140 171.975,111.000 174.996 C 113.860 178.017,117.730 182.067,119.600 183.997 C 121.470 185.926,123.180 187.706,123.400 187.951 C 123.620 188.196,124.635 189.181,125.655 190.140 C 126.675 191.098,128.044 192.620,128.696 193.520 C 129.349 194.421,130.674 195.761,131.641 196.498 C 132.609 197.235,134.129 198.904,135.019 200.207 C 137.216 203.423,138.519 204.156,141.038 203.591 C 146.272 202.418,147.054 201.323,146.195 196.370 C 145.545 192.626,145.569 191.881,146.616 183.000 C 147.803 172.934,148.993 150.997,149.596 128.071 C 149.812 119.860,150.085 112.985,150.204 112.793 C 150.582 112.182,149.272 106.837,148.336 105.171 C 147.328 103.378,144.856 101.568,142.056 100.573 C 141.035 100.210,139.683 99.722,139.051 99.488 C 138.309 99.213,137.692 98.554,137.311 97.631 C 136.457 95.558,134.951 93.705,133.248 92.630 C 128.163 89.420,128.218 70.970,133.327 65.841 C 134.027 65.139,136.040 62.978,137.800 61.039 C 143.751 54.486,150.494 52.873,162.800 55.062 M176.400 296.396 C 172.770 296.575,164.940 296.926,159.000 297.176 C 141.778 297.899,134.932 298.378,129.800 299.217 C 127.160 299.649,123.607 300.177,121.904 300.391 C 120.202 300.604,118.089 301.147,117.208 301.596 C 116.328 302.045,114.121 302.954,112.304 303.617 C 106.147 305.861,98.765 312.365,95.963 318.012 C 93.723 322.525,92.412 332.180,92.404 344.209 L 92.400 349.418 93.639 350.920 C 96.456 354.338,84.730 354.000,200.342 354.000 L 302.716 354.000 305.458 353.160 C 311.068 351.441,311.364 350.350,310.388 334.961 C 309.959 328.205,309.879 327.775,308.271 323.600 C 304.867 314.762,304.305 313.596,302.914 312.502 C 302.144 311.896,300.279 310.213,298.771 308.762 C 296.679 306.749,295.290 305.809,292.914 304.800 C 291.202 304.073,288.360 302.869,286.600 302.126 C 284.840 301.383,282.140 300.579,280.600 300.341 C 279.060 300.102,275.730 299.564,273.200 299.145 C 268.970 298.444,262.822 298.001,240.400 296.782 C 230.185 296.226,185.302 295.955,176.400 296.396 M237.200 299.199 C 262.723 299.788,271.481 300.502,274.197 302.215 C 274.638 302.493,275.630 302.844,276.400 302.994 C 284.472 304.564,294.741 307.591,295.141 308.518 C 295.809 310.067,298.163 312.335,300.187 313.378 L 302.574 314.607 303.486 317.804 C 306.043 326.764,307.923 340.484,307.383 346.244 L 307.098 349.282 304.649 350.441 L 302.200 351.599 200.114 351.600 L 98.028 351.600 96.557 350.309 L 95.086 349.017 95.350 339.409 C 95.811 322.615,96.089 321.442,100.984 315.652 C 108.329 306.965,109.789 306.152,121.600 304.164 C 123.690 303.813,126.587 303.008,128.038 302.375 C 134.744 299.452,184.937 297.992,237.200 299.199 " stroke="none" fill="#949494" fill-rule="evenodd"></path><path id="path3" d="M244.400 50.424 C 242.970 50.853,240.839 51.487,239.665 51.833 C 238.491 52.180,237.611 52.544,237.709 52.643 C 237.808 52.742,238.387 52.633,238.996 52.402 C 239.605 52.170,241.768 51.620,243.803 51.179 L 247.503 50.377 251.848 51.559 C 254.238 52.208,256.259 52.674,256.340 52.594 C 256.420 52.513,255.432 52.157,254.143 51.803 C 252.854 51.448,250.839 50.807,249.664 50.379 C 247.145 49.460,247.631 49.456,244.400 50.424 M150.000 51.009 C 147.463 52.123,147.772 52.302,150.582 51.344 C 153.049 50.504,158.404 50.807,161.763 51.977 C 163.062 52.430,164.322 52.787,164.563 52.771 C 164.803 52.755,164.010 52.399,162.800 51.980 C 161.590 51.562,160.313 51.051,159.961 50.845 C 158.350 49.899,152.300 49.999,150.000 51.009 M145.600 52.418 C 145.162 52.715,145.324 52.752,146.200 52.556 C 147.671 52.227,147.990 51.998,146.967 52.006 C 146.545 52.009,145.930 52.195,145.600 52.418 M141.153 54.398 C 138.865 55.568,137.619 56.538,136.153 58.291 C 135.079 59.575,133.421 61.328,132.469 62.187 C 130.966 63.544,128.492 67.426,128.883 67.816 C 128.958 67.891,129.534 66.969,130.163 65.767 C 130.793 64.565,132.003 63.031,132.853 62.358 C 133.704 61.684,135.251 60.049,136.292 58.725 C 137.846 56.747,138.793 56.006,141.592 54.578 C 143.466 53.623,144.820 52.840,144.600 52.840 C 144.380 52.840,142.829 53.541,141.153 54.398 M167.891 54.200 C 171.305 55.908,176.261 60.890,178.444 64.809 C 179.238 66.234,180.361 68.224,180.939 69.231 C 184.949 76.211,183.754 87.248,178.283 93.766 C 175.550 97.021,173.067 100.458,171.541 103.097 C 170.308 105.229,170.312 105.248,173.328 111.600 C 174.321 113.690,175.891 118.010,176.817 121.200 C 177.744 124.390,178.868 127.720,179.316 128.600 C 179.764 129.480,180.724 131.640,181.448 133.400 C 182.173 135.160,182.773 136.406,182.783 136.169 C 182.805 135.617,181.057 131.192,179.793 128.600 C 179.257 127.500,177.904 123.540,176.786 119.800 C 175.669 116.060,174.220 112.049,173.566 110.886 C 170.511 105.453,170.496 104.665,173.381 101.000 C 174.074 100.120,175.102 98.680,175.667 97.800 C 176.232 96.920,177.683 95.096,178.892 93.746 C 184.210 87.811,185.380 75.263,181.220 68.800 C 180.583 67.810,179.316 65.682,178.404 64.071 C 175.787 59.443,168.234 52.800,165.590 52.800 C 165.317 52.800,166.352 53.430,167.891 54.200 M257.200 53.133 C 257.530 53.336,258.250 53.624,258.800 53.771 C 259.495 53.957,259.617 53.925,259.200 53.667 C 258.870 53.464,258.150 53.176,257.600 53.029 C 256.905 52.843,256.783 52.875,257.200 53.133 M233.200 54.021 C 232.210 54.463,230.489 55.765,229.375 56.913 C 228.262 58.061,226.598 59.594,225.679 60.320 C 224.759 61.045,223.821 61.987,223.593 62.413 C 223.164 63.215,225.703 60.964,229.390 57.273 C 230.765 55.896,232.342 54.805,233.858 54.182 C 235.146 53.652,235.930 53.219,235.600 53.218 C 235.270 53.218,234.190 53.579,233.200 54.021 M261.040 54.571 C 261.722 54.868,262.892 55.880,263.640 56.821 C 265.048 58.591,266.431 60.037,268.922 62.343 C 269.721 63.082,270.490 64.072,270.632 64.543 C 270.773 65.014,271.481 66.840,272.203 68.600 C 276.046 77.963,275.883 81.789,271.195 92.255 C 269.920 95.103,264.271 100.601,260.870 102.304 C 257.435 104.025,256.359 105.166,254.557 109.000 L 253.241 111.800 253.997 116.400 C 254.971 122.335,255.447 127.892,256.221 142.400 C 256.567 148.890,257.007 156.450,257.200 159.200 L 257.549 164.200 257.379 158.800 C 256.739 138.555,255.539 121.135,254.404 115.610 L 253.626 111.820 255.538 108.210 L 257.450 104.600 260.767 102.861 C 265.951 100.143,271.123 94.460,272.654 89.800 C 273.015 88.700,273.734 86.954,274.251 85.921 C 275.718 82.992,275.962 78.122,274.822 74.564 C 272.152 66.241,270.798 63.649,267.300 60.166 C 265.485 58.359,264.000 56.688,264.000 56.454 C 264.000 55.900,261.194 53.995,260.407 54.016 C 260.073 54.024,260.358 54.274,261.040 54.571 M220.025 68.869 C 218.661 70.512,217.557 73.629,217.646 75.587 C 217.698 76.711,217.729 76.606,218.448 72.905 C 218.719 71.508,219.312 70.263,220.227 69.167 C 221.469 67.681,221.790 67.186,221.500 67.207 C 221.445 67.211,220.781 67.959,220.025 68.869 M127.293 73.200 C 127.293 73.970,127.375 74.285,127.476 73.900 C 127.576 73.515,127.576 72.885,127.476 72.500 C 127.375 72.115,127.293 72.430,127.293 73.200 M217.314 78.600 C 217.317 79.700,217.395 80.103,217.487 79.495 C 217.579 78.886,217.577 77.986,217.482 77.495 C 217.387 77.003,217.311 77.500,217.314 78.600 M126.501 78.600 C 126.505 79.480,126.587 79.793,126.683 79.295 C 126.779 78.798,126.775 78.078,126.675 77.695 C 126.575 77.313,126.496 77.720,126.501 78.600 M126.887 82.800 C 126.873 84.010,127.120 85.630,127.436 86.400 C 127.752 87.170,127.904 87.350,127.772 86.800 C 127.640 86.250,127.393 84.630,127.223 83.200 L 126.914 80.600 126.887 82.800 M217.720 82.800 C 217.720 84.010,217.795 84.505,217.887 83.900 C 217.978 83.295,217.978 82.305,217.887 81.700 C 217.795 81.095,217.720 81.590,217.720 82.800 M218.226 86.000 C 218.366 86.550,218.982 87.638,219.593 88.418 C 220.205 89.197,221.253 90.920,221.922 92.245 C 222.591 93.571,224.371 96.085,225.879 97.831 C 227.386 99.578,229.024 101.951,229.520 103.104 C 230.425 105.206,231.109 106.064,230.405 104.214 C 229.486 101.795,228.218 99.815,226.074 97.449 C 224.805 96.049,223.164 93.755,222.428 92.351 C 221.692 90.948,220.692 89.260,220.206 88.600 C 219.720 87.940,219.018 86.860,218.646 86.200 C 218.048 85.137,218.000 85.115,218.226 86.000 M128.427 89.600 C 128.405 90.936,130.069 93.685,132.270 95.949 C 133.551 97.268,135.230 99.075,136.000 99.964 C 136.770 100.854,137.760 101.695,138.200 101.833 C 138.640 101.972,138.434 101.720,137.743 101.274 C 137.051 100.829,136.151 99.972,135.743 99.371 C 135.334 98.770,133.865 97.066,132.479 95.585 C 130.979 93.983,129.650 92.103,129.198 90.946 C 128.779 89.876,128.433 89.270,128.427 89.600 M140.626 102.918 C 143.505 104.480,146.203 107.488,147.013 110.041 C 147.156 110.491,147.357 110.777,147.459 110.674 C 148.360 109.774,143.942 104.199,141.232 102.817 C 139.082 101.720,138.574 101.805,140.626 102.918 M229.680 107.080 C 229.088 109.009,229.375 109.295,230.000 107.400 C 230.264 106.601,230.402 105.869,230.307 105.774 C 230.212 105.678,229.930 106.266,229.680 107.080 M227.115 113.155 C 225.392 116.668,223.163 122.955,223.226 124.121 C 223.240 124.384,223.837 122.800,224.551 120.600 C 225.266 118.400,226.633 115.025,227.591 113.099 C 228.548 111.174,229.257 109.534,229.166 109.455 C 229.075 109.375,228.152 111.041,227.115 113.155 M147.701 112.600 C 147.705 113.480,147.787 113.793,147.883 113.295 C 147.979 112.798,147.975 112.078,147.875 111.695 C 147.775 111.313,147.696 111.720,147.701 112.600 M74.400 114.801 C 73.630 114.964,74.710 115.005,76.800 114.893 C 78.890 114.780,80.675 114.624,80.767 114.544 C 81.065 114.286,75.839 114.497,74.400 114.801 M147.068 116.159 C 146.920 117.233,146.823 118.762,146.852 119.556 C 146.880 120.350,147.060 119.650,147.251 118.000 C 147.640 114.648,147.486 113.107,147.068 116.159 M321.900 114.689 C 322.615 114.778,323.785 114.778,324.500 114.689 C 325.215 114.601,324.630 114.528,323.200 114.528 C 321.770 114.528,321.185 114.601,321.900 114.689 M81.900 115.082 C 82.395 115.178,83.205 115.178,83.700 115.082 C 84.195 114.987,83.790 114.909,82.800 114.909 C 81.810 114.909,81.405 114.987,81.900 115.082 M327.100 115.082 C 327.595 115.178,328.405 115.178,328.900 115.082 C 329.395 114.987,328.990 114.909,328.000 114.909 C 327.010 114.909,326.605 114.987,327.100 115.082 M68.472 116.500 C 63.255 119.265,56.073 125.936,54.056 129.891 C 52.736 132.477,53.053 132.480,54.505 129.893 C 56.056 127.131,61.112 121.855,64.465 119.499 C 68.361 116.762,69.249 116.265,71.176 115.746 C 72.474 115.396,72.701 115.246,71.962 115.227 C 71.391 115.212,69.820 115.785,68.472 116.500 M86.719 116.112 C 93.272 118.857,100.817 127.486,103.462 135.260 C 105.406 140.977,105.202 143.653,102.383 149.400 C 100.730 152.770,100.381 153.890,100.163 156.512 L 99.904 159.623 103.492 163.312 C 106.809 166.722,111.844 172.012,126.739 187.740 C 129.895 191.073,133.916 195.453,135.675 197.474 C 138.991 201.285,139.122 201.349,141.066 200.106 C 141.960 199.535,143.216 196.911,143.179 195.692 C 143.168 195.311,142.790 195.958,142.340 197.130 C 141.780 198.587,141.124 199.505,140.261 200.037 L 139.000 200.815 137.400 198.920 C 134.306 195.255,126.164 186.508,117.556 177.600 C 112.773 172.650,108.261 167.858,107.530 166.952 C 106.798 166.046,104.983 164.178,103.495 162.801 C 99.592 159.191,99.462 155.402,103.022 149.061 C 105.509 144.632,106.059 140.534,104.640 137.000 C 104.110 135.680,103.371 133.736,102.997 132.679 C 100.785 126.425,89.339 115.197,85.200 115.221 C 84.870 115.223,85.554 115.624,86.719 116.112 M314.916 115.946 C 313.770 116.342,312.060 117.340,311.116 118.164 C 310.172 118.988,308.506 120.233,307.413 120.931 C 306.321 121.629,304.855 123.010,304.156 124.000 C 303.457 124.990,302.206 126.471,301.376 127.292 C 299.749 128.900,298.406 130.756,298.404 131.400 C 298.404 131.620,298.786 131.170,299.255 130.400 C 299.724 129.630,300.848 128.263,301.754 127.361 C 302.659 126.460,303.947 124.930,304.616 123.961 C 305.379 122.855,306.820 121.605,308.492 120.598 C 309.955 119.717,311.691 118.479,312.349 117.849 C 313.067 117.161,314.558 116.413,316.073 115.979 C 317.463 115.582,318.240 115.250,317.800 115.242 C 317.360 115.233,316.062 115.550,314.916 115.946 M330.400 115.487 C 330.730 115.609,331.985 116.073,333.190 116.517 C 334.489 116.997,336.197 118.086,337.390 119.198 C 338.495 120.229,340.418 121.814,341.662 122.721 C 344.223 124.587,346.973 129.525,348.973 135.848 C 352.832 148.052,344.254 162.196,329.667 167.680 C 325.457 169.263,321.783 175.086,317.983 186.200 C 317.080 188.840,315.742 192.080,315.009 193.400 C 314.276 194.720,312.745 198.500,311.606 201.800 C 310.467 205.100,308.997 208.645,308.340 209.678 C 307.683 210.710,306.252 214.111,305.160 217.235 C 304.068 220.360,302.543 224.045,301.771 225.424 C 301.000 226.804,299.561 230.243,298.575 233.067 C 297.588 235.890,296.055 239.637,295.167 241.394 C 294.279 243.151,292.642 247.021,291.529 249.994 C 290.416 252.967,288.828 256.750,288.000 258.400 C 287.172 260.050,285.732 263.560,284.800 266.200 C 283.867 268.840,282.251 272.710,281.209 274.800 C 280.166 276.890,278.915 279.809,278.428 281.287 C 277.941 282.766,276.903 284.946,276.122 286.133 L 274.700 288.292 271.004 289.220 L 267.308 290.148 263.354 288.901 C 257.380 287.017,244.232 285.720,228.000 285.415 L 219.800 285.261 227.400 285.590 C 245.448 286.372,257.858 287.689,263.262 289.396 C 267.125 290.616,267.705 290.627,271.689 289.552 C 275.718 288.465,276.707 287.276,279.047 280.711 C 279.617 279.110,280.782 276.523,281.636 274.961 C 282.490 273.400,283.922 269.980,284.818 267.361 C 285.714 264.743,287.165 261.183,288.042 259.451 C 288.919 257.719,290.534 253.881,291.629 250.921 C 292.725 247.961,294.314 244.158,295.161 242.470 C 296.007 240.781,297.355 237.600,298.156 235.400 C 300.493 228.983,301.285 227.088,302.252 225.600 C 302.752 224.830,303.999 221.770,305.022 218.800 C 306.046 215.830,307.584 212.119,308.440 210.553 C 309.297 208.987,310.820 205.297,311.824 202.353 C 312.829 199.409,314.264 195.879,315.013 194.509 C 315.762 193.139,317.205 189.629,318.220 186.709 C 319.234 183.789,320.833 179.960,321.774 178.200 C 322.714 176.440,323.710 174.304,323.988 173.454 C 324.638 171.463,327.080 169.028,329.054 168.403 C 336.668 165.993,344.185 159.559,347.286 152.800 C 348.144 150.930,349.196 148.660,349.623 147.756 C 352.477 141.717,347.800 126.963,341.513 122.173 C 340.035 121.047,338.041 119.402,337.081 118.517 C 335.513 117.072,331.538 115.150,330.285 115.232 C 330.014 115.249,330.065 115.362,330.400 115.487 M146.269 127.400 C 145.975 133.881,144.937 147.765,144.608 149.600 C 144.328 151.165,143.312 170.939,143.025 180.400 C 142.737 189.921,143.128 184.471,144.417 161.000 C 144.646 156.820,145.085 151.060,145.392 148.200 C 146.019 142.356,147.001 123.032,146.733 121.800 C 146.637 121.360,146.428 123.880,146.269 127.400 M221.622 129.697 C 221.344 130.634,220.527 132.480,219.806 133.800 C 218.586 136.034,216.565 141.898,216.900 142.233 C 216.982 142.315,217.467 141.081,217.978 139.491 C 218.489 137.901,219.492 135.430,220.208 134.000 C 221.598 131.223,222.592 128.459,222.304 128.171 C 222.207 128.074,221.901 128.761,221.622 129.697 M51.807 137.030 C 50.925 140.287,51.153 145.144,52.340 148.400 C 52.781 149.610,53.155 150.398,53.171 150.150 C 53.187 149.903,52.920 148.913,52.578 147.950 C 51.559 145.084,51.369 140.047,52.173 137.183 C 52.552 135.833,52.785 134.652,52.692 134.558 C 52.598 134.465,52.200 135.577,51.807 137.030 M296.843 137.417 C 296.567 138.728,296.412 140.700,296.498 141.800 L 296.656 143.800 296.730 141.400 C 296.771 140.080,296.995 138.314,297.228 137.476 C 297.460 136.638,297.582 135.746,297.498 135.493 C 297.413 135.240,297.119 136.106,296.843 137.417 M182.856 137.200 C 182.856 137.530,183.011 138.160,183.200 138.600 C 183.417 139.104,183.544 139.178,183.544 138.800 C 183.544 138.470,183.389 137.840,183.200 137.400 C 182.983 136.896,182.856 136.822,182.856 137.200 M183.656 140.000 C 183.656 140.330,183.811 140.960,184.000 141.400 C 184.217 141.904,184.344 141.978,184.344 141.600 C 184.344 141.270,184.189 140.640,184.000 140.200 C 183.783 139.696,183.656 139.622,183.656 140.000 M184.601 143.400 C 184.719 144.060,185.533 146.040,186.411 147.800 C 187.289 149.560,188.278 151.720,188.609 152.600 C 189.081 153.851,189.165 153.938,188.999 153.000 C 188.881 152.340,188.067 150.360,187.189 148.600 C 186.311 146.840,185.322 144.680,184.991 143.800 C 184.519 142.549,184.435 142.462,184.601 143.400 M216.229 143.829 C 216.081 144.415,216.038 144.972,216.132 145.066 C 216.227 145.160,216.424 144.758,216.571 144.171 C 216.719 143.585,216.762 143.028,216.668 142.934 C 216.573 142.840,216.376 143.242,216.229 143.829 M297.620 148.111 C 297.609 148.283,298.107 149.453,298.727 150.711 C 299.347 151.970,300.174 154.401,300.564 156.113 L 301.274 159.226 298.556 162.313 C 297.061 164.011,294.659 166.599,293.219 168.065 C 285.845 175.571,284.008 177.558,282.838 179.300 C 282.136 180.345,281.652 181.200,281.762 181.200 C 281.872 181.200,282.536 180.345,283.238 179.300 C 283.940 178.255,285.794 176.135,287.357 174.588 C 290.761 171.221,299.131 162.327,300.619 160.496 L 301.678 159.191 300.992 156.096 C 300.425 153.540,297.686 147.056,297.620 148.111 M214.173 150.900 C 214.019 151.395,213.388 152.520,212.771 153.400 C 211.623 155.039,210.208 159.226,210.504 160.108 C 210.595 160.379,210.902 159.610,211.187 158.400 C 211.472 157.190,212.295 155.210,213.017 154.000 C 214.297 151.855,215.056 150.000,214.654 150.000 C 214.544 150.000,214.328 150.405,214.173 150.900 M54.574 154.641 C 54.896 155.323,55.843 156.481,56.680 157.214 C 57.516 157.947,58.740 159.301,59.400 160.221 C 60.943 162.373,62.465 163.625,65.200 164.992 C 66.410 165.597,67.679 166.336,68.020 166.635 C 68.763 167.288,72.123 168.523,71.820 168.032 C 71.703 167.843,71.167 167.578,70.628 167.443 C 70.089 167.307,68.782 166.680,67.724 166.049 C 66.666 165.417,64.957 164.427,63.927 163.849 C 62.897 163.271,61.367 161.971,60.527 160.961 C 59.687 159.951,58.100 158.196,57.000 157.062 C 55.900 155.928,54.772 154.640,54.494 154.200 C 54.216 153.760,54.252 153.958,54.574 154.641 M189.256 154.800 C 189.256 155.130,189.411 155.760,189.600 156.200 C 189.817 156.704,189.944 156.778,189.944 156.400 C 189.944 156.070,189.789 155.440,189.600 155.000 C 189.383 154.496,189.256 154.422,189.256 154.800 M190.250 158.400 C 190.390 159.170,190.661 160.160,190.854 160.600 C 191.094 161.149,191.124 160.961,190.950 160.000 C 190.810 159.230,190.539 158.240,190.346 157.800 C 190.106 157.251,190.076 157.439,190.250 158.400 M209.633 162.633 C 209.375 163.659,209.239 164.572,209.331 164.664 C 209.422 164.756,209.709 163.992,209.967 162.967 C 210.225 161.941,210.361 161.028,210.269 160.936 C 210.178 160.844,209.891 161.608,209.633 162.633 M191.228 161.908 C 191.213 162.187,191.635 163.447,192.168 164.708 C 194.359 169.898,195.238 171.736,195.001 170.629 C 194.862 169.985,194.196 168.275,193.519 166.829 C 192.843 165.383,192.057 163.570,191.773 162.800 C 191.489 162.030,191.244 161.629,191.228 161.908 M208.494 166.965 C 207.101 172.172,203.775 179.776,202.128 181.517 C 200.124 183.636,199.737 183.566,198.304 180.822 C 197.697 179.660,197.200 178.964,197.200 179.276 C 197.200 180.154,199.518 183.600,200.108 183.600 C 202.311 183.600,210.004 168.213,209.123 165.570 C 209.045 165.335,208.762 165.963,208.494 166.965 M257.744 168.800 C 257.744 170.890,257.812 171.745,257.894 170.700 C 257.976 169.655,257.976 167.945,257.894 166.900 C 257.812 165.855,257.744 166.710,257.744 168.800 M73.191 169.083 C 76.665 171.599,78.245 173.665,79.818 177.752 C 80.337 179.098,80.770 179.977,80.780 179.704 C 80.883 177.103,76.492 170.659,73.542 169.083 C 72.251 168.393,72.238 168.393,73.191 169.083 M195.256 172.400 C 195.256 172.730,195.411 173.360,195.600 173.800 C 195.817 174.304,195.944 174.378,195.944 174.000 C 195.944 173.670,195.789 173.040,195.600 172.600 C 195.383 172.096,195.256 172.022,195.256 172.400 M258.137 176.200 C 258.139 177.960,258.209 178.630,258.293 177.689 C 258.378 176.749,258.377 175.309,258.291 174.489 C 258.205 173.670,258.136 174.440,258.137 176.200 M258.560 185.400 C 258.561 188.700,258.622 189.997,258.698 188.282 C 258.773 186.567,258.772 183.867,258.697 182.282 C 258.621 180.697,258.559 182.100,258.560 185.400 M80.819 180.715 C 80.790 181.489,83.559 188.488,84.172 189.190 C 84.465 189.525,85.078 190.520,85.535 191.400 C 85.991 192.280,86.373 192.842,86.382 192.649 C 86.392 192.456,85.667 190.971,84.771 189.348 C 83.875 187.725,82.624 185.003,81.991 183.298 C 81.357 181.594,80.830 180.432,80.819 180.715 M279.172 182.673 C 278.276 183.483,277.212 184.788,276.809 185.573 C 276.405 186.358,275.113 187.829,273.937 188.842 C 272.762 189.854,271.383 191.429,270.874 192.342 C 269.638 194.556,270.046 194.474,271.352 192.245 C 271.918 191.280,273.293 189.726,274.409 188.792 C 275.525 187.858,276.783 186.417,277.205 185.590 C 277.627 184.763,278.731 183.437,279.658 182.643 C 280.585 181.849,281.222 181.200,281.073 181.200 C 280.924 181.200,280.069 181.863,279.172 182.673 M143.348 190.800 C 143.348 193.110,143.414 194.055,143.495 192.900 C 143.576 191.745,143.576 189.855,143.495 188.700 C 143.414 187.545,143.348 188.490,143.348 190.800 M269.001 195.198 C 268.604 195.638,267.316 196.438,266.139 196.976 C 264.962 197.515,263.374 198.639,262.609 199.473 C 260.940 201.296,260.308 200.961,259.378 197.759 C 258.884 196.060,258.838 196.003,259.029 197.336 C 259.584 201.198,260.704 201.851,262.970 199.634 C 263.867 198.756,265.415 197.679,266.411 197.240 C 267.922 196.574,270.617 194.400,269.932 194.400 C 269.817 194.400,269.399 194.759,269.001 195.198 M88.823 200.800 C 88.814 201.130,89.263 202.300,89.818 203.400 C 91.098 205.932,93.178 209.479,93.191 209.149 C 93.212 208.568,92.007 206.117,91.189 205.076 C 90.703 204.458,89.975 203.108,89.571 202.076 C 89.168 201.044,88.831 200.470,88.823 200.800 M93.263 209.800 C 93.262 210.020,93.503 210.830,93.800 211.600 C 94.097 212.370,94.345 212.730,94.352 212.400 C 94.358 212.070,94.117 211.260,93.814 210.600 C 93.512 209.940,93.264 209.580,93.263 209.800 M94.422 213.437 C 94.353 214.803,96.747 220.307,98.596 223.033 C 100.120 225.279,99.795 224.226,98.108 221.452 C 97.288 220.104,96.128 217.650,95.531 216.000 C 94.933 214.350,94.435 213.197,94.422 213.437 M99.663 225.000 C 99.662 225.220,99.903 226.030,100.200 226.800 C 100.497 227.570,100.745 227.930,100.752 227.600 C 100.758 227.270,100.517 226.460,100.214 225.800 C 99.912 225.140,99.664 224.780,99.663 225.000 M101.600 230.976 C 101.600 231.833,103.914 237.300,104.742 238.400 C 105.321 239.170,106.371 241.420,107.074 243.400 C 108.594 247.679,108.835 247.508,107.392 243.175 C 106.837 241.510,105.761 239.181,105.000 237.999 C 104.238 236.818,103.238 234.715,102.775 233.326 C 102.063 231.184,101.600 230.259,101.600 230.976 M108.420 247.485 C 108.385 248.351,110.026 252.151,111.290 254.131 C 111.968 255.193,112.936 257.173,113.441 258.531 C 113.945 259.889,114.368 260.782,114.379 260.515 C 114.418 259.601,112.803 255.761,111.546 253.780 C 110.855 252.691,109.873 250.720,109.364 249.400 C 108.855 248.080,108.430 247.218,108.420 247.485 M114.848 262.800 C 114.842 263.130,115.083 263.940,115.386 264.600 C 116.093 266.145,116.103 265.426,115.400 263.600 C 115.103 262.830,114.855 262.470,114.848 262.800 M116.021 266.089 C 115.991 266.505,117.828 270.265,119.204 272.600 C 119.851 273.700,120.382 274.420,120.383 274.200 C 120.385 273.980,119.825 272.810,119.140 271.600 C 118.455 270.390,117.478 268.590,116.968 267.600 C 116.459 266.610,116.033 265.930,116.021 266.089 M122.021 279.765 C 121.763 284.282,128.750 291.265,133.400 291.137 L 135.400 291.082 133.200 290.826 C 128.575 290.288,124.887 287.053,122.947 281.834 C 122.449 280.495,122.032 279.564,122.021 279.765 M211.317 285.897 C 212.811 285.974,215.151 285.974,216.517 285.896 C 217.882 285.818,216.660 285.755,213.800 285.755 C 210.940 285.756,209.822 285.820,211.317 285.897 M183.100 286.299 C 186.895 286.365,193.105 286.365,196.900 286.299 C 200.695 286.234,197.590 286.180,190.000 286.180 C 182.410 286.180,179.305 286.234,183.100 286.299 M167.516 286.697 C 168.899 286.775,171.059 286.774,172.316 286.695 C 173.572 286.616,172.440 286.552,169.800 286.553 C 167.160 286.553,166.132 286.618,167.516 286.697 M158.800 287.065 C 152.174 287.715,148.725 288.186,144.600 289.006 C 141.960 289.530,138.810 290.127,137.600 290.332 C 136.390 290.537,135.859 290.726,136.421 290.752 C 137.439 290.800,147.603 289.192,151.400 288.383 C 152.500 288.149,156.010 287.719,159.200 287.427 C 162.390 287.135,163.920 286.904,162.600 286.912 C 161.280 286.921,159.570 286.990,158.800 287.065 M192.900 295.900 C 198.345 295.963,207.255 295.963,212.700 295.900 C 218.145 295.837,213.690 295.785,202.800 295.785 C 191.910 295.785,187.455 295.837,192.900 295.900 M176.100 296.296 C 177.365 296.375,179.435 296.375,180.700 296.296 C 181.965 296.216,180.930 296.151,178.400 296.151 C 175.870 296.151,174.835 296.216,176.100 296.296 M225.900 296.297 C 227.495 296.373,230.105 296.373,231.700 296.297 C 233.295 296.221,231.990 296.159,228.800 296.159 C 225.610 296.159,224.305 296.221,225.900 296.297 M166.500 296.696 C 167.765 296.775,169.835 296.775,171.100 296.696 C 172.365 296.616,171.330 296.551,168.800 296.551 C 166.270 296.551,165.235 296.616,166.500 296.696 M236.912 296.695 C 237.964 296.777,239.584 296.776,240.512 296.692 C 241.440 296.608,240.580 296.541,238.600 296.542 C 236.620 296.543,235.860 296.612,236.912 296.695 M158.300 297.093 C 159.235 297.177,160.765 297.177,161.700 297.093 C 162.635 297.009,161.870 296.940,160.000 296.940 C 158.130 296.940,157.365 297.009,158.300 297.093 M244.912 297.095 C 245.964 297.177,247.584 297.176,248.512 297.092 C 249.440 297.008,248.580 296.941,246.600 296.942 C 244.620 296.943,243.860 297.012,244.912 297.095 M148.700 297.495 C 149.855 297.576,151.745 297.576,152.900 297.495 C 154.055 297.414,153.110 297.348,150.800 297.348 C 148.490 297.348,147.545 297.414,148.700 297.495 M253.700 297.491 C 254.525 297.578,255.875 297.578,256.700 297.491 C 257.525 297.405,256.850 297.334,255.200 297.334 C 253.550 297.334,252.875 297.405,253.700 297.491 M140.691 297.889 C 141.401 297.977,142.661 297.979,143.491 297.892 C 144.321 297.805,143.740 297.733,142.200 297.731 C 140.660 297.729,139.981 297.800,140.691 297.889 M260.691 297.889 C 261.401 297.977,262.661 297.979,263.491 297.892 C 264.321 297.805,263.740 297.733,262.200 297.731 C 260.660 297.729,259.981 297.800,260.691 297.889 M135.705 298.287 C 136.314 298.379,137.214 298.377,137.705 298.282 C 138.197 298.187,137.700 298.111,136.600 298.114 C 135.500 298.117,135.097 298.195,135.705 298.287 M267.105 298.283 C 267.602 298.379,268.322 298.375,268.705 298.275 C 269.087 298.175,268.680 298.096,267.800 298.101 C 266.920 298.105,266.607 298.187,267.105 298.283 M131.700 298.676 C 132.085 298.776,132.715 298.776,133.100 298.676 C 133.485 298.575,133.170 298.493,132.400 298.493 C 131.630 298.493,131.315 298.575,131.700 298.676 M275.600 299.620 C 276.590 299.797,278.030 299.930,278.800 299.917 C 279.945 299.897,279.835 299.836,278.200 299.582 C 275.453 299.154,273.169 299.188,275.600 299.620 M121.200 300.012 C 119.412 300.222,117.726 300.777,115.800 301.788 C 112.780 303.374,113.750 303.325,116.920 301.731 C 118.137 301.120,120.115 300.618,122.320 300.361 C 124.234 300.138,125.980 299.890,126.200 299.809 C 126.861 299.568,123.976 299.684,121.200 300.012 M282.200 300.548 C 283.300 300.848,285.460 301.628,287.000 302.282 C 288.540 302.935,291.202 304.067,292.914 304.796 C 295.286 305.806,296.683 306.753,298.771 308.762 C 300.279 310.213,302.144 311.896,302.914 312.502 C 304.305 313.596,304.867 314.762,308.271 323.600 C 309.879 327.775,309.959 328.205,310.388 334.961 C 311.364 350.350,311.068 351.441,305.458 353.160 L 302.716 354.000 200.342 354.000 C 98.799 354.000,97.955 353.994,96.402 353.201 C 93.061 351.497,92.628 350.430,92.385 343.302 L 92.169 337.000 92.085 343.240 L 92.000 349.480 93.164 351.087 C 93.807 351.974,95.117 353.076,96.090 353.547 L 97.853 354.400 200.235 354.400 C 299.258 354.400,302.706 354.375,305.333 353.647 C 310.913 352.100,311.392 350.972,311.036 340.209 C 310.670 329.121,310.358 327.135,308.213 322.208 C 307.237 319.968,306.066 317.160,305.611 315.968 C 304.616 313.368,303.882 312.440,301.752 311.096 C 300.865 310.536,299.395 309.188,298.483 308.099 C 296.637 305.894,285.283 300.476,281.835 300.154 C 280.217 300.003,280.221 300.007,282.200 300.548 M110.800 303.800 C 109.494 304.547,109.951 304.555,111.654 303.816 C 112.394 303.494,112.730 303.231,112.400 303.230 C 112.070 303.229,111.350 303.486,110.800 303.800 M106.892 305.666 C 105.732 306.337,104.272 307.452,103.648 308.143 C 103.024 308.835,101.048 310.980,99.257 312.911 C 97.465 314.842,96.011 316.642,96.024 316.911 C 96.036 317.180,96.261 317.052,96.524 316.628 C 97.883 314.425,105.111 307.253,107.334 305.901 C 110.276 304.113,109.910 303.918,106.892 305.666 M95.265 318.617 C 94.595 320.088,94.723 320.402,95.447 319.065 C 95.786 318.440,95.988 317.854,95.896 317.763 C 95.805 317.671,95.521 318.056,95.265 318.617 M94.249 321.015 C 94.112 321.373,94.015 321.966,94.034 322.333 C 94.053 322.700,94.227 322.469,94.421 321.820 C 94.798 320.558,94.665 319.933,94.249 321.015 M92.660 329.690 C 92.521 330.851,92.431 332.970,92.461 334.400 C 92.501 336.379,92.593 335.905,92.843 332.419 C 93.189 327.600,93.090 326.115,92.660 329.690 " stroke="none" fill="#8c8c8c" fill-rule="evenodd"></path><path id="path4" d="M232.750 31.931 C 229.941 32.947,228.331 34.869,228.433 37.087 C 228.452 37.508,228.711 37.227,229.067 36.400 C 229.881 34.505,231.476 32.891,232.829 32.594 C 233.442 32.459,234.159 32.090,234.421 31.774 C 234.683 31.458,234.831 31.214,234.749 31.231 C 234.667 31.248,233.767 31.563,232.750 31.931 M260.800 34.742 C 260.800 36.010,262.087 37.144,263.800 37.384 C 264.680 37.508,265.100 37.472,264.733 37.304 C 264.366 37.137,263.677 36.504,263.202 35.897 C 261.950 34.300,260.800 33.746,260.800 34.742 M231.775 35.700 L 230.600 37.000 231.900 35.825 C 232.615 35.179,233.200 34.594,233.200 34.525 C 233.200 34.216,232.870 34.488,231.775 35.700 M176.378 38.441 C 176.917 38.656,177.555 38.960,177.797 39.116 C 178.040 39.272,177.894 39.085,177.475 38.700 C 177.055 38.315,176.416 38.011,176.056 38.025 C 175.641 38.041,175.760 38.194,176.378 38.441 M215.200 45.600 C 214.760 46.040,214.400 46.620,214.400 46.889 C 214.400 47.158,214.689 46.965,215.043 46.460 C 215.396 45.956,216.071 45.387,216.543 45.197 C 217.228 44.920,217.259 44.846,216.700 44.825 C 216.315 44.811,215.640 45.160,215.200 45.600 M277.865 45.974 C 278.561 46.398,279.339 47.073,279.595 47.473 C 280.043 48.174,280.052 48.173,279.830 47.467 C 279.704 47.064,279.600 46.664,279.600 46.578 C 279.600 46.367,277.325 45.200,276.920 45.201 C 276.744 45.202,277.169 45.550,277.865 45.974 M150.200 47.745 C 148.066 48.432,146.763 49.157,146.017 50.075 C 145.677 50.491,143.514 51.644,141.210 52.636 C 136.553 54.640,135.849 55.146,134.770 57.259 C 134.361 58.061,133.461 59.141,132.770 59.659 C 129.040 62.454,127.273 65.766,125.966 72.411 C 125.647 74.033,125.131 75.305,124.562 75.875 C 123.015 77.422,123.210 81.433,124.967 84.200 C 125.246 84.640,126.067 86.980,126.791 89.400 C 128.410 94.814,128.847 95.592,130.988 96.886 C 132.126 97.573,132.975 98.509,133.562 99.722 C 134.461 101.579,135.441 102.458,137.200 102.984 C 139.826 103.769,141.589 104.955,142.005 106.216 C 142.238 106.922,143.325 108.419,144.420 109.543 C 146.806 111.992,146.831 113.600,144.535 116.945 C 143.331 118.699,143.199 119.171,143.192 121.745 C 143.187 123.315,143.010 128.740,142.797 133.800 C 141.555 163.431,141.141 182.270,141.611 187.808 C 142.127 193.888,141.968 194.837,139.954 197.665 L 139.086 198.884 138.043 197.543 C 135.745 194.589,128.063 186.046,125.505 183.600 C 124.010 182.170,122.271 180.219,121.640 179.264 C 121.009 178.309,119.977 177.212,119.346 176.825 C 118.716 176.438,117.480 175.268,116.600 174.225 C 115.720 173.182,113.618 170.950,111.930 169.264 C 110.241 167.579,108.572 165.617,108.221 164.904 C 107.857 164.164,106.927 163.273,106.054 162.827 C 105.213 162.398,103.977 161.424,103.308 160.661 L 102.091 159.276 102.698 155.938 C 103.398 152.091,104.381 149.893,105.826 148.946 C 109.093 146.806,109.164 137.293,105.939 133.759 C 105.517 133.297,104.575 131.677,103.846 130.159 C 101.137 124.522,93.390 116.327,89.336 114.811 C 80.471 111.494,67.529 112.836,63.098 117.531 C 62.128 118.559,60.123 120.390,58.642 121.600 C 55.255 124.367,53.055 127.664,51.756 131.914 C 51.103 134.051,50.457 135.401,49.938 135.714 C 47.307 137.302,47.048 145.441,49.557 147.679 C 50.555 148.570,51.164 149.678,51.861 151.872 C 52.381 153.513,53.081 155.382,53.414 156.027 C 54.370 157.877,61.222 164.623,63.100 165.564 C 64.035 166.033,64.800 166.595,64.800 166.814 C 64.800 167.490,67.274 168.759,69.490 169.219 C 72.172 169.775,75.409 172.220,75.796 173.981 C 75.943 174.652,76.634 175.885,77.332 176.721 C 78.523 178.148,79.701 181.567,81.624 189.180 C 81.912 190.320,82.563 191.408,83.436 192.208 C 84.896 193.545,86.276 196.969,87.464 202.200 C 88.207 205.471,89.525 208.259,90.884 209.431 C 91.426 209.899,92.158 211.296,92.561 212.631 C 95.860 223.585,96.713 225.600,98.053 225.600 C 98.396 225.600,100.974 233.770,101.393 236.186 C 101.747 238.225,102.578 239.831,104.238 241.683 C 105.126 242.674,105.844 244.131,106.404 246.083 C 108.670 253.978,109.798 256.895,110.959 257.873 C 112.104 258.836,113.904 263.834,115.255 269.800 C 115.577 271.220,116.149 272.241,117.228 273.321 C 118.755 274.849,120.729 279.789,121.393 283.740 C 121.841 286.411,122.835 287.909,125.310 289.645 C 129.916 292.876,130.146 292.911,142.962 292.367 C 156.182 291.806,162.809 292.176,165.670 293.635 C 168.419 295.038,168.401 295.040,141.000 296.424 C 136.380 296.657,131.610 297.026,130.400 297.244 C 129.190 297.461,125.663 297.796,122.562 297.988 C 116.439 298.367,114.784 298.834,112.965 300.698 C 112.324 301.354,111.080 302.167,110.200 302.504 C 105.177 304.428,102.376 306.079,101.619 307.563 C 101.200 308.384,100.080 309.725,99.129 310.545 C 95.702 313.500,95.384 313.911,94.263 316.821 C 93.638 318.444,92.772 321.399,92.339 323.386 C 91.874 325.514,91.231 327.340,90.775 327.826 C 89.419 329.270,88.335 338.860,88.702 346.167 L 88.901 350.134 91.151 352.430 C 95.003 356.363,83.641 355.991,200.235 356.004 C 273.745 356.012,303.577 355.889,305.675 355.569 C 312.290 354.559,312.630 353.745,312.507 339.200 C 312.383 324.597,311.653 320.179,309.237 319.412 C 308.494 319.176,307.845 317.923,306.373 313.882 C 305.540 311.594,305.029 311.086,301.801 309.345 C 301.362 309.108,300.552 308.149,300.001 307.212 C 298.925 305.384,297.536 304.462,293.885 303.158 C 292.369 302.617,290.985 301.739,289.878 300.616 C 288.002 298.713,288.038 298.722,279.600 298.000 C 277.070 297.783,272.930 297.337,270.400 297.007 C 267.870 296.678,260.310 296.128,253.600 295.785 C 238.785 295.028,238.883 295.042,238.723 293.669 C 238.507 291.825,237.287 291.544,230.759 291.836 C 226.807 292.012,222.216 291.890,216.559 291.456 C 205.025 290.573,192.264 289.899,184.325 289.754 C 179.018 289.657,177.338 289.489,176.125 288.935 C 173.897 287.916,222.267 286.924,234.458 287.738 L 239.515 288.076 239.744 289.218 C 240.075 290.877,241.453 291.123,253.200 291.621 C 258.810 291.858,264.458 292.149,265.752 292.266 C 273.161 292.939,277.879 290.123,279.818 283.870 C 280.536 281.557,281.375 279.787,282.255 278.734 C 283.278 277.510,284.081 275.609,285.623 270.765 C 286.774 267.152,288.047 263.927,288.570 263.302 C 289.978 261.617,291.092 259.189,291.985 255.855 C 293.251 251.130,294.693 247.628,295.969 246.174 C 296.686 245.358,297.532 243.556,298.155 241.521 C 300.357 234.318,301.490 231.356,302.424 230.349 C 303.387 229.311,304.855 225.600,307.059 218.630 C 307.825 216.208,308.660 214.488,309.655 213.285 C 310.461 212.309,311.337 210.675,311.601 209.655 C 312.849 204.835,314.988 198.902,315.804 198.000 C 317.072 196.598,317.699 195.165,318.952 190.800 C 320.387 185.802,321.553 182.784,322.428 181.800 C 323.574 180.512,325.147 177.085,325.634 174.818 C 326.297 171.723,327.588 170.499,331.000 169.731 C 334.142 169.023,336.488 167.963,337.274 166.895 C 337.563 166.501,338.941 165.373,340.335 164.389 C 343.519 162.142,345.600 160.410,345.600 160.005 C 345.600 159.505,349.314 153.495,350.292 152.412 C 353.723 148.615,353.544 134.660,350.018 131.017 C 349.370 130.348,348.119 128.260,347.237 126.377 C 345.503 122.675,345.170 122.289,342.291 120.646 C 341.223 120.036,339.946 118.865,339.392 117.988 C 335.458 111.755,312.746 111.300,309.157 117.382 C 308.725 118.115,307.802 118.950,307.107 119.238 C 305.328 119.976,303.284 121.867,302.404 123.591 C 301.993 124.398,301.023 125.492,300.249 126.022 C 295.715 129.129,293.605 142.635,296.565 149.600 C 297.173 151.030,298.015 153.799,298.436 155.754 L 299.202 159.308 297.526 161.154 C 296.603 162.169,294.445 164.440,292.730 166.200 C 291.014 167.960,289.302 169.843,288.924 170.383 C 288.547 170.924,287.599 171.910,286.819 172.573 C 284.486 174.557,282.505 176.780,282.015 177.965 C 281.761 178.578,280.852 179.473,279.994 179.955 C 278.073 181.035,275.773 183.665,275.181 185.458 C 274.937 186.196,274.568 186.800,274.360 186.800 C 273.496 186.800,270.431 190.158,269.661 191.947 C 268.640 194.320,268.334 194.570,265.695 195.189 C 264.538 195.460,262.985 196.093,262.245 196.595 L 260.899 197.509 260.402 195.854 C 260.128 194.944,259.971 193.030,260.052 191.600 C 260.309 187.076,260.110 178.212,259.450 164.800 C 259.098 157.650,258.630 145.410,258.410 137.600 C 257.959 121.587,257.821 119.504,256.921 115.000 L 256.281 111.800 257.395 109.606 C 259.642 105.179,260.164 104.593,262.668 103.680 C 266.851 102.155,272.397 95.976,273.986 91.072 C 274.258 90.232,274.737 89.446,275.051 89.325 C 278.669 87.937,279.077 73.052,275.594 69.499 C 274.580 68.464,273.681 66.873,272.816 64.581 C 271.604 61.370,269.876 59.200,268.532 59.200 C 267.983 59.200,266.729 57.672,265.850 55.931 C 265.064 54.376,263.742 53.563,259.400 51.963 C 258.080 51.476,256.404 50.486,255.676 49.761 C 252.426 46.529,241.787 46.514,238.449 49.737 C 237.449 50.701,236.040 51.446,233.905 52.137 C 230.226 53.328,228.821 54.252,227.795 56.157 C 227.376 56.935,226.533 57.779,225.921 58.033 C 224.233 58.732,222.181 61.249,221.413 63.561 C 220.967 64.905,220.353 65.861,219.663 66.289 C 217.296 67.757,216.709 69.132,216.026 74.800 C 215.179 81.827,216.353 88.774,218.826 91.373 C 219.678 92.268,221.467 94.664,222.802 96.699 C 224.137 98.733,225.744 100.779,226.374 101.244 C 229.227 103.353,229.086 109.012,226.147 110.351 C 224.956 110.894,223.767 113.428,223.403 116.200 C 222.826 120.599,220.667 128.102,219.675 129.161 C 218.305 130.622,217.259 133.219,216.366 137.376 C 214.818 144.585,213.931 147.281,212.682 148.569 C 211.094 150.207,210.153 152.405,209.588 155.800 C 208.786 160.618,207.221 166.518,206.194 168.600 C 205.651 169.700,204.477 172.521,203.585 174.869 C 201.719 179.781,200.619 181.479,199.762 180.768 C 199.213 180.313,196.800 173.088,196.800 171.900 C 196.800 170.498,194.683 164.094,193.790 162.796 C 193.159 161.879,192.256 159.049,191.182 154.623 C 189.634 148.243,188.489 145.187,186.761 142.820 C 186.351 142.259,185.223 138.695,184.253 134.899 C 182.874 129.502,182.142 127.410,180.892 125.299 C 179.861 123.558,178.984 121.322,178.421 119.000 C 177.009 113.180,175.616 109.304,174.156 107.134 L 172.788 105.102 174.430 103.321 C 175.333 102.342,176.440 100.699,176.890 99.670 C 177.368 98.577,178.745 96.801,180.204 95.397 C 186.878 88.971,187.365 70.336,181.014 64.407 C 180.429 63.861,179.565 62.781,179.095 62.007 C 175.937 56.814,171.830 53.325,167.017 51.748 C 165.907 51.385,164.251 50.404,163.336 49.569 C 161.519 47.910,160.890 47.741,155.400 47.433 C 153.031 47.300,151.253 47.407,150.200 47.745 M250.552 50.643 C 261.325 54.102,262.896 54.822,264.403 56.984 C 265.022 57.873,266.670 59.680,268.065 61.000 C 270.725 63.518,272.280 66.640,274.822 74.564 C 275.962 78.122,275.718 82.992,274.251 85.921 C 273.734 86.954,273.015 88.700,272.654 89.800 C 271.123 94.460,265.951 100.143,260.767 102.861 L 257.450 104.600 255.538 108.210 L 253.626 111.820 254.404 115.610 C 255.374 120.331,255.828 125.643,256.606 141.400 C 256.943 148.220,257.510 158.930,257.865 165.200 C 258.219 171.470,258.556 180.740,258.612 185.800 C 258.760 198.994,259.797 202.543,262.609 199.473 C 263.374 198.639,264.956 197.518,266.126 196.983 C 268.512 195.890,269.387 195.042,270.939 192.319 C 271.529 191.284,272.928 189.665,274.048 188.721 C 275.167 187.777,276.412 186.361,276.813 185.575 C 277.548 184.134,280.478 181.200,281.182 181.200 C 281.391 181.200,282.136 180.345,282.838 179.300 C 284.008 177.558,285.845 175.571,293.219 168.065 C 294.659 166.599,297.064 164.007,298.563 162.305 L 301.289 159.210 300.614 156.305 C 300.242 154.707,299.241 151.859,298.389 149.974 C 295.012 142.506,296.311 132.403,301.292 127.400 C 302.169 126.520,303.457 124.990,304.156 124.000 C 304.855 123.010,306.321 121.629,307.413 120.931 C 308.506 120.233,310.137 119.021,311.038 118.237 C 316.872 113.158,331.436 113.314,337.081 118.517 C 338.041 119.402,340.035 121.047,341.513 122.173 C 347.800 126.963,352.477 141.717,349.623 147.756 C 349.196 148.660,348.144 150.930,347.286 152.800 C 344.185 159.559,336.668 165.993,329.054 168.403 C 327.080 169.028,324.638 171.463,323.988 173.454 C 323.710 174.304,322.714 176.440,321.774 178.200 C 320.833 179.960,319.234 183.789,318.220 186.709 C 317.205 189.629,315.762 193.139,315.013 194.509 C 314.264 195.879,312.829 199.409,311.824 202.353 C 310.820 205.297,309.297 208.987,308.440 210.553 C 307.584 212.119,306.046 215.830,305.022 218.800 C 303.999 221.770,302.752 224.830,302.252 225.600 C 301.285 227.088,300.493 228.983,298.156 235.400 C 297.355 237.600,296.007 240.781,295.161 242.470 C 294.314 244.158,292.725 247.961,291.629 250.921 C 290.534 253.881,288.919 257.719,288.042 259.451 C 287.165 261.183,285.714 264.743,284.818 267.361 C 283.922 269.980,282.490 273.400,281.636 274.961 C 280.782 276.523,279.617 279.110,279.047 280.711 C 276.707 287.276,275.718 288.465,271.689 289.552 C 267.705 290.627,267.125 290.616,263.262 289.396 C 256.989 287.414,240.578 285.856,225.800 285.840 C 194.360 285.806,157.088 287.092,151.200 288.415 C 148.025 289.128,137.789 290.749,134.694 291.030 C 128.707 291.572,124.341 287.665,121.850 279.536 C 121.003 276.773,119.796 273.633,119.168 272.557 C 117.180 269.151,115.985 266.380,114.395 261.487 C 113.546 258.871,112.129 255.532,111.248 254.066 C 110.315 252.515,108.884 249.051,107.825 245.783 C 106.731 242.405,105.532 239.522,104.819 238.552 C 104.109 237.587,102.739 234.299,101.408 230.369 C 100.185 226.756,98.849 223.341,98.440 222.780 C 97.040 220.864,95.693 217.801,94.400 213.600 C 93.056 209.228,92.258 207.406,90.659 205.048 C 90.137 204.279,88.877 201.074,87.858 197.925 C 86.840 194.776,85.560 191.480,85.015 190.600 C 83.443 188.064,82.449 185.744,80.753 180.647 C 78.339 173.390,76.125 170.406,71.665 168.398 C 70.639 167.936,69.350 167.306,68.800 166.997 C 68.250 166.689,66.720 165.865,65.400 165.165 C 62.415 163.584,60.938 162.367,59.400 160.221 C 58.740 159.301,57.516 157.947,56.680 157.214 C 51.080 152.305,49.769 138.359,54.104 129.807 C 56.033 126.000,63.281 119.257,68.332 116.569 C 72.879 114.149,82.570 113.822,87.330 115.928 C 92.541 118.233,101.139 127.426,102.997 132.679 C 103.371 133.736,104.110 135.680,104.640 137.000 C 106.059 140.534,105.509 144.632,103.022 149.061 C 99.462 155.402,99.592 159.191,103.495 162.801 C 104.983 164.178,106.798 166.046,107.530 166.952 C 108.261 167.858,112.773 172.650,117.556 177.600 C 126.164 186.508,134.306 195.255,137.400 198.920 L 139.000 200.815 140.260 200.038 C 142.760 198.496,143.256 196.030,143.119 185.835 C 143.004 177.266,143.996 153.158,144.611 149.600 C 144.937 147.717,145.625 138.600,146.209 128.444 C 146.530 122.859,147.007 116.809,147.269 115.001 C 147.810 111.254,147.614 110.479,145.254 107.035 C 143.495 104.469,143.214 104.242,139.748 102.584 C 137.933 101.716,136.479 100.688,135.748 99.755 C 135.117 98.948,133.688 97.369,132.573 96.244 C 124.826 88.433,124.600 70.047,132.159 62.585 C 133.281 61.477,135.100 59.512,136.200 58.218 C 138.192 55.876,144.849 52.022,146.932 52.006 C 147.334 52.003,148.832 51.532,150.261 50.961 C 152.863 49.920,158.550 49.825,159.800 50.801 C 160.020 50.973,161.721 51.592,163.581 52.176 C 169.969 54.183,175.173 58.359,178.404 64.071 C 179.316 65.682,180.583 67.810,181.220 68.800 C 185.380 75.263,184.210 87.811,178.892 93.746 C 177.683 95.096,176.232 96.920,175.667 97.800 C 175.102 98.680,174.074 100.120,173.381 101.000 C 170.496 104.665,170.511 105.453,173.566 110.886 C 174.220 112.049,175.669 116.060,176.786 119.800 C 177.904 123.540,179.259 127.500,179.799 128.600 C 181.317 131.696,182.345 134.538,184.055 140.361 C 184.921 143.310,186.242 146.820,186.990 148.161 C 187.799 149.610,189.100 153.253,190.197 157.137 C 191.212 160.732,192.641 164.962,193.373 166.537 C 194.104 168.111,195.362 171.737,196.169 174.594 C 198.581 183.143,199.542 184.247,202.169 181.483 C 203.757 179.812,204.121 179.028,207.441 170.137 C 207.946 168.782,209.093 164.822,209.988 161.337 C 211.141 156.849,211.946 154.533,212.747 153.400 C 214.110 151.472,214.647 149.991,216.805 142.200 C 217.773 138.706,219.034 135.178,219.823 133.753 C 220.569 132.407,221.647 129.617,222.218 127.553 C 224.721 118.506,225.413 116.439,226.821 113.800 C 227.644 112.260,228.785 109.684,229.358 108.075 L 230.401 105.150 229.510 103.079 C 229.020 101.940,227.386 99.578,225.879 97.831 C 224.371 96.085,222.591 93.571,221.922 92.245 C 221.253 90.920,220.206 89.197,219.596 88.418 C 216.479 84.433,216.624 73.002,219.839 69.153 C 220.601 68.241,221.822 66.202,222.552 64.620 C 223.505 62.558,224.371 61.357,225.616 60.373 C 226.570 59.618,228.262 58.071,229.375 56.935 C 230.489 55.800,231.940 54.617,232.600 54.306 C 233.927 53.681,246.013 49.791,247.152 49.622 C 247.235 49.610,248.765 50.069,250.552 50.643 M212.049 52.001 C 209.771 52.539,208.692 53.649,207.934 56.233 C 207.387 58.099,207.363 58.436,207.820 57.824 C 208.139 57.396,208.400 56.728,208.400 56.337 C 208.400 55.141,210.729 52.850,212.231 52.568 C 212.984 52.427,213.600 52.151,213.600 51.955 C 213.600 51.760,213.555 51.618,213.500 51.641 C 213.445 51.663,212.792 51.825,212.049 52.001 M210.975 55.300 L 209.800 56.600 211.100 55.425 C 211.815 54.779,212.400 54.194,212.400 54.125 C 212.400 53.816,212.070 54.088,210.975 55.300 M193.200 61.512 C 193.200 61.914,195.721 64.400,196.128 64.400 C 196.288 64.400,196.132 63.963,195.781 63.428 C 195.093 62.376,193.200 60.972,193.200 61.512 M205.543 68.901 C 203.571 70.579,201.658 73.029,201.392 74.217 C 201.136 75.360,201.152 75.353,201.864 74.000 C 202.329 73.116,203.254 72.270,204.375 71.705 C 206.675 70.545,206.888 70.304,206.731 69.049 L 206.600 68.001 205.543 68.901 M200.909 81.200 C 200.909 82.190,200.987 82.595,201.082 82.100 C 201.178 81.605,201.178 80.795,201.082 80.300 C 200.987 79.805,200.909 80.210,200.909 81.200 M201.395 84.974 C 201.710 87.932,202.835 89.231,205.900 90.176 C 207.330 90.617,206.943 89.812,205.469 89.279 C 203.620 88.611,202.379 87.159,201.734 84.912 L 201.185 83.000 201.395 84.974 M198.400 95.521 C 198.400 95.770,197.905 96.243,197.300 96.571 C 196.695 96.899,196.405 97.175,196.656 97.184 C 197.353 97.208,199.040 95.709,198.700 95.368 C 198.535 95.202,198.400 95.271,198.400 95.521 M71.300 98.676 C 71.685 98.776,72.315 98.776,72.700 98.676 C 73.085 98.575,72.770 98.493,72.000 98.493 C 71.230 98.493,70.915 98.575,71.300 98.676 M286.621 102.333 C 286.483 102.770,285.701 103.404,284.885 103.743 C 284.068 104.082,283.634 104.368,283.920 104.379 C 285.291 104.434,287.707 102.373,287.046 101.713 C 286.951 101.618,286.760 101.897,286.621 102.333 M119.787 107.400 C 120.062 108.764,122.066 110.808,123.106 110.784 C 123.495 110.776,123.223 110.518,122.487 110.198 C 121.600 109.813,120.908 109.070,120.359 107.914 C 119.693 106.511,119.589 106.418,119.787 107.400 M188.133 107.443 C 189.633 108.223,190.241 108.844,190.845 110.208 C 191.969 112.750,192.566 112.844,191.610 110.330 C 191.165 109.158,190.800 108.159,190.800 108.108 C 190.800 107.829,187.520 106.403,186.916 106.419 C 186.522 106.429,187.070 106.890,188.133 107.443 M128.350 111.871 C 128.653 111.997,129.643 112.843,130.550 113.750 L 132.200 115.400 132.332 114.246 C 132.503 112.749,131.815 112.151,129.600 111.870 C 128.610 111.745,128.047 111.745,128.350 111.871 M289.629 113.854 C 289.173 114.434,288.807 115.199,288.816 115.554 C 288.824 115.909,289.078 115.633,289.379 114.940 C 289.681 114.247,290.259 113.488,290.664 113.252 C 291.069 113.017,291.188 112.819,290.929 112.812 C 290.670 112.805,290.085 113.274,289.629 113.854 M208.555 114.612 C 208.190 115.169,207.964 115.698,208.053 115.787 C 208.142 115.876,208.518 115.420,208.889 114.774 C 209.714 113.336,209.469 113.217,208.555 114.612 M40.031 121.036 C 39.354 121.605,38.805 122.280,38.812 122.536 C 38.819 122.791,39.015 122.673,39.247 122.273 C 39.480 121.873,40.239 121.198,40.935 120.774 C 41.631 120.350,41.989 120.002,41.731 120.001 C 41.473 120.001,40.708 120.466,40.031 121.036 M273.701 133.000 C 273.705 133.880,273.787 134.193,273.883 133.695 C 273.979 133.198,273.975 132.478,273.875 132.095 C 273.775 131.713,273.696 132.120,273.701 133.000 M201.629 134.254 C 201.173 134.834,200.801 135.509,200.801 135.754 C 200.802 135.999,201.148 135.635,201.569 134.944 C 201.990 134.254,202.574 133.593,202.867 133.476 C 203.206 133.341,203.228 133.252,202.929 133.232 C 202.670 133.214,202.085 133.674,201.629 134.254 M274.142 146.200 C 274.141 148.180,274.208 149.040,274.292 148.112 C 274.376 147.184,274.377 145.564,274.295 144.512 C 274.212 143.460,274.143 144.220,274.142 146.200 M39.224 159.641 C 39.185 160.686,40.898 162.864,42.376 163.650 C 43.821 164.418,44.776 164.236,43.410 163.453 C 42.416 162.883,40.352 160.832,39.724 159.790 C 39.343 159.159,39.242 159.129,39.224 159.641 M364.100 160.597 C 362.620 162.170,362.455 162.613,363.572 162.015 C 364.431 161.555,366.242 159.196,365.727 159.207 C 365.547 159.211,364.815 159.837,364.100 160.597 M66.016 188.340 C 65.995 189.034,68.551 191.600,69.260 191.599 C 69.557 191.598,69.225 191.247,68.523 190.819 C 67.821 190.390,66.973 189.536,66.639 188.920 C 66.305 188.304,66.025 188.043,66.016 188.340 M330.100 194.547 C 328.633 196.057,328.428 196.627,329.572 196.015 C 330.433 195.554,332.240 193.198,331.727 193.204 C 331.547 193.207,330.815 193.811,330.100 194.547 M313.667 243.765 C 313.361 244.613,312.704 245.344,311.891 245.746 C 311.181 246.095,310.891 246.386,311.246 246.391 C 312.241 246.405,313.880 244.932,314.175 243.759 C 314.564 242.207,314.229 242.211,313.667 243.765 M298.679 275.803 C 298.109 276.999,296.457 278.409,295.000 278.944 C 294.780 279.024,294.718 279.218,294.861 279.373 C 295.249 279.793,298.308 278.119,298.786 277.226 C 299.547 275.804,299.983 274.400,299.664 274.400 C 299.490 274.400,299.047 275.031,298.679 275.803 M246.400 296.754 C 264.966 297.753,267.589 297.939,270.600 298.464 C 271.920 298.695,275.340 299.197,278.201 299.580 C 285.454 300.551,295.803 304.899,298.483 308.099 C 299.395 309.188,300.865 310.536,301.752 311.096 C 303.882 312.440,304.616 313.368,305.611 315.968 C 306.066 317.160,307.237 319.968,308.213 322.208 C 310.358 327.135,310.670 329.121,311.036 340.209 C 311.392 350.972,310.913 352.100,305.333 353.647 C 302.706 354.375,299.258 354.400,200.235 354.400 L 97.853 354.400 96.090 353.547 C 95.118 353.076,93.785 351.956,93.116 351.047 L 91.903 349.400 92.144 340.394 C 92.417 330.189,93.343 323.523,95.110 319.029 C 96.181 316.307,96.774 315.555,103.830 307.977 C 105.076 306.638,111.282 303.202,112.461 303.198 C 112.757 303.197,114.252 302.554,115.781 301.769 C 117.996 300.632,119.301 300.262,122.181 299.951 C 124.172 299.736,127.240 299.305,129.000 298.993 C 133.379 298.216,139.941 297.694,152.000 297.162 C 157.610 296.915,166.970 296.477,172.800 296.188 C 188.391 295.416,227.081 295.714,246.400 296.754 M311.547 296.716 C 312.281 297.109,313.127 297.874,313.427 298.416 C 313.726 298.957,313.978 299.161,313.986 298.869 C 314.007 298.093,311.782 296.000,310.937 296.000 C 310.465 296.000,310.677 296.249,311.547 296.716 M81.368 310.354 C 80.159 311.091,78.847 313.380,79.346 313.879 C 79.486 314.019,79.600 313.847,79.600 313.497 C 79.600 312.471,81.561 310.436,82.933 310.039 C 83.753 309.802,83.917 309.660,83.400 309.638 C 82.960 309.619,82.046 309.941,81.368 310.354 M324.200 330.954 C 325.754 331.632,326.356 332.388,327.012 334.487 C 327.306 335.429,327.559 335.879,327.573 335.487 C 327.648 333.502,325.228 330.377,323.646 330.416 C 323.291 330.424,323.540 330.667,324.200 330.954 M327.714 339.400 C 327.717 340.500,327.795 340.903,327.887 340.295 C 327.979 339.686,327.977 338.786,327.882 338.295 C 327.787 337.803,327.711 338.300,327.714 339.400 M327.744 349.200 C 327.744 351.290,327.812 352.145,327.894 351.100 C 327.976 350.055,327.976 348.345,327.894 347.300 C 327.812 346.255,327.744 347.110,327.744 349.200 M327.701 357.800 C 327.705 358.680,327.787 358.993,327.883 358.495 C 327.979 357.998,327.975 357.278,327.875 356.895 C 327.775 356.513,327.696 356.920,327.701 357.800 M326.863 361.905 C 326.227 364.385,325.236 365.739,323.264 366.822 C 322.254 367.376,322.110 367.543,322.800 367.360 C 325.213 366.720,327.950 362.711,327.515 360.453 C 327.449 360.110,327.156 360.764,326.863 361.905 " stroke="none" fill="#848484" fill-rule="evenodd"></path></g></svg>