<svg id="svg" version="1.1" xmlns="http://www.w3.org/2000/svg" xmlns:xlink="http://www.w3.org/1999/xlink" width="400" height="400" viewBox="0, 0, 400,400"><g id="svgg"><path id="path0" d="M192.000 97.600 C 191.361 98.013,190.617 98.262,182.825 100.665 C 178.311 102.058,177.666 102.378,175.856 104.129 C 174.758 105.189,173.026 106.480,172.005 106.998 C 170.984 107.515,169.531 108.643,168.775 109.505 C 168.019 110.367,167.130 111.373,166.800 111.741 C 166.470 112.108,165.390 113.001,164.400 113.724 C 163.141 114.643,162.233 115.785,161.381 117.522 C 160.710 118.888,159.407 120.774,158.486 121.713 C 156.745 123.486,155.441 126.629,153.555 133.599 C 153.108 135.248,152.419 137.138,152.023 137.799 C 151.407 138.826,150.996 140.974,150.620 145.126 C 150.380 147.778,156.599 162.116,160.140 167.075 C 160.896 168.134,162.046 170.178,162.695 171.618 C 163.900 174.290,164.750 175.171,168.101 177.221 C 169.146 177.860,170.361 178.972,170.801 179.692 C 171.673 181.119,173.776 186.379,173.544 186.554 C 171.209 188.315,170.042 188.963,167.368 189.984 C 165.037 190.874,163.731 191.658,162.612 192.839 C 161.663 193.841,159.824 195.048,157.834 195.976 C 155.109 197.247,153.898 198.171,150.142 201.843 L 145.683 206.200 145.396 209.289 C 145.005 213.484,145.099 213.709,148.883 217.705 L 152.200 221.208 162.403 220.942 C 174.087 220.638,174.476 220.715,178.257 224.073 C 179.490 225.168,180.994 226.062,182.144 226.384 C 185.022 227.190,184.548 228.506,181.185 229.047 C 179.413 229.333,175.502 236.933,174.036 242.940 C 173.561 244.888,172.531 247.858,171.747 249.540 C 170.963 251.223,169.965 253.362,169.529 254.292 C 169.093 255.223,167.982 256.843,167.060 257.892 C 165.129 260.090,162.927 263.386,161.472 266.258 C 160.916 267.356,159.627 268.937,158.609 269.771 C 157.357 270.797,156.368 272.113,155.555 273.834 C 154.893 275.234,153.806 276.789,153.138 277.289 C 151.415 278.582,149.953 280.066,148.825 281.667 C 148.289 282.428,147.215 283.489,146.437 284.025 C 145.660 284.561,143.849 286.200,142.412 287.666 C 140.721 289.392,138.988 290.708,137.497 291.397 C 136.145 292.022,134.754 293.038,134.128 293.859 C 133.542 294.627,132.148 295.714,131.031 296.272 C 126.309 298.634,116.776 307.541,114.000 312.185 C 113.230 313.473,111.949 315.264,111.154 316.164 C 109.274 318.290,108.855 319.181,106.810 325.400 C 105.870 328.260,104.945 330.796,104.755 331.035 C 102.184 334.277,101.950 347.592,104.419 350.220 C 106.586 352.527,101.601 352.412,200.165 352.420 L 290.432 352.427 292.916 351.114 L 295.400 349.800 295.515 346.080 C 295.631 342.332,295.304 340.589,293.209 333.800 C 292.802 332.480,291.888 329.420,291.179 327.000 C 289.751 322.127,289.156 320.761,287.704 319.023 C 287.164 318.375,286.315 316.935,285.818 315.823 C 283.106 309.752,273.181 301.027,266.371 298.727 C 265.077 298.290,263.429 297.505,262.709 296.981 C 261.989 296.458,260.373 295.484,259.117 294.818 C 257.862 294.151,256.242 293.089,255.517 292.457 C 254.793 291.825,253.476 290.940,252.590 290.492 C 251.705 290.043,250.123 288.759,249.074 287.638 C 248.026 286.517,247.029 285.600,246.859 285.600 C 246.418 285.600,244.601 283.586,243.951 282.375 C 242.439 279.563,240.776 277.294,238.588 275.057 C 236.154 272.568,235.595 271.600,234.802 268.494 C 234.433 267.050,234.107 266.666,232.680 265.996 C 230.454 264.949,229.834 263.637,227.351 254.729 C 227.249 254.360,226.534 253.686,225.763 253.231 C 223.817 252.083,223.365 250.720,222.215 242.533 C 220.685 231.637,220.433 230.464,219.555 230.186 C 216.652 229.264,215.713 226.986,218.072 226.588 C 219.167 226.403,220.031 225.947,220.572 225.268 C 223.173 222.009,225.936 219.686,228.027 219.001 C 229.222 218.610,231.049 217.864,232.087 217.345 C 234.347 216.213,238.576 216.082,244.000 216.976 L 247.400 217.537 248.932 216.068 C 251.121 213.970,251.181 213.752,250.566 210.215 C 249.823 205.943,249.050 205.159,245.177 204.745 C 241.714 204.375,240.581 203.697,239.959 201.620 C 239.582 200.362,239.023 199.735,237.242 198.568 C 236.009 197.761,233.736 195.818,232.190 194.250 C 230.645 192.683,228.192 190.372,226.738 189.116 C 224.387 187.084,224.065 186.630,223.820 184.991 C 223.439 182.452,221.988 180.972,219.212 180.292 L 217.025 179.756 218.812 178.912 C 219.796 178.447,222.010 177.688,223.733 177.226 C 225.636 176.715,227.442 175.925,228.333 175.215 C 229.140 174.572,230.682 173.721,231.760 173.323 C 233.663 172.621,233.739 172.530,234.380 170.200 C 235.275 166.944,237.692 162.086,239.209 160.493 C 242.718 156.808,243.376 136.708,240.221 129.600 C 239.488 127.950,238.104 124.725,237.144 122.434 C 235.767 119.143,234.954 117.807,233.279 116.077 C 232.113 114.872,230.809 113.202,230.383 112.366 C 229.586 110.805,227.985 109.393,225.704 108.239 C 224.992 107.879,223.511 106.787,222.414 105.812 C 220.203 103.849,216.839 102.582,210.800 101.437 C 208.930 101.082,206.140 100.455,204.600 100.042 C 192.834 96.892,193.035 96.931,192.000 97.600 M196.285 102.831 C 198.218 103.288,202.280 103.983,205.311 104.376 C 208.342 104.768,210.919 105.186,211.037 105.304 C 211.583 105.850,210.341 108.799,209.486 108.987 C 206.366 109.674,201.642 109.990,197.953 109.759 C 190.419 109.287,185.923 110.516,185.187 113.248 C 184.708 115.028,183.554 115.936,181.342 116.270 C 179.554 116.540,177.201 118.532,177.199 119.778 C 177.196 121.214,175.751 123.103,174.434 123.393 C 172.786 123.754,171.760 125.171,171.449 127.513 C 171.162 129.682,168.631 133.968,167.013 135.029 C 165.469 136.040,164.891 138.726,164.376 147.276 C 163.783 157.121,163.889 157.809,166.148 158.778 C 168.497 159.784,169.847 161.530,170.416 164.296 C 171.063 167.441,171.340 167.855,173.552 168.976 C 176.798 170.620,177.772 173.077,175.620 174.190 C 173.843 175.108,172.064 174.752,167.389 172.542 C 165.911 171.844,164.827 168.476,164.416 163.310 C 164.106 159.417,164.177 159.514,161.462 159.288 L 159.324 159.111 158.693 157.256 C 158.346 156.235,157.328 153.365,156.431 150.878 C 153.530 142.836,155.317 128.238,159.770 123.610 C 160.516 122.834,161.657 121.017,162.306 119.570 C 163.138 117.716,163.996 116.537,165.217 115.570 C 166.169 114.817,167.499 113.592,168.174 112.849 C 170.987 109.751,172.554 108.430,173.717 108.174 C 174.395 108.025,175.898 107.007,177.057 105.911 C 180.837 102.335,188.796 101.061,196.285 102.831 M222.861 110.853 C 225.210 111.885,226.875 113.482,227.391 115.200 C 227.556 115.750,228.031 116.761,228.446 117.447 C 229.324 118.899,229.509 123.531,228.720 124.320 C 227.246 125.794,223.672 123.238,222.829 120.107 C 222.306 118.165,221.006 117.003,218.917 116.611 C 216.892 116.231,215.483 115.451,214.316 114.065 C 213.778 113.425,212.953 112.696,212.483 112.445 C 211.936 112.152,211.718 111.759,211.875 111.349 C 212.632 109.376,218.857 109.095,222.861 110.853 M234.000 127.000 C 234.000 127.990,233.947 128.800,233.883 128.800 C 233.819 128.800,232.972 127.990,232.000 127.000 L 230.233 125.200 232.117 125.200 L 234.000 125.200 234.000 127.000 M227.375 154.125 L 227.083 156.200 226.495 154.461 C 226.005 153.012,225.994 152.558,226.429 151.745 C 227.222 150.264,227.737 151.560,227.375 154.125 M220.971 164.905 C 221.285 166.672,220.783 167.036,218.597 166.626 C 216.816 166.292,216.829 165.608,218.649 164.011 C 220.262 162.594,220.582 162.717,220.971 164.905 M209.597 172.406 C 209.709 172.409,209.530 172.587,209.200 172.800 C 208.476 173.268,206.000 173.330,206.000 172.880 C 206.000 172.058,206.928 171.693,208.138 172.040 C 208.829 172.238,209.486 172.403,209.597 172.406 M181.735 180.113 C 184.277 182.510,184.978 186.541,183.071 187.791 C 179.552 190.096,178.573 189.090,178.991 183.600 C 179.405 178.184,179.526 178.029,181.735 180.113 M222.720 194.692 C 221.596 197.037,218.044 196.802,215.620 194.222 L 214.776 193.323 217.467 191.962 L 220.158 190.600 221.699 192.103 C 223.150 193.518,223.210 193.670,222.720 194.692 M177.242 191.642 C 178.789 193.189,177.222 197.192,174.467 198.730 C 173.346 199.355,172.726 200.010,172.572 200.730 C 171.958 203.615,171.062 205.309,169.734 206.092 C 167.321 207.516,170.103 210.104,174.560 210.581 C 175.981 210.733,177.825 211.205,178.657 211.629 C 180.996 212.821,212.318 212.814,215.392 211.620 C 216.497 211.192,218.660 210.478,220.200 210.035 C 221.847 209.561,223.618 208.717,224.500 207.985 L 226.000 206.742 226.000 203.194 C 226.000 201.023,226.173 199.541,226.445 199.372 C 227.285 198.853,227.590 200.207,227.579 204.400 C 227.572 206.710,227.723 209.734,227.913 211.120 C 228.319 214.089,228.486 213.934,224.400 214.400 C 222.627 214.602,221.004 214.874,220.794 215.004 C 220.584 215.133,218.733 214.953,216.680 214.603 C 212.056 213.816,179.883 213.936,175.821 214.756 C 173.792 215.165,172.433 215.109,166.565 214.373 L 159.687 213.510 157.143 214.525 C 152.925 216.208,152.763 216.212,151.276 214.678 C 150.190 213.558,149.843 212.736,149.305 210.003 L 148.652 206.688 151.626 203.818 C 153.262 202.240,154.922 200.466,155.316 199.878 C 155.744 199.237,157.384 198.162,159.400 197.200 C 161.264 196.310,163.417 194.924,164.219 194.096 C 166.776 191.458,175.428 189.828,177.242 191.642 M129.682 214.370 C 130.217 215.123,131.093 216.000,131.628 216.319 L 132.600 216.898 131.683 216.135 C 131.179 215.715,130.303 214.838,129.737 214.186 L 128.707 213.000 129.682 214.370 M208.134 227.068 C 209.366 228.299,207.015 228.800,200.000 228.800 C 192.985 228.800,190.634 228.299,191.866 227.068 C 192.215 226.718,207.785 226.718,208.134 227.068 M195.770 239.298 L 196.802 240.600 195.956 241.300 C 194.047 242.881,191.400 241.693,192.019 239.532 C 192.785 236.863,193.791 236.800,195.770 239.298 M182.382 242.839 C 182.907 244.279,183.737 245.589,184.609 246.355 C 186.091 247.656,186.262 248.440,185.591 250.857 C 184.881 253.412,180.442 254.842,178.681 253.081 C 177.632 252.032,177.906 241.716,179.041 239.521 L 179.705 238.237 180.625 239.391 C 181.132 240.026,181.922 241.577,182.382 242.839 M202.115 245.673 L 203.707 247.346 202.809 248.073 C 200.749 249.742,198.100 248.439,198.775 246.088 C 199.530 243.456,199.956 243.403,202.115 245.673 M208.881 252.436 C 210.656 254.303,210.486 254.998,208.144 255.437 C 205.642 255.906,204.714 254.145,206.069 251.500 C 206.608 250.449,207.168 250.636,208.881 252.436 M175.943 254.840 C 179.228 255.985,177.981 266.191,174.323 268.088 C 172.654 268.954,172.034 270.384,171.030 275.678 C 170.363 279.199,169.829 280.173,167.684 281.787 C 166.156 282.937,164.982 285.322,163.967 289.342 C 163.290 292.022,162.435 293.229,160.660 294.015 C 159.197 294.662,158.912 295.001,158.484 296.602 C 157.857 298.945,156.539 300.259,154.183 300.889 C 152.663 301.296,152.183 301.657,151.572 302.856 C 150.609 304.743,149.298 305.757,146.981 306.405 C 145.162 306.915,143.305 308.411,141.917 310.484 C 141.542 311.045,140.752 311.626,140.163 311.774 C 139.573 311.922,138.530 312.461,137.845 312.973 C 137.160 313.485,135.757 314.270,134.727 314.717 C 133.436 315.278,132.534 316.037,131.828 317.156 C 130.591 319.115,129.432 319.922,126.944 320.556 C 124.890 321.080,124.621 321.383,123.998 323.882 C 123.436 326.136,121.995 327.755,120.024 328.346 C 119.131 328.613,118.400 329.074,118.400 329.371 C 118.400 329.667,117.938 331.284,117.374 332.965 C 116.285 336.206,116.423 338.907,117.814 341.619 C 118.355 342.673,116.814 347.357,115.492 348.679 C 114.548 349.623,111.386 349.798,110.633 348.948 C 108.250 346.259,106.112 342.227,106.433 341.028 C 106.614 340.353,107.050 337.282,107.402 334.204 C 108.353 325.879,109.724 321.363,112.204 318.396 C 112.995 317.449,113.878 316.118,114.166 315.437 C 115.986 311.142,126.812 300.429,131.979 297.810 C 132.984 297.301,134.615 296.141,135.603 295.232 C 136.591 294.322,138.300 293.062,139.400 292.430 C 141.157 291.421,145.341 287.762,149.000 284.035 C 154.497 278.435,156.348 276.309,157.295 274.503 C 157.994 273.172,158.965 272.054,159.973 271.417 C 160.871 270.850,162.025 269.591,162.638 268.509 C 165.117 264.139,166.119 262.785,167.051 262.551 C 168.353 262.225,170.623 259.504,171.929 256.704 C 173.086 254.225,173.554 254.007,175.943 254.840 M215.283 259.081 C 217.069 260.825,217.154 261.310,215.781 261.936 C 213.051 263.180,211.445 261.702,212.580 258.987 C 213.302 257.259,213.421 257.263,215.283 259.081 M221.833 266.885 C 222.361 267.886,222.340 268.004,221.552 268.426 C 220.121 269.192,218.700 268.176,219.031 266.624 C 219.604 263.942,220.316 264.008,221.833 266.885 M228.836 273.667 C 229.689 275.262,227.740 276.613,226.371 275.374 C 225.432 274.524,225.394 273.672,226.240 272.464 C 226.932 271.476,227.905 271.927,228.836 273.667 M235.402 280.402 C 235.802 280.844,236.055 281.269,235.964 281.348 C 234.093 282.982,231.329 281.928,233.029 280.229 C 233.869 279.388,234.528 279.437,235.402 280.402 M220.501 282.186 L 220.312 283.171 218.656 282.337 C 216.401 281.200,216.401 281.200,218.678 281.200 C 220.600 281.200,220.681 281.244,220.501 282.186 M227.600 288.376 C 227.600 289.117,226.786 289.236,225.912 288.623 C 225.027 288.004,225.030 288.000,226.311 288.000 C 227.020 288.000,227.600 288.169,227.600 288.376 M234.719 294.741 C 235.133 295.004,235.113 295.174,234.619 295.584 C 234.115 296.003,233.885 296.003,233.381 295.584 C 232.811 295.111,233.180 294.412,234.000 294.412 C 234.110 294.412,234.434 294.560,234.719 294.741 M272.838 307.183 C 275.071 307.204,275.852 307.935,276.242 310.371 C 276.601 312.615,277.440 313.425,279.768 313.774 C 281.936 314.099,282.060 314.304,282.813 318.800 C 284.541 329.124,279.607 330.468,276.208 320.600 C 274.738 316.333,274.475 316.005,270.800 313.847 C 267.335 311.813,267.082 311.675,265.600 311.018 C 264.830 310.677,263.671 309.974,263.025 309.457 L 261.851 308.516 262.900 307.829 C 264.250 306.944,267.356 306.484,269.400 306.866 C 270.280 307.031,271.827 307.173,272.838 307.183 M289.241 335.731 C 290.781 345.901,290.273 349.580,287.326 349.594 C 284.987 349.605,284.270 349.041,282.823 346.048 L 281.445 343.200 203.373 343.200 C 130.433 343.200,122.800 343.128,122.800 342.438 C 122.800 341.210,125.286 341.172,203.403 341.198 L 281.406 341.223 282.480 338.111 C 283.070 336.400,283.669 334.239,283.810 333.309 C 284.133 331.185,285.505 329.111,286.804 328.782 C 288.193 328.431,288.090 328.135,289.241 335.731 " stroke="none" fill="#545454" fill-rule="evenodd"></path><path id="path1" d="M181.200 78.278 C 180.347 78.582,179.600 79.624,179.600 80.508 C 179.600 81.632,176.264 84.800,175.081 84.800 C 173.655 84.800,173.302 85.456,172.982 88.700 L 172.697 91.600 168.048 91.610 C 160.271 91.626,159.882 91.812,159.667 95.621 L 159.510 98.400 156.929 98.400 C 153.072 98.400,152.800 98.648,152.800 102.169 L 152.800 105.110 149.956 105.270 C 146.153 105.485,146.001 105.719,145.996 111.376 C 145.993 113.809,145.880 116.475,145.743 117.300 L 145.495 118.800 143.024 118.800 C 138.632 118.800,139.031 116.119,139.035 145.607 L 139.039 171.302 139.964 172.051 C 140.632 172.592,141.538 172.800,143.226 172.800 C 145.861 172.800,145.869 172.813,146.099 177.400 L 146.200 179.400 149.300 179.517 L 152.400 179.634 152.400 183.017 L 152.400 186.400 146.900 186.440 C 139.145 186.496,139.426 186.361,139.283 190.117 L 139.166 193.200 136.416 193.200 C 132.365 193.200,132.400 193.169,132.400 196.791 L 132.400 199.897 129.593 200.173 C 125.534 200.573,125.434 200.788,125.714 208.511 C 126.036 217.418,126.689 218.945,130.384 219.436 L 132.400 219.703 132.400 226.023 C 132.400 233.447,132.469 233.600,135.796 233.600 C 138.715 233.600,139.200 233.848,139.202 235.343 C 139.211 240.032,139.996 240.400,149.983 240.400 C 157.794 240.400,158.533 240.251,158.920 238.600 C 159.026 238.145,159.127 238.428,159.154 239.255 L 159.200 240.710 156.377 240.869 C 153.067 241.056,152.816 241.304,152.804 244.400 C 152.800 245.610,152.680 248.355,152.538 250.500 L 152.279 254.400 150.029 254.400 C 146.303 254.400,146.000 254.819,146.000 259.967 C 146.000 262.344,145.886 265.123,145.746 266.144 L 145.491 268.000 142.346 268.000 L 139.200 268.000 139.194 270.700 C 139.186 274.382,139.025 274.553,135.420 274.735 L 132.400 274.887 132.400 278.005 L 132.400 281.122 125.986 281.413 C 118.613 281.747,118.800 281.640,118.800 285.534 L 118.800 287.920 115.500 288.260 L 112.200 288.600 112.084 291.643 L 111.968 294.687 108.998 294.912 C 105.149 295.203,105.200 295.153,105.200 298.572 L 105.200 301.497 102.033 301.773 C 98.184 302.109,98.400 301.669,98.400 309.180 L 98.400 315.095 95.359 315.290 C 91.752 315.521,91.614 315.668,91.606 319.276 L 91.600 321.952 88.807 322.227 C 87.074 322.397,85.821 322.734,85.507 323.112 C 84.870 323.878,84.560 367.832,85.184 368.800 C 85.526 369.331,98.724 369.400,200.000 369.400 C 301.274 369.400,314.474 369.331,314.821 368.800 C 315.068 368.422,315.173 360.021,315.106 346.064 L 315.000 323.929 314.056 323.164 C 313.365 322.605,312.479 322.400,310.756 322.400 L 308.400 322.400 308.394 319.500 C 308.386 315.647,308.276 315.523,304.641 315.290 L 301.600 315.095 301.600 308.996 C 301.600 301.891,301.729 302.129,297.670 301.752 L 294.800 301.485 294.800 298.566 C 294.800 295.154,294.851 295.203,291.002 294.912 L 288.032 294.687 287.916 291.643 L 287.800 288.600 284.543 288.264 L 281.286 287.928 281.129 285.141 C 280.930 281.630,281.172 281.752,273.751 281.404 L 267.600 281.116 267.600 278.002 L 267.600 274.887 264.580 274.735 C 260.975 274.553,260.814 274.382,260.806 270.700 L 260.800 268.000 257.654 268.000 L 254.509 268.000 254.254 266.144 C 254.114 265.123,253.998 262.648,253.995 260.644 C 253.986 255.053,253.506 254.400,249.399 254.400 L 247.717 254.400 247.459 251.340 C 247.316 249.656,247.200 247.066,247.200 245.584 C 247.200 241.927,246.605 241.215,243.292 240.915 L 240.800 240.689 240.836 239.044 L 240.872 237.400 241.235 238.653 C 241.716 240.313,242.116 240.388,250.440 240.395 C 260.053 240.402,260.790 240.025,260.798 235.100 L 260.800 233.600 263.324 233.600 C 267.551 233.600,267.380 234.037,267.520 222.833 L 267.640 213.200 269.976 213.200 C 273.877 213.200,274.200 212.710,274.200 206.800 C 274.200 201.245,273.762 200.405,270.856 200.395 C 267.711 200.383,267.600 200.260,267.600 196.796 C 267.600 193.167,267.637 193.200,263.567 193.200 L 260.800 193.200 260.794 190.500 C 260.785 186.491,261.013 186.624,253.815 186.458 L 247.600 186.315 247.600 182.974 L 247.600 179.634 250.700 179.517 L 253.800 179.400 253.903 177.000 C 254.081 172.849,254.032 172.917,257.044 172.725 C 258.912 172.606,259.841 172.359,260.184 171.890 C 261.198 170.502,261.364 121.160,260.360 119.535 C 260.173 119.232,258.911 118.965,257.223 118.869 C 253.846 118.678,254.364 119.685,254.058 112.714 C 253.751 105.702,253.699 105.612,249.843 105.303 L 247.200 105.090 247.194 102.445 C 247.186 98.830,247.013 98.647,243.464 98.467 L 240.488 98.317 240.325 95.760 C 240.088 92.029,239.311 91.671,231.350 91.624 L 227.300 91.600 227.050 90.350 C 226.913 89.662,226.800 88.308,226.800 87.340 C 226.800 85.252,226.056 84.800,222.622 84.800 L 220.495 84.800 220.148 81.716 C 219.830 78.900,219.713 78.609,218.800 78.356 C 217.634 78.034,182.090 77.959,181.200 78.278 M197.849 98.246 C 200.022 98.822,203.060 99.630,204.600 100.042 C 206.140 100.455,208.930 101.082,210.800 101.437 C 216.839 102.582,220.203 103.849,222.414 105.812 C 223.511 106.787,224.992 107.879,225.704 108.239 C 227.985 109.393,229.586 110.805,230.383 112.366 C 230.809 113.202,232.113 114.872,233.279 116.077 C 234.954 117.807,235.767 119.143,237.144 122.434 C 238.104 124.725,239.488 127.950,240.221 129.600 C 243.376 136.708,242.718 156.808,239.209 160.493 C 237.692 162.086,235.275 166.944,234.380 170.200 C 233.739 172.530,233.663 172.621,231.760 173.323 C 230.682 173.721,229.140 174.572,228.333 175.215 C 227.442 175.925,225.636 176.715,223.733 177.226 C 222.010 177.688,219.796 178.447,218.812 178.912 L 217.025 179.756 219.212 180.292 C 221.988 180.972,223.439 182.452,223.820 184.991 C 224.065 186.630,224.387 187.084,226.738 189.116 C 228.192 190.372,230.645 192.683,232.190 194.250 C 233.736 195.818,236.009 197.761,237.242 198.568 C 239.023 199.735,239.582 200.362,239.959 201.620 C 240.581 203.697,241.714 204.375,245.177 204.745 C 249.050 205.159,249.823 205.943,250.566 210.215 C 251.181 213.752,251.121 213.970,248.932 216.068 L 247.400 217.537 244.000 216.976 C 238.576 216.082,234.347 216.213,232.087 217.345 C 231.049 217.864,229.222 218.610,228.027 219.001 C 225.936 219.686,223.173 222.009,220.572 225.268 C 220.031 225.947,219.167 226.403,218.072 226.588 C 215.713 226.986,216.652 229.264,219.555 230.186 C 220.433 230.464,220.685 231.637,222.215 242.533 C 223.365 250.720,223.817 252.083,225.763 253.231 C 226.534 253.686,227.249 254.360,227.351 254.729 C 229.834 263.637,230.454 264.949,232.680 265.996 C 234.107 266.666,234.433 267.050,234.802 268.494 C 235.595 271.600,236.154 272.568,238.588 275.057 C 240.776 277.294,242.439 279.563,243.951 282.375 C 244.601 283.586,246.418 285.600,246.859 285.600 C 247.029 285.600,248.026 286.517,249.074 287.638 C 250.123 288.759,251.705 290.043,252.590 290.492 C 253.476 290.940,254.793 291.825,255.517 292.457 C 256.242 293.089,257.862 294.151,259.117 294.818 C 260.373 295.484,261.989 296.458,262.709 296.981 C 263.429 297.505,265.077 298.290,266.371 298.727 C 273.181 301.027,283.106 309.752,285.818 315.823 C 286.315 316.935,287.164 318.375,287.704 319.023 C 289.156 320.761,289.751 322.127,291.179 327.000 C 291.888 329.420,292.802 332.480,293.209 333.800 C 295.304 340.589,295.631 342.332,295.515 346.080 L 295.400 349.800 292.916 351.114 L 290.432 352.427 200.165 352.420 C 101.601 352.412,106.586 352.527,104.419 350.220 C 101.950 347.592,102.184 334.277,104.755 331.035 C 104.945 330.796,105.870 328.260,106.810 325.400 C 108.855 319.181,109.274 318.290,111.154 316.164 C 111.949 315.264,113.230 313.473,114.000 312.185 C 116.776 307.541,126.309 298.634,131.031 296.272 C 132.148 295.714,133.542 294.627,134.128 293.859 C 134.754 293.038,136.145 292.022,137.497 291.397 C 138.988 290.708,140.721 289.392,142.412 287.666 C 143.849 286.200,145.660 284.561,146.437 284.025 C 147.215 283.489,148.289 282.428,148.825 281.667 C 149.953 280.066,151.415 278.582,153.138 277.289 C 153.806 276.789,154.893 275.234,155.555 273.834 C 156.368 272.113,157.357 270.797,158.609 269.771 C 159.627 268.937,160.916 267.356,161.472 266.258 C 162.927 263.386,165.129 260.090,167.060 257.892 C 167.982 256.843,169.093 255.223,169.529 254.292 C 169.965 253.362,170.963 251.223,171.747 249.540 C 172.531 247.858,173.561 244.888,174.036 242.940 C 175.502 236.933,179.413 229.333,181.185 229.047 C 184.548 228.506,185.022 227.190,182.144 226.384 C 180.994 226.062,179.490 225.168,178.257 224.073 C 174.476 220.715,174.087 220.638,162.403 220.942 L 152.200 221.208 148.883 217.705 C 145.099 213.709,145.005 213.484,145.396 209.289 L 145.683 206.200 150.142 201.843 C 153.898 198.171,155.109 197.247,157.834 195.976 C 159.824 195.048,161.663 193.841,162.612 192.839 C 163.731 191.658,165.037 190.874,167.368 189.984 C 170.042 188.963,171.209 188.315,173.544 186.554 C 173.776 186.379,171.673 181.119,170.801 179.692 C 170.361 178.972,169.146 177.860,168.101 177.221 C 164.750 175.171,163.900 174.290,162.695 171.618 C 162.046 170.178,160.896 168.134,160.140 167.075 C 156.599 162.116,150.380 147.778,150.620 145.126 C 150.996 140.974,151.407 138.826,152.023 137.799 C 152.419 137.138,153.108 135.248,153.555 133.599 C 155.441 126.629,156.745 123.486,158.486 121.713 C 159.407 120.774,160.710 118.888,161.381 117.522 C 162.233 115.785,163.141 114.643,164.400 113.724 C 165.390 113.001,166.470 112.108,166.800 111.741 C 167.130 111.373,168.019 110.367,168.775 109.505 C 169.531 108.643,170.984 107.515,172.005 106.998 C 173.026 106.480,174.758 105.189,175.856 104.129 C 177.666 102.378,178.311 102.058,182.825 100.665 C 190.617 98.262,191.361 98.013,192.000 97.600 C 192.885 97.028,193.506 97.096,197.849 98.246 M131.683 216.135 L 132.600 216.898 131.628 216.319 C 131.093 216.000,130.217 215.123,129.682 214.370 L 128.707 213.000 129.737 214.186 C 130.303 214.838,131.179 215.715,131.683 216.135 M191.866 227.068 C 190.634 228.299,192.985 228.800,200.000 228.800 C 207.015 228.800,209.366 228.299,208.134 227.068 C 207.785 226.718,192.215 226.718,191.866 227.068 M192.825 237.770 C 190.562 240.497,193.257 243.536,195.956 241.300 L 196.802 240.600 195.770 239.298 C 194.393 237.559,193.419 237.054,192.825 237.770 M199.392 244.413 C 197.466 247.530,200.055 250.303,202.809 248.073 L 203.707 247.346 202.115 245.673 C 200.497 243.972,199.850 243.672,199.392 244.413 M206.069 251.500 C 204.714 254.145,205.642 255.906,208.144 255.437 C 210.486 254.998,210.656 254.303,208.881 252.436 C 207.168 250.636,206.608 250.449,206.069 251.500 M212.580 258.987 C 211.445 261.702,213.051 263.180,215.781 261.936 C 217.154 261.310,217.069 260.825,215.283 259.081 C 213.421 257.263,213.302 257.259,212.580 258.987 M219.725 264.864 C 218.086 266.895,219.448 269.551,221.552 268.426 C 222.340 268.004,222.361 267.886,221.833 266.885 C 220.716 264.766,220.202 264.273,219.725 264.864 M226.240 272.464 C 225.051 274.162,226.170 276.381,227.934 275.821 C 229.489 275.328,229.379 273.810,227.678 272.270 C 226.906 271.572,226.860 271.579,226.240 272.464 M233.029 280.229 C 231.329 281.928,234.093 282.982,235.964 281.348 C 236.247 281.102,234.703 279.600,234.167 279.600 C 233.886 279.600,233.374 279.883,233.029 280.229 " stroke="none" fill="#2f2e2e" fill-rule="evenodd"></path><path id="path2" d="M184.800 102.778 C 184.250 102.982,182.788 103.349,181.551 103.592 C 180.255 103.848,178.984 104.381,178.551 104.850 C 176.284 107.310,175.525 107.896,174.023 108.346 C 173.008 108.650,171.723 109.519,170.686 110.603 C 167.461 113.975,166.989 114.436,165.098 116.067 C 163.748 117.230,162.993 118.289,162.498 119.711 C 162.114 120.814,161.062 122.545,160.161 123.558 C 155.297 129.025,153.908 141.800,157.155 151.190 C 159.436 157.784,159.318 157.605,160.589 156.411 C 162.015 155.071,162.670 152.637,163.605 145.200 C 164.823 135.509,165.187 134.428,168.193 131.563 C 169.640 130.184,170.181 129.277,170.804 127.188 C 171.637 124.389,172.205 123.611,174.327 122.361 C 175.129 121.888,175.952 120.906,176.406 119.879 C 177.382 117.673,178.700 116.468,181.266 115.436 C 182.968 114.751,183.499 114.290,184.206 112.880 C 185.616 110.069,187.588 109.231,196.200 107.787 C 198.933 107.328,201.165 106.774,204.496 105.728 C 205.683 105.354,204.836 104.800,203.076 104.799 C 202.154 104.799,199.512 104.342,197.204 103.782 C 192.678 102.686,186.414 102.179,184.800 102.778 M180.000 110.367 C 180.000 110.569,180.105 111.009,180.234 111.343 C 180.400 111.776,179.898 112.241,178.498 112.951 C 176.482 113.972,174.458 115.957,173.446 117.905 C 173.134 118.507,172.330 119.404,171.660 119.897 C 170.901 120.455,169.846 122.046,168.865 124.111 C 166.974 128.091,166.736 128.314,164.190 128.474 L 162.200 128.600 161.931 131.800 C 161.661 135.013,160.301 142.326,159.649 144.068 C 158.489 147.169,157.444 134.279,158.579 130.862 C 159.182 129.047,159.405 128.798,160.628 128.568 C 161.879 128.334,162.000 128.188,162.000 126.919 C 162.000 126.153,162.333 125.102,162.741 124.584 C 163.148 124.066,163.714 122.508,163.998 121.121 C 164.611 118.129,165.616 116.871,167.652 116.545 C 169.626 116.230,170.737 115.132,171.047 113.194 C 171.444 110.714,171.755 110.592,179.100 110.065 C 179.595 110.029,180.000 110.165,180.000 110.367 M218.473 111.255 C 216.869 111.717,216.975 112.244,218.916 113.473 L 220.385 114.402 221.672 113.252 L 222.959 112.103 221.699 111.451 C 220.291 110.723,220.313 110.724,218.473 111.255 M226.152 118.181 C 226.029 118.501,226.205 119.157,226.542 119.639 L 227.156 120.515 227.416 119.480 C 227.811 117.905,226.697 116.761,226.152 118.181 M165.631 164.274 C 165.121 166.121,165.787 168.857,166.665 168.520 C 167.968 168.020,168.373 166.315,167.566 164.733 C 166.505 162.654,166.104 162.559,165.631 164.274 M171.878 172.256 C 171.416 172.717,172.027 173.200,173.073 173.200 C 173.939 173.200,174.021 173.107,173.600 172.600 C 173.079 171.973,172.314 171.820,171.878 172.256 M170.600 191.791 C 169.720 192.092,168.415 192.352,167.700 192.369 C 166.743 192.392,165.953 192.834,164.700 194.051 C 163.765 194.959,161.518 196.406,159.707 197.267 C 157.794 198.176,156.117 199.271,155.707 199.879 C 155.318 200.455,153.761 202.241,152.247 203.849 L 149.493 206.771 149.773 208.885 C 150.497 214.358,151.773 215.498,155.402 213.916 C 156.941 213.245,159.550 212.453,161.200 212.156 C 164.602 211.544,165.349 210.930,165.751 208.418 C 165.980 206.982,166.200 206.713,167.607 206.150 C 169.750 205.293,171.085 203.601,171.882 200.734 C 172.395 198.890,172.871 198.094,173.994 197.205 C 178.558 193.590,176.225 189.868,170.600 191.791 M168.196 197.992 C 169.477 200.470,167.932 202.698,164.174 203.790 C 162.980 204.137,161.394 204.957,160.649 205.611 C 159.665 206.475,158.871 206.807,157.747 206.824 C 156.896 206.837,155.345 206.988,154.300 207.160 C 152.822 207.404,152.400 207.354,152.400 206.937 C 152.400 206.549,153.052 206.400,154.757 206.400 C 157.518 206.400,157.600 206.290,157.600 202.577 C 157.600 199.621,157.971 199.220,161.453 198.416 C 162.582 198.156,164.112 197.525,164.853 197.015 C 166.422 195.935,167.258 196.179,168.196 197.992 M170.428 213.174 C 169.630 213.679,172.433 214.183,173.897 213.798 C 174.911 213.532,174.935 213.482,174.200 213.182 C 173.110 212.738,171.124 212.734,170.428 213.174 M179.434 240.346 C 179.292 240.574,179.137 242.740,179.088 245.158 C 178.979 250.597,179.339 251.213,181.370 249.060 L 182.763 247.583 181.985 246.264 C 181.557 245.539,181.023 243.974,180.798 242.787 C 180.369 240.529,179.871 239.637,179.434 240.346 M171.685 258.500 C 170.081 261.328,168.669 262.766,167.210 263.058 C 166.027 263.295,164.755 264.988,162.778 268.961 C 162.460 269.600,161.242 270.830,160.071 271.695 C 158.564 272.808,157.709 273.813,157.143 275.134 C 156.667 276.244,155.260 278.068,153.672 279.635 C 152.202 281.084,150.354 282.974,149.564 283.835 C 146.877 286.762,141.006 291.879,139.384 292.706 C 138.495 293.160,137.034 294.243,136.137 295.114 C 135.239 295.985,133.374 297.300,131.992 298.037 C 127.140 300.622,117.138 310.440,114.794 314.915 C 114.078 316.282,113.002 317.940,112.402 318.600 C 109.370 321.936,107.878 327.878,108.063 335.875 L 108.200 341.800 109.653 344.200 C 110.453 345.520,111.234 347.018,111.390 347.529 C 112.263 350.398,115.600 343.658,115.600 339.024 C 115.600 333.582,117.437 328.669,119.905 327.509 C 121.692 326.669,123.002 325.080,123.460 323.200 C 123.723 322.117,125.502 320.000,126.149 320.000 C 127.468 320.000,130.104 318.164,131.014 316.613 C 131.768 315.325,132.460 314.733,133.815 314.215 C 135.953 313.399,139.181 311.274,141.400 309.221 C 143.227 307.532,144.563 306.634,147.391 305.194 C 148.501 304.629,149.790 303.566,150.307 302.790 C 150.892 301.911,152.219 300.886,153.916 300.000 C 156.297 298.758,156.735 298.339,157.800 296.280 C 158.460 295.004,159.607 293.489,160.349 292.913 C 161.774 291.806,164.269 286.941,165.403 283.058 C 165.849 281.531,166.311 280.826,167.194 280.323 C 168.923 279.340,169.807 277.612,170.808 273.260 C 171.940 268.339,172.640 266.597,173.788 265.845 C 176.434 264.111,176.964 259.916,174.827 257.629 C 173.296 255.990,173.074 256.052,171.685 258.500 M167.120 267.243 C 168.194 267.914,167.210 274.677,165.893 275.679 C 164.054 277.079,163.614 277.609,163.396 278.690 C 162.785 281.712,161.845 284.002,160.397 286.000 C 159.520 287.210,157.743 289.730,156.448 291.600 C 153.848 295.354,153.371 295.835,149.600 298.493 C 148.170 299.500,145.740 301.344,144.200 302.589 C 142.660 303.835,140.590 305.331,139.600 305.915 C 138.610 306.498,136.851 307.743,135.692 308.682 C 134.532 309.620,133.021 310.679,132.332 311.035 C 131.644 311.391,129.867 312.789,128.383 314.141 C 126.900 315.493,124.851 317.292,123.832 318.137 C 122.812 318.983,121.640 320.333,121.228 321.137 C 120.281 322.984,119.011 324.154,117.101 324.941 C 115.606 325.557,115.445 325.796,114.239 329.200 C 113.888 330.190,113.181 331.692,112.667 332.538 L 111.734 334.076 111.010 331.777 C 109.959 328.436,111.086 322.310,112.889 321.563 C 114.516 320.889,115.518 319.428,115.832 317.272 C 116.143 315.127,117.663 312.817,119.637 311.486 C 120.380 310.986,121.196 310.159,121.450 309.650 C 122.174 308.198,124.850 305.610,126.516 304.750 C 127.349 304.320,128.351 303.442,128.742 302.800 C 129.731 301.173,131.117 300.170,133.719 299.196 C 135.708 298.452,138.400 296.194,138.400 295.269 C 138.400 295.103,139.435 294.486,140.700 293.898 C 144.263 292.242,157.128 279.482,158.397 276.346 C 159.288 274.145,159.351 274.087,161.102 273.890 C 163.521 273.617,164.712 272.382,165.050 269.796 C 165.410 267.041,165.876 266.466,167.120 267.243 M270.633 308.357 C 269.829 308.672,270.564 309.402,273.676 311.377 L 274.752 312.061 275.020 310.633 C 275.488 308.139,273.638 307.179,270.633 308.357 M279.162 315.064 C 278.588 315.217,278.610 315.594,279.372 318.768 C 280.895 325.117,282.246 324.873,281.752 318.339 C 281.468 314.571,281.386 314.468,279.162 315.064 M286.855 335.700 C 285.664 338.528,284.737 342.367,285.017 343.310 C 285.437 344.721,287.752 349.200,288.062 349.200 C 288.833 349.200,289.143 342.981,288.646 337.500 C 288.291 333.591,287.907 333.205,286.855 335.700 " stroke="none" fill="#615c5c" fill-rule="evenodd"></path><path id="path3" d="M175.360 110.365 C 172.032 110.640,171.388 111.063,171.047 113.194 C 170.737 115.132,169.626 116.230,167.652 116.545 C 165.616 116.871,164.611 118.129,163.998 121.121 C 163.714 122.508,163.148 124.066,162.741 124.584 C 162.333 125.102,162.000 126.153,162.000 126.919 C 162.000 128.188,161.879 128.334,160.628 128.568 C 159.405 128.798,159.182 129.047,158.579 130.862 C 157.444 134.279,158.489 147.169,159.649 144.068 C 160.301 142.326,161.661 135.013,161.931 131.800 L 162.200 128.600 164.190 128.474 C 166.736 128.314,166.974 128.091,168.865 124.111 C 169.846 122.046,170.901 120.455,171.660 119.897 C 172.330 119.404,173.134 118.507,173.446 117.905 C 174.458 115.957,176.482 113.972,178.498 112.951 C 179.898 112.241,180.400 111.776,180.234 111.343 C 180.105 111.009,180.000 110.569,180.000 110.367 C 180.000 110.165,179.595 110.029,179.100 110.065 C 178.605 110.100,176.922 110.235,175.360 110.365 M164.853 197.015 C 164.112 197.525,162.582 198.156,161.453 198.416 C 157.971 199.220,157.600 199.621,157.600 202.577 C 157.600 206.290,157.518 206.400,154.757 206.400 C 153.052 206.400,152.400 206.549,152.400 206.937 C 152.400 207.354,152.822 207.404,154.300 207.160 C 155.345 206.988,156.896 206.837,157.747 206.824 C 158.871 206.807,159.665 206.475,160.649 205.611 C 161.394 204.957,162.980 204.137,164.174 203.790 C 167.932 202.698,169.477 200.470,168.196 197.992 C 167.258 196.179,166.422 195.935,164.853 197.015 M165.704 267.300 C 165.488 267.575,165.193 268.698,165.050 269.796 C 164.712 272.382,163.521 273.617,161.102 273.890 C 159.351 274.087,159.288 274.145,158.397 276.346 C 157.128 279.482,144.263 292.242,140.700 293.898 C 139.435 294.486,138.400 295.103,138.400 295.269 C 138.400 296.194,135.708 298.452,133.719 299.196 C 131.117 300.170,129.731 301.173,128.742 302.800 C 128.351 303.442,127.349 304.320,126.516 304.750 C 124.850 305.610,122.174 308.198,121.450 309.650 C 121.196 310.159,120.380 310.986,119.637 311.486 C 117.663 312.817,116.143 315.127,115.832 317.272 C 115.518 319.428,114.516 320.889,112.889 321.563 C 111.086 322.310,109.959 328.436,111.010 331.777 L 111.734 334.076 112.667 332.538 C 113.181 331.692,113.888 330.190,114.239 329.200 C 115.445 325.796,115.606 325.557,117.101 324.941 C 119.011 324.154,120.281 322.984,121.228 321.137 C 121.640 320.333,122.812 318.983,123.832 318.137 C 124.851 317.292,126.900 315.493,128.383 314.141 C 129.867 312.789,131.644 311.391,132.332 311.035 C 133.021 310.679,134.532 309.620,135.692 308.682 C 136.851 307.743,138.610 306.498,139.600 305.915 C 140.590 305.331,142.660 303.835,144.200 302.589 C 145.740 301.344,148.170 299.500,149.600 298.493 C 153.371 295.835,153.848 295.354,156.448 291.600 C 157.743 289.730,159.520 287.210,160.397 286.000 C 161.845 284.002,162.785 281.712,163.396 278.690 C 163.614 277.609,164.054 277.079,165.893 275.679 C 167.210 274.677,168.194 267.914,167.120 267.243 C 166.233 266.689,166.184 266.691,165.704 267.300 " stroke="none" fill="#7e7e7e" fill-rule="evenodd"></path><path id="path4" d="M189.400 102.449 C 191.380 102.636,194.903 103.241,197.228 103.794 C 199.554 104.348,202.198 104.800,203.104 104.800 C 204.841 104.800,205.675 105.357,204.496 105.728 C 201.165 106.774,198.933 107.328,196.200 107.787 C 187.588 109.231,185.616 110.069,184.206 112.880 C 183.499 114.290,182.968 114.751,181.266 115.436 C 178.700 116.468,177.382 117.673,176.406 119.879 C 175.952 120.906,175.129 121.888,174.327 122.361 C 172.205 123.611,171.637 124.389,170.804 127.188 C 170.181 129.277,169.640 130.184,168.193 131.563 C 165.187 134.428,164.823 135.509,163.605 145.200 C 162.666 152.665,162.016 155.070,160.566 156.432 C 159.295 157.626,159.371 157.748,156.979 150.695 L 155.090 145.129 155.276 140.665 C 155.378 138.209,155.334 136.740,155.178 137.400 C 154.284 141.187,154.752 146.224,156.431 150.878 C 157.328 153.365,158.346 156.235,158.693 157.256 L 159.324 159.111 161.462 159.288 C 164.177 159.514,164.106 159.417,164.416 163.310 C 164.827 168.476,165.911 171.844,167.389 172.542 C 172.064 174.752,173.843 175.108,175.620 174.190 C 177.772 173.077,176.798 170.620,173.552 168.976 C 171.340 167.855,171.063 167.441,170.416 164.296 C 169.847 161.530,168.497 159.784,166.148 158.778 C 163.889 157.809,163.783 157.121,164.376 147.276 C 164.891 138.726,165.469 136.040,167.013 135.029 C 168.631 133.968,171.162 129.682,171.449 127.513 C 171.760 125.171,172.786 123.754,174.434 123.393 C 175.751 123.103,177.196 121.214,177.199 119.778 C 177.201 118.532,179.554 116.540,181.342 116.270 C 183.554 115.936,184.708 115.028,185.187 113.248 C 185.923 110.516,190.419 109.287,197.953 109.759 C 201.642 109.990,206.366 109.674,209.486 108.987 C 210.341 108.799,211.583 105.850,211.037 105.304 C 210.919 105.186,208.342 104.768,205.311 104.376 C 202.280 103.983,198.218 103.288,196.285 102.831 C 193.959 102.281,191.589 102.018,189.285 102.054 L 185.800 102.108 189.400 102.449 M183.600 102.800 C 182.796 103.057,182.757 103.123,183.400 103.132 C 183.840 103.138,184.560 102.989,185.000 102.800 C 186.019 102.362,184.968 102.362,183.600 102.800 M176.306 106.611 C 174.683 108.120,174.657 108.374,176.230 107.343 C 177.046 106.809,178.340 105.170,177.914 105.211 C 177.851 105.217,177.128 105.847,176.306 106.611 M213.360 110.156 C 211.742 110.880,211.371 111.849,212.483 112.445 C 212.953 112.696,213.778 113.425,214.316 114.065 C 215.483 115.451,216.892 116.231,218.917 116.611 C 221.006 117.003,222.306 118.165,222.829 120.107 C 223.672 123.238,227.246 125.794,228.720 124.320 C 229.509 123.531,229.324 118.899,228.446 117.447 C 228.031 116.761,227.556 115.750,227.391 115.200 C 226.196 111.222,217.758 108.189,213.360 110.156 M221.699 111.451 L 222.959 112.103 221.672 113.252 L 220.385 114.402 218.916 113.473 C 216.975 112.244,216.869 111.717,218.473 111.255 C 220.313 110.724,220.291 110.723,221.699 111.451 M167.400 113.850 C 166.681 114.462,166.534 114.705,167.033 114.457 C 167.766 114.093,169.141 112.776,168.749 112.814 C 168.667 112.822,168.060 113.288,167.400 113.850 M164.378 116.300 L 163.000 117.800 164.500 116.422 C 165.896 115.138,166.184 114.800,165.878 114.800 C 165.812 114.800,165.137 115.475,164.378 116.300 M227.414 118.023 C 227.558 118.255,227.558 118.911,227.416 119.480 L 227.156 120.515 226.542 119.639 C 225.922 118.754,226.048 117.600,226.764 117.600 C 226.978 117.600,227.270 117.790,227.414 118.023 M159.578 123.900 L 158.200 125.400 159.700 124.022 C 160.525 123.263,161.200 122.588,161.200 122.522 C 161.200 122.216,160.862 122.504,159.578 123.900 M232.000 127.000 C 232.972 127.990,233.819 128.800,233.883 128.800 C 233.947 128.800,234.000 127.990,234.000 127.000 L 234.000 125.200 232.117 125.200 L 230.233 125.200 232.000 127.000 M226.429 151.745 C 225.994 152.558,226.005 153.012,226.495 154.461 L 227.083 156.200 227.375 154.125 C 227.737 151.560,227.222 150.264,226.429 151.745 M167.566 164.733 C 168.373 166.315,167.968 168.020,166.665 168.520 C 165.787 168.857,165.121 166.121,165.631 164.274 C 166.104 162.559,166.505 162.654,167.566 164.733 M218.649 164.011 C 216.829 165.608,216.816 166.292,218.597 166.626 C 220.783 167.036,221.285 166.672,220.971 164.905 C 220.582 162.717,220.262 162.594,218.649 164.011 M206.440 172.120 C 205.687 172.873,205.950 173.200,207.300 173.194 C 208.301 173.189,210.504 172.434,209.597 172.406 C 209.486 172.403,208.829 172.238,208.138 172.040 C 207.298 171.799,206.735 171.825,206.440 172.120 M173.600 172.600 C 174.021 173.107,173.939 173.200,173.073 173.200 C 172.027 173.200,171.416 172.717,171.878 172.256 C 172.314 171.820,173.079 171.973,173.600 172.600 M179.452 179.500 C 178.126 184.107,178.903 189.344,180.831 188.791 C 184.124 187.847,184.705 186.855,183.798 183.734 C 182.873 180.550,179.965 177.718,179.452 179.500 M217.467 191.962 L 214.776 193.323 215.620 194.222 C 218.044 196.802,221.596 197.037,222.720 194.692 C 223.210 193.670,223.150 193.518,221.699 192.103 L 220.158 190.600 217.467 191.962 M169.600 191.628 C 168.170 192.023,167.372 192.358,167.827 192.373 C 168.282 192.388,169.614 192.115,170.787 191.767 C 176.525 190.063,178.590 193.565,173.994 197.205 C 172.871 198.094,172.395 198.890,171.882 200.734 C 171.085 203.601,169.750 205.293,167.607 206.150 C 166.200 206.713,165.980 206.982,165.751 208.418 C 165.349 210.930,164.602 211.544,161.200 212.156 C 159.550 212.453,156.941 213.245,155.402 213.916 C 151.769 215.500,150.497 214.359,149.770 208.866 L 149.488 206.733 152.056 204.066 C 153.468 202.600,155.035 200.770,155.538 200.000 L 156.453 198.600 155.527 199.751 C 155.017 200.383,153.262 202.203,151.626 203.795 L 148.652 206.688 149.305 210.003 C 149.843 212.736,150.190 213.558,151.276 214.678 C 152.763 216.212,152.925 216.208,157.143 214.525 L 159.687 213.510 166.565 214.373 C 172.433 215.109,173.792 215.165,175.821 214.756 C 179.883 213.936,212.056 213.816,216.680 214.603 C 218.733 214.953,220.584 215.133,220.794 215.004 C 221.004 214.874,222.627 214.602,224.400 214.400 C 228.486 213.934,228.319 214.089,227.913 211.120 C 227.723 209.734,227.572 206.710,227.579 204.400 C 227.590 200.207,227.285 198.853,226.445 199.372 C 226.173 199.541,226.000 201.023,226.000 203.194 L 226.000 206.742 224.500 207.985 C 223.618 208.717,221.847 209.561,220.200 210.035 C 218.660 210.478,216.497 211.192,215.392 211.620 C 212.318 212.814,180.996 212.821,178.657 211.629 C 177.825 211.205,175.981 210.733,174.560 210.581 C 170.103 210.104,167.321 207.516,169.734 206.092 C 171.062 205.309,171.958 203.615,172.572 200.730 C 172.726 200.010,173.346 199.355,174.467 198.730 C 176.183 197.772,177.381 195.993,177.833 193.733 C 178.403 190.885,175.233 190.075,169.600 191.628 M165.123 193.100 C 164.792 193.485,164.391 194.070,164.231 194.400 C 164.071 194.730,164.228 194.640,164.579 194.200 C 164.930 193.760,165.518 193.175,165.885 192.900 C 166.252 192.625,166.366 192.400,166.138 192.400 C 165.910 192.400,165.453 192.715,165.123 193.100 M174.200 213.182 C 174.935 213.482,174.911 213.532,173.897 213.798 C 172.433 214.183,169.630 213.679,170.428 213.174 C 171.124 212.734,173.110 212.738,174.200 213.182 M179.041 239.521 C 177.906 241.716,177.632 252.032,178.681 253.081 C 180.442 254.842,184.881 253.412,185.591 250.857 C 186.262 248.440,186.091 247.656,184.609 246.355 C 183.737 245.589,182.907 244.279,182.382 242.839 C 181.922 241.577,181.132 240.026,180.625 239.391 L 179.705 238.237 179.041 239.521 M180.798 242.787 C 181.023 243.974,181.557 245.539,181.985 246.264 L 182.763 247.583 181.370 249.060 C 179.339 251.213,178.979 250.597,179.088 245.158 C 179.207 239.254,179.936 238.244,180.798 242.787 M171.929 256.704 C 170.771 259.186,168.241 262.400,167.445 262.400 C 167.174 262.400,166.604 262.670,166.176 263.001 C 165.412 263.593,165.412 263.598,166.200 263.363 C 169.026 262.521,170.315 261.295,172.155 257.700 C 172.980 256.088,173.378 256.077,174.827 257.629 C 176.964 259.916,176.434 264.111,173.788 265.845 C 172.640 266.597,171.940 268.339,170.808 273.260 C 169.807 277.612,168.923 279.340,167.194 280.323 C 166.311 280.826,165.849 281.531,165.403 283.058 C 164.269 286.941,161.774 291.806,160.349 292.913 C 159.607 293.489,158.460 295.004,157.800 296.280 C 156.735 298.339,156.297 298.758,153.916 300.000 C 152.219 300.886,150.892 301.911,150.307 302.790 C 149.790 303.566,148.501 304.629,147.391 305.194 C 144.563 306.634,143.227 307.532,141.400 309.221 C 139.181 311.274,135.953 313.399,133.815 314.215 C 132.460 314.733,131.768 315.325,131.014 316.613 C 130.104 318.164,127.468 320.000,126.149 320.000 C 125.502 320.000,123.723 322.117,123.460 323.200 C 123.002 325.080,121.692 326.669,119.905 327.509 C 117.437 328.669,115.600 333.582,115.600 339.024 C 115.600 343.658,112.263 350.398,111.390 347.529 C 111.234 347.018,110.453 345.520,109.653 344.200 L 108.200 341.800 108.000 336.000 L 107.800 330.200 107.285 335.055 C 107.002 337.725,106.619 340.436,106.435 341.079 C 106.108 342.218,108.284 346.296,110.633 348.948 C 111.386 349.798,114.548 349.623,115.492 348.679 C 116.814 347.357,118.355 342.673,117.814 341.619 C 116.423 338.907,116.285 336.206,117.374 332.965 C 117.938 331.284,118.400 329.667,118.400 329.371 C 118.400 329.074,119.131 328.613,120.024 328.346 C 121.995 327.755,123.436 326.136,123.998 323.882 C 124.621 321.383,124.890 321.080,126.944 320.556 C 129.432 319.922,130.591 319.115,131.828 317.156 C 132.534 316.037,133.436 315.278,134.727 314.717 C 135.757 314.270,137.160 313.485,137.845 312.973 C 138.530 312.461,139.573 311.922,140.163 311.774 C 140.752 311.626,141.542 311.045,141.917 310.484 C 143.305 308.411,145.162 306.915,146.981 306.405 C 149.298 305.757,150.609 304.743,151.572 302.856 C 152.183 301.657,152.663 301.296,154.183 300.889 C 156.539 300.259,157.857 298.945,158.484 296.602 C 158.912 295.001,159.197 294.662,160.660 294.015 C 162.435 293.229,163.290 292.022,163.967 289.342 C 164.982 285.322,166.156 282.937,167.684 281.787 C 169.829 280.173,170.363 279.199,171.030 275.678 C 172.034 270.384,172.654 268.954,174.323 268.088 C 177.981 266.191,179.228 255.985,175.943 254.840 C 173.554 254.007,173.086 254.225,171.929 256.704 M161.904 269.644 C 161.301 270.500,160.887 271.200,160.983 271.200 C 161.269 271.200,163.326 268.392,163.156 268.233 C 163.070 268.154,162.507 268.788,161.904 269.644 M158.922 272.229 L 157.800 273.258 159.100 272.354 C 159.815 271.857,160.400 271.393,160.400 271.325 C 160.400 271.009,159.958 271.280,158.922 272.229 M153.363 279.513 C 152.022 280.771,150.691 282.160,150.404 282.600 C 150.118 283.040,150.495 282.747,151.242 281.948 C 151.989 281.149,153.410 279.759,154.400 278.858 C 155.390 277.957,156.110 277.221,156.000 277.223 C 155.890 277.225,154.703 278.256,153.363 279.513 M216.833 281.351 C 216.925 281.434,217.745 281.877,218.656 282.337 L 220.312 283.171 220.501 282.186 C 220.681 281.244,220.600 281.200,218.678 281.200 C 217.572 281.200,216.742 281.268,216.833 281.351 M145.365 287.431 L 143.000 289.663 145.500 287.542 C 146.875 286.376,148.000 285.372,148.000 285.311 C 148.000 285.008,147.544 285.375,145.365 287.431 M225.912 288.623 C 226.786 289.236,227.600 289.117,227.600 288.376 C 227.600 288.169,227.020 288.000,226.311 288.000 C 225.030 288.000,225.027 288.004,225.912 288.623 M141.000 291.450 C 140.281 292.062,140.134 292.305,140.633 292.057 C 141.366 291.693,142.741 290.376,142.349 290.414 C 142.267 290.422,141.660 290.888,141.000 291.450 M233.281 294.741 C 232.867 295.004,232.887 295.174,233.381 295.584 C 233.885 296.003,234.115 296.003,234.619 295.584 C 235.189 295.111,234.820 294.412,234.000 294.412 C 233.890 294.412,233.566 294.560,233.281 294.741 M134.600 296.235 L 133.400 297.266 134.700 296.406 C 135.415 295.933,136.000 295.468,136.000 295.373 C 136.000 295.073,135.831 295.178,134.600 296.235 M126.575 301.700 L 125.400 303.000 126.700 301.825 C 127.912 300.730,128.184 300.400,127.875 300.400 C 127.806 300.400,127.221 300.985,126.575 301.700 M121.192 306.700 L 117.400 310.600 121.300 306.808 C 123.445 304.722,125.200 302.967,125.200 302.908 C 125.200 302.618,124.714 303.078,121.192 306.700 M265.875 306.854 C 264.816 307.012,263.478 307.450,262.900 307.829 L 261.851 308.516 263.025 309.457 C 263.671 309.974,264.830 310.677,265.600 311.018 C 267.082 311.675,267.335 311.813,270.800 313.847 C 274.475 316.005,274.738 316.333,276.208 320.600 C 279.607 330.468,284.541 329.124,282.813 318.800 C 282.060 314.304,281.936 314.099,279.768 313.774 C 277.440 313.425,276.601 312.615,276.242 310.371 C 275.852 307.935,275.071 307.204,272.838 307.183 C 271.827 307.173,270.280 307.031,269.400 306.866 C 268.520 306.702,266.934 306.696,265.875 306.854 M275.057 308.603 C 275.184 308.935,275.167 309.848,275.020 310.633 L 274.752 312.061 273.676 311.377 C 270.564 309.402,269.829 308.672,270.633 308.357 C 272.053 307.800,274.807 307.954,275.057 308.603 M281.752 318.339 C 282.246 324.873,280.895 325.117,279.372 318.768 C 278.453 314.941,278.445 314.967,280.643 314.846 C 281.421 314.804,281.506 315.071,281.752 318.339 M112.426 318.107 C 111.287 319.511,111.242 319.629,112.163 318.800 C 113.120 317.938,114.256 316.386,113.914 316.407 C 113.851 316.411,113.182 317.176,112.426 318.107 M286.804 328.782 C 285.505 329.111,284.133 331.185,283.810 333.309 C 283.669 334.239,283.070 336.400,282.480 338.111 L 281.406 341.223 203.403 341.198 C 125.286 341.172,122.800 341.210,122.800 342.438 C 122.800 343.128,130.433 343.200,203.373 343.200 L 281.445 343.200 282.823 346.048 C 283.720 347.903,284.523 349.018,285.126 349.248 C 289.969 351.090,291.036 347.583,289.241 335.731 C 288.090 328.135,288.193 328.431,286.804 328.782 M288.646 337.500 C 289.143 342.981,288.833 349.200,288.062 349.200 C 287.752 349.200,285.437 344.721,285.017 343.310 C 284.581 341.843,287.052 334.000,287.950 334.000 C 288.158 334.000,288.471 335.575,288.646 337.500 " stroke="none" fill="#5c5454" fill-rule="evenodd"></path></g></svg>