<svg id="svg" version="1.1" xmlns="http://www.w3.org/2000/svg" xmlns:xlink="http://www.w3.org/1999/xlink" width="400" height="400" viewBox="0, 0, 400,400"><g id="svgg"><path id="path0" d="M0.000 24.600 L 0.000 49.200 24.600 49.200 L 49.200 49.200 49.200 24.600 L 49.200 0.000 24.600 0.000 L 0.000 0.000 0.000 24.600 M100.400 24.600 L 100.400 49.200 124.800 49.200 L 149.200 49.200 149.200 24.600 L 149.200 0.000 124.800 0.000 L 100.400 0.000 100.400 24.600 M200.400 24.600 L 200.400 49.200 224.800 49.200 L 249.200 49.200 249.200 24.600 L 249.200 0.000 224.800 0.000 L 200.400 0.000 200.400 24.600 M300.400 24.600 L 300.400 49.200 324.800 49.200 L 349.200 49.200 349.200 24.600 L 349.200 0.000 324.800 0.000 L 300.400 0.000 300.400 24.600 M50.000 74.800 L 50.000 99.600 74.800 99.600 L 99.600 99.600 99.600 74.800 L 99.600 50.000 74.800 50.000 L 50.000 50.000 50.000 74.800 M150.000 74.800 L 150.000 99.600 174.800 99.600 L 199.600 99.600 199.600 74.800 L 199.600 50.000 174.800 50.000 L 150.000 50.000 150.000 74.800 M250.000 74.800 L 250.000 99.600 274.800 99.600 L 299.600 99.600 299.600 74.800 L 299.600 50.000 274.800 50.000 L 250.000 50.000 250.000 74.800 M350.000 74.800 L 350.000 99.600 375.000 99.600 L 400.000 99.600 400.000 74.800 L 400.000 50.000 375.000 50.000 L 350.000 50.000 350.000 74.800 M0.000 124.800 L 0.000 149.200 24.600 149.200 L 49.200 149.200 49.200 124.800 L 49.200 100.400 24.600 100.400 L 0.000 100.400 0.000 124.800 M100.400 124.800 L 100.400 149.200 124.800 149.200 L 149.200 149.200 149.200 124.800 L 149.200 100.400 124.800 100.400 L 100.400 100.400 100.400 124.800 M200.400 124.800 L 200.400 149.200 224.800 149.200 L 249.200 149.200 249.200 124.800 L 249.200 100.400 224.800 100.400 L 200.400 100.400 200.400 124.800 M300.400 124.800 L 300.400 149.200 324.800 149.200 L 349.200 149.200 349.200 124.800 L 349.200 100.400 324.800 100.400 L 300.400 100.400 300.400 124.800 M50.000 174.800 L 50.000 199.600 74.800 199.600 L 99.600 199.600 99.600 174.800 L 99.600 150.000 74.800 150.000 L 50.000 150.000 50.000 174.800 M150.000 174.800 L 150.000 199.600 174.800 199.600 L 199.600 199.600 199.600 174.800 L 199.600 150.000 174.800 150.000 L 150.000 150.000 150.000 174.800 M250.000 174.800 L 250.000 199.600 274.800 199.600 L 299.600 199.600 299.600 174.800 L 299.600 150.000 274.800 150.000 L 250.000 150.000 250.000 174.800 M350.000 174.800 L 350.000 199.600 375.000 199.600 L 400.000 199.600 400.000 174.800 L 400.000 150.000 375.000 150.000 L 350.000 150.000 350.000 174.800 M0.000 224.800 L 0.000 249.200 24.600 249.200 L 49.200 249.200 49.200 224.800 L 49.200 200.400 24.600 200.400 L 0.000 200.400 0.000 224.800 M100.400 224.800 L 100.400 249.200 124.800 249.200 L 149.200 249.200 149.200 224.800 L 149.200 200.400 124.800 200.400 L 100.400 200.400 100.400 224.800 M200.400 224.800 L 200.400 249.200 224.800 249.200 L 249.200 249.200 249.200 224.800 L 249.200 200.400 224.800 200.400 L 200.400 200.400 200.400 224.800 M300.400 224.800 L 300.400 249.200 324.800 249.200 L 349.200 249.200 349.200 224.800 L 349.200 200.400 324.800 200.400 L 300.400 200.400 300.400 224.800 M50.000 274.800 L 50.000 299.600 74.800 299.600 L 99.600 299.600 99.600 274.800 L 99.600 250.000 74.800 250.000 L 50.000 250.000 50.000 274.800 M150.000 274.800 L 150.000 299.600 174.800 299.600 L 199.600 299.600 199.600 274.800 L 199.600 250.000 174.800 250.000 L 150.000 250.000 150.000 274.800 M250.000 274.800 L 250.000 299.600 274.800 299.600 L 299.600 299.600 299.600 274.800 L 299.600 250.000 274.800 250.000 L 250.000 250.000 250.000 274.800 M350.000 274.800 L 350.000 299.600 375.000 299.600 L 400.000 299.600 400.000 274.800 L 400.000 250.000 375.000 250.000 L 350.000 250.000 350.000 274.800 M0.000 324.800 L 0.000 349.200 24.600 349.200 L 49.200 349.200 49.200 324.800 L 49.200 300.400 24.600 300.400 L 0.000 300.400 0.000 324.800 M100.400 324.800 L 100.400 349.200 124.800 349.200 L 149.200 349.200 149.200 324.800 L 149.200 300.400 124.800 300.400 L 100.400 300.400 100.400 324.800 M200.400 324.800 L 200.400 349.200 224.800 349.200 L 249.200 349.200 249.200 324.800 L 249.200 300.400 224.800 300.400 L 200.400 300.400 200.400 324.800 M300.400 324.800 L 300.400 349.200 324.800 349.200 L 349.200 349.200 349.200 324.800 L 349.200 300.400 324.800 300.400 L 300.400 300.400 300.400 324.800 M50.000 375.000 L 50.000 400.000 74.800 400.000 L 99.600 400.000 99.600 375.000 L 99.600 350.000 74.800 350.000 L 50.000 350.000 50.000 375.000 M150.000 375.000 L 150.000 400.000 174.800 400.000 L 199.600 400.000 199.600 375.000 L 199.600 350.000 174.800 350.000 L 150.000 350.000 150.000 375.000 M250.000 375.000 L 250.000 400.000 274.800 400.000 L 299.600 400.000 299.600 375.000 L 299.600 350.000 274.800 350.000 L 250.000 350.000 250.000 375.000 M350.000 375.000 L 350.000 400.000 375.000 400.000 L 400.000 400.000 400.000 375.000 L 400.000 350.000 375.000 350.000 L 350.000 350.000 350.000 375.000 " stroke="none" fill="#ececd4" fill-rule="evenodd"></path><path id="path1" d="M50.000 24.600 L 50.000 49.200 74.800 49.200 L 99.600 49.200 99.600 24.600 L 99.600 0.000 74.800 0.000 L 50.000 0.000 50.000 24.600 M150.000 24.600 L 150.000 49.200 174.800 49.200 L 199.600 49.200 199.600 24.600 L 199.600 0.000 174.800 0.000 L 150.000 0.000 150.000 24.600 M250.000 24.600 L 250.000 49.200 274.800 49.200 L 299.600 49.200 299.600 24.600 L 299.600 0.000 274.800 0.000 L 250.000 0.000 250.000 24.600 M350.000 24.600 L 350.000 49.200 375.000 49.200 L 400.000 49.200 400.000 24.600 L 400.000 0.000 375.000 0.000 L 350.000 0.000 350.000 24.600 M0.000 74.800 L 0.000 99.600 24.600 99.600 L 49.200 99.600 49.200 74.800 L 49.200 50.000 24.600 50.000 L 0.000 50.000 0.000 74.800 M100.400 74.800 L 100.400 99.600 124.800 99.600 L 149.200 99.600 149.200 74.800 L 149.200 50.000 124.800 50.000 L 100.400 50.000 100.400 74.800 M200.400 74.800 L 200.400 99.600 224.800 99.600 L 249.200 99.600 249.200 74.800 L 249.200 50.000 224.800 50.000 L 200.400 50.000 200.400 74.800 M300.400 74.800 L 300.400 99.600 324.800 99.600 L 349.200 99.600 349.200 74.800 L 349.200 50.000 324.800 50.000 L 300.400 50.000 300.400 74.800 M50.000 124.800 L 50.000 149.200 74.800 149.200 L 99.600 149.200 99.600 124.800 L 99.600 100.400 74.800 100.400 L 50.000 100.400 50.000 124.800 M150.000 124.800 L 150.000 149.200 174.800 149.200 L 199.600 149.200 199.600 124.800 L 199.600 100.400 174.800 100.400 L 150.000 100.400 150.000 124.800 M250.000 124.800 L 250.000 149.200 274.800 149.200 L 299.600 149.200 299.600 124.800 L 299.600 100.400 274.800 100.400 L 250.000 100.400 250.000 124.800 M350.000 124.800 L 350.000 149.200 375.000 149.200 L 400.000 149.200 400.000 124.800 L 400.000 100.400 375.000 100.400 L 350.000 100.400 350.000 124.800 M0.000 174.800 L 0.000 199.600 24.600 199.600 L 49.200 199.600 49.200 174.800 L 49.200 150.000 24.600 150.000 L 0.000 150.000 0.000 174.800 M100.400 174.800 L 100.400 199.600 124.800 199.600 L 149.200 199.600 149.200 174.800 L 149.200 150.000 124.800 150.000 L 100.400 150.000 100.400 174.800 M200.400 174.800 L 200.400 199.600 224.800 199.600 L 249.200 199.600 249.200 174.800 L 249.200 150.000 224.800 150.000 L 200.400 150.000 200.400 174.800 M300.400 174.800 L 300.400 199.600 324.800 199.600 L 349.200 199.600 349.200 174.800 L 349.200 150.000 324.800 150.000 L 300.400 150.000 300.400 174.800 M50.000 224.800 L 50.000 249.200 74.800 249.200 L 99.600 249.200 99.600 224.800 L 99.600 200.400 74.800 200.400 L 50.000 200.400 50.000 224.800 M150.000 224.800 L 150.000 249.200 174.800 249.200 L 199.600 249.200 199.600 224.800 L 199.600 200.400 174.800 200.400 L 150.000 200.400 150.000 224.800 M250.000 224.800 L 250.000 249.200 274.800 249.200 L 299.600 249.200 299.600 224.800 L 299.600 200.400 274.800 200.400 L 250.000 200.400 250.000 224.800 M350.000 224.800 L 350.000 249.200 375.000 249.200 L 400.000 249.200 400.000 224.800 L 400.000 200.400 375.000 200.400 L 350.000 200.400 350.000 224.800 M0.000 274.800 L 0.000 299.600 24.600 299.600 L 49.200 299.600 49.200 274.800 L 49.200 250.000 24.600 250.000 L 0.000 250.000 0.000 274.800 M100.400 274.800 L 100.400 299.600 124.800 299.600 L 149.200 299.600 149.200 274.800 L 149.200 250.000 124.800 250.000 L 100.400 250.000 100.400 274.800 M200.400 274.800 L 200.400 299.600 224.800 299.600 L 249.200 299.600 249.200 274.800 L 249.200 250.000 224.800 250.000 L 200.400 250.000 200.400 274.800 M300.400 274.800 L 300.400 299.600 324.800 299.600 L 349.200 299.600 349.200 274.800 L 349.200 250.000 324.800 250.000 L 300.400 250.000 300.400 274.800 M50.000 324.800 L 50.000 349.200 74.800 349.200 L 99.600 349.200 99.600 324.800 L 99.600 300.400 74.800 300.400 L 50.000 300.400 50.000 324.800 M150.000 324.800 L 150.000 349.200 174.800 349.200 L 199.600 349.200 199.600 324.800 L 199.600 300.400 174.800 300.400 L 150.000 300.400 150.000 324.800 M250.000 324.800 L 250.000 349.200 274.800 349.200 L 299.600 349.200 299.600 324.800 L 299.600 300.400 274.800 300.400 L 250.000 300.400 250.000 324.800 M350.000 324.800 L 350.000 349.200 375.000 349.200 L 400.000 349.200 400.000 324.800 L 400.000 300.400 375.000 300.400 L 350.000 300.400 350.000 324.800 M0.000 375.000 L 0.000 400.000 24.600 400.000 L 49.200 400.000 49.200 375.000 L 49.200 350.000 24.600 350.000 L 0.000 350.000 0.000 375.000 M100.400 375.000 L 100.400 400.000 124.800 400.000 L 149.200 400.000 149.200 375.000 L 149.200 350.000 124.800 350.000 L 100.400 350.000 100.400 375.000 M200.400 375.000 L 200.400 400.000 224.800 400.000 L 249.200 400.000 249.200 375.000 L 249.200 350.000 224.800 350.000 L 200.400 350.000 200.400 375.000 M300.400 375.000 L 300.400 400.000 324.800 400.000 L 349.200 400.000 349.200 375.000 L 349.200 350.000 324.800 350.000 L 300.400 350.000 300.400 375.000 " stroke="none" fill="#749454" fill-rule="evenodd"></path><path id="path2" d="M49.297 24.497 L 49.200 49.194 24.500 49.300 L -0.200 49.406 24.513 49.503 C 43.986 49.579,49.266 49.494,49.416 49.100 C 49.521 48.825,49.559 37.620,49.501 24.200 L 49.394 -0.200 49.297 24.497 M100.195 24.600 L 100.200 49.400 124.800 49.400 L 149.400 49.400 149.405 24.600 L 149.409 -0.200 149.302 24.500 L 149.194 49.200 124.800 49.200 L 100.406 49.200 100.298 24.500 L 100.191 -0.200 100.195 24.600 M200.195 24.600 L 200.200 49.400 224.800 49.400 L 249.400 49.400 249.405 24.600 L 249.409 -0.200 249.302 24.500 L 249.194 49.200 224.800 49.200 L 200.406 49.200 200.298 24.500 L 200.191 -0.200 200.195 24.600 M300.195 24.600 L 300.200 49.400 324.800 49.400 L 349.400 49.400 349.405 24.600 L 349.409 -0.200 349.302 24.500 L 349.194 49.200 324.800 49.200 L 300.406 49.200 300.298 24.500 L 300.191 -0.200 300.195 24.600 M49.785 50.097 C 49.679 50.374,49.639 61.670,49.696 75.200 L 49.800 99.800 74.800 99.800 L 99.800 99.800 99.800 74.800 L 99.800 49.800 74.889 49.697 C 55.172 49.615,49.937 49.699,49.785 50.097 M149.785 50.097 C 149.679 50.374,149.639 61.670,149.696 75.200 L 149.800 99.800 174.800 99.800 L 199.800 99.800 199.800 74.800 L 199.800 49.800 174.889 49.697 C 155.172 49.615,149.937 49.699,149.785 50.097 M249.785 50.097 C 249.679 50.374,249.639 61.670,249.696 75.200 L 249.800 99.800 274.800 99.800 L 299.800 99.800 299.800 74.800 L 299.800 49.800 274.889 49.697 C 255.172 49.615,249.937 49.699,249.785 50.097 M349.784 50.100 C 349.679 50.375,349.639 61.670,349.696 75.200 L 349.800 99.800 374.900 99.805 L 400.000 99.809 375.000 99.702 L 350.000 99.594 350.000 74.800 L 350.000 50.006 375.100 49.900 L 400.200 49.794 375.087 49.697 C 355.294 49.621,349.934 49.706,349.784 50.100 M99.600 74.800 L 99.600 99.600 74.800 99.600 L 50.000 99.600 50.000 74.800 L 50.000 50.000 74.800 50.000 L 99.600 50.000 99.600 74.800 M199.600 74.800 L 199.600 99.600 174.800 99.600 L 150.000 99.600 150.000 74.800 L 150.000 50.000 174.800 50.000 L 199.600 50.000 199.600 74.800 M299.600 74.800 L 299.600 99.600 274.800 99.600 L 250.000 99.600 250.000 74.800 L 250.000 50.000 274.800 50.000 L 299.600 50.000 299.600 74.800 M24.500 100.298 L 49.200 100.406 49.200 124.800 L 49.200 149.194 24.500 149.302 L -0.200 149.409 24.600 149.405 L 49.400 149.400 49.400 124.800 L 49.400 100.200 24.600 100.195 L -0.200 100.191 24.500 100.298 M100.185 100.497 C 100.079 100.774,100.039 111.890,100.096 125.200 L 100.200 149.400 124.800 149.400 L 149.400 149.400 149.400 124.800 L 149.400 100.200 124.889 100.097 C 105.492 100.015,100.337 100.099,100.185 100.497 M200.185 100.497 C 200.079 100.774,200.039 111.890,200.096 125.200 L 200.200 149.400 224.800 149.400 L 249.400 149.400 249.400 124.800 L 249.400 100.200 224.889 100.097 C 205.492 100.015,200.337 100.099,200.185 100.497 M300.185 100.497 C 300.079 100.774,300.039 111.890,300.096 125.200 L 300.200 149.400 324.800 149.400 L 349.400 149.400 349.400 124.800 L 349.400 100.200 324.889 100.097 C 305.492 100.015,300.337 100.099,300.185 100.497 M149.200 124.800 L 149.200 149.200 124.800 149.200 L 100.400 149.200 100.400 124.800 L 100.400 100.400 124.800 100.400 L 149.200 100.400 149.200 124.800 M249.200 124.800 L 249.200 149.200 224.800 149.200 L 200.400 149.200 200.400 124.800 L 200.400 100.400 224.800 100.400 L 249.200 100.400 249.200 124.800 M349.200 124.800 L 349.200 149.200 324.800 149.200 L 300.400 149.200 300.400 124.800 L 300.400 100.400 324.800 100.400 L 349.200 100.400 349.200 124.800 M49.785 150.097 C 49.679 150.374,49.639 161.670,49.696 175.200 L 49.800 199.800 74.800 199.800 L 99.800 199.800 99.800 174.800 L 99.800 149.800 74.889 149.697 C 55.172 149.615,49.937 149.699,49.785 150.097 M149.785 150.097 C 149.679 150.374,149.639 161.670,149.696 175.200 L 149.800 199.800 174.800 199.800 L 199.800 199.800 199.800 174.800 L 199.800 149.800 174.889 149.697 C 155.172 149.615,149.937 149.699,149.785 150.097 M249.785 150.097 C 249.679 150.374,249.639 161.670,249.696 175.200 L 249.800 199.800 274.800 199.800 L 299.800 199.800 299.800 174.800 L 299.800 149.800 274.889 149.697 C 255.172 149.615,249.937 149.699,249.785 150.097 M349.784 150.100 C 349.679 150.375,349.639 161.670,349.696 175.200 L 349.800 199.800 374.900 199.805 L 400.000 199.809 375.000 199.702 L 350.000 199.594 350.000 174.800 L 350.000 150.006 375.100 149.900 L 400.200 149.794 375.087 149.697 C 355.294 149.621,349.934 149.706,349.784 150.100 M99.600 174.800 L 99.600 199.600 74.800 199.600 L 50.000 199.600 50.000 174.800 L 50.000 150.000 74.800 150.000 L 99.600 150.000 99.600 174.800 M199.600 174.800 L 199.600 199.600 174.800 199.600 L 150.000 199.600 150.000 174.800 L 150.000 150.000 174.800 150.000 L 199.600 150.000 199.600 174.800 M299.600 174.800 L 299.600 199.600 274.800 199.600 L 250.000 199.600 250.000 174.800 L 250.000 150.000 274.800 150.000 L 299.600 150.000 299.600 174.800 M24.500 200.298 L 49.200 200.406 49.200 224.800 L 49.200 249.194 24.500 249.302 L -0.200 249.409 24.600 249.405 L 49.400 249.400 49.400 224.800 L 49.400 200.200 24.600 200.195 L -0.200 200.191 24.500 200.298 M100.185 200.497 C 100.079 200.774,100.039 211.890,100.096 225.200 L 100.200 249.400 124.800 249.400 L 149.400 249.400 149.400 224.800 L 149.400 200.200 124.889 200.097 C 105.492 200.015,100.337 200.099,100.185 200.497 M200.185 200.497 C 200.079 200.774,200.039 211.890,200.096 225.200 L 200.200 249.400 224.800 249.400 L 249.400 249.400 249.400 224.800 L 249.400 200.200 224.889 200.097 C 205.492 200.015,200.337 200.099,200.185 200.497 M300.185 200.497 C 300.079 200.774,300.039 211.890,300.096 225.200 L 300.200 249.400 324.800 249.400 L 349.400 249.400 349.400 224.800 L 349.400 200.200 324.889 200.097 C 305.492 200.015,300.337 200.099,300.185 200.497 M149.200 224.800 L 149.200 249.200 124.800 249.200 L 100.400 249.200 100.400 224.800 L 100.400 200.400 124.800 200.400 L 149.200 200.400 149.200 224.800 M249.200 224.800 L 249.200 249.200 224.800 249.200 L 200.400 249.200 200.400 224.800 L 200.400 200.400 224.800 200.400 L 249.200 200.400 249.200 224.800 M349.200 224.800 L 349.200 249.200 324.800 249.200 L 300.400 249.200 300.400 224.800 L 300.400 200.400 324.800 200.400 L 349.200 200.400 349.200 224.800 M49.785 250.097 C 49.679 250.374,49.639 261.670,49.696 275.200 L 49.800 299.800 74.800 299.800 L 99.800 299.800 99.800 274.800 L 99.800 249.800 74.889 249.697 C 55.172 249.615,49.937 249.699,49.785 250.097 M149.785 250.097 C 149.679 250.374,149.639 261.670,149.696 275.200 L 149.800 299.800 174.800 299.800 L 199.800 299.800 199.800 274.800 L 199.800 249.800 174.889 249.697 C 155.172 249.615,149.937 249.699,149.785 250.097 M249.785 250.097 C 249.679 250.374,249.639 261.670,249.696 275.200 L 249.800 299.800 274.800 299.800 L 299.800 299.800 299.800 274.800 L 299.800 249.800 274.889 249.697 C 255.172 249.615,249.937 249.699,249.785 250.097 M349.784 250.100 C 349.679 250.375,349.639 261.670,349.696 275.200 L 349.800 299.800 374.900 299.805 L 400.000 299.809 375.000 299.702 L 350.000 299.594 350.000 274.800 L 350.000 250.006 375.100 249.900 L 400.200 249.794 375.087 249.697 C 355.294 249.621,349.934 249.706,349.784 250.100 M99.600 274.800 L 99.600 299.600 74.800 299.600 L 50.000 299.600 50.000 274.800 L 50.000 250.000 74.800 250.000 L 99.600 250.000 99.600 274.800 M199.600 274.800 L 199.600 299.600 174.800 299.600 L 150.000 299.600 150.000 274.800 L 150.000 250.000 174.800 250.000 L 199.600 250.000 199.600 274.800 M299.600 274.800 L 299.600 299.600 274.800 299.600 L 250.000 299.600 250.000 274.800 L 250.000 250.000 274.800 250.000 L 299.600 250.000 299.600 274.800 M24.500 300.298 L 49.200 300.406 49.200 324.800 L 49.200 349.194 24.500 349.302 L -0.200 349.409 24.600 349.405 L 49.400 349.400 49.400 324.800 L 49.400 300.200 24.600 300.195 L -0.200 300.191 24.500 300.298 M100.185 300.497 C 100.079 300.774,100.039 311.890,100.096 325.200 L 100.200 349.400 124.800 349.400 L 149.400 349.400 149.400 324.800 L 149.400 300.200 124.889 300.097 C 105.492 300.015,100.337 300.099,100.185 300.497 M200.185 300.497 C 200.079 300.774,200.039 311.890,200.096 325.200 L 200.200 349.400 224.800 349.400 L 249.400 349.400 249.400 324.800 L 249.400 300.200 224.889 300.097 C 205.492 300.015,200.337 300.099,200.185 300.497 M300.185 300.497 C 300.079 300.774,300.039 311.890,300.096 325.200 L 300.200 349.400 324.800 349.400 L 349.400 349.400 349.400 324.800 L 349.400 300.200 324.889 300.097 C 305.492 300.015,300.337 300.099,300.185 300.497 M149.200 324.800 L 149.200 349.200 124.800 349.200 L 100.400 349.200 100.400 324.800 L 100.400 300.400 124.800 300.400 L 149.200 300.400 149.200 324.800 M249.200 324.800 L 249.200 349.200 224.800 349.200 L 200.400 349.200 200.400 324.800 L 200.400 300.400 224.800 300.400 L 249.200 300.400 249.200 324.800 M349.200 324.800 L 349.200 349.200 324.800 349.200 L 300.400 349.200 300.400 324.800 L 300.400 300.400 324.800 300.400 L 349.200 300.400 349.200 324.800 M49.785 350.097 C 49.679 350.374,49.641 361.760,49.699 375.400 L 49.806 400.200 49.903 375.100 L 50.000 350.000 74.797 350.000 L 99.594 350.000 99.702 375.000 L 99.809 400.000 99.805 374.900 L 99.800 349.800 74.889 349.697 C 55.172 349.615,49.937 349.699,49.785 350.097 M149.785 350.097 C 149.679 350.374,149.641 361.760,149.699 375.400 L 149.806 400.200 149.903 375.100 L 150.000 350.000 174.797 350.000 L 199.594 350.000 199.702 375.000 L 199.809 400.000 199.805 374.900 L 199.800 349.800 174.889 349.697 C 155.172 349.615,149.937 349.699,149.785 350.097 M249.785 350.097 C 249.679 350.374,249.641 361.760,249.699 375.400 L 249.806 400.200 249.903 375.100 L 250.000 350.000 274.797 350.000 L 299.594 350.000 299.702 375.000 L 299.809 400.000 299.805 374.900 L 299.800 349.800 274.889 349.697 C 255.172 349.615,249.937 349.699,249.785 350.097 M349.784 350.100 C 349.679 350.375,349.641 361.760,349.699 375.400 L 349.806 400.200 349.903 375.103 L 350.000 350.006 375.100 349.900 L 400.200 349.794 375.087 349.697 C 355.294 349.621,349.934 349.706,349.784 350.100 " stroke="none" fill="#f0c0b8" fill-rule="evenodd"></path><path id="path3" d="M49.598 24.600 L 49.400 49.400 24.600 49.605 L -0.200 49.809 24.500 49.905 L 49.200 50.000 49.200 74.800 L 49.200 99.600 24.500 99.695 L -0.200 99.791 24.600 99.995 L 49.400 100.200 49.400 124.800 L 49.400 149.400 24.600 149.605 L -0.200 149.809 24.500 149.905 L 49.200 150.000 49.200 174.800 L 49.200 199.600 24.500 199.695 L -0.200 199.791 24.600 199.995 L 49.400 200.200 49.400 224.800 L 49.400 249.400 24.600 249.605 L -0.200 249.809 24.500 249.905 L 49.200 250.000 49.200 274.800 L 49.200 299.600 24.500 299.695 L -0.200 299.791 24.600 299.995 L 49.400 300.200 49.400 324.800 L 49.400 349.400 24.600 349.605 L -0.200 349.809 24.500 349.905 L 49.200 350.000 49.295 375.100 L 49.391 400.200 49.595 375.000 L 49.800 349.800 74.800 349.800 L 99.800 349.800 100.005 375.000 L 100.209 400.200 100.305 375.100 L 100.400 350.000 124.800 350.000 L 149.200 350.000 149.295 375.100 L 149.391 400.200 149.595 375.000 L 149.800 349.800 174.800 349.800 L 199.800 349.800 200.005 375.000 L 200.209 400.200 200.305 375.100 L 200.400 350.000 224.800 350.000 L 249.200 350.000 249.295 375.100 L 249.391 400.200 249.595 375.000 L 249.800 349.800 274.800 349.800 L 299.800 349.800 300.005 375.000 L 300.209 400.200 300.305 375.100 L 300.400 350.000 324.800 350.000 L 349.200 350.000 349.295 375.100 L 349.391 400.200 349.595 375.000 L 349.800 349.800 375.000 349.595 L 400.200 349.391 375.100 349.295 L 350.000 349.200 350.000 324.800 L 350.000 300.400 375.100 300.305 L 400.200 300.209 375.000 300.005 L 349.800 299.800 349.800 274.800 L 349.800 249.800 375.000 249.595 L 400.200 249.391 375.100 249.295 L 350.000 249.200 350.000 224.800 L 350.000 200.400 375.100 200.305 L 400.200 200.209 375.000 200.005 L 349.800 199.800 349.800 174.800 L 349.800 149.800 375.000 149.595 L 400.200 149.391 375.100 149.295 L 350.000 149.200 350.000 124.800 L 350.000 100.400 375.100 100.305 L 400.200 100.209 375.000 100.005 L 349.800 99.800 349.800 74.800 L 349.800 49.800 375.000 49.595 L 400.200 49.391 375.100 49.295 L 350.000 49.200 349.905 24.500 L 349.809 -0.200 349.605 24.600 L 349.400 49.400 324.800 49.400 L 300.200 49.400 299.995 24.600 L 299.791 -0.200 299.695 24.500 L 299.600 49.200 274.800 49.200 L 250.000 49.200 249.905 24.500 L 249.809 -0.200 249.605 24.600 L 249.400 49.400 224.800 49.400 L 200.200 49.400 199.995 24.600 L 199.791 -0.200 199.695 24.500 L 199.600 49.200 174.800 49.200 L 150.000 49.200 149.905 24.500 L 149.809 -0.200 149.605 24.600 L 149.400 49.400 124.800 49.400 L 100.200 49.400 99.995 24.600 L 99.791 -0.200 99.695 24.500 L 99.600 49.200 74.803 49.200 L 50.006 49.200 49.901 24.500 L 49.797 -0.200 49.598 24.600 M99.800 74.800 L 99.800 99.800 74.800 99.800 L 49.800 99.800 49.696 75.200 C 49.639 61.670,49.679 50.374,49.785 50.097 C 49.937 49.699,55.172 49.615,74.889 49.697 L 99.800 49.800 99.800 74.800 M199.800 74.800 L 199.800 99.800 174.800 99.800 L 149.800 99.800 149.696 75.200 C 149.639 61.670,149.679 50.374,149.785 50.097 C 149.937 49.699,155.172 49.615,174.889 49.697 L 199.800 49.800 199.800 74.800 M299.800 74.800 L 299.800 99.800 274.800 99.800 L 249.800 99.800 249.696 75.200 C 249.639 61.670,249.679 50.374,249.785 50.097 C 249.937 49.699,255.172 49.615,274.889 49.697 L 299.800 49.800 299.800 74.800 M149.200 74.800 L 149.200 99.600 124.800 99.600 L 100.400 99.600 100.400 74.800 L 100.400 50.000 124.800 50.000 L 149.200 50.000 149.200 74.800 M249.200 74.800 L 249.200 99.600 224.800 99.600 L 200.400 99.600 200.400 74.800 L 200.400 50.000 224.800 50.000 L 249.200 50.000 249.200 74.800 M349.200 74.800 L 349.200 99.600 324.800 99.600 L 300.400 99.600 300.400 74.800 L 300.400 50.000 324.800 50.000 L 349.200 50.000 349.200 74.800 M149.400 124.800 L 149.400 149.400 124.800 149.400 L 100.200 149.400 100.096 125.200 C 100.039 111.890,100.079 100.774,100.185 100.497 C 100.337 100.099,105.492 100.015,124.889 100.097 L 149.400 100.200 149.400 124.800 M249.400 124.800 L 249.400 149.400 224.800 149.400 L 200.200 149.400 200.096 125.200 C 200.039 111.890,200.079 100.774,200.185 100.497 C 200.337 100.099,205.492 100.015,224.889 100.097 L 249.400 100.200 249.400 124.800 M349.400 124.800 L 349.400 149.400 324.800 149.400 L 300.200 149.400 300.096 125.200 C 300.039 111.890,300.079 100.774,300.185 100.497 C 300.337 100.099,305.492 100.015,324.889 100.097 L 349.400 100.200 349.400 124.800 M99.600 124.800 L 99.600 149.200 74.800 149.200 L 50.000 149.200 50.000 124.800 L 50.000 100.400 74.800 100.400 L 99.600 100.400 99.600 124.800 M199.600 124.800 L 199.600 149.200 174.800 149.200 L 150.000 149.200 150.000 124.800 L 150.000 100.400 174.800 100.400 L 199.600 100.400 199.600 124.800 M299.600 124.800 L 299.600 149.200 274.800 149.200 L 250.000 149.200 250.000 124.800 L 250.000 100.400 274.800 100.400 L 299.600 100.400 299.600 124.800 M99.800 174.800 L 99.800 199.800 74.800 199.800 L 49.800 199.800 49.696 175.200 C 49.639 161.670,49.679 150.374,49.785 150.097 C 49.937 149.699,55.172 149.615,74.889 149.697 L 99.800 149.800 99.800 174.800 M199.800 174.800 L 199.800 199.800 174.800 199.800 L 149.800 199.800 149.696 175.200 C 149.639 161.670,149.679 150.374,149.785 150.097 C 149.937 149.699,155.172 149.615,174.889 149.697 L 199.800 149.800 199.800 174.800 M299.800 174.800 L 299.800 199.800 274.800 199.800 L 249.800 199.800 249.696 175.200 C 249.639 161.670,249.679 150.374,249.785 150.097 C 249.937 149.699,255.172 149.615,274.889 149.697 L 299.800 149.800 299.800 174.800 M149.200 174.800 L 149.200 199.600 124.800 199.600 L 100.400 199.600 100.400 174.800 L 100.400 150.000 124.800 150.000 L 149.200 150.000 149.200 174.800 M249.200 174.800 L 249.200 199.600 224.800 199.600 L 200.400 199.600 200.400 174.800 L 200.400 150.000 224.800 150.000 L 249.200 150.000 249.200 174.800 M349.200 174.800 L 349.200 199.600 324.800 199.600 L 300.400 199.600 300.400 174.800 L 300.400 150.000 324.800 150.000 L 349.200 150.000 349.200 174.800 M149.400 224.800 L 149.400 249.400 124.800 249.400 L 100.200 249.400 100.096 225.200 C 100.039 211.890,100.079 200.774,100.185 200.497 C 100.337 200.099,105.492 200.015,124.889 200.097 L 149.400 200.200 149.400 224.800 M249.400 224.800 L 249.400 249.400 224.800 249.400 L 200.200 249.400 200.096 225.200 C 200.039 211.890,200.079 200.774,200.185 200.497 C 200.337 200.099,205.492 200.015,224.889 200.097 L 249.400 200.200 249.400 224.800 M349.400 224.800 L 349.400 249.400 324.800 249.400 L 300.200 249.400 300.096 225.200 C 300.039 211.890,300.079 200.774,300.185 200.497 C 300.337 200.099,305.492 200.015,324.889 200.097 L 349.400 200.200 349.400 224.800 M99.600 224.800 L 99.600 249.200 74.800 249.200 L 50.000 249.200 50.000 224.800 L 50.000 200.400 74.800 200.400 L 99.600 200.400 99.600 224.800 M199.600 224.800 L 199.600 249.200 174.800 249.200 L 150.000 249.200 150.000 224.800 L 150.000 200.400 174.800 200.400 L 199.600 200.400 199.600 224.800 M299.600 224.800 L 299.600 249.200 274.800 249.200 L 250.000 249.200 250.000 224.800 L 250.000 200.400 274.800 200.400 L 299.600 200.400 299.600 224.800 M99.800 274.800 L 99.800 299.800 74.800 299.800 L 49.800 299.800 49.696 275.200 C 49.639 261.670,49.679 250.374,49.785 250.097 C 49.937 249.699,55.172 249.615,74.889 249.697 L 99.800 249.800 99.800 274.800 M199.800 274.800 L 199.800 299.800 174.800 299.800 L 149.800 299.800 149.696 275.200 C 149.639 261.670,149.679 250.374,149.785 250.097 C 149.937 249.699,155.172 249.615,174.889 249.697 L 199.800 249.800 199.800 274.800 M299.800 274.800 L 299.800 299.800 274.800 299.800 L 249.800 299.800 249.696 275.200 C 249.639 261.670,249.679 250.374,249.785 250.097 C 249.937 249.699,255.172 249.615,274.889 249.697 L 299.800 249.800 299.800 274.800 M149.200 274.800 L 149.200 299.600 124.800 299.600 L 100.400 299.600 100.400 274.800 L 100.400 250.000 124.800 250.000 L 149.200 250.000 149.200 274.800 M249.200 274.800 L 249.200 299.600 224.800 299.600 L 200.400 299.600 200.400 274.800 L 200.400 250.000 224.800 250.000 L 249.200 250.000 249.200 274.800 M349.200 274.800 L 349.200 299.600 324.800 299.600 L 300.400 299.600 300.400 274.800 L 300.400 250.000 324.800 250.000 L 349.200 250.000 349.200 274.800 M149.400 324.800 L 149.400 349.400 124.800 349.400 L 100.200 349.400 100.096 325.200 C 100.039 311.890,100.079 300.774,100.185 300.497 C 100.337 300.099,105.492 300.015,124.889 300.097 L 149.400 300.200 149.400 324.800 M249.400 324.800 L 249.400 349.400 224.800 349.400 L 200.200 349.400 200.096 325.200 C 200.039 311.890,200.079 300.774,200.185 300.497 C 200.337 300.099,205.492 300.015,224.889 300.097 L 249.400 300.200 249.400 324.800 M349.400 324.800 L 349.400 349.400 324.800 349.400 L 300.200 349.400 300.096 325.200 C 300.039 311.890,300.079 300.774,300.185 300.497 C 300.337 300.099,305.492 300.015,324.889 300.097 L 349.400 300.200 349.400 324.800 M99.600 324.800 L 99.600 349.200 74.800 349.200 L 50.000 349.200 50.000 324.800 L 50.000 300.400 74.800 300.400 L 99.600 300.400 99.600 324.800 M199.600 324.800 L 199.600 349.200 174.800 349.200 L 150.000 349.200 150.000 324.800 L 150.000 300.400 174.800 300.400 L 199.600 300.400 199.600 324.800 M299.600 324.800 L 299.600 349.200 274.800 349.200 L 250.000 349.200 250.000 324.800 L 250.000 300.400 274.800 300.400 L 299.600 300.400 299.600 324.800 " stroke="none" fill="#b4c074" fill-rule="evenodd"></path><path id="path4" d="" stroke="none" fill="#74c474" fill-rule="evenodd"></path></g></svg>