<svg id="svg" version="1.1" xmlns="http://www.w3.org/2000/svg" xmlns:xlink="http://www.w3.org/1999/xlink" width="400" height="400" viewBox="0, 0, 400,400"><g id="svgg"><path id="path0" d="M190.504 39.309 C 183.960 41.108,183.060 43.323,184.130 55.000 C 184.458 58.586,184.454 58.611,183.072 61.446 C 180.665 66.378,180.219 66.524,170.584 65.548 C 164.524 64.933,159.953 66.346,157.814 69.494 L 156.800 70.986 156.800 81.106 C 156.800 94.451,157.063 95.107,162.752 95.993 C 166.192 96.528,167.724 96.378,171.176 95.169 C 175.312 93.721,182.541 94.826,184.552 97.215 C 186.066 99.015,186.354 103.904,185.208 108.378 C 184.732 110.236,183.830 114.286,183.203 117.378 C 180.549 130.457,179.018 133.563,174.615 134.796 C 172.543 135.376,170.128 134.719,168.084 133.020 C 166.278 131.518,156.983 128.766,149.118 127.405 C 147.203 127.073,144.683 126.449,143.518 126.018 C 131.405 121.534,102.320 121.049,96.493 125.234 C 95.546 125.914,93.754 126.828,92.512 127.265 C 88.062 128.829,85.338 130.304,82.926 132.456 C 81.578 133.658,79.487 135.173,78.279 135.821 C 76.725 136.655,75.557 137.714,74.287 139.439 C 73.299 140.781,71.852 142.274,71.070 142.757 C 70.194 143.298,69.114 144.585,68.252 146.117 C 67.484 147.483,65.922 149.752,64.781 151.160 C 62.375 154.129,61.145 156.441,60.183 159.800 C 59.805 161.120,58.777 163.635,57.899 165.389 C 54.723 171.730,53.899 176.878,53.866 190.600 C 53.837 202.327,55.112 209.030,58.257 213.670 C 59.051 214.841,60.414 217.286,61.286 219.102 C 62.444 221.515,63.357 222.803,64.676 223.883 C 65.668 224.697,67.214 226.451,68.110 227.781 C 69.006 229.111,71.070 231.623,72.697 233.363 C 74.324 235.102,76.142 237.378,76.737 238.419 C 77.332 239.461,78.756 241.054,79.900 241.959 C 81.045 242.864,82.579 244.491,83.310 245.576 C 84.040 246.661,85.519 248.156,86.596 248.898 C 87.672 249.640,89.197 251.182,89.983 252.324 C 90.770 253.467,92.358 255.038,93.512 255.815 C 94.733 256.637,96.218 258.143,97.062 259.414 C 97.860 260.616,98.667 261.600,98.855 261.600 C 99.632 261.600,102.530 264.682,103.437 266.473 C 104.021 267.626,105.011 268.781,105.906 269.354 C 107.802 270.566,109.181 272.095,110.551 274.500 C 111.147 275.545,111.792 276.400,111.986 276.400 C 112.912 276.400,114.762 278.608,116.137 281.352 C 119.626 288.317,126.307 291.084,131.208 287.594 C 135.966 284.206,202.944 282.181,240.800 284.280 C 258.010 285.234,260.649 285.135,264.200 283.403 C 267.921 281.588,270.763 279.027,272.111 276.275 C 272.887 274.689,273.840 273.569,275.467 272.330 C 276.716 271.379,278.306 269.790,278.999 268.800 C 279.693 267.810,280.877 266.608,281.631 266.128 C 284.094 264.561,285.707 263.041,286.225 261.802 C 286.808 260.406,287.572 259.711,289.728 258.619 C 290.769 258.091,291.666 257.142,292.545 255.637 C 293.436 254.113,294.561 252.929,296.179 251.815 C 297.469 250.927,298.841 249.601,299.229 248.868 C 300.214 247.006,301.168 246.033,302.850 245.175 C 304.383 244.392,305.752 242.922,306.888 240.839 C 307.267 240.144,308.164 239.267,308.882 238.888 C 310.465 238.054,312.713 235.815,313.800 233.991 C 314.240 233.252,315.579 232.075,316.775 231.375 C 318.330 230.465,319.266 229.551,320.059 228.165 C 320.969 226.577,321.622 226.008,323.677 225.014 C 325.923 223.927,326.299 223.566,327.268 221.569 C 327.930 220.203,329.057 218.758,330.173 217.844 C 333.132 215.419,337.277 205.020,338.879 196.000 C 340.569 186.485,338.161 162.509,335.023 157.600 C 334.530 156.830,333.725 155.122,333.234 153.805 C 332.742 152.488,332.190 151.228,332.007 151.005 C 331.823 150.782,331.185 149.379,330.588 147.886 C 329.709 145.685,329.173 144.944,327.749 143.965 C 326.783 143.301,325.315 141.732,324.486 140.479 C 323.223 138.569,322.522 137.973,320.162 136.800 C 318.613 136.030,316.458 134.611,315.373 133.647 C 313.496 131.978,308.438 129.200,307.278 129.200 C 306.531 129.200,301.157 127.348,298.000 126.003 C 291.964 123.431,264.925 123.294,258.000 125.801 C 257.010 126.159,252.690 127.349,248.400 128.444 C 239.671 130.673,237.084 131.541,234.900 132.971 C 234.075 133.511,232.005 134.359,230.301 134.856 L 227.201 135.760 225.415 134.892 C 223.246 133.838,222.318 132.202,221.186 127.435 C 220.746 125.581,219.916 123.039,219.342 121.786 C 218.769 120.533,217.983 117.684,217.597 115.454 C 217.210 113.224,216.517 109.947,216.056 108.170 C 214.985 104.040,215.378 98.918,216.890 97.299 C 219.019 95.018,219.918 94.909,233.200 95.314 C 236.096 95.402,240.178 93.889,241.122 92.377 C 241.658 91.519,241.122 82.117,240.392 79.572 C 240.098 78.546,240.175 78.103,240.787 77.325 C 242.524 75.117,243.337 71.437,242.466 69.729 C 240.540 65.957,237.787 65.182,227.320 65.467 C 220.016 65.665,219.748 65.644,218.000 64.736 C 213.901 62.605,212.689 55.736,215.003 47.752 C 216.347 43.113,215.556 41.267,211.565 39.731 C 208.746 38.646,193.991 38.350,190.504 39.309 M198.284 42.964 C 199.699 43.324,200.815 43.306,203.408 42.877 C 206.545 42.358,206.823 42.373,208.591 43.155 C 210.678 44.078,210.658 44.318,208.355 45.987 L 206.790 47.120 203.383 46.093 L 199.977 45.066 198.288 46.000 C 197.360 46.513,195.804 47.473,194.831 48.133 L 193.063 49.333 191.644 48.566 C 185.029 44.994,189.953 40.838,198.284 42.964 M188.127 64.554 C 188.063 64.782,187.536 67.440,186.958 70.455 C 186.655 72.038,181.121 73.083,176.403 72.448 C 172.654 71.944,172.193 72.094,168.290 75.089 L 165.980 76.862 164.690 76.109 C 163.372 75.339,161.618 72.735,161.607 71.529 C 161.602 71.109,162.440 70.448,163.855 69.756 L 166.109 68.653 169.807 69.581 C 173.446 70.495,179.568 70.566,183.737 69.744 C 185.005 69.494,186.000 67.692,186.000 65.646 C 186.000 63.581,186.357 63.074,187.349 63.733 C 187.817 64.043,188.167 64.413,188.127 64.554 M142.454 81.400 C 142.454 94.064,142.508 95.228,143.021 93.600 C 143.833 91.023,143.833 71.777,143.021 69.200 C 142.508 67.572,142.454 68.736,142.454 81.400 M235.451 69.842 C 238.176 70.971,238.227 71.179,236.143 72.660 C 234.013 74.175,233.484 74.240,230.400 73.369 C 228.996 72.972,226.720 72.763,224.111 72.789 C 220.144 72.830,217.600 72.224,217.600 71.238 C 217.600 70.387,220.139 69.897,223.542 70.091 C 225.561 70.206,228.235 70.078,229.828 69.791 C 233.593 69.110,233.688 69.111,235.451 69.842 M166.574 88.854 C 166.866 91.431,166.575 92.196,165.467 91.770 C 164.675 91.466,164.653 91.099,165.269 88.431 C 165.886 85.755,166.237 85.868,166.574 88.854 M301.600 109.325 C 301.600 110.066,303.835 112.122,304.426 111.925 C 304.739 111.820,304.444 111.223,303.617 110.281 C 302.266 108.742,301.600 108.426,301.600 109.325 M100.113 130.538 C 103.085 131.781,101.606 133.478,96.600 134.567 C 93.204 135.307,89.600 137.181,89.600 138.208 C 89.600 139.217,87.939 140.733,85.317 142.119 C 82.926 143.382,82.460 143.825,81.433 145.811 C 80.494 147.627,79.849 148.304,78.135 149.272 C 76.195 150.366,75.866 150.768,74.470 153.748 C 73.430 155.967,72.413 157.469,71.313 158.411 C 68.910 160.468,68.152 162.069,66.854 167.827 C 65.022 175.949,64.536 176.786,62.624 175.100 C 61.399 174.019,61.322 173.528,61.738 169.400 C 62.639 160.470,63.584 157.235,65.529 156.429 C 66.673 155.956,67.600 154.573,67.600 153.343 C 67.600 153.002,67.937 152.246,68.349 151.662 C 68.760 151.078,69.568 149.665,70.144 148.522 C 70.827 147.166,71.801 146.025,72.949 145.235 C 75.032 143.802,76.461 142.183,77.183 140.440 C 77.589 139.460,78.350 138.860,80.554 137.784 C 82.119 137.020,83.850 136.141,84.400 135.832 C 84.950 135.523,85.912 135.071,86.538 134.826 C 87.195 134.570,87.860 133.896,88.111 133.231 C 88.861 131.243,90.989 130.555,97.913 130.065 C 98.415 130.029,99.405 130.242,100.113 130.538 M146.400 168.269 C 152.282 169.227,156.032 170.304,158.000 171.599 C 158.990 172.251,161.850 173.820,164.356 175.086 C 168.248 177.051,169.130 177.681,170.405 179.406 C 171.225 180.517,172.540 181.867,173.327 182.406 C 174.114 182.945,175.172 184.109,175.679 184.993 L 176.600 186.600 176.720 214.479 C 176.840 242.355,176.840 242.359,175.970 244.382 C 173.987 248.991,170.740 250.217,159.522 250.593 C 151.142 250.873,150.808 250.800,147.989 248.063 C 147.161 247.258,145.654 245.911,144.639 245.070 C 143.505 244.129,142.397 242.699,141.762 241.357 C 140.992 239.729,140.220 238.831,138.727 237.825 C 137.625 237.083,136.119 235.579,135.381 234.482 C 134.642 233.385,133.472 231.973,132.782 231.344 C 130.429 229.200,129.401 228.101,128.000 226.227 C 127.230 225.198,125.745 223.736,124.700 222.978 C 123.655 222.221,122.800 221.444,122.800 221.252 C 122.800 220.784,119.462 216.668,117.108 214.231 C 116.067 213.154,114.398 210.689,113.398 208.754 C 112.398 206.819,111.401 205.125,111.183 204.989 C 107.279 202.577,107.450 186.478,111.414 183.188 C 111.772 182.891,112.610 181.557,113.275 180.224 C 114.728 177.312,116.072 175.798,118.157 174.726 C 119.013 174.286,120.543 173.158,121.557 172.219 C 126.205 167.914,135.324 166.464,146.400 168.269 M271.617 168.586 C 276.465 169.681,277.729 170.217,279.200 171.802 C 279.750 172.394,281.033 173.303,282.051 173.822 C 284.328 174.981,286.169 176.779,287.253 178.903 C 287.705 179.790,288.584 180.943,289.206 181.467 C 294.253 185.713,294.280 201.507,289.251 207.259 C 288.413 208.216,286.770 210.599,285.598 212.553 C 284.300 214.717,282.986 216.392,282.234 216.840 C 280.933 217.614,279.381 219.438,278.410 221.334 C 277.853 222.421,276.384 223.826,274.281 225.282 C 273.739 225.658,272.746 226.940,272.073 228.133 C 271.218 229.647,270.266 230.660,268.916 231.491 C 267.569 232.319,266.561 233.390,265.591 235.022 C 264.618 236.660,263.659 237.676,262.400 238.404 C 261.410 238.976,260.240 240.025,259.800 240.735 C 259.360 241.445,258.638 242.597,258.195 243.296 C 257.753 243.995,256.583 245.155,255.595 245.874 C 254.608 246.594,253.297 247.637,252.683 248.192 C 249.894 250.713,248.985 250.901,241.042 250.608 C 230.937 250.235,228.468 249.231,225.854 244.429 L 224.734 242.371 224.744 214.540 L 224.755 186.708 225.727 185.254 C 228.473 181.148,233.612 177.069,239.400 174.402 C 241.160 173.590,242.859 172.614,243.175 172.232 C 246.330 168.420,261.990 166.413,271.617 168.586 M58.810 187.099 C 59.290 193.160,59.106 197.628,58.296 199.580 L 57.872 200.600 57.583 199.400 C 56.939 196.722,57.363 178.454,58.029 180.215 C 58.193 180.647,58.544 183.745,58.810 187.099 M337.000 247.549 C 336.035 247.754,335.774 248.038,335.668 249.002 L 335.537 250.200 336.868 248.949 C 337.601 248.261,338.470 247.600,338.800 247.481 C 339.659 247.169,338.601 247.210,337.000 247.549 M179.400 295.834 C 175.880 295.900,168.050 296.245,162.000 296.600 C 125.968 298.716,125.135 298.826,112.971 303.103 C 107.119 305.160,104.223 306.851,102.652 309.127 C 101.963 310.123,100.575 311.944,99.567 313.172 C 98.372 314.627,97.639 315.961,97.462 317.002 C 97.312 317.881,96.738 321.120,96.185 324.200 C 95.381 328.685,95.131 331.712,94.931 339.400 L 94.681 349.000 96.332 350.491 L 97.983 351.982 102.491 351.691 C 107.364 351.376,292.925 351.302,299.200 351.612 C 304.602 351.879,306.625 350.687,307.004 347.012 C 307.247 344.650,306.382 332.146,305.592 326.600 C 304.618 319.766,304.000 315.277,304.000 315.033 C 304.000 314.887,302.875 313.540,301.500 312.038 C 300.125 310.536,298.441 308.608,297.758 307.753 C 295.693 305.169,285.638 301.442,275.200 299.390 C 269.954 298.359,267.545 298.152,250.000 297.217 C 245.490 296.976,239.722 296.607,237.182 296.397 C 232.538 296.011,191.335 295.610,179.400 295.834 M240.200 299.605 C 243.720 299.817,250.358 300.184,254.951 300.421 C 266.423 301.011,268.735 301.314,271.278 302.558 C 273.393 303.592,275.575 304.078,284.000 305.392 C 290.977 306.479,294.632 308.087,295.403 310.408 C 295.746 311.442,296.656 313.023,297.425 313.921 L 298.824 315.555 297.319 316.577 C 295.347 317.917,294.469 317.868,292.426 316.300 C 288.362 313.182,288.767 313.333,283.117 312.823 C 271.542 311.779,265.720 311.150,264.000 310.760 C 263.010 310.536,257.700 310.196,252.200 310.005 C 244.641 309.742,241.273 309.456,238.400 308.834 C 232.521 307.560,169.545 307.555,161.200 308.827 C 158.230 309.280,152.110 309.803,147.600 309.988 C 143.090 310.174,137.600 310.609,135.400 310.955 C 133.200 311.301,128.340 311.868,124.600 312.216 C 116.344 312.982,112.129 313.781,110.800 314.832 C 110.250 315.266,108.720 316.162,107.400 316.821 L 105.000 318.021 103.905 316.732 C 102.937 315.592,102.872 315.348,103.344 314.622 C 103.638 314.170,104.129 313.395,104.435 312.900 C 104.742 312.405,105.163 312.000,105.370 312.000 C 106.045 312.000,107.600 310.281,107.600 309.535 C 107.600 307.706,113.162 305.801,121.400 304.809 C 125.759 304.284,129.040 303.412,130.446 302.405 C 134.188 299.726,210.068 297.790,240.200 299.605 M323.271 340.651 C 324.085 341.509,324.817 342.735,324.911 343.400 L 325.080 344.600 325.140 343.354 C 325.205 341.998,324.088 340.278,322.669 339.549 C 322.083 339.247,322.279 339.607,323.271 340.651 M324.394 362.014 C 324.118 362.681,323.466 363.562,322.946 363.971 C 322.004 364.712,321.681 365.600,322.353 365.600 C 323.186 365.600,325.200 363.000,325.200 361.924 C 325.200 360.486,325.019 360.506,324.394 362.014 " stroke="none" fill="#565453" fill-rule="evenodd"></path><path id="path1" d="M190.805 42.909 C 187.707 44.171,188.073 46.638,191.644 48.566 L 193.063 49.333 194.831 48.133 C 195.804 47.473,197.360 46.513,198.288 46.000 L 199.977 45.066 203.383 46.093 L 206.790 47.120 208.355 45.987 C 210.658 44.318,210.678 44.078,208.591 43.155 C 206.823 42.373,206.545 42.358,203.408 42.877 C 200.815 43.306,199.699 43.324,198.284 42.964 C 194.428 41.980,193.109 41.970,190.805 42.909 M186.249 63.816 C 186.112 64.173,186.000 64.996,186.000 65.646 C 186.000 67.692,185.005 69.494,183.737 69.744 C 179.568 70.566,173.446 70.495,169.807 69.581 L 166.109 68.653 163.855 69.756 C 162.440 70.448,161.602 71.109,161.607 71.529 C 161.618 72.735,163.372 75.339,164.690 76.109 L 165.980 76.862 168.290 75.089 C 172.193 72.094,172.654 71.944,176.403 72.448 C 181.121 73.083,186.655 72.038,186.958 70.455 C 187.536 67.440,188.063 64.782,188.127 64.554 C 188.320 63.876,186.501 63.161,186.249 63.816 M229.828 69.791 C 228.235 70.078,225.561 70.206,223.542 70.091 C 220.139 69.897,217.600 70.387,217.600 71.238 C 217.600 72.224,220.144 72.830,224.111 72.789 C 226.720 72.763,228.996 72.972,230.400 73.369 C 233.484 74.240,234.013 74.175,236.143 72.660 C 238.227 71.179,238.176 70.971,235.451 69.842 C 233.688 69.111,233.593 69.110,229.828 69.791 M165.269 88.431 C 164.653 91.099,164.675 91.466,165.467 91.770 C 166.575 92.196,166.866 91.431,166.574 88.854 C 166.237 85.868,165.886 85.755,165.269 88.431 M94.200 130.382 C 90.797 130.690,88.700 131.671,88.111 133.231 C 87.860 133.896,87.195 134.570,86.538 134.826 C 85.912 135.071,84.950 135.523,84.400 135.832 C 83.850 136.141,82.119 137.020,80.554 137.784 C 78.350 138.860,77.589 139.460,77.183 140.440 C 76.461 142.183,75.032 143.802,72.949 145.235 C 71.801 146.025,70.827 147.166,70.144 148.522 C 69.568 149.665,68.760 151.078,68.349 151.662 C 67.937 152.246,67.600 153.002,67.600 153.343 C 67.600 154.573,66.673 155.956,65.529 156.429 C 63.584 157.235,62.639 160.470,61.738 169.400 C 61.322 173.528,61.399 174.019,62.624 175.100 C 64.536 176.786,65.022 175.949,66.854 167.827 C 68.152 162.069,68.910 160.468,71.313 158.411 C 72.413 157.469,73.430 155.967,74.470 153.748 C 75.866 150.768,76.195 150.366,78.135 149.272 C 79.849 148.304,80.494 147.627,81.433 145.811 C 82.460 143.825,82.926 143.382,85.317 142.119 C 87.939 140.733,89.600 139.217,89.600 138.208 C 89.600 137.181,93.204 135.307,96.600 134.567 C 99.437 133.950,102.432 132.320,101.903 131.682 C 101.230 130.871,99.044 129.985,97.913 130.065 C 97.411 130.100,95.740 130.243,94.200 130.382 M57.468 184.015 C 57.139 189.722,57.200 197.806,57.583 199.400 L 57.872 200.600 58.296 199.580 C 59.106 197.628,59.290 193.160,58.810 187.099 C 58.179 179.147,57.799 178.272,57.468 184.015 M336.794 249.006 C 336.051 249.773,335.625 250.400,335.847 250.400 C 336.364 250.400,338.607 248.073,338.343 247.810 C 338.234 247.701,337.537 248.239,336.794 249.006 M176.000 299.192 C 151.087 299.737,132.324 301.060,130.446 302.405 C 129.040 303.412,125.759 304.284,121.400 304.809 C 113.162 305.801,107.600 307.706,107.600 309.535 C 107.600 310.281,106.045 312.000,105.370 312.000 C 105.163 312.000,104.742 312.405,104.435 312.900 C 104.129 313.395,103.638 314.170,103.344 314.622 C 102.872 315.348,102.937 315.592,103.905 316.732 L 105.000 318.021 107.400 316.821 C 108.720 316.162,110.250 315.266,110.800 314.832 C 112.129 313.781,116.344 312.982,124.600 312.216 C 128.340 311.868,133.200 311.301,135.400 310.955 C 137.600 310.609,143.090 310.174,147.600 309.988 C 152.110 309.803,158.230 309.280,161.200 308.827 C 169.545 307.555,232.521 307.560,238.400 308.834 C 241.273 309.456,244.641 309.742,252.200 310.005 C 257.700 310.196,263.010 310.536,264.000 310.760 C 265.720 311.150,271.542 311.779,283.117 312.823 C 288.767 313.333,288.362 313.182,292.426 316.300 C 294.469 317.868,295.347 317.917,297.319 316.577 L 298.824 315.555 297.425 313.921 C 296.656 313.023,295.746 311.442,295.403 310.408 C 294.632 308.087,290.977 306.479,284.000 305.392 C 275.575 304.078,273.393 303.592,271.278 302.558 C 268.735 301.314,266.423 301.011,254.951 300.421 C 250.358 300.184,243.720 299.817,240.200 299.605 C 231.523 299.083,192.496 298.832,176.000 299.192 " stroke="none" fill="#827e7e" fill-rule="evenodd"></path><path id="path2" d="M172.253 24.185 C 166.547 25.041,166.406 25.444,166.402 40.880 L 166.400 50.761 156.333 50.880 C 148.800 50.970,146.225 51.124,146.102 51.493 C 146.012 51.764,145.212 52.181,144.325 52.420 C 142.029 53.038,140.956 54.397,140.225 57.611 C 139.370 61.368,139.320 101.317,140.167 103.690 L 140.699 105.179 120.117 105.290 C 97.691 105.410,98.400 105.334,98.400 107.605 C 98.400 107.963,97.579 109.114,96.575 110.161 L 94.751 112.065 88.275 112.045 C 83.013 112.028,78.927 112.402,78.775 112.915 C 78.761 112.962,78.536 114.350,78.275 116.000 L 77.800 119.000 75.091 118.858 C 71.477 118.669,71.200 118.939,71.200 122.649 L 71.200 125.600 69.700 125.639 C 68.875 125.660,67.500 125.645,66.645 125.604 C 64.654 125.510,64.414 125.928,64.406 129.500 L 64.400 132.400 62.900 132.437 C 62.075 132.457,60.642 132.444,59.715 132.408 C 57.710 132.329,57.444 132.894,57.663 136.775 C 57.819 139.533,58.044 139.391,53.756 139.222 C 50.916 139.109,50.815 139.254,50.805 143.444 L 50.800 145.889 48.347 146.111 C 44.680 146.444,44.116 147.819,44.025 156.653 C 43.997 159.430,43.804 159.584,40.349 159.595 C 37.190 159.604,37.400 157.449,37.400 189.800 C 37.400 222.709,37.036 219.817,41.231 220.231 L 44.000 220.503 44.000 222.402 C 44.000 225.138,44.400 226.743,45.148 227.004 C 45.506 227.130,46.170 227.986,46.622 228.907 C 47.202 230.088,47.925 230.814,49.078 231.369 L 50.711 232.156 50.874 235.877 C 51.068 240.314,51.010 240.246,54.800 240.530 C 56.790 240.679,57.463 240.634,56.800 240.397 L 55.800 240.039 56.766 240.119 C 57.702 240.197,57.730 240.294,57.659 243.200 C 57.564 247.060,57.787 247.390,60.261 247.062 C 61.667 246.876,62.035 246.921,61.600 247.224 C 61.152 247.538,61.455 247.613,62.800 247.522 L 64.600 247.400 64.600 250.600 L 64.600 253.800 66.200 253.821 C 67.080 253.832,68.619 253.973,69.619 254.133 L 71.439 254.425 71.419 257.512 L 71.400 260.600 73.600 260.677 C 77.975 260.831,78.200 261.014,78.200 264.429 L 78.200 267.400 81.355 267.488 C 85.188 267.595,84.935 267.342,84.970 271.104 L 85.000 274.200 88.155 274.288 C 91.967 274.395,91.749 274.197,91.691 277.503 C 91.560 284.978,92.563 287.215,96.176 287.515 L 98.400 287.699 98.400 291.197 L 98.400 294.695 95.466 294.883 C 91.470 295.140,91.466 295.144,91.691 298.654 L 91.880 301.600 89.366 301.600 C 84.997 301.600,84.662 301.882,84.885 305.368 L 85.074 308.316 83.637 308.553 C 82.847 308.684,81.547 308.793,80.749 308.796 C 78.077 308.804,78.200 307.563,78.200 334.561 C 78.200 348.003,78.234 359.900,78.276 361.000 C 78.318 362.100,78.268 364.170,78.165 365.600 C 78.062 367.030,78.156 368.470,78.374 368.800 C 79.018 369.774,317.648 369.928,322.000 368.957 C 328.014 367.615,328.096 367.423,328.318 354.176 C 328.569 339.208,328.003 336.973,323.847 336.504 L 322.000 336.296 321.927 329.048 C 321.887 325.062,321.897 319.100,321.949 315.800 C 322.063 308.636,322.151 308.810,318.260 308.516 C 314.819 308.256,315.033 308.549,315.188 304.317 C 315.265 302.227,315.192 302.012,314.336 301.786 C 313.756 301.633,313.096 300.904,312.600 299.870 C 312.020 298.658,311.337 297.980,310.114 297.400 C 309.134 296.934,308.423 296.318,308.414 295.925 C 308.398 295.136,305.887 294.630,303.122 294.858 L 301.400 295.000 301.467 291.200 C 301.527 287.847,301.621 287.389,302.267 287.303 C 302.900 287.220,302.891 287.257,302.200 287.575 C 301.612 287.846,302.096 287.951,304.024 287.972 C 307.666 288.011,308.129 287.593,308.327 284.087 L 308.485 281.288 311.048 281.125 C 314.295 280.918,314.750 280.460,315.066 277.078 L 315.316 274.400 316.998 274.400 C 320.731 274.400,321.363 273.816,321.816 269.952 L 322.079 267.703 324.716 267.492 C 327.675 267.254,328.400 266.680,328.400 264.574 C 328.400 261.304,328.674 260.918,331.192 260.633 C 334.015 260.313,334.830 259.532,335.071 256.916 C 335.389 253.454,335.458 253.325,337.130 253.058 C 338.971 252.763,340.678 251.299,341.005 249.734 C 341.135 249.110,341.524 248.027,341.869 247.327 C 342.310 246.432,342.448 245.290,342.333 243.480 L 342.169 240.906 345.343 240.661 C 349.193 240.364,348.954 240.593,349.136 237.009 C 349.303 233.699,349.394 233.616,352.851 233.605 C 355.638 233.597,355.744 233.324,355.774 226.070 L 355.800 219.800 358.017 219.931 C 362.779 220.213,362.770 220.276,362.743 189.600 C 362.716 158.893,362.852 159.800,358.286 159.800 L 355.800 159.800 355.918 154.600 C 355.982 151.740,355.883 148.680,355.696 147.800 L 355.357 146.200 352.255 146.200 L 349.154 146.200 349.028 142.600 C 348.783 135.582,347.733 133.404,344.376 132.959 C 342.305 132.684,342.008 132.171,341.994 128.850 C 341.983 126.190,340.721 125.538,335.777 125.636 L 332.483 125.701 330.663 123.801 C 329.301 122.380,328.812 121.535,328.721 120.451 L 328.600 119.000 326.400 118.956 C 321.664 118.861,322.111 119.161,321.930 115.956 C 321.712 112.113,321.427 111.923,316.000 112.017 C 313.690 112.057,310.879 112.069,309.753 112.045 L 307.705 112.000 307.489 110.385 C 307.174 108.038,306.270 106.903,304.302 106.385 C 303.366 106.138,301.925 105.742,301.100 105.504 C 300.085 105.212,296.222 105.159,289.143 105.341 C 283.392 105.488,274.662 105.489,269.743 105.341 L 260.800 105.073 260.800 79.363 C 260.800 64.612,260.643 53.238,260.431 52.681 C 259.853 51.161,259.339 51.096,246.356 50.894 L 234.112 50.704 233.915 38.436 C 233.715 25.949,233.574 24.838,232.111 24.169 C 230.803 23.570,176.254 23.585,172.253 24.185 M174.344 25.166 C 173.825 25.587,173.310 25.842,173.201 25.733 C 172.966 25.500,174.385 24.400,174.921 24.400 C 175.123 24.400,174.864 24.745,174.344 25.166 M230.269 25.478 C 231.765 26.166,232.643 27.835,232.962 30.600 L 233.192 32.600 232.671 30.600 C 231.732 27.003,231.087 26.268,227.885 25.148 C 225.915 24.459,225.888 24.432,227.400 24.657 C 228.280 24.788,229.571 25.157,230.269 25.478 M173.200 26.965 C 173.200 27.276,172.322 28.581,171.249 29.865 C 168.753 32.854,168.014 35.055,167.946 39.714 L 167.891 43.400 167.562 40.400 C 166.987 35.166,168.394 30.959,171.632 28.234 C 172.274 27.694,172.800 27.060,172.800 26.826 C 172.800 26.592,172.890 26.400,173.000 26.400 C 173.110 26.400,173.200 26.654,173.200 26.965 M210.000 34.078 C 212.418 34.645,214.018 35.242,214.400 35.718 C 214.730 36.130,215.585 37.107,216.300 37.889 C 218.682 40.496,219.093 44.903,217.734 53.277 C 216.423 61.356,219.073 62.901,230.200 60.542 C 240.420 58.375,246.193 63.462,245.435 73.967 C 245.283 76.075,245.175 81.220,245.193 85.400 C 245.241 95.881,243.883 99.522,239.666 100.219 C 238.860 100.352,237.716 100.644,237.124 100.869 C 235.921 101.325,233.021 101.159,229.352 100.424 C 220.838 98.717,216.269 104.771,221.760 110.483 C 222.996 111.769,223.387 113.528,224.000 120.561 C 224.415 125.320,225.964 130.400,226.999 130.400 C 227.102 130.400,229.125 129.857,231.493 129.194 C 239.183 127.042,243.485 125.449,244.801 124.269 C 245.494 123.648,246.543 123.075,247.131 122.997 C 247.719 122.919,248.200 122.828,248.200 122.794 C 248.200 122.761,248.560 122.685,249.000 122.626 C 249.440 122.567,252.500 122.135,255.800 121.666 C 263.993 120.502,278.977 119.484,283.400 119.792 C 297.419 120.765,304.674 122.199,307.468 124.550 C 308.108 125.089,310.763 126.486,313.367 127.653 C 317.338 129.434,318.251 130.014,319.030 131.247 C 319.723 132.346,320.727 133.082,322.999 134.161 C 325.269 135.239,326.212 135.930,326.720 136.892 C 327.444 138.262,329.095 139.984,331.208 141.572 C 331.919 142.107,332.759 143.187,333.074 143.972 C 334.222 146.833,335.421 148.844,336.342 149.452 C 337.445 150.180,338.979 153.447,340.783 158.914 C 341.494 161.067,342.529 163.367,343.083 164.026 C 349.548 171.708,349.177 205.861,342.509 216.916 C 341.675 218.298,340.274 221.111,339.396 223.166 C 338.270 225.801,337.145 227.644,335.578 229.422 C 334.355 230.809,332.925 232.780,332.399 233.802 C 331.499 235.551,330.684 236.394,328.219 238.123 C 327.652 238.521,326.660 239.892,326.015 241.170 C 324.925 243.330,324.037 244.287,321.423 246.120 C 320.858 246.517,320.035 247.548,319.594 248.412 C 319.079 249.421,317.973 250.525,316.503 251.498 C 315.042 252.465,313.675 253.826,312.726 255.260 C 311.774 256.699,310.512 257.955,309.217 258.751 C 307.907 259.558,306.757 260.708,305.949 262.021 C 305.264 263.135,303.736 264.761,302.554 265.634 C 301.372 266.507,300.050 267.891,299.616 268.711 C 298.587 270.654,297.740 271.624,295.852 273.022 C 295.000 273.652,293.881 274.838,293.365 275.656 C 292.848 276.474,291.373 278.281,290.087 279.671 C 288.801 281.062,286.874 283.595,285.805 285.300 C 282.631 290.360,276.796 292.327,270.184 290.564 C 267.549 289.862,264.592 290.111,257.419 291.638 C 253.049 292.568,248.705 292.648,247.871 291.814 C 247.357 291.300,247.257 291.337,247.048 292.114 C 246.282 294.974,246.334 294.999,254.000 295.395 C 256.530 295.526,261.750 295.799,265.600 296.001 C 278.117 296.660,289.272 298.824,290.504 300.833 C 291.060 301.739,293.258 302.811,296.480 303.748 C 298.860 304.440,300.149 305.560,300.838 307.537 C 301.167 308.480,301.768 309.063,303.021 309.652 C 305.252 310.701,305.877 311.709,307.044 316.151 C 307.851 319.222,308.226 319.998,309.412 321.052 C 311.609 323.003,311.985 325.568,311.993 338.674 C 312.002 352.371,311.721 353.189,306.456 354.815 C 302.849 355.929,98.066 356.085,94.728 354.976 C 92.796 354.334,89.600 351.323,89.600 350.144 C 89.600 349.845,89.442 349.600,89.248 349.600 C 88.833 349.600,88.963 333.568,89.402 330.500 C 89.568 329.345,89.845 328.400,90.019 328.400 C 90.841 328.400,92.032 325.253,93.377 319.532 C 94.929 312.926,95.355 312.094,97.876 310.748 C 98.672 310.323,99.455 309.337,100.129 307.913 C 101.284 305.472,101.602 305.152,103.600 304.423 C 108.143 302.765,110.336 301.734,111.400 300.754 C 112.965 299.313,114.139 298.897,119.210 297.982 C 127.558 296.476,133.640 295.931,149.685 295.248 C 156.917 294.941,157.115 294.893,156.329 293.634 C 155.504 292.314,155.110 292.283,138.600 292.204 C 118.284 292.106,117.477 291.861,113.800 284.676 C 112.424 281.987,111.426 280.541,110.600 280.041 C 108.964 279.051,108.173 278.093,107.230 275.961 C 106.363 274.000,105.475 273.039,104.163 272.640 C 102.959 272.275,101.588 270.684,100.418 268.295 C 99.659 266.744,98.942 265.952,97.600 265.182 C 96.610 264.614,95.408 263.530,94.928 262.774 C 93.354 260.292,91.986 258.860,90.487 258.124 C 89.675 257.726,88.616 256.770,88.134 256.000 C 86.585 253.528,85.123 251.978,83.827 251.437 C 82.495 250.881,80.400 248.684,80.400 247.844 C 80.400 247.177,78.427 245.328,76.761 244.435 C 75.834 243.938,75.058 243.004,74.306 241.479 C 73.634 240.117,72.421 238.580,71.184 237.525 C 70.071 236.576,68.240 234.450,67.116 232.800 C 65.992 231.150,63.956 228.607,62.590 227.150 C 60.712 225.144,59.842 223.804,59.015 221.640 C 58.195 219.494,57.641 218.635,56.793 218.196 C 54.455 216.987,53.895 215.419,52.577 206.400 C 50.831 194.443,50.834 187.185,52.590 173.813 C 53.765 164.868,54.418 162.834,56.512 161.599 C 57.644 160.931,57.982 160.383,58.548 158.299 C 60.018 152.884,61.621 149.551,63.040 148.957 C 64.478 148.357,66.400 146.119,66.400 145.046 C 66.400 143.467,67.911 141.393,69.460 140.846 C 71.472 140.135,72.297 139.378,72.609 137.957 C 72.949 136.411,74.889 134.530,76.499 134.186 C 78.636 133.729,79.968 132.719,80.858 130.880 C 81.383 129.796,82.095 129.000,82.750 128.763 C 89.738 126.241,91.546 125.360,92.064 124.228 C 92.950 122.289,94.919 121.619,102.892 120.543 C 117.227 118.608,116.282 118.800,117.578 117.561 C 118.232 116.936,118.876 116.599,119.007 116.812 C 119.139 117.025,119.777 117.200,120.424 117.200 C 121.071 117.200,121.600 117.341,121.600 117.513 C 121.600 118.318,128.395 119.497,142.800 121.191 C 156.096 122.755,156.881 122.909,158.401 124.264 C 159.191 124.968,161.608 126.061,164.928 127.215 C 167.827 128.224,170.805 129.368,171.544 129.757 C 172.887 130.466,172.888 130.466,174.072 129.333 C 176.326 127.176,176.703 126.135,176.922 121.447 C 177.064 118.423,177.290 116.989,177.663 116.753 C 177.958 116.565,178.056 116.409,177.880 116.406 C 177.703 116.403,178.063 115.739,178.680 114.931 C 179.316 114.097,180.362 111.636,181.101 109.231 L 182.401 105.000 181.157 102.462 L 179.913 99.924 176.656 100.195 C 174.865 100.345,172.230 100.628,170.800 100.825 C 156.628 102.781,154.600 100.350,154.600 81.400 C 154.600 67.525,154.748 66.630,157.266 65.291 C 157.980 64.911,159.206 63.954,159.990 63.164 C 163.153 59.976,168.011 59.460,175.200 61.548 C 180.045 62.956,179.674 63.062,181.305 59.800 C 182.298 57.814,182.301 57.775,181.741 54.200 C 180.304 45.042,182.281 37.600,186.151 37.600 C 186.512 37.600,187.389 37.044,188.099 36.365 C 190.417 34.151,191.581 33.855,199.000 33.594 C 202.740 33.463,205.890 33.317,206.000 33.271 C 206.110 33.225,207.910 33.588,210.000 34.078 M233.498 46.700 C 233.428 49.065,233.370 47.130,233.370 42.400 C 233.370 37.670,233.428 35.735,233.498 38.100 C 233.569 40.465,233.569 44.335,233.498 46.700 M168.289 49.700 C 168.201 50.415,168.128 49.830,168.128 48.400 C 168.128 46.970,168.201 46.385,168.289 47.100 C 168.378 47.815,168.378 48.985,168.289 49.700 M254.882 51.821 C 259.015 52.892,259.845 54.063,260.181 59.301 C 260.353 61.987,260.341 62.043,260.022 60.059 C 259.201 54.958,258.233 53.661,254.168 52.215 C 251.011 51.092,251.349 50.906,254.882 51.821 M257.668 56.321 C 258.121 57.048,258.381 57.753,258.246 57.888 C 258.111 58.023,258.000 57.924,258.000 57.668 C 258.000 57.412,257.325 56.453,256.500 55.538 C 255.472 54.397,255.290 54.051,255.923 54.437 C 256.430 54.747,257.216 55.594,257.668 56.321 M144.338 63.015 L 143.504 64.429 144.554 67.315 C 146.178 71.778,146.175 90.853,144.550 95.433 L 143.499 98.392 144.570 99.796 C 145.964 101.624,145.249 101.617,143.641 99.786 L 142.400 98.372 142.400 81.400 L 142.400 64.428 143.641 63.014 C 145.211 61.227,145.393 61.227,144.338 63.015 M260.282 103.700 C 260.187 104.195,260.109 103.790,260.109 102.800 C 260.109 101.810,260.187 101.405,260.282 101.900 C 260.378 102.395,260.378 103.205,260.282 103.700 M142.305 105.875 C 141.922 105.975,141.202 105.979,140.705 105.883 C 140.207 105.787,140.520 105.705,141.400 105.701 C 142.280 105.696,142.687 105.775,142.305 105.875 M262.700 105.876 C 262.315 105.976,261.685 105.976,261.300 105.876 C 260.915 105.775,261.230 105.693,262.000 105.693 C 262.770 105.693,263.085 105.775,262.700 105.876 M295.900 105.876 C 295.515 105.976,294.885 105.976,294.500 105.876 C 294.115 105.775,294.430 105.693,295.200 105.693 C 295.970 105.693,296.285 105.775,295.900 105.876 M103.657 106.597 C 102.699 106.896,101.474 107.555,100.935 108.061 C 100.126 108.821,100.005 108.853,100.239 108.244 C 100.553 107.426,103.353 106.008,104.600 106.036 C 105.040 106.045,104.616 106.298,103.657 106.597 M301.898 108.505 C 305.016 111.550,305.195 112.000,303.290 112.000 C 301.782 112.000,301.741 111.960,301.248 110.037 C 300.700 107.896,299.903 106.958,298.143 106.376 C 297.054 106.017,297.065 106.009,298.377 106.205 C 299.338 106.349,300.402 107.044,301.898 108.505 M240.705 112.275 C 240.322 112.375,239.602 112.379,239.105 112.283 C 238.607 112.187,238.920 112.105,239.800 112.101 C 240.680 112.096,241.087 112.175,240.705 112.275 M85.200 112.995 C 85.200 113.102,84.527 113.470,83.705 113.814 C 81.719 114.644,80.521 115.822,79.972 117.486 C 79.723 118.238,79.422 118.756,79.302 118.636 C 78.247 117.580,81.161 113.976,83.648 113.261 C 84.392 113.047,85.045 112.856,85.100 112.836 C 85.155 112.816,85.200 112.888,85.200 112.995 M319.011 113.278 C 320.121 113.783,321.206 115.477,321.191 116.680 C 321.186 117.076,320.832 116.629,320.405 115.686 C 319.870 114.508,319.217 113.794,318.313 113.402 C 317.591 113.088,317.217 112.824,317.481 112.816 C 317.746 112.807,318.434 113.015,319.011 113.278 M336.942 126.963 C 338.873 127.425,339.929 128.385,340.648 130.332 C 341.027 131.360,341.532 132.460,341.769 132.777 C 342.100 133.220,342.077 133.279,341.667 133.033 C 341.374 132.856,340.812 131.967,340.419 131.056 C 339.578 129.110,338.706 128.254,336.713 127.421 C 335.911 127.086,335.118 126.584,334.951 126.306 C 334.718 125.919,334.782 125.905,335.223 126.245 C 335.540 126.490,336.314 126.813,336.942 126.963 M344.552 137.600 C 345.775 138.922,345.900 139.200,345.270 139.200 C 344.189 139.200,342.400 137.686,342.400 136.771 C 342.400 135.626,342.906 135.821,344.552 137.600 M50.924 147.167 C 50.814 147.589,50.197 148.153,49.554 148.419 C 48.361 148.913,46.400 150.933,46.400 151.668 C 46.400 151.891,46.012 152.552,45.537 153.137 C 45.063 153.722,44.783 153.896,44.915 153.525 C 45.048 153.154,45.358 152.099,45.605 151.181 C 46.123 149.256,47.553 147.762,49.227 147.394 C 49.867 147.253,50.494 146.972,50.619 146.769 C 50.994 146.162,51.138 146.349,50.924 147.167 M354.218 147.382 C 354.758 147.922,355.193 148.777,355.184 149.282 C 355.171 150.065,355.085 150.006,354.598 148.886 C 354.247 148.078,353.522 147.353,352.714 147.002 C 351.594 146.515,351.535 146.429,352.318 146.416 C 352.823 146.407,353.678 146.842,354.218 147.382 M50.800 149.719 C 50.800 149.784,50.080 150.541,49.200 151.400 C 47.302 153.254,47.082 153.018,48.841 151.014 C 49.878 149.833,50.800 149.224,50.800 149.719 M355.476 152.300 C 355.375 152.685,355.293 152.370,355.293 151.600 C 355.293 150.830,355.375 150.515,355.476 150.900 C 355.576 151.285,355.576 151.915,355.476 152.300 M41.457 160.411 C 39.914 160.874,38.868 161.884,38.395 163.367 L 38.003 164.600 38.204 163.238 C 38.509 161.168,39.789 160.037,41.800 160.060 C 42.346 160.066,42.236 160.178,41.457 160.411 M359.135 161.565 C 360.140 162.103,360.653 162.991,361.421 165.522 C 362.274 168.332,362.089 169.329,361.184 166.800 C 360.176 163.984,359.293 162.795,357.469 161.800 C 356.662 161.360,356.002 160.878,356.001 160.728 C 356.000 160.405,357.933 160.922,359.135 161.565 M37.887 167.895 C 37.795 168.503,37.717 168.100,37.714 167.000 C 37.711 165.900,37.787 165.403,37.882 165.895 C 37.977 166.386,37.979 167.286,37.887 167.895 M362.283 171.695 C 362.187 172.193,362.105 171.880,362.101 171.000 C 362.096 170.120,362.175 169.713,362.275 170.095 C 362.375 170.478,362.379 171.198,362.283 171.695 M131.400 172.166 C 130.300 172.439,128.683 173.054,127.806 173.532 C 126.929 174.009,126.041 174.400,125.832 174.400 C 125.623 174.400,125.023 174.803,124.499 175.295 C 123.975 175.787,122.344 176.822,120.873 177.595 C 114.497 180.947,111.816 193.072,115.212 203.200 C 116.763 207.823,116.936 208.139,119.184 210.417 C 120.403 211.654,121.850 213.434,122.400 214.374 C 122.950 215.314,125.110 217.831,127.200 219.968 C 134.152 227.077,137.260 230.550,138.042 232.083 C 138.468 232.917,139.495 234.029,140.325 234.553 C 142.188 235.728,144.323 238.118,145.036 239.825 C 145.373 240.631,146.265 241.514,147.436 242.200 C 148.461 242.801,149.997 243.922,150.849 244.692 C 152.505 246.188,153.897 246.283,157.506 245.145 C 158.422 244.857,159.889 244.874,162.412 245.202 C 166.438 245.725,167.450 245.380,171.522 242.098 C 173.447 240.547,173.449 240.528,172.017 235.800 C 171.140 232.903,171.212 234.649,171.216 216.200 C 171.218 207.840,171.407 199.380,171.635 197.400 C 171.863 195.420,171.926 192.186,171.776 190.213 L 171.501 186.625 168.451 183.272 C 165.008 179.488,161.286 177.121,157.600 176.372 C 156.390 176.126,153.544 175.123,151.276 174.142 C 145.598 171.688,136.826 170.816,131.400 172.166 M256.341 171.978 C 253.969 172.177,252.935 172.471,251.741 173.287 C 250.201 174.339,243.288 177.200,242.287 177.200 C 241.244 177.200,237.655 179.257,237.028 180.214 C 236.676 180.751,235.716 181.537,234.894 181.961 C 234.072 182.385,232.680 183.476,231.800 184.386 L 230.200 186.039 230.322 210.119 C 230.424 230.070,230.343 234.749,229.852 237.400 L 229.260 240.600 230.301 242.125 C 232.450 245.270,233.388 245.742,236.791 245.394 C 240.896 244.973,241.380 244.990,244.702 245.677 C 247.115 246.176,247.678 246.188,248.046 245.744 C 248.290 245.451,249.768 244.571,251.331 243.789 C 254.798 242.054,255.427 241.506,256.354 239.412 C 257.086 237.757,259.240 235.600,260.161 235.600 C 260.855 235.600,262.158 234.101,263.116 232.200 C 264.037 230.373,265.270 229.150,267.000 228.347 C 267.709 228.018,268.609 227.038,269.200 225.951 C 270.548 223.472,271.103 222.853,273.137 221.558 C 274.236 220.858,275.186 219.818,275.722 218.726 C 276.188 217.777,277.685 215.869,279.049 214.486 C 281.881 211.615,284.387 207.813,285.150 205.231 C 285.450 204.219,286.324 202.798,287.195 201.910 C 290.216 198.828,289.750 189.111,286.398 185.302 C 285.543 184.331,284.541 182.606,284.171 181.468 C 283.286 178.741,282.345 177.783,279.749 176.966 C 278.565 176.594,276.661 175.591,275.517 174.738 C 271.743 171.922,266.312 171.140,256.341 171.978 M151.208 186.361 L 153.016 186.400 152.864 189.393 C 152.688 192.884,153.034 193.200,157.026 193.200 L 159.200 193.200 159.175 211.300 C 159.159 222.205,159.009 229.051,158.796 228.522 C 158.389 227.512,156.566 227.040,153.916 227.258 L 152.200 227.400 152.310 224.600 C 152.459 220.829,152.282 220.637,148.517 220.467 L 145.400 220.326 145.536 217.484 C 145.706 213.919,145.365 213.600,141.377 213.600 L 138.507 213.600 138.712 210.737 C 138.968 207.159,138.604 206.800,134.724 206.800 C 131.637 206.800,131.788 207.025,131.978 202.717 C 132.095 200.045,131.746 199.827,127.726 200.063 L 125.400 200.200 125.600 196.600 L 125.800 193.000 128.090 192.796 C 131.184 192.520,131.758 191.885,131.781 188.704 L 131.800 186.200 140.600 186.261 C 145.440 186.294,150.213 186.339,151.208 186.361 M273.256 186.379 L 274.313 186.400 274.598 190.776 C 274.756 193.182,274.758 196.242,274.603 197.576 L 274.321 200.000 272.187 200.000 C 268.250 200.000,267.889 200.329,268.062 203.756 L 268.210 206.699 265.218 206.925 C 261.587 207.200,261.200 207.594,261.200 211.021 L 261.200 213.489 258.309 213.845 C 254.933 214.260,254.416 214.844,254.406 218.253 C 254.399 220.536,254.077 220.784,251.100 220.795 C 248.462 220.804,247.248 223.607,247.619 228.831 C 247.672 229.584,247.690 231.055,247.658 232.100 L 247.600 234.000 244.200 234.000 L 240.800 234.000 240.800 213.600 L 240.800 193.200 243.500 193.194 C 247.160 193.186,247.374 193.003,247.079 190.147 C 246.923 188.632,246.970 188.023,247.213 188.408 C 247.492 188.848,247.589 188.672,247.594 187.720 C 247.600 186.443,247.606 186.440,249.900 186.320 C 251.703 186.226,267.609 186.266,273.256 186.379 M127.005 188.313 L 125.450 189.800 126.825 188.169 C 127.581 187.272,128.281 186.603,128.380 186.683 C 128.479 186.762,127.860 187.496,127.005 188.313 M130.130 189.089 C 129.573 190.216,128.902 190.782,127.300 191.475 C 124.785 192.564,124.504 192.044,126.895 190.725 C 127.995 190.118,128.939 189.160,129.585 187.995 C 130.792 185.819,131.271 186.781,130.130 189.089 M155.600 191.889 C 156.254 192.215,156.373 192.390,155.944 192.394 C 154.925 192.403,153.660 191.123,153.381 189.800 C 153.129 188.609,153.133 188.610,153.864 189.994 C 154.269 190.761,155.050 191.614,155.600 191.889 M270.522 201.278 C 270.040 201.511,269.358 202.354,269.008 203.151 C 268.418 204.493,268.388 204.512,268.603 203.400 C 268.838 202.181,270.115 200.778,270.944 200.827 C 271.195 200.842,271.005 201.045,270.522 201.278 M137.824 208.580 C 138.177 209.120,138.382 209.885,138.280 210.280 C 138.128 210.864,138.084 210.835,138.046 210.129 C 138.021 209.650,137.526 208.885,136.946 208.429 C 136.192 207.836,136.076 207.600,136.537 207.600 C 136.891 207.600,137.471 208.041,137.824 208.580 M266.449 208.001 C 264.534 208.453,263.077 209.654,262.523 211.237 C 262.260 211.987,262.035 212.276,262.023 211.880 C 261.956 209.760,264.404 207.596,266.800 207.657 C 267.608 207.677,267.541 207.743,266.449 208.001 M362.283 209.695 C 362.187 210.193,362.105 209.880,362.101 209.000 C 362.096 208.120,362.175 207.713,362.275 208.095 C 362.375 208.478,362.379 209.198,362.283 209.695 M37.876 212.700 C 37.775 213.085,37.693 212.770,37.693 212.000 C 37.693 211.230,37.775 210.915,37.876 211.300 C 37.976 211.685,37.976 212.315,37.876 212.700 M361.593 213.489 C 360.611 217.114,359.779 218.088,356.900 218.976 C 355.468 219.418,355.835 218.480,357.341 217.851 C 358.859 217.216,359.927 215.849,361.029 213.127 C 361.980 210.779,362.275 210.969,361.593 213.489 M261.345 214.600 C 261.218 214.930,260.819 215.201,260.457 215.201 C 259.106 215.205,257.141 216.833,256.361 218.594 C 255.362 220.854,254.738 221.262,255.275 219.304 C 255.644 217.963,256.675 215.618,256.910 215.589 C 256.960 215.583,257.990 215.235,259.200 214.817 C 260.410 214.398,261.439 214.043,261.487 214.028 C 261.536 214.013,261.471 214.270,261.345 214.600 M358.800 214.125 C 358.800 214.194,358.215 214.779,357.500 215.425 L 356.200 216.600 357.375 215.300 C 358.470 214.088,358.800 213.816,358.800 214.125 M143.954 215.100 C 144.418 215.485,144.888 216.430,144.997 217.200 L 145.197 218.600 144.794 217.325 C 144.572 216.624,143.918 215.679,143.341 215.225 C 142.764 214.771,142.476 214.400,142.702 214.400 C 142.927 214.400,143.491 214.715,143.954 215.100 M40.101 218.586 C 40.583 218.924,40.758 219.200,40.489 219.200 C 39.844 219.200,38.397 217.736,38.412 217.100 C 38.419 216.816,38.597 216.896,38.824 217.286 C 39.044 217.663,39.618 218.248,40.101 218.586 M258.144 218.788 C 257.758 219.441,257.373 219.907,257.289 219.822 C 257.118 219.651,258.391 217.600,258.669 217.600 C 258.766 217.600,258.530 218.134,258.144 218.788 M150.618 222.182 C 151.158 222.722,151.594 223.397,151.586 223.682 C 151.578 223.967,151.323 223.751,151.020 223.203 C 150.716 222.654,149.957 221.987,149.334 221.721 C 148.576 221.397,148.438 221.230,148.918 221.218 C 149.313 221.208,150.078 221.642,150.618 222.182 M254.400 222.400 C 254.400 222.620,254.136 222.800,253.814 222.800 C 252.942 222.800,250.428 225.151,250.160 226.216 C 250.032 226.725,249.688 227.234,249.396 227.346 C 247.976 227.891,250.960 223.604,252.547 222.819 C 254.470 221.867,254.400 221.883,254.400 222.400 M354.637 230.573 C 353.977 232.153,352.118 233.222,350.113 233.173 C 349.286 233.153,349.510 233.009,350.983 232.614 C 353.305 231.990,354.295 230.935,354.697 228.652 C 354.934 227.306,355.012 227.196,355.117 228.059 C 355.187 228.641,354.971 229.773,354.637 230.573 M155.827 228.586 C 157.303 229.202,158.438 231.131,158.359 232.887 C 158.326 233.625,158.262 233.569,158.029 232.600 C 157.600 230.823,156.892 229.678,155.891 229.140 C 155.401 228.876,154.460 228.531,153.800 228.371 C 152.831 228.138,152.775 228.074,153.513 228.041 C 154.015 228.018,155.056 228.264,155.827 228.586 M53.866 239.479 C 54.624 239.803,54.762 239.970,54.282 239.982 C 53.453 240.003,51.593 238.285,51.614 237.518 C 51.622 237.233,51.877 237.449,52.180 237.997 C 52.484 238.546,53.243 239.213,53.866 239.479 M342.000 245.571 C 342.000 246.045,340.856 247.200,340.386 247.200 C 340.189 247.200,340.427 246.769,340.914 246.242 C 341.958 245.113,342.000 245.088,342.000 245.571 M337.415 249.090 C 336.417 250.074,335.587 251.266,335.572 251.740 C 335.545 252.572,335.533 252.574,335.221 251.800 C 335.037 251.343,335.071 250.784,335.301 250.497 C 335.523 250.220,335.603 249.375,335.481 248.620 C 335.269 247.315,335.321 247.240,336.529 247.120 C 339.226 246.852,339.367 247.166,337.415 249.090 M333.559 255.147 C 333.050 256.607,331.924 257.814,330.288 258.652 C 329.580 259.015,328.868 259.512,328.706 259.756 C 328.345 260.302,328.313 259.893,328.648 259.018 C 328.785 258.662,329.416 258.102,330.050 257.774 C 330.684 257.446,331.677 256.463,332.255 255.589 C 333.485 253.730,334.129 253.512,333.559 255.147 M326.844 263.395 C 326.032 265.230,324.302 266.424,322.513 266.384 C 322.109 266.375,322.406 266.106,323.197 265.763 C 325.126 264.926,326.291 263.740,326.854 262.041 C 327.116 261.249,327.403 260.817,327.492 261.081 C 327.581 261.346,327.289 262.387,326.844 263.395 M320.044 270.195 C 319.232 272.030,317.502 273.224,315.713 273.184 C 315.309 273.175,315.606 272.906,316.397 272.563 C 318.326 271.726,319.491 270.540,320.054 268.841 C 320.316 268.049,320.603 267.617,320.692 267.881 C 320.781 268.146,320.489 269.187,320.044 270.195 M314.579 274.700 C 314.263 275.305,314.004 276.034,314.002 276.320 C 313.994 278.168,312.481 279.472,309.300 280.375 C 307.344 280.930,307.734 280.508,310.172 279.429 C 312.229 278.519,313.600 276.969,313.600 275.551 C 313.600 275.126,314.725 273.600,315.038 273.600 C 315.101 273.600,314.894 274.095,314.579 274.700 M307.005 285.190 C 306.378 286.403,305.036 287.209,303.674 287.191 C 303.303 287.186,303.724 286.854,304.608 286.452 C 306.144 285.754,307.131 284.422,307.254 282.881 C 307.290 282.436,307.368 282.502,307.479 283.073 C 307.572 283.553,307.359 284.506,307.005 285.190 M170.200 287.088 C 165.526 287.344,158.400 288.139,158.400 288.406 C 158.400 290.749,168.048 291.769,180.217 290.711 C 184.630 290.327,187.753 290.261,190.217 290.498 C 192.188 290.689,199.290 290.731,206.000 290.593 C 213.993 290.428,219.710 290.497,222.578 290.792 C 229.261 291.480,244.192 290.135,245.463 288.731 C 246.096 288.030,246.017 288.000,243.562 287.990 C 242.153 287.984,239.200 287.789,237.000 287.556 C 233.632 287.200,175.585 286.793,170.200 287.088 M100.930 290.300 C 100.526 294.676,100.075 295.282,100.036 291.500 C 100.007 288.717,100.117 288.000,100.571 288.000 C 101.024 288.000,101.098 288.475,100.930 290.300 M82.888 310.053 C 80.386 311.015,79.801 311.796,79.018 315.225 L 78.429 317.800 78.659 315.600 C 79.052 311.840,79.984 310.294,82.274 309.607 C 84.508 308.936,84.952 309.260,82.888 310.053 M320.400 310.000 C 320.840 310.440,321.188 311.025,321.173 311.300 C 321.158 311.575,320.959 311.414,320.731 310.942 C 320.502 310.471,319.929 309.898,319.458 309.669 C 318.986 309.441,318.825 309.242,319.100 309.227 C 319.375 309.212,319.960 309.560,320.400 310.000 M324.369 341.051 C 325.137 342.028,325.198 342.609,325.174 348.754 L 325.148 355.400 324.219 351.600 C 323.708 349.510,323.166 346.587,323.014 345.104 C 322.862 343.622,322.571 342.306,322.369 342.181 C 322.166 342.055,322.000 341.327,322.000 340.562 C 322.000 338.947,322.852 339.123,324.369 341.051 M324.516 363.779 C 324.122 364.313,323.404 364.967,322.920 365.232 C 322.437 365.497,321.981 366.093,321.908 366.557 C 321.795 367.277,321.743 367.242,321.546 366.312 C 321.402 365.634,321.467 365.318,321.717 365.473 C 321.980 365.635,322.023 364.994,321.841 363.625 C 321.670 362.335,321.709 361.620,321.942 361.764 C 322.378 362.034,323.656 360.013,324.454 357.791 L 325.000 356.274 325.116 359.540 C 325.210 362.177,325.094 362.994,324.516 363.779 M79.892 368.300 C 80.255 368.575,80.349 368.800,80.099 368.800 C 79.512 368.800,78.393 367.202,78.425 366.411 C 78.439 366.075,78.626 366.250,78.841 366.800 C 79.055 367.350,79.528 368.025,79.892 368.300 " stroke="none" fill="#2d2c2c" fill-rule="evenodd"></path><path id="path3" d="M230.298 25.813 C 230.779 26.151,231.449 26.821,231.787 27.302 C 232.124 27.784,232.400 27.982,232.400 27.744 C 232.400 27.179,230.421 25.200,229.856 25.200 C 229.618 25.200,229.816 25.476,230.298 25.813 M170.975 28.900 L 169.800 30.200 171.100 29.025 C 172.312 27.930,172.584 27.600,172.275 27.600 C 172.206 27.600,171.621 28.185,170.975 28.900 M168.796 31.700 C 168.360 32.415,168.009 33.270,168.017 33.600 C 168.025 33.930,168.299 33.582,168.627 32.828 C 168.954 32.073,169.419 31.218,169.660 30.928 C 169.901 30.637,169.983 30.400,169.843 30.400 C 169.703 30.400,169.232 30.985,168.796 31.700 M192.286 36.456 C 191.674 36.913,189.874 37.619,188.286 38.026 C 182.259 39.569,181.343 42.424,182.639 55.618 C 182.908 58.355,182.141 60.658,180.142 63.122 C 179.363 64.082,176.830 63.924,174.000 62.740 C 170.360 61.218,164.257 61.705,162.900 63.627 C 162.625 64.017,161.508 64.632,160.418 64.994 C 155.633 66.583,155.107 68.360,155.271 82.400 C 155.441 96.907,155.603 97.271,162.518 98.627 C 165.813 99.273,166.287 99.275,170.000 98.658 C 172.180 98.296,175.388 98.000,177.128 98.000 L 180.291 98.000 181.311 99.500 C 183.591 102.855,183.781 104.433,182.447 108.965 C 181.794 111.184,180.785 114.620,180.205 116.600 C 179.625 118.580,178.803 121.715,178.378 123.566 C 177.577 127.054,177.027 128.209,175.248 130.134 C 173.455 132.075,173.142 132.105,169.940 130.637 C 168.323 129.896,164.480 128.470,161.400 127.468 C 158.320 126.466,154.990 125.289,154.000 124.852 C 153.010 124.415,150.220 123.762,147.800 123.401 C 145.380 123.039,139.800 122.205,135.400 121.547 C 119.823 119.215,118.777 119.195,105.907 120.991 C 96.140 122.353,95.690 122.479,93.915 124.344 C 92.936 125.373,91.659 126.181,90.301 126.630 C 85.955 128.066,82.500 130.010,81.437 131.616 C 80.720 132.699,79.666 133.510,77.842 134.380 C 75.364 135.563,73.200 137.511,73.200 138.561 C 73.200 139.225,71.620 140.680,69.948 141.555 C 68.964 142.070,68.224 143.008,67.206 145.029 C 66.408 146.614,64.986 148.586,63.877 149.643 C 61.845 151.581,60.434 154.167,59.349 157.942 C 58.519 160.829,57.761 162.300,56.407 163.654 C 50.504 169.557,50.950 210.149,56.986 216.400 C 57.730 217.170,58.994 219.190,59.795 220.889 C 60.774 222.964,61.825 224.483,63.000 225.516 C 63.961 226.362,65.667 228.430,66.791 230.110 C 67.915 231.791,69.862 234.210,71.117 235.487 C 72.373 236.763,74.082 238.837,74.916 240.096 C 75.750 241.354,77.087 242.882,77.888 243.492 C 78.689 244.101,80.135 245.672,81.101 246.983 C 82.067 248.294,83.740 249.961,84.819 250.687 C 85.898 251.414,87.513 252.999,88.407 254.210 C 89.302 255.420,90.734 256.853,91.590 257.394 C 92.447 257.935,93.654 259.057,94.274 259.888 C 94.893 260.720,96.691 262.660,98.268 264.200 C 99.845 265.740,101.429 267.593,101.787 268.317 C 102.145 269.041,103.407 270.383,104.591 271.299 C 105.775 272.215,107.161 273.693,107.672 274.582 C 108.182 275.472,109.611 277.190,110.846 278.400 C 112.187 279.714,113.609 281.648,114.375 283.200 C 117.708 289.953,122.063 292.102,130.283 291.048 C 132.877 290.716,136.565 290.263,138.477 290.043 C 140.390 289.822,142.820 289.270,143.877 288.815 C 151.678 285.462,236.800 284.611,251.711 287.738 C 254.627 288.350,260.786 288.111,265.431 287.206 C 267.764 286.751,267.841 286.766,270.529 288.172 C 273.664 289.812,273.887 289.834,278.232 288.934 L 281.464 288.264 283.986 284.298 C 285.372 282.116,287.267 279.582,288.196 278.666 C 289.124 277.750,290.545 275.966,291.353 274.702 C 292.161 273.438,293.312 272.100,293.911 271.729 C 295.872 270.514,297.258 269.032,298.247 267.095 C 298.917 265.781,299.806 264.826,301.109 264.016 C 302.217 263.329,303.585 261.964,304.412 260.722 C 305.188 259.555,306.433 258.241,307.179 257.800 C 308.919 256.772,311.179 254.509,312.205 252.767 C 312.647 252.015,313.851 250.860,314.880 250.200 C 315.968 249.502,317.325 248.109,318.125 246.870 C 318.908 245.658,320.325 244.194,321.417 243.470 C 322.890 242.494,323.657 241.570,324.725 239.483 C 325.817 237.350,326.496 236.543,327.884 235.730 C 329.272 234.916,329.900 234.170,330.812 232.247 C 331.451 230.901,332.765 228.899,333.733 227.797 C 335.393 225.907,337.939 221.403,338.591 219.200 C 338.754 218.650,339.770 216.400,340.848 214.200 C 346.239 203.203,346.989 181.814,342.455 168.400 C 338.400 156.401,337.192 153.425,335.395 151.000 C 334.906 150.340,333.741 148.314,332.807 146.497 C 331.688 144.321,330.568 142.766,329.524 141.940 C 328.654 141.250,327.228 139.721,326.357 138.542 C 325.199 136.974,324.119 136.068,322.336 135.168 C 320.996 134.491,319.067 133.163,318.049 132.217 C 316.139 130.440,312.097 128.215,308.095 126.738 C 306.833 126.272,305.024 125.441,304.076 124.893 C 296.108 120.285,262.045 120.004,250.104 124.448 C 248.360 125.097,232.514 130.577,227.543 132.250 C 226.099 132.736,223.469 127.623,222.838 123.103 C 222.134 118.056,221.260 114.537,219.761 110.712 C 217.663 105.360,217.812 101.182,220.170 99.225 C 221.313 98.276,227.176 97.872,230.705 98.498 C 233.828 99.052,234.194 99.038,237.363 98.242 C 243.365 96.735,244.227 94.970,243.824 85.010 C 243.602 79.519,243.669 77.697,244.168 75.600 C 245.437 70.278,243.210 63.600,240.166 63.600 C 239.855 63.600,239.600 63.457,239.600 63.283 C 239.600 63.024,237.213 62.127,234.488 61.360 C 234.207 61.281,233.005 61.469,231.817 61.779 C 230.629 62.088,227.552 62.549,224.978 62.802 L 220.298 63.263 218.792 61.792 C 216.097 59.160,215.811 58.012,216.588 52.947 C 218.278 41.942,217.442 38.954,212.282 37.570 C 211.357 37.322,209.891 36.777,209.025 36.359 C 206.563 35.173,193.909 35.246,192.286 36.456 M167.293 37.600 C 167.293 38.370,167.375 38.685,167.476 38.300 C 167.576 37.915,167.576 37.285,167.476 36.900 C 167.375 36.515,167.293 36.830,167.293 37.600 M211.565 39.731 C 215.556 41.267,216.347 43.113,215.003 47.752 C 212.689 55.736,213.901 62.605,218.000 64.736 C 219.748 65.644,220.016 65.665,227.320 65.467 C 237.787 65.182,240.540 65.957,242.466 69.729 C 243.337 71.437,242.524 75.117,240.787 77.325 C 240.175 78.103,240.098 78.546,240.392 79.572 C 241.122 82.117,241.658 91.519,241.122 92.377 C 240.178 93.889,236.096 95.402,233.200 95.314 C 219.918 94.909,219.019 95.018,216.890 97.299 C 215.378 98.918,214.985 104.040,216.056 108.170 C 216.517 109.947,217.210 113.224,217.597 115.454 C 217.983 117.684,218.769 120.533,219.342 121.786 C 219.916 123.039,220.746 125.581,221.186 127.435 C 222.318 132.202,223.246 133.838,225.415 134.892 L 227.201 135.760 230.301 134.856 C 232.005 134.359,234.075 133.511,234.900 132.971 C 237.084 131.541,239.671 130.673,248.400 128.444 C 252.690 127.349,257.010 126.159,258.000 125.801 C 264.925 123.294,291.964 123.431,298.000 126.003 C 301.157 127.348,306.531 129.200,307.278 129.200 C 308.438 129.200,313.496 131.978,315.373 133.647 C 316.458 134.611,318.613 136.030,320.162 136.800 C 322.522 137.973,323.223 138.569,324.486 140.479 C 325.315 141.732,326.783 143.301,327.749 143.965 C 329.173 144.944,329.709 145.685,330.588 147.886 C 331.185 149.379,331.823 150.782,332.007 151.005 C 332.190 151.228,332.742 152.488,333.234 153.805 C 333.725 155.122,334.530 156.830,335.023 157.600 C 338.161 162.509,340.569 186.485,338.879 196.000 C 337.277 205.020,333.132 215.419,330.173 217.844 C 329.057 218.758,327.930 220.203,327.268 221.569 C 326.299 223.566,325.923 223.927,323.677 225.014 C 321.622 226.008,320.969 226.577,320.059 228.165 C 319.266 229.551,318.330 230.465,316.775 231.375 C 315.579 232.075,314.240 233.252,313.800 233.991 C 312.713 235.815,310.465 238.054,308.882 238.888 C 308.164 239.267,307.267 240.144,306.888 240.839 C 305.752 242.922,304.383 244.392,302.850 245.175 C 301.168 246.033,300.214 247.006,299.229 248.868 C 298.841 249.601,297.469 250.927,296.179 251.815 C 294.561 252.929,293.436 254.113,292.545 255.637 C 291.666 257.142,290.769 258.091,289.728 258.619 C 287.572 259.711,286.808 260.406,286.225 261.802 C 285.707 263.041,284.094 264.561,281.631 266.128 C 280.877 266.608,279.693 267.810,278.999 268.800 C 278.306 269.790,276.716 271.379,275.467 272.330 C 273.840 273.569,272.887 274.689,272.111 276.275 C 270.763 279.027,267.921 281.588,264.200 283.403 C 260.649 285.135,258.010 285.234,240.800 284.280 C 202.944 282.181,135.966 284.206,131.208 287.594 C 126.307 291.084,119.626 288.317,116.137 281.352 C 114.762 278.608,112.912 276.400,111.986 276.400 C 111.792 276.400,111.147 275.545,110.551 274.500 C 109.181 272.095,107.802 270.566,105.906 269.354 C 105.011 268.781,104.021 267.626,103.437 266.473 C 102.530 264.682,99.632 261.600,98.855 261.600 C 98.667 261.600,97.860 260.616,97.062 259.414 C 96.218 258.143,94.733 256.637,93.512 255.815 C 92.358 255.038,90.770 253.467,89.983 252.324 C 89.197 251.182,87.672 249.640,86.596 248.898 C 85.519 248.156,84.040 246.661,83.310 245.576 C 82.579 244.491,81.045 242.864,79.900 241.959 C 78.756 241.054,77.332 239.461,76.737 238.419 C 76.142 237.378,74.324 235.102,72.697 233.363 C 71.070 231.623,69.006 229.111,68.110 227.781 C 67.214 226.451,65.668 224.697,64.676 223.883 C 63.357 222.803,62.444 221.515,61.286 219.102 C 60.414 217.286,59.051 214.841,58.257 213.670 C 55.112 209.030,53.837 202.327,53.866 190.600 C 53.899 176.878,54.723 171.730,57.899 165.389 C 58.777 163.635,59.805 161.120,60.183 159.800 C 61.145 156.441,62.375 154.129,64.781 151.160 C 65.922 149.752,67.484 147.483,68.252 146.117 C 69.114 144.585,70.194 143.298,71.070 142.757 C 71.852 142.274,73.299 140.781,74.287 139.439 C 75.557 137.714,76.725 136.655,78.279 135.821 C 79.487 135.173,81.578 133.658,82.926 132.456 C 85.338 130.304,88.062 128.829,92.512 127.265 C 93.754 126.828,95.546 125.914,96.493 125.234 C 102.320 121.049,131.405 121.534,143.518 126.018 C 144.683 126.449,147.203 127.073,149.118 127.405 C 156.983 128.766,166.278 131.518,168.084 133.020 C 170.128 134.719,172.543 135.376,174.615 134.796 C 179.018 133.563,180.549 130.457,183.203 117.378 C 183.830 114.286,184.732 110.236,185.208 108.378 C 186.354 103.904,186.066 99.015,184.552 97.215 C 182.541 94.826,175.312 93.721,171.176 95.169 C 167.724 96.378,166.192 96.528,162.752 95.993 C 157.063 95.107,156.800 94.451,156.800 81.106 L 156.800 70.986 157.814 69.494 C 159.953 66.346,164.524 64.933,170.584 65.548 C 180.219 66.524,180.665 66.378,183.072 61.446 C 184.454 58.611,184.458 58.586,184.130 55.000 C 182.773 40.196,184.723 38.374,201.441 38.826 C 207.931 39.001,210.195 39.204,211.565 39.731 M233.324 48.600 C 233.326 49.920,233.401 50.412,233.490 49.693 C 233.579 48.974,233.577 47.894,233.486 47.293 C 233.395 46.692,233.322 47.280,233.324 48.600 M255.890 52.530 C 257.609 53.156,258.732 54.339,259.408 56.236 C 259.714 57.096,259.973 57.479,259.982 57.087 C 260.038 54.838,257.427 51.959,255.400 52.032 C 254.844 52.052,254.993 52.204,255.890 52.530 M142.400 65.670 C 142.400 66.441,142.668 67.956,142.996 69.036 C 143.876 71.939,143.860 90.783,142.974 93.830 C 141.790 97.903,142.410 99.116,143.777 95.400 L 144.954 92.200 144.957 81.400 C 144.960 70.643,144.956 70.588,143.873 67.626 C 142.572 64.068,142.400 63.839,142.400 65.670 M275.700 105.498 C 277.625 105.571,280.775 105.571,282.700 105.498 C 284.625 105.425,283.050 105.365,279.200 105.365 C 275.350 105.365,273.775 105.425,275.700 105.498 M299.736 106.852 C 300.141 107.088,300.719 107.847,301.021 108.540 C 301.322 109.233,301.576 109.509,301.584 109.154 C 301.604 108.344,300.102 106.396,299.471 106.412 C 299.212 106.419,299.331 106.617,299.736 106.852 M301.600 110.743 C 301.600 111.625,302.387 112.204,303.211 111.930 C 303.451 111.850,303.187 111.351,302.624 110.822 L 301.600 109.861 301.600 110.743 M342.400 136.359 C 342.400 136.822,345.103 139.200,345.630 139.200 C 345.851 139.200,345.366 138.480,344.552 137.600 C 343.109 136.041,342.400 135.632,342.400 136.359 M352.778 146.841 C 353.317 147.056,353.955 147.360,354.197 147.516 C 354.440 147.672,354.294 147.485,353.875 147.100 C 353.455 146.715,352.816 146.411,352.456 146.425 C 352.041 146.441,352.160 146.594,352.778 146.841 M48.530 147.784 C 47.118 148.398,46.160 149.646,45.598 151.605 C 45.135 153.223,45.380 152.999,46.518 150.766 C 47.154 149.517,47.902 148.782,49.200 148.129 C 51.144 147.150,50.614 146.877,48.530 147.784 M38.998 161.202 C 37.975 162.332,38.410 162.437,39.486 161.320 C 39.973 160.814,40.226 160.400,40.048 160.400 C 39.870 160.400,39.397 160.761,38.998 161.202 M356.000 160.609 C 356.000 160.694,356.817 161.124,357.816 161.566 C 359.332 162.236,359.793 162.718,360.609 164.484 C 361.249 165.868,361.501 166.185,361.337 165.400 C 360.962 163.594,360.092 162.077,359.140 161.568 C 358.156 161.041,356.000 160.383,356.000 160.609 M134.762 167.615 C 128.066 168.356,124.317 169.662,121.557 172.219 C 120.543 173.158,119.013 174.286,118.157 174.726 C 116.072 175.798,114.728 177.312,113.275 180.224 C 112.610 181.557,111.772 182.891,111.414 183.188 C 107.450 186.478,107.279 202.577,111.183 204.989 C 111.401 205.125,112.398 206.819,113.398 208.754 C 114.398 210.689,116.067 213.154,117.108 214.231 C 119.462 216.668,122.800 220.784,122.800 221.252 C 122.800 221.444,123.655 222.221,124.700 222.978 C 125.745 223.736,127.230 225.198,128.000 226.227 C 129.401 228.101,130.429 229.200,132.782 231.344 C 133.472 231.973,134.642 233.385,135.381 234.482 C 136.119 235.579,137.625 237.083,138.727 237.825 C 140.220 238.831,140.992 239.729,141.762 241.357 C 142.397 242.699,143.505 244.129,144.639 245.070 C 145.654 245.911,147.161 247.258,147.989 248.063 C 150.808 250.800,151.142 250.873,159.522 250.593 C 170.740 250.217,173.987 248.991,175.970 244.382 C 176.840 242.359,176.840 242.355,176.720 214.479 L 176.600 186.600 175.679 184.993 C 175.172 184.109,174.114 182.945,173.327 182.406 C 172.540 181.867,171.225 180.517,170.405 179.406 C 169.130 177.681,168.248 177.051,164.356 175.086 C 161.850 173.820,158.990 172.251,158.000 171.599 C 154.171 169.078,141.376 166.884,134.762 167.615 M256.600 167.880 C 251.469 168.346,244.529 170.596,243.175 172.232 C 242.859 172.614,241.160 173.590,239.400 174.402 C 233.612 177.069,228.473 181.148,225.727 185.254 L 224.755 186.708 224.744 214.540 L 224.734 242.371 225.854 244.429 C 228.468 249.231,230.937 250.235,241.042 250.608 C 248.985 250.901,249.894 250.713,252.683 248.192 C 253.297 247.637,254.608 246.594,255.595 245.874 C 256.583 245.155,257.753 243.995,258.195 243.296 C 258.638 242.597,259.360 241.445,259.800 240.735 C 260.240 240.025,261.410 238.976,262.400 238.404 C 263.659 237.676,264.618 236.660,265.591 235.022 C 266.561 233.390,267.569 232.319,268.916 231.491 C 270.266 230.660,271.218 229.647,272.073 228.133 C 272.746 226.940,273.739 225.658,274.281 225.282 C 276.384 223.826,277.853 222.421,278.410 221.334 C 279.381 219.438,280.933 217.614,282.234 216.840 C 282.986 216.392,284.300 214.717,285.598 212.553 C 286.770 210.599,288.413 208.216,289.251 207.259 C 294.280 201.507,294.253 185.713,289.206 181.467 C 288.584 180.943,287.705 179.790,287.253 178.903 C 286.169 176.779,284.328 174.981,282.051 173.822 C 281.033 173.303,279.750 172.394,279.200 171.802 C 276.285 168.661,266.566 166.974,256.600 167.880 M143.231 170.579 C 148.912 171.335,151.949 172.167,155.062 173.818 C 156.495 174.578,157.925 175.200,158.241 175.200 C 161.331 175.200,171.796 183.335,173.365 186.958 C 173.574 187.440,173.693 197.449,173.644 210.400 C 173.595 223.441,173.729 234.587,173.961 236.753 C 174.660 243.283,170.688 247.185,163.316 247.211 C 161.602 247.217,158.517 247.384,156.460 247.583 L 152.719 247.945 149.660 245.608 C 145.660 242.553,144.426 241.320,143.127 239.084 C 142.534 238.063,141.142 236.582,140.013 235.771 C 138.890 234.964,137.694 233.768,137.355 233.113 C 137.016 232.457,135.448 230.554,133.869 228.882 C 132.291 227.211,129.380 224.123,127.400 222.021 C 125.420 219.920,122.990 217.133,122.000 215.830 C 121.010 214.526,119.467 212.636,118.572 211.630 C 116.156 208.914,115.228 207.441,114.597 205.314 C 114.284 204.261,113.477 202.532,112.804 201.471 C 110.498 197.835,111.099 188.951,113.956 184.448 C 114.601 183.432,115.423 181.882,115.783 181.005 C 116.646 178.905,117.786 177.732,120.114 176.546 C 121.167 176.010,122.739 174.930,123.607 174.146 C 125.634 172.315,130.262 170.766,134.800 170.401 C 136.670 170.250,138.380 170.102,138.600 170.071 C 138.820 170.041,140.904 170.269,143.231 170.579 M271.901 171.359 C 273.983 171.865,275.279 172.463,276.494 173.479 C 277.425 174.256,279.090 175.299,280.193 175.796 C 282.523 176.845,284.502 178.783,285.370 180.865 C 285.707 181.671,286.692 183.151,287.560 184.154 C 291.401 188.591,291.282 199.822,287.345 204.531 C 286.825 205.153,286.400 205.853,286.400 206.087 C 286.400 206.983,281.961 213.482,280.175 215.200 C 279.146 216.190,277.707 217.919,276.977 219.042 C 276.247 220.165,274.727 221.856,273.600 222.800 C 272.473 223.744,270.949 225.456,270.214 226.606 C 269.478 227.755,268.094 229.221,267.138 229.862 C 266.182 230.504,265.040 231.636,264.600 232.378 C 264.160 233.120,263.170 234.329,262.400 235.066 C 258.294 238.993,257.295 240.052,256.190 241.650 C 255.418 242.768,254.174 243.834,252.749 244.600 C 251.521 245.260,249.842 246.318,249.017 246.952 L 247.518 248.104 243.544 247.652 C 241.359 247.403,238.294 247.200,236.733 247.200 C 233.309 247.200,231.907 246.471,229.518 243.449 L 227.901 241.402 228.250 238.601 C 228.443 237.061,228.600 224.625,228.600 210.967 L 228.600 186.134 229.893 184.661 C 232.849 181.293,237.607 177.859,241.635 176.185 C 243.456 175.429,245.588 174.387,246.373 173.869 C 251.231 170.664,263.913 169.417,271.901 171.359 M130.081 187.722 C 129.551 189.193,127.553 191.200,126.618 191.200 C 126.332 191.200,125.874 191.470,125.600 191.800 C 124.934 192.603,127.845 191.436,128.941 190.461 C 129.931 189.580,130.878 187.697,130.724 186.915 C 130.653 186.555,130.377 186.902,130.081 187.722 M360.807 214.580 C 360.329 216.028,357.971 218.400,357.010 218.400 C 356.700 218.400,356.343 218.568,356.216 218.774 C 355.917 219.258,357.961 218.681,359.127 217.952 C 359.969 217.427,360.815 215.982,361.382 214.100 C 361.823 212.640,361.304 213.073,360.807 214.580 M258.155 215.192 C 257.133 215.605,255.600 217.477,255.600 218.313 C 255.600 218.646,256.009 218.307,256.508 217.559 C 257.007 216.812,258.042 215.885,258.808 215.501 C 260.213 214.794,259.718 214.560,258.155 215.192 M354.199 230.802 C 354.060 231.243,353.462 231.865,352.873 232.186 C 352.283 232.506,352.033 232.775,352.318 232.784 C 352.931 232.803,354.800 231.021,354.800 230.418 C 354.800 229.733,354.472 229.942,354.199 230.802 M332.652 255.748 C 332.020 256.826,331.073 257.759,330.181 258.182 C 329.386 258.560,328.823 258.956,328.930 259.064 C 329.627 259.761,332.922 256.972,333.559 255.147 C 334.121 253.533,333.841 253.719,332.652 255.748 M326.120 264.124 C 325.944 264.412,325.355 264.952,324.811 265.324 C 323.728 266.065,323.999 266.243,325.217 265.591 C 325.638 265.366,326.172 264.826,326.405 264.391 C 326.872 263.518,326.629 263.290,326.120 264.124 M319.320 270.924 C 319.144 271.212,318.555 271.752,318.011 272.124 C 316.928 272.865,317.199 273.043,318.417 272.391 C 318.838 272.166,319.372 271.626,319.605 271.191 C 320.072 270.318,319.829 270.090,319.320 270.924 M313.324 277.195 C 313.082 277.836,312.280 278.729,311.542 279.179 C 310.001 280.119,310.291 280.284,311.964 279.419 C 312.975 278.896,314.364 276.631,313.936 276.202 C 313.841 276.108,313.566 276.555,313.324 277.195 M306.101 285.840 C 305.606 286.404,305.411 286.796,305.667 286.711 C 306.098 286.567,307.480 284.791,307.149 284.807 C 307.067 284.811,306.595 285.276,306.101 285.840 M100.000 290.867 C 100.000 292.443,100.066 293.658,100.147 293.567 C 100.485 293.183,100.678 288.000,100.354 288.000 C 100.159 288.000,100.000 289.290,100.000 290.867 M184.200 292.864 C 182.880 293.009,178.421 293.333,174.291 293.585 C 169.904 293.852,166.092 294.285,165.124 294.627 C 164.075 294.997,160.442 295.361,155.233 295.618 C 128.680 296.928,117.372 298.347,113.948 300.800 C 113.369 301.214,111.479 302.108,109.748 302.785 C 103.798 305.115,102.290 306.036,101.216 307.998 C 100.675 308.986,99.190 310.825,97.916 312.083 C 96.642 313.341,95.600 314.484,95.600 314.623 C 95.600 314.762,94.881 318.055,94.002 321.941 C 91.768 331.822,91.519 334.209,91.836 342.721 C 92.148 351.106,92.403 351.835,95.600 353.477 L 97.400 354.401 200.017 354.403 C 312.589 354.406,304.780 354.576,308.267 352.051 C 310.922 350.127,311.004 349.634,310.496 338.646 L 310.051 329.000 308.413 324.000 C 307.512 321.250,306.491 317.764,306.145 316.254 C 305.512 313.495,303.426 310.400,302.199 310.400 C 301.694 310.400,300.789 309.239,299.587 307.045 C 298.857 305.715,297.461 304.893,293.047 303.195 C 291.313 302.527,289.394 301.561,288.784 301.048 C 287.077 299.612,274.181 297.058,266.362 296.608 C 264.293 296.489,257.020 296.103,250.200 295.750 C 242.111 295.332,237.244 294.913,236.200 294.546 C 235.226 294.204,231.501 293.835,226.681 293.603 C 222.325 293.394,218.550 293.093,218.291 292.933 C 217.700 292.567,187.452 292.506,184.200 292.864 M237.182 296.397 C 239.722 296.607,245.490 296.976,250.000 297.217 C 267.545 298.152,269.954 298.359,275.200 299.390 C 285.638 301.442,295.693 305.169,297.758 307.753 C 298.441 308.608,300.125 310.536,301.500 312.038 C 302.875 313.540,304.000 314.887,304.000 315.033 C 304.000 315.277,304.618 319.766,305.592 326.600 C 306.382 332.146,307.247 344.650,307.004 347.012 C 306.625 350.687,304.602 351.879,299.200 351.612 C 292.925 351.302,107.364 351.376,102.491 351.691 L 97.983 351.982 96.332 350.491 L 94.681 349.000 94.931 339.400 C 95.131 331.712,95.381 328.685,96.185 324.200 C 96.738 321.120,97.312 317.881,97.462 317.002 C 97.639 315.961,98.372 314.627,99.567 313.172 C 100.575 311.944,101.963 310.123,102.652 309.127 C 104.223 306.851,107.119 305.160,112.971 303.103 C 125.135 298.826,125.968 298.716,162.000 296.600 C 178.915 295.607,226.120 295.479,237.182 296.397 M80.369 310.769 C 79.726 311.412,79.207 312.177,79.216 312.469 C 79.225 312.761,79.508 312.491,79.845 311.868 C 80.183 311.246,81.031 310.488,81.729 310.184 C 82.537 309.833,82.734 309.626,82.269 309.616 C 81.867 309.607,81.012 310.126,80.369 310.769 M322.000 339.981 C 322.000 340.293,322.351 340.922,322.780 341.379 C 323.342 341.977,323.685 343.233,324.006 345.870 C 324.739 351.900,325.213 352.440,325.048 347.058 L 324.902 342.315 323.451 340.864 C 322.613 340.026,322.000 339.653,322.000 339.981 M324.860 358.822 C 324.766 359.800,322.431 363.267,322.033 363.020 C 321.836 362.899,321.769 363.159,321.884 363.599 C 322.421 365.652,325.436 361.576,325.084 359.273 C 324.994 358.683,324.893 358.480,324.860 358.822 M78.093 362.400 C 78.093 363.170,78.175 363.485,78.276 363.100 C 78.376 362.715,78.376 362.085,78.276 361.700 C 78.175 361.315,78.093 361.630,78.093 362.400 " stroke="none" fill="#3c3c3c" fill-rule="evenodd"></path><path id="path4" d="M229.877 25.981 C 230.579 26.410,231.427 27.264,231.761 27.880 C 232.095 28.496,232.375 28.757,232.384 28.460 C 232.405 27.766,229.849 25.200,229.140 25.201 C 228.843 25.202,229.175 25.553,229.877 25.981 M171.443 28.643 C 169.657 30.670,167.991 33.748,168.019 34.968 C 168.030 35.435,168.314 35.011,168.668 34.000 C 169.014 33.010,170.176 31.150,171.249 29.865 C 172.322 28.581,173.200 27.366,173.200 27.165 C 173.200 26.654,173.180 26.671,171.443 28.643 M199.000 33.594 C 191.581 33.855,190.417 34.151,188.099 36.365 C 187.389 37.044,186.512 37.600,186.151 37.600 C 182.281 37.600,180.304 45.042,181.741 54.200 C 182.301 57.775,182.298 57.814,181.305 59.800 C 179.674 63.062,180.045 62.956,175.200 61.548 C 168.011 59.460,163.153 59.976,159.990 63.164 C 159.206 63.954,157.980 64.911,157.266 65.291 C 154.748 66.630,154.600 67.525,154.600 81.400 C 154.600 100.350,156.628 102.781,170.800 100.825 C 172.230 100.628,174.865 100.345,176.656 100.195 L 179.913 99.924 181.157 102.462 L 182.401 105.000 181.101 109.231 C 180.362 111.636,179.316 114.097,178.680 114.931 C 178.063 115.739,177.703 116.403,177.880 116.406 C 178.056 116.409,177.958 116.565,177.663 116.753 C 177.290 116.989,177.064 118.423,176.922 121.447 C 176.703 126.135,176.326 127.176,174.072 129.333 C 172.888 130.466,172.887 130.466,171.544 129.757 C 170.805 129.368,167.827 128.224,164.928 127.215 C 161.608 126.061,159.191 124.968,158.401 124.264 C 156.881 122.909,156.096 122.755,142.800 121.191 C 128.395 119.497,121.600 118.318,121.600 117.513 C 121.600 117.341,121.071 117.200,120.424 117.200 C 119.777 117.200,119.139 117.025,119.007 116.812 C 118.876 116.599,118.232 116.936,117.578 117.561 C 116.282 118.800,117.227 118.608,102.892 120.543 C 94.919 121.619,92.950 122.289,92.064 124.228 C 91.546 125.360,89.738 126.241,82.750 128.763 C 82.095 129.000,81.383 129.796,80.858 130.880 C 79.968 132.719,78.636 133.729,76.499 134.186 C 74.889 134.530,72.949 136.411,72.609 137.957 C 72.297 139.378,71.472 140.135,69.460 140.846 C 67.911 141.393,66.400 143.467,66.400 145.046 C 66.400 146.119,64.478 148.357,63.040 148.957 C 61.621 149.551,60.018 152.884,58.548 158.299 C 57.982 160.383,57.644 160.931,56.512 161.599 C 54.418 162.834,53.765 164.868,52.590 173.813 C 50.834 187.185,50.831 194.443,52.577 206.400 C 53.895 215.419,54.455 216.987,56.793 218.196 C 57.641 218.635,58.195 219.494,59.015 221.640 C 59.842 223.804,60.712 225.144,62.590 227.150 C 63.956 228.607,65.992 231.150,67.116 232.800 C 68.240 234.450,70.071 236.576,71.184 237.525 C 72.421 238.580,73.634 240.117,74.306 241.479 C 75.058 243.004,75.834 243.938,76.761 244.435 C 78.427 245.328,80.400 247.177,80.400 247.844 C 80.400 248.684,82.495 250.881,83.827 251.437 C 85.123 251.978,86.585 253.528,88.134 256.000 C 88.616 256.770,89.675 257.726,90.487 258.124 C 91.986 258.860,93.354 260.292,94.928 262.774 C 95.408 263.530,96.610 264.614,97.600 265.182 C 98.942 265.952,99.659 266.744,100.418 268.295 C 101.588 270.684,102.959 272.275,104.163 272.640 C 105.475 273.039,106.363 274.000,107.230 275.961 C 108.173 278.093,108.964 279.051,110.600 280.041 C 111.426 280.541,112.424 281.987,113.800 284.676 C 117.477 291.861,118.284 292.106,138.600 292.204 C 155.110 292.283,155.504 292.314,156.329 293.634 C 157.115 294.893,156.917 294.941,149.685 295.248 C 133.640 295.931,127.558 296.476,119.210 297.982 C 114.139 298.897,112.965 299.313,111.400 300.754 C 110.336 301.734,108.143 302.765,103.600 304.423 C 101.602 305.152,101.284 305.472,100.129 307.913 C 99.455 309.337,98.672 310.323,97.876 310.748 C 95.355 312.094,94.929 312.926,93.377 319.532 C 92.032 325.253,90.841 328.400,90.019 328.400 C 89.845 328.400,89.568 329.345,89.402 330.500 C 88.963 333.568,88.833 349.600,89.248 349.600 C 89.442 349.600,89.600 349.845,89.600 350.144 C 89.600 351.323,92.796 354.334,94.728 354.976 C 98.066 356.085,302.849 355.929,306.456 354.815 C 311.721 353.189,312.002 352.371,311.993 338.674 C 311.985 325.568,311.609 323.003,309.412 321.052 C 308.226 319.998,307.851 319.222,307.044 316.151 C 305.877 311.709,305.252 310.701,303.021 309.652 C 301.768 309.063,301.167 308.480,300.838 307.537 C 300.149 305.560,298.860 304.440,296.480 303.748 C 293.258 302.811,291.060 301.739,290.504 300.833 C 289.272 298.824,278.117 296.660,265.600 296.001 C 261.750 295.799,256.530 295.526,254.000 295.395 C 246.334 294.999,246.282 294.974,247.048 292.114 C 247.257 291.337,247.357 291.300,247.871 291.814 C 248.705 292.648,253.049 292.568,257.419 291.638 C 264.592 290.111,267.549 289.862,270.184 290.564 C 276.796 292.327,282.631 290.360,285.805 285.300 C 286.874 283.595,288.801 281.062,290.087 279.671 C 291.373 278.281,292.848 276.474,293.365 275.656 C 293.881 274.838,295.000 273.652,295.852 273.022 C 297.740 271.624,298.587 270.654,299.616 268.711 C 300.050 267.891,301.372 266.507,302.554 265.634 C 303.736 264.761,305.264 263.135,305.949 262.021 C 306.757 260.708,307.907 259.558,309.217 258.751 C 310.512 257.955,311.774 256.699,312.726 255.260 C 313.675 253.826,315.042 252.465,316.503 251.498 C 317.973 250.525,319.079 249.421,319.594 248.412 C 320.035 247.548,320.858 246.517,321.423 246.120 C 324.037 244.287,324.925 243.330,326.015 241.170 C 326.660 239.892,327.652 238.521,328.219 238.123 C 330.684 236.394,331.499 235.551,332.399 233.802 C 332.925 232.780,334.355 230.809,335.578 229.422 C 337.145 227.644,338.270 225.801,339.396 223.166 C 340.274 221.111,341.675 218.298,342.509 216.916 C 349.177 205.861,349.548 171.708,343.083 164.026 C 342.529 163.367,341.494 161.067,340.783 158.914 C 338.979 153.447,337.445 150.180,336.342 149.452 C 335.421 148.844,334.222 146.833,333.074 143.972 C 332.759 143.187,331.919 142.107,331.208 141.572 C 329.095 139.984,327.444 138.262,326.720 136.892 C 326.212 135.930,325.269 135.239,322.999 134.161 C 320.727 133.082,319.723 132.346,319.030 131.247 C 318.251 130.014,317.338 129.434,313.367 127.653 C 310.763 126.486,308.108 125.089,307.468 124.550 C 304.674 122.199,297.419 120.765,283.400 119.792 C 278.977 119.484,263.993 120.502,255.800 121.666 C 252.500 122.135,249.440 122.567,249.000 122.626 C 248.560 122.685,248.200 122.761,248.200 122.794 C 248.200 122.828,247.719 122.919,247.131 122.997 C 246.543 123.075,245.494 123.648,244.801 124.269 C 243.485 125.449,239.183 127.042,231.493 129.194 C 229.125 129.857,227.102 130.400,226.999 130.400 C 225.964 130.400,224.415 125.320,224.000 120.561 C 223.387 113.528,222.996 111.769,221.760 110.483 C 216.269 104.771,220.838 98.717,229.352 100.424 C 233.021 101.159,235.921 101.325,237.124 100.869 C 237.716 100.644,238.860 100.352,239.666 100.219 C 243.883 99.522,245.241 95.881,245.193 85.400 C 245.175 81.220,245.283 76.075,245.435 73.967 C 246.193 63.462,240.420 58.375,230.200 60.542 C 224.155 61.823,220.256 61.841,219.098 60.592 C 217.053 58.387,216.974 57.961,217.734 53.277 C 219.093 44.903,218.682 40.496,216.300 37.889 C 215.585 37.107,214.730 36.130,214.400 35.718 C 213.886 35.077,206.691 32.981,206.000 33.271 C 205.890 33.317,202.740 33.463,199.000 33.594 M209.025 36.359 C 209.891 36.777,211.357 37.322,212.282 37.570 C 217.442 38.954,218.278 41.942,216.588 52.947 C 215.811 58.012,216.097 59.160,218.792 61.792 L 220.298 63.263 224.978 62.802 C 227.552 62.549,230.629 62.088,231.817 61.779 C 233.005 61.469,234.207 61.281,234.488 61.360 C 237.213 62.127,239.600 63.024,239.600 63.283 C 239.600 63.457,239.855 63.600,240.166 63.600 C 243.210 63.600,245.437 70.278,244.168 75.600 C 243.669 77.697,243.602 79.519,243.824 85.010 C 244.227 94.970,243.365 96.735,237.363 98.242 C 234.194 99.038,233.828 99.052,230.705 98.498 C 227.176 97.872,221.313 98.276,220.170 99.225 C 217.812 101.182,217.663 105.360,219.761 110.712 C 221.260 114.537,222.134 118.056,222.838 123.103 C 223.469 127.623,226.099 132.736,227.543 132.250 C 232.514 130.577,248.360 125.097,250.104 124.448 C 262.045 120.004,296.108 120.285,304.076 124.893 C 305.024 125.441,306.833 126.272,308.095 126.738 C 312.097 128.215,316.139 130.440,318.049 132.217 C 319.067 133.163,320.996 134.491,322.336 135.168 C 324.119 136.068,325.199 136.974,326.357 138.542 C 327.228 139.721,328.654 141.250,329.524 141.940 C 330.568 142.766,331.688 144.321,332.807 146.497 C 333.741 148.314,334.906 150.340,335.395 151.000 C 337.192 153.425,338.400 156.401,342.455 168.400 C 346.989 181.814,346.239 203.203,340.848 214.200 C 339.770 216.400,338.754 218.650,338.591 219.200 C 337.939 221.403,335.393 225.907,333.733 227.797 C 332.765 228.899,331.451 230.901,330.812 232.247 C 329.900 234.170,329.272 234.916,327.884 235.730 C 326.496 236.543,325.817 237.350,324.725 239.483 C 323.657 241.570,322.890 242.494,321.417 243.470 C 320.325 244.194,318.908 245.658,318.125 246.870 C 317.325 248.109,315.968 249.502,314.880 250.200 C 313.851 250.860,312.647 252.015,312.205 252.767 C 311.179 254.509,308.919 256.772,307.179 257.800 C 306.433 258.241,305.188 259.555,304.412 260.722 C 303.585 261.964,302.217 263.329,301.109 264.016 C 299.806 264.826,298.917 265.781,298.247 267.095 C 297.258 269.032,295.872 270.514,293.911 271.729 C 293.312 272.100,292.161 273.438,291.353 274.702 C 290.545 275.966,289.124 277.750,288.196 278.666 C 287.267 279.582,285.372 282.116,283.986 284.298 L 281.464 288.264 278.232 288.934 C 273.887 289.834,273.664 289.812,270.529 288.172 C 267.841 286.766,267.764 286.751,265.431 287.206 C 260.786 288.111,254.627 288.350,251.711 287.738 C 236.800 284.611,151.678 285.462,143.877 288.815 C 142.820 289.270,140.390 289.822,138.477 290.043 C 136.565 290.263,132.877 290.716,130.283 291.048 C 122.063 292.102,117.708 289.953,114.375 283.200 C 113.609 281.648,112.187 279.714,110.846 278.400 C 109.611 277.190,108.182 275.472,107.672 274.582 C 107.161 273.693,105.775 272.215,104.591 271.299 C 103.407 270.383,102.145 269.041,101.787 268.317 C 101.429 267.593,99.845 265.740,98.268 264.200 C 96.691 262.660,94.893 260.720,94.274 259.888 C 93.654 259.057,92.447 257.935,91.590 257.394 C 90.734 256.853,89.302 255.420,88.407 254.210 C 87.513 252.999,85.898 251.414,84.819 250.687 C 83.740 249.961,82.067 248.294,81.101 246.983 C 80.135 245.672,78.689 244.101,77.888 243.492 C 77.087 242.882,75.750 241.354,74.916 240.096 C 74.082 238.837,72.373 236.763,71.117 235.487 C 69.862 234.210,67.915 231.791,66.791 230.110 C 65.667 228.430,63.961 226.362,63.000 225.516 C 61.825 224.483,60.774 222.964,59.795 220.889 C 58.994 219.190,57.730 217.170,56.986 216.400 C 50.950 210.149,50.504 169.557,56.407 163.654 C 57.761 162.300,58.519 160.829,59.349 157.942 C 60.434 154.167,61.845 151.581,63.877 149.643 C 64.986 148.586,66.408 146.614,67.206 145.029 C 68.224 143.008,68.964 142.070,69.948 141.555 C 71.620 140.680,73.200 139.225,73.200 138.561 C 73.200 137.511,75.364 135.563,77.842 134.380 C 79.666 133.510,80.720 132.699,81.437 131.616 C 82.500 130.010,85.955 128.066,90.301 126.630 C 91.659 126.181,92.936 125.373,93.915 124.344 C 95.690 122.479,96.140 122.353,105.907 120.991 C 118.777 119.195,119.823 119.215,135.400 121.547 C 139.800 122.205,145.380 123.039,147.800 123.401 C 150.220 123.762,153.010 124.415,154.000 124.852 C 154.990 125.289,158.320 126.466,161.400 127.468 C 164.480 128.470,168.323 129.896,169.940 130.637 C 173.142 132.105,173.455 132.075,175.248 130.134 C 177.027 128.209,177.577 127.054,178.378 123.566 C 178.803 121.715,179.625 118.580,180.205 116.600 C 180.785 114.620,181.794 111.184,182.447 108.965 C 183.781 104.433,183.591 102.855,181.311 99.500 L 180.291 98.000 177.128 98.000 C 175.388 98.000,172.180 98.296,170.000 98.658 C 166.287 99.275,165.813 99.273,162.518 98.627 C 155.603 97.271,155.441 96.907,155.271 82.400 C 155.107 68.360,155.633 66.583,160.418 64.994 C 161.508 64.632,162.625 64.017,162.900 63.627 C 164.257 61.705,170.360 61.218,174.000 62.740 C 176.830 63.924,179.363 64.082,180.142 63.122 C 182.141 60.658,182.908 58.355,182.639 55.618 C 181.343 42.424,182.259 39.569,188.286 38.026 C 189.874 37.619,191.674 36.913,192.286 36.456 C 193.909 35.246,206.563 35.173,209.025 36.359 M167.744 39.600 C 167.744 41.690,167.812 42.545,167.894 41.500 C 167.976 40.455,167.976 38.745,167.894 37.700 C 167.812 36.655,167.744 37.510,167.744 39.600 M233.357 41.200 C 233.357 44.170,233.420 45.385,233.497 43.900 C 233.574 42.415,233.574 39.985,233.497 38.500 C 233.420 37.015,233.357 38.230,233.357 41.200 M168.128 48.400 C 168.128 49.830,168.201 50.415,168.289 49.700 C 168.378 48.985,168.378 47.815,168.289 47.100 C 168.201 46.385,168.128 46.970,168.128 48.400 M257.154 53.453 C 257.667 53.812,258.423 54.847,258.835 55.753 C 259.246 56.659,259.586 57.163,259.591 56.874 C 259.611 55.708,257.505 52.800,256.641 52.800 C 256.411 52.800,256.642 53.094,257.154 53.453 M256.500 55.538 C 257.325 56.453,258.000 57.412,258.000 57.668 C 258.000 57.924,258.111 58.023,258.246 57.888 C 258.616 57.518,256.974 55.079,255.923 54.437 C 255.290 54.051,255.472 54.397,256.500 55.538 M143.836 62.831 C 142.571 64.334,142.568 64.062,143.880 67.648 C 144.954 70.584,144.960 70.659,144.957 81.400 L 144.954 92.200 143.819 95.286 L 142.684 98.372 143.762 99.786 C 144.355 100.564,145.021 101.200,145.241 101.200 C 145.461 101.200,145.159 100.568,144.570 99.796 L 143.499 98.392 144.550 95.433 C 146.175 90.853,146.178 71.778,144.554 67.315 L 143.504 64.429 144.338 63.015 C 145.365 61.274,145.197 61.213,143.836 62.831 M140.705 105.883 C 141.202 105.979,141.922 105.975,142.305 105.875 C 142.687 105.775,142.280 105.696,141.400 105.701 C 140.520 105.705,140.207 105.787,140.705 105.883 M261.300 105.876 C 261.685 105.976,262.315 105.976,262.700 105.876 C 263.085 105.775,262.770 105.693,262.000 105.693 C 261.230 105.693,260.915 105.775,261.300 105.876 M100.875 107.616 C 99.602 108.802,99.801 109.115,101.100 107.970 C 101.705 107.436,102.275 106.955,102.367 106.900 C 102.458 106.845,102.357 106.800,102.142 106.800 C 101.927 106.800,101.357 107.167,100.875 107.616 M81.905 114.226 C 80.830 114.809,79.599 116.654,79.601 117.680 C 79.601 117.966,79.916 117.574,80.301 116.808 C 80.685 116.042,81.612 115.007,82.359 114.508 C 83.880 113.492,83.590 113.312,81.905 114.226 M319.855 114.600 C 320.780 116.179,320.800 116.203,320.800 115.711 C 320.800 115.479,320.429 114.864,319.976 114.344 L 319.153 113.400 319.855 114.600 M337.853 127.967 C 338.543 128.388,339.398 129.147,339.753 129.655 C 340.474 130.683,340.627 130.372,339.988 129.178 C 339.762 128.755,339.051 128.136,338.408 127.804 C 336.747 126.945,336.362 127.058,337.853 127.967 M342.460 137.179 C 342.670 137.810,344.701 139.449,344.931 139.173 C 345.011 139.078,344.444 138.462,343.672 137.803 C 342.900 137.145,342.355 136.864,342.460 137.179 M48.794 148.334 C 47.865 148.823,47.029 149.776,46.287 151.193 C 45.657 152.398,45.440 153.099,45.787 152.810 C 46.124 152.531,46.400 152.078,46.400 151.805 C 46.400 150.955,48.004 149.218,49.536 148.409 C 50.341 147.983,50.817 147.627,50.594 147.618 C 50.370 147.608,49.560 147.930,48.794 148.334 M48.841 151.014 C 47.082 153.018,47.302 153.254,49.200 151.400 C 50.907 149.733,50.999 149.600,50.441 149.600 C 50.244 149.600,49.524 150.236,48.841 151.014 M357.904 161.998 C 358.621 162.435,359.565 163.379,360.002 164.096 C 360.937 165.630,361.068 165.279,360.193 163.587 C 359.860 162.942,359.058 162.140,358.413 161.807 C 356.721 160.932,356.370 161.063,357.904 161.998 M134.800 170.401 C 130.262 170.766,125.634 172.315,123.607 174.146 C 122.739 174.930,121.167 176.010,120.114 176.546 C 117.786 177.732,116.646 178.905,115.783 181.005 C 115.423 181.882,114.601 183.432,113.956 184.448 C 111.099 188.951,110.498 197.835,112.804 201.471 C 113.477 202.532,114.284 204.261,114.597 205.314 C 115.228 207.441,116.156 208.914,118.572 211.630 C 119.467 212.636,121.010 214.526,122.000 215.830 C 122.990 217.133,125.420 219.920,127.400 222.021 C 129.380 224.123,132.291 227.211,133.869 228.882 C 135.448 230.554,137.016 232.457,137.355 233.113 C 137.694 233.768,138.890 234.964,140.013 235.771 C 141.142 236.582,142.534 238.063,143.127 239.084 C 144.426 241.320,145.660 242.553,149.660 245.608 L 152.719 247.945 156.460 247.583 C 158.517 247.384,161.602 247.217,163.316 247.211 C 170.688 247.185,174.660 243.283,173.961 236.753 C 173.729 234.587,173.595 223.441,173.644 210.400 C 173.693 197.449,173.574 187.440,173.365 186.958 C 171.796 183.335,161.331 175.200,158.241 175.200 C 157.925 175.200,156.495 174.578,155.062 173.818 C 151.648 172.007,141.421 169.679,138.600 170.071 C 138.380 170.102,136.670 170.250,134.800 170.401 M255.589 170.773 C 252.680 171.171,248.159 172.690,246.373 173.869 C 245.588 174.387,243.456 175.429,241.635 176.185 C 237.607 177.859,232.849 181.293,229.893 184.661 L 228.600 186.134 228.600 210.967 C 228.600 224.625,228.443 237.061,228.250 238.601 L 227.901 241.402 229.518 243.449 C 231.907 246.471,233.309 247.200,236.733 247.200 C 238.294 247.200,241.359 247.403,243.544 247.652 L 247.518 248.104 249.017 246.952 C 249.842 246.318,251.521 245.260,252.749 244.600 C 254.174 243.834,255.418 242.768,256.190 241.650 C 257.295 240.052,258.294 238.993,262.400 235.066 C 263.170 234.329,264.160 233.120,264.600 232.378 C 265.040 231.636,266.182 230.504,267.138 229.862 C 268.094 229.221,269.478 227.755,270.214 226.606 C 270.949 225.456,272.473 223.744,273.600 222.800 C 274.727 221.856,276.247 220.165,276.977 219.042 C 277.707 217.919,279.146 216.190,280.175 215.200 C 281.961 213.482,286.400 206.983,286.400 206.087 C 286.400 205.853,286.825 205.153,287.345 204.531 C 291.282 199.822,291.401 188.591,287.560 184.154 C 286.692 183.151,285.707 181.671,285.370 180.865 C 284.502 178.783,282.523 176.845,280.193 175.796 C 279.090 175.299,277.425 174.256,276.494 173.479 C 273.548 171.017,263.392 169.703,255.589 170.773 M143.876 171.983 C 146.295 172.261,148.230 172.825,151.276 174.142 C 153.544 175.123,156.390 176.126,157.600 176.372 C 161.286 177.121,165.008 179.488,168.451 183.272 L 171.501 186.625 171.776 190.213 C 171.926 192.186,171.863 195.420,171.635 197.400 C 171.407 199.380,171.218 207.840,171.216 216.200 C 171.212 234.649,171.140 232.903,172.017 235.800 C 173.449 240.528,173.447 240.547,171.522 242.098 C 167.450 245.380,166.438 245.725,162.412 245.202 C 159.889 244.874,158.422 244.857,157.506 245.145 C 153.897 246.283,152.505 246.188,150.849 244.692 C 149.997 243.922,148.461 242.801,147.436 242.200 C 146.265 241.514,145.373 240.631,145.036 239.825 C 144.323 238.118,142.188 235.728,140.325 234.553 C 139.495 234.029,138.468 232.917,138.042 232.083 C 137.260 230.550,134.152 227.077,127.200 219.968 C 125.110 217.831,122.950 215.314,122.400 214.374 C 121.850 213.434,120.403 211.654,119.184 210.417 C 116.936 208.139,116.763 207.823,115.212 203.200 C 111.816 193.072,114.497 180.947,120.873 177.595 C 122.344 176.822,123.975 175.787,124.499 175.295 C 125.023 174.803,125.623 174.400,125.832 174.400 C 126.041 174.400,126.929 174.009,127.806 173.532 C 131.165 171.702,136.751 171.163,143.876 171.983 M268.048 171.973 C 271.941 172.611,273.379 173.143,275.517 174.738 C 276.661 175.591,278.565 176.594,279.749 176.966 C 282.345 177.783,283.286 178.741,284.171 181.468 C 284.541 182.606,285.543 184.331,286.398 185.302 C 289.750 189.111,290.216 198.828,287.195 201.910 C 286.324 202.798,285.450 204.219,285.150 205.231 C 284.387 207.813,281.881 211.615,279.049 214.486 C 277.685 215.869,276.188 217.777,275.722 218.726 C 275.186 219.818,274.236 220.858,273.137 221.558 C 271.103 222.853,270.548 223.472,269.200 225.951 C 268.609 227.038,267.709 228.018,267.000 228.347 C 265.270 229.150,264.037 230.373,263.116 232.200 C 262.158 234.101,260.855 235.600,260.161 235.600 C 259.240 235.600,257.086 237.757,256.354 239.412 C 255.427 241.506,254.798 242.054,251.331 243.789 C 249.768 244.571,248.290 245.451,248.046 245.744 C 247.678 246.188,247.115 246.176,244.702 245.677 C 241.380 244.990,240.896 244.973,236.791 245.394 C 233.388 245.742,232.450 245.270,230.301 242.125 L 229.260 240.600 229.852 237.400 C 230.343 234.749,230.424 230.070,230.322 210.119 L 230.200 186.039 231.800 184.386 C 232.680 183.476,234.072 182.385,234.894 181.961 C 235.716 181.537,236.676 180.751,237.028 180.214 C 237.655 179.257,241.244 177.200,242.287 177.200 C 243.288 177.200,250.201 174.339,251.741 173.287 C 253.863 171.838,262.818 171.116,268.048 171.973 M126.825 188.169 L 125.450 189.800 127.005 188.313 C 127.860 187.496,128.479 186.762,128.380 186.683 C 128.281 186.603,127.581 187.272,126.825 188.169 M129.477 188.208 C 129.110 188.977,128.223 189.964,127.505 190.401 C 126.787 190.839,126.401 191.198,126.646 191.199 C 127.763 191.202,130.902 187.569,130.301 186.968 C 130.214 186.881,129.843 187.439,129.477 188.208 M263.903 208.900 C 263.385 209.395,263.240 209.600,263.580 209.356 C 263.921 209.112,264.560 208.712,265.000 208.468 C 265.440 208.224,265.585 208.019,265.322 208.012 C 265.060 208.005,264.421 208.405,263.903 208.900 M360.784 213.687 C 359.920 215.854,358.758 217.258,357.341 217.851 C 355.735 218.521,355.530 218.958,357.100 218.363 C 359.044 217.627,362.261 213.328,361.464 212.531 C 361.378 212.445,361.072 212.965,360.784 213.687 M357.375 215.300 L 356.200 216.600 357.500 215.425 C 358.215 214.779,358.800 214.194,358.800 214.125 C 358.800 213.816,358.470 214.088,357.375 215.300 M257.846 216.035 C 256.744 216.902,255.594 218.777,255.609 219.680 C 255.614 219.966,255.963 219.439,256.386 218.508 C 256.829 217.531,257.713 216.476,258.477 216.010 C 259.205 215.566,259.599 215.202,259.354 215.201 C 259.109 215.201,258.430 215.576,257.846 216.035 M257.814 218.635 C 257.441 219.204,257.205 219.738,257.289 219.822 C 257.373 219.907,257.758 219.441,258.144 218.788 C 259.006 217.328,258.748 217.209,257.814 218.635 M252.119 223.184 C 250.766 224.009,249.420 226.131,249.744 226.927 C 249.851 227.189,249.951 227.101,249.968 226.731 C 250.015 225.743,251.980 223.572,253.380 222.963 C 254.051 222.670,254.330 222.425,254.000 222.417 C 253.670 222.409,252.824 222.754,252.119 223.184 M155.933 229.076 C 156.226 229.193,156.810 229.854,157.231 230.544 C 157.652 231.235,157.998 231.599,157.999 231.354 C 158.001 230.682,156.409 228.795,155.871 228.832 C 155.572 228.852,155.594 228.941,155.933 229.076 M332.255 255.589 C 331.677 256.463,330.663 257.457,330.002 257.799 C 328.694 258.475,328.376 258.931,329.500 258.517 C 330.957 257.981,331.877 257.156,332.750 255.604 C 333.908 253.543,333.615 253.534,332.255 255.589 M326.073 263.631 C 325.801 264.068,324.997 264.779,324.289 265.211 C 323.580 265.643,323.152 265.998,323.338 265.999 C 324.390 266.003,327.211 263.478,326.713 262.979 C 326.634 262.901,326.346 263.194,326.073 263.631 M319.273 270.431 C 319.001 270.868,318.197 271.579,317.489 272.011 C 316.780 272.443,316.352 272.798,316.538 272.799 C 317.590 272.803,320.411 270.278,319.913 269.779 C 319.834 269.701,319.546 269.994,319.273 270.431 M312.865 277.418 C 312.601 277.997,311.663 278.774,310.700 279.211 C 309.765 279.635,309.270 279.986,309.600 279.990 C 310.993 280.007,314.158 277.225,313.497 276.564 C 313.405 276.472,313.121 276.856,312.865 277.418 M237.000 287.556 C 239.200 287.789,242.153 287.984,243.562 287.990 C 246.017 288.000,246.096 288.030,245.463 288.731 C 244.192 290.135,229.261 291.480,222.578 290.792 C 219.710 290.497,213.993 290.428,206.000 290.593 C 199.290 290.731,192.188 290.689,190.217 290.498 C 187.753 290.261,184.630 290.327,180.217 290.711 C 168.048 291.769,158.400 290.749,158.400 288.406 C 158.400 288.139,165.526 287.344,170.200 287.088 C 175.585 286.793,233.632 287.200,237.000 287.556 M100.656 288.884 C 100.521 289.388,100.433 290.610,100.460 291.600 C 100.503 293.174,100.547 293.073,100.809 290.800 C 101.124 288.066,101.067 287.350,100.656 288.884 M218.291 292.933 C 218.550 293.093,222.325 293.394,226.681 293.603 C 231.501 293.835,235.226 294.204,236.200 294.546 C 237.244 294.913,242.111 295.332,250.200 295.750 C 257.020 296.103,264.293 296.489,266.362 296.608 C 274.181 297.058,287.077 299.612,288.784 301.048 C 289.394 301.561,291.313 302.527,293.047 303.195 C 297.461 304.893,298.857 305.715,299.587 307.045 C 300.789 309.239,301.694 310.400,302.199 310.400 C 303.426 310.400,305.512 313.495,306.145 316.254 C 306.491 317.764,307.512 321.250,308.413 324.000 L 310.051 329.000 310.496 338.646 C 311.004 349.634,310.922 350.127,308.267 352.051 C 304.780 354.576,312.589 354.406,200.017 354.403 L 97.400 354.401 95.600 353.477 C 90.757 350.991,90.149 338.983,94.002 321.941 C 94.881 318.055,95.600 314.762,95.600 314.623 C 95.600 314.484,96.642 313.341,97.916 312.083 C 99.190 310.825,100.675 308.986,101.216 307.998 C 102.290 306.036,103.798 305.115,109.748 302.785 C 111.479 302.108,113.369 301.214,113.948 300.800 C 117.372 298.347,128.680 296.928,155.233 295.618 C 160.442 295.361,164.075 294.997,165.124 294.627 C 166.092 294.285,169.904 293.852,174.291 293.585 C 178.421 293.333,182.880 293.009,184.200 292.864 C 187.452 292.506,217.700 292.567,218.291 292.933 M80.744 310.824 L 79.800 311.647 81.000 310.945 C 82.579 310.020,82.603 310.000,82.111 310.000 C 81.879 310.000,81.264 310.371,80.744 310.824 M321.693 320.800 C 321.693 321.570,321.775 321.885,321.876 321.500 C 321.976 321.115,321.976 320.485,321.876 320.100 C 321.775 319.715,321.693 320.030,321.693 320.800 M78.131 328.200 C 78.133 329.740,78.205 330.321,78.292 329.491 C 78.379 328.661,78.377 327.401,78.289 326.691 C 78.200 325.981,78.129 326.660,78.131 328.200 M322.000 341.288 C 322.000 341.653,322.166 342.055,322.369 342.181 C 322.571 342.306,322.862 343.622,323.014 345.104 C 323.410 348.964,325.140 355.937,325.172 353.800 C 325.185 352.920,325.024 351.570,324.814 350.800 C 324.605 350.030,324.237 347.780,323.997 345.800 C 323.597 342.498,322.000 338.889,322.000 341.288 M324.431 357.864 C 323.662 359.992,322.374 362.031,321.961 361.776 C 321.762 361.653,321.600 361.823,321.600 362.153 C 321.600 364.331,324.519 360.904,325.043 358.111 C 325.392 356.254,325.062 356.121,324.431 357.864 M78.093 360.000 C 78.093 360.770,78.175 361.085,78.276 360.700 C 78.376 360.315,78.376 359.685,78.276 359.300 C 78.175 358.915,78.093 359.230,78.093 360.000 " stroke="none" fill="#343434" fill-rule="evenodd"></path></g></svg>