<svg id="svg" version="1.1" xmlns="http://www.w3.org/2000/svg" xmlns:xlink="http://www.w3.org/1999/xlink" width="400" height="400" viewBox="0, 0, 400,400"><g id="svgg"><path id="path0" d="M152.600 30.763 C 152.160 30.945,150.800 31.006,149.577 30.898 C 146.185 30.600,146.084 30.798,146.049 37.846 C 146.015 44.690,146.248 44.228,142.923 44.057 C 141.241 43.970,140.393 44.066,140.553 44.324 C 140.700 44.562,140.482 44.642,140.017 44.520 C 139.292 44.331,139.225 44.563,139.117 47.649 L 139.000 50.983 137.000 51.445 C 135.900 51.699,134.694 52.034,134.319 52.189 C 132.880 52.785,132.448 56.193,132.413 67.248 L 132.400 71.497 130.331 71.771 C 126.982 72.216,126.000 73.322,126.000 76.652 C 126.000 78.121,125.839 78.201,122.224 78.536 C 121.025 78.647,120.060 78.977,119.768 79.376 C 119.261 80.070,118.614 84.171,118.930 84.693 C 119.032 84.862,117.862 85.019,116.329 85.043 C 112.258 85.105,112.226 85.160,112.081 92.299 C 111.941 99.200,112.336 98.424,108.952 98.449 C 105.092 98.478,105.200 98.271,105.200 105.616 C 105.200 112.725,105.367 112.388,101.977 112.095 C 98.389 111.785,98.459 111.576,98.423 122.672 C 98.388 133.677,98.788 132.436,95.274 132.447 C 91.923 132.457,91.512 132.796,91.605 135.478 C 91.641 136.535,91.655 139.328,91.636 141.684 L 91.600 145.968 88.300 146.084 L 85.000 146.200 84.884 149.500 C 84.754 153.196,84.954 153.013,81.200 152.856 C 78.336 152.735,78.218 152.937,78.065 158.203 L 77.930 162.836 76.265 164.408 C 75.332 165.289,74.193 165.984,73.674 165.990 C 71.588 166.013,71.200 166.603,71.200 169.761 L 71.200 172.695 68.193 172.888 C 64.498 173.125,64.634 172.981,64.459 176.832 L 64.315 180.000 62.047 180.000 C 58.832 180.000,58.167 180.582,57.890 183.639 C 57.630 186.507,57.336 186.786,54.562 186.794 C 50.861 186.805,51.020 186.062,50.872 204.083 C 50.802 212.725,50.898 219.587,51.089 219.469 C 51.278 219.352,51.360 219.876,51.272 220.634 C 50.673 225.764,51.743 226.614,59.332 227.035 L 64.400 227.317 64.400 230.268 C 64.400 233.729,64.722 234.000,68.826 234.000 L 71.200 234.000 71.200 236.174 C 71.200 239.528,71.686 240.431,73.496 240.441 C 74.323 240.446,77.198 240.543,79.884 240.658 L 84.768 240.866 85.035 243.226 C 85.454 246.928,85.518 246.968,91.468 247.199 C 97.632 247.438,119.704 247.421,122.800 247.175 L 125.000 247.000 125.049 245.600 C 125.076 244.830,125.121 243.453,125.149 242.540 L 125.200 240.881 127.100 240.656 C 128.145 240.532,129.630 240.379,130.400 240.315 C 131.944 240.188,131.806 240.648,131.951 235.151 L 132.000 233.302 134.004 233.109 C 136.996 232.822,138.046 231.516,138.535 227.474 C 138.636 226.634,138.782 225.910,138.860 225.864 C 138.937 225.818,139.810 225.515,140.800 225.190 C 142.379 224.673,142.734 224.330,143.687 222.400 C 144.750 220.250,145.221 220.438,144.373 222.674 C 143.704 224.441,142.380 225.594,140.714 225.860 C 139.872 225.995,139.086 226.261,138.968 226.453 C 138.622 227.012,141.903 226.851,143.374 226.237 C 144.807 225.638,144.984 225.292,145.391 222.300 L 145.649 220.400 155.648 220.400 C 161.148 220.400,165.563 220.265,165.461 220.100 C 165.358 219.935,166.435 219.861,167.854 219.935 C 170.866 220.092,172.253 219.429,172.513 217.709 C 172.618 217.013,172.702 217.308,172.740 218.500 C 172.805 220.571,172.662 220.646,169.108 220.413 C 167.179 220.286,166.301 220.768,166.505 221.839 C 166.606 222.368,166.534 222.800,166.345 222.800 C 166.155 222.800,166.000 223.790,166.000 225.000 L 166.000 227.200 163.024 227.200 C 159.521 227.200,159.532 227.189,159.283 231.066 L 159.095 234.000 156.171 234.000 C 152.746 234.000,152.868 233.873,152.539 237.765 L 152.283 240.800 149.141 240.800 L 146.000 240.800 146.000 242.950 C 146.000 244.133,145.889 245.655,145.753 246.334 L 145.506 247.568 142.453 247.684 L 139.400 247.800 139.181 250.886 C 138.915 254.631,139.184 254.363,135.574 254.493 L 132.600 254.600 132.485 257.847 L 132.369 261.095 129.556 261.296 C 125.550 261.583,125.643 261.335,125.609 271.855 L 125.600 274.710 122.807 274.868 C 118.984 275.084,119.021 275.018,118.880 281.907 C 118.738 288.816,119.206 287.965,115.352 288.314 L 112.200 288.600 112.132 290.200 C 112.095 291.080,112.050 292.442,112.032 293.226 L 112.000 294.653 106.009 295.032 C 98.915 295.481,98.929 295.473,98.557 299.477 L 98.290 302.348 96.704 302.616 C 92.601 303.309,91.684 306.023,91.626 317.648 L 91.600 322.697 89.665 322.954 C 85.188 323.548,85.000 324.547,85.000 347.800 C 85.000 370.294,84.781 369.411,90.296 369.180 C 91.343 369.136,92.470 369.214,92.800 369.353 C 93.280 369.556,330.252 369.467,334.056 369.263 C 335.584 369.181,335.546 369.836,335.589 342.537 C 335.640 309.729,335.667 309.901,330.300 309.012 C 328.675 308.743,328.639 308.660,328.783 305.525 C 328.910 302.789,328.532 301.882,327.361 302.105 C 326.832 302.206,326.400 302.134,326.400 301.945 C 326.400 301.755,325.410 301.600,324.200 301.600 C 321.795 301.600,321.713 301.476,321.971 298.254 C 322.145 296.089,321.673 295.093,320.572 295.303 C 320.027 295.407,319.485 295.337,319.367 295.146 C 319.249 294.956,318.263 294.800,317.176 294.800 L 315.200 294.800 315.194 292.700 C 315.185 289.291,314.620 288.607,311.782 288.565 C 310.472 288.546,309.175 288.501,308.900 288.465 C 308.540 288.418,308.400 287.349,308.400 284.653 L 308.400 280.907 311.100 281.074 C 315.422 281.342,315.047 282.717,315.155 266.180 L 315.200 259.359 317.022 258.474 C 318.384 257.812,319.026 257.183,319.564 255.981 C 319.960 255.097,320.625 254.124,321.042 253.819 C 321.986 253.128,322.253 170.421,321.318 168.324 C 320.803 167.170,318.888 166.406,316.500 166.402 L 315.200 166.400 315.198 161.100 C 315.193 146.164,315.146 146.000,310.799 146.000 L 308.487 146.000 308.340 139.962 C 308.164 132.736,307.970 132.400,303.972 132.400 L 301.632 132.400 301.516 129.100 C 301.385 125.367,301.834 125.721,297.128 125.639 L 294.856 125.600 294.728 119.419 C 294.578 112.181,294.634 112.285,290.793 112.068 C 287.658 111.890,287.783 112.065,287.973 108.134 C 288.096 105.580,287.497 105.146,284.053 105.296 C 281.089 105.425,281.098 105.435,281.129 102.049 C 281.161 98.722,280.801 98.288,278.114 98.414 C 273.969 98.607,274.143 98.722,274.312 95.900 C 274.530 92.264,274.072 91.800,270.257 91.800 L 267.249 91.800 266.984 89.875 C 266.488 86.281,264.630 85.302,257.615 84.939 C 253.556 84.728,253.810 84.937,253.900 81.880 C 254.017 77.903,254.621 78.120,243.146 78.025 L 240.092 78.000 240.281 75.500 C 240.610 71.147,241.241 71.326,225.000 71.171 L 219.800 71.121 219.931 68.621 C 220.135 64.752,218.298 64.091,208.325 64.440 C 206.276 64.512,202.035 64.532,198.900 64.485 L 193.200 64.400 193.200 61.480 C 193.200 57.815,192.985 57.600,189.320 57.600 L 186.400 57.600 186.400 54.614 C 186.400 51.036,186.141 50.800,182.226 50.800 L 179.600 50.800 179.600 47.814 C 179.600 44.236,179.341 44.000,175.426 44.000 L 172.800 44.000 172.741 40.700 C 172.708 38.885,172.725 36.295,172.779 34.945 C 172.915 31.517,172.437 30.778,170.080 30.775 C 169.046 30.774,164.870 30.696,160.800 30.602 C 156.730 30.508,153.040 30.580,152.600 30.763 M161.481 47.984 C 162.185 48.413,163.037 49.298,163.374 49.950 C 163.794 50.763,164.790 51.515,166.535 52.340 C 169.022 53.515,170.400 55.135,170.400 56.882 C 170.400 57.712,172.833 59.903,174.101 60.216 C 175.351 60.524,177.200 62.515,177.200 63.552 C 177.200 64.441,179.432 66.529,181.071 67.174 C 182.567 67.761,183.394 68.619,183.798 70.000 C 184.288 71.678,186.008 73.146,188.249 73.797 C 189.504 74.162,191.101 75.049,192.172 75.976 C 193.681 77.282,194.360 77.580,196.290 77.784 C 211.475 79.392,222.007 81.670,223.907 83.758 C 224.723 84.654,225.742 85.235,227.057 85.554 C 234.713 87.409,237.380 88.442,239.000 90.181 C 239.944 91.194,241.256 92.103,242.200 92.399 C 243.798 92.900,247.048 94.273,249.497 95.482 C 250.210 95.834,251.122 96.680,251.525 97.361 C 251.927 98.043,252.874 98.889,253.628 99.242 C 258.494 101.519,258.983 101.845,259.975 103.464 C 260.676 104.610,261.600 105.422,262.901 106.038 C 265.719 107.372,279.191 120.796,280.437 123.512 C 281.080 124.912,281.754 125.716,282.642 126.139 C 284.263 126.912,285.776 128.906,286.436 131.138 C 286.900 132.708,287.438 133.397,290.258 136.033 C 290.731 136.475,291.387 137.593,291.716 138.518 C 293.495 143.513,294.934 146.260,296.208 147.095 C 297.565 147.984,297.665 148.213,299.586 154.800 C 301.297 160.666,301.635 161.484,302.825 162.624 C 304.414 164.146,304.832 165.775,306.829 178.200 C 307.827 184.410,308.793 189.180,309.227 190.039 C 313.127 197.759,313.154 230.430,309.265 235.914 C 308.270 237.316,307.450 241.741,305.174 258.000 C 304.649 261.744,303.624 264.457,302.414 265.305 C 301.364 266.041,299.957 272.097,298.211 283.400 C 297.742 286.432,297.492 287.126,296.628 287.800 C 296.064 288.240,294.849 289.272,293.927 290.093 C 290.920 292.771,289.969 292.908,276.489 292.601 C 263.983 292.316,259.087 292.612,256.032 293.834 C 253.401 294.887,254.294 295.028,268.200 295.757 C 291.173 296.960,299.594 298.300,301.386 301.034 C 301.734 301.566,302.253 302.000,302.540 302.000 C 304.240 302.000,311.219 306.066,311.980 307.500 C 312.997 309.415,314.660 311.201,316.465 312.316 C 318.243 313.415,319.925 317.444,321.164 323.574 C 321.716 326.305,322.266 327.989,322.757 328.446 C 323.737 329.359,324.315 331.949,324.799 337.600 C 325.667 347.731,325.365 349.560,322.310 352.670 C 318.660 356.386,329.338 356.036,215.105 356.190 C 159.607 356.265,113.480 356.365,112.600 356.413 C 111.720 356.461,109.470 356.237,107.600 355.916 C 100.417 354.682,100.178 354.222,100.263 341.800 C 100.379 324.883,101.143 319.906,103.887 318.200 C 104.741 317.669,105.389 316.795,105.814 315.600 C 107.248 311.569,108.021 310.449,110.022 309.504 C 111.445 308.832,112.117 308.209,112.640 307.076 C 113.556 305.090,114.733 304.296,118.702 302.984 C 120.982 302.230,122.165 301.608,122.611 300.926 C 124.322 298.316,131.326 296.876,144.600 296.404 C 159.999 295.856,171.763 295.168,172.153 294.793 C 173.701 293.305,156.787 292.410,141.800 293.187 C 135.501 293.513,132.167 290.923,133.148 286.465 C 133.422 285.219,133.928 282.850,134.274 281.200 C 135.085 277.321,135.726 276.118,137.412 275.314 C 138.585 274.755,139.137 273.940,141.157 269.793 C 143.044 265.916,143.757 264.831,144.663 264.449 C 145.833 263.957,147.999 261.289,148.001 260.336 C 148.005 259.092,149.683 257.153,151.495 256.298 C 153.049 255.566,153.584 255.021,154.400 253.344 C 155.739 250.591,156.223 250.085,158.041 249.540 C 159.909 248.981,160.800 248.059,161.600 245.860 C 162.130 244.402,162.544 244.029,164.989 242.800 C 167.385 241.595,167.914 241.127,168.786 239.441 C 169.584 237.898,170.140 237.354,171.400 236.881 C 173.580 236.063,175.537 234.553,176.472 232.968 C 176.901 232.241,178.183 231.119,179.325 230.472 C 184.633 227.463,195.680 215.820,196.740 212.118 C 197.080 210.929,197.748 210.005,199.016 208.965 C 200.004 208.156,200.915 207.023,201.042 206.447 C 201.168 205.871,201.642 203.890,202.095 202.045 C 203.358 196.898,202.128 181.499,200.258 179.035 C 198.811 177.128,191.600 177.758,191.600 179.791 C 191.600 181.366,189.468 184.360,187.698 185.271 C 186.257 186.012,185.729 186.551,185.433 187.584 C 184.922 189.367,183.020 191.168,180.800 191.970 C 179.365 192.489,178.850 192.944,178.258 194.211 C 177.213 196.452,176.560 197.076,174.451 197.851 C 172.264 198.655,170.000 200.231,170.000 200.951 C 170.000 202.201,161.884 206.400,159.468 206.400 C 159.116 206.400,158.237 206.914,157.514 207.541 C 155.012 209.714,154.694 209.785,146.200 210.047 C 135.149 210.388,131.477 211.492,130.122 214.879 C 129.451 216.555,127.661 218.269,126.198 218.636 C 125.265 218.870,124.604 219.940,123.569 222.891 C 123.281 223.711,121.820 225.859,120.323 227.665 C 118.825 229.470,117.600 231.096,117.600 231.278 C 117.600 231.461,116.600 232.250,115.377 233.032 C 114.155 233.814,113.059 234.703,112.942 235.008 C 112.651 235.765,110.753 236.311,107.287 236.634 L 104.375 236.906 102.887 235.306 C 101.315 233.614,100.683 233.390,93.000 231.803 C 86.995 230.562,85.489 229.997,84.000 228.423 C 82.698 227.046,80.382 225.891,75.800 224.332 C 74.555 223.909,74.007 223.408,73.331 222.073 C 72.162 219.763,71.713 219.274,69.933 218.366 C 64.137 215.409,64.675 193.600,70.543 193.600 C 70.808 193.600,71.698 192.205,72.521 190.500 C 75.081 185.193,75.580 184.400,76.841 183.633 C 78.412 182.678,79.800 180.624,80.693 177.932 C 81.303 176.094,81.640 175.679,83.140 174.922 C 84.983 173.992,85.964 172.987,85.991 172.000 C 86.030 170.587,88.045 167.238,90.081 165.200 C 92.201 163.079,93.760 160.629,94.966 157.524 C 95.332 156.580,96.122 155.681,97.158 155.026 C 98.799 153.990,100.000 152.247,100.000 150.901 C 100.000 149.676,103.107 143.731,104.194 142.876 C 105.777 141.631,106.663 138.952,108.255 130.600 C 108.893 127.251,109.806 125.336,111.158 124.509 C 111.994 123.997,112.683 121.914,114.405 114.694 C 115.435 110.373,116.314 108.604,117.759 107.946 C 118.701 107.517,119.243 106.513,120.592 102.704 C 121.289 100.736,122.644 99.355,124.282 98.944 C 124.894 98.790,125.572 98.042,126.178 96.852 C 127.342 94.565,128.496 93.465,130.717 92.522 C 132.117 91.928,132.633 91.394,133.519 89.621 C 134.443 87.771,134.960 87.261,136.992 86.188 C 139.149 85.050,139.461 84.717,140.222 82.753 C 140.686 81.557,141.353 80.133,141.706 79.589 C 142.059 79.045,142.732 77.564,143.203 76.298 C 143.674 75.032,144.414 73.807,144.848 73.574 C 145.933 72.994,146.256 71.963,146.796 67.365 C 148.085 56.397,149.151 53.135,151.825 51.989 C 152.902 51.528,153.792 50.817,154.077 50.192 C 155.204 47.717,159.125 46.548,161.481 47.984 M218.602 66.402 C 219.625 67.532,219.190 67.637,218.114 66.520 C 217.627 66.014,217.374 65.600,217.552 65.600 C 217.730 65.600,218.203 65.961,218.602 66.402 M123.000 79.667 C 122.560 79.910,121.785 80.485,121.278 80.945 C 120.506 81.645,120.399 81.667,120.625 81.079 C 120.891 80.387,122.617 79.236,123.400 79.228 C 123.620 79.226,123.440 79.423,123.000 79.667 M115.567 85.721 C 115.475 85.788,114.860 86.158,114.200 86.545 L 113.000 87.247 113.944 86.424 C 114.464 85.971,115.079 85.600,115.311 85.600 C 115.543 85.600,115.658 85.654,115.567 85.721 M263.607 87.680 C 264.335 88.120,266.000 90.697,266.000 91.384 C 266.000 91.981,264.820 91.493,264.602 90.806 C 264.463 90.370,263.551 89.358,262.575 88.558 C 259.980 86.432,260.629 85.880,263.607 87.680 M262.133 91.599 C 261.900 91.834,260.800 90.415,260.800 89.879 C 260.800 89.677,261.145 89.936,261.566 90.456 C 261.987 90.975,262.242 91.490,262.133 91.599 M157.492 115.355 C 156.443 116.087,154.878 117.004,154.016 117.393 C 151.610 118.478,147.723 125.105,148.553 126.708 C 150.001 129.510,151.615 130.070,156.216 129.372 C 158.187 129.073,161.168 128.822,162.840 128.814 C 165.532 128.802,166.058 128.670,167.440 127.667 C 169.793 125.957,169.964 125.609,170.245 121.952 L 170.505 118.569 168.451 116.722 C 166.733 115.177,166.053 114.833,164.298 114.621 C 163.144 114.481,161.570 114.289,160.800 114.195 C 159.695 114.060,158.999 114.303,157.492 115.355 M318.186 167.768 C 319.646 168.378,320.549 169.755,320.961 172.000 C 321.178 173.183,321.094 173.094,320.419 171.424 C 319.444 169.013,318.958 168.503,316.959 167.791 C 316.101 167.485,315.721 167.227,316.113 167.218 C 316.505 167.208,317.438 167.456,318.186 167.768 M60.522 181.278 C 60.040 181.511,59.358 182.354,59.008 183.151 C 58.418 184.493,58.388 184.512,58.603 183.400 C 58.838 182.181,60.115 180.778,60.944 180.827 C 61.195 180.842,61.005 181.045,60.522 181.278 M180.857 207.229 C 180.070 207.544,179.940 207.833,180.073 208.975 C 180.161 209.728,180.090 210.256,179.916 210.148 C 178.955 209.554,179.604 206.800,180.700 206.825 C 181.793 206.851,181.794 206.853,180.857 207.229 M179.600 213.400 C 179.600 213.730,179.330 214.000,179.000 214.000 C 177.959 214.000,178.296 213.212,179.500 212.832 C 179.555 212.814,179.600 213.070,179.600 213.400 M173.765 214.176 C 173.261 214.545,173.153 214.980,173.353 215.838 C 173.552 216.689,173.516 216.839,173.218 216.400 C 172.649 215.558,172.701 213.702,173.300 213.487 C 174.160 213.179,174.480 213.653,173.765 214.176 M170.799 218.202 C 170.283 218.751,169.723 219.200,169.556 219.200 C 169.388 219.200,169.735 218.699,170.326 218.088 C 170.916 217.476,171.476 217.026,171.568 217.089 C 171.661 217.152,171.314 217.652,170.799 218.202 M142.537 221.654 C 142.132 222.344,141.350 223.180,140.800 223.513 C 139.818 224.107,139.819 224.101,140.862 223.159 C 141.447 222.631,142.128 221.795,142.376 221.300 C 142.625 220.805,142.928 220.400,143.051 220.400 C 143.173 220.400,142.942 220.964,142.537 221.654 M54.034 224.567 C 55.314 225.644,55.292 225.891,53.978 225.188 C 53.077 224.706,51.984 222.754,52.036 221.720 C 52.056 221.324,52.237 221.570,52.439 222.267 C 52.641 222.964,53.358 223.999,54.034 224.567 M136.684 228.485 C 135.778 230.213,133.583 232.018,132.441 231.976 C 131.931 231.958,131.963 231.855,132.595 231.476 C 133.375 231.009,135.700 228.739,136.716 227.453 C 137.612 226.318,137.599 226.741,136.684 228.485 M320.602 253.198 C 320.203 253.639,319.633 254.000,319.337 254.000 C 319.040 254.000,318.147 254.720,317.352 255.600 C 315.525 257.622,315.200 257.607,315.200 255.500 L 315.201 253.800 317.464 253.778 C 319.273 253.760,319.855 253.588,320.364 252.920 C 320.714 252.461,321.074 252.155,321.164 252.240 C 321.255 252.325,321.002 252.756,320.602 253.198 M205.200 288.420 C 207.410 288.814,214.878 288.810,218.400 288.414 C 220.133 288.219,218.064 288.118,212.200 288.111 C 206.595 288.104,204.054 288.216,205.200 288.420 M231.200 288.733 C 233.212 289.692,242.781 289.671,244.800 288.703 C 246.159 288.051,245.959 288.032,238.000 288.048 C 230.044 288.065,229.842 288.085,231.200 288.733 M101.344 296.769 C 100.654 297.190,99.993 297.774,99.876 298.067 C 99.741 298.406,99.652 298.428,99.632 298.129 C 99.595 297.591,101.482 295.999,102.154 296.001 C 102.399 296.002,102.035 296.348,101.344 296.769 M331.307 311.414 C 332.128 311.972,332.800 312.490,332.800 312.566 C 332.800 312.641,333.079 313.371,333.421 314.187 C 333.762 315.004,333.852 315.556,333.621 315.413 C 333.389 315.270,333.200 314.907,333.200 314.607 C 333.200 313.746,331.160 311.546,329.820 310.963 C 329.149 310.670,328.873 310.424,329.207 310.416 C 329.541 310.407,330.486 310.856,331.307 311.414 M91.600 324.348 C 91.600 324.540,91.015 325.098,90.300 325.589 C 88.995 326.484,86.818 329.334,86.013 331.200 L 85.582 332.200 85.802 331.087 C 86.290 328.620,87.950 325.619,89.273 324.812 C 90.678 323.955,91.600 323.772,91.600 324.348 M91.600 327.790 C 91.600 328.114,91.015 328.676,90.300 329.038 L 89.000 329.697 90.175 328.448 C 91.517 327.022,91.600 326.984,91.600 327.790 M85.476 361.500 C 85.375 361.885,85.293 361.570,85.293 360.800 C 85.293 360.030,85.375 359.715,85.476 360.100 C 85.576 360.485,85.576 361.115,85.476 361.500 M88.453 367.684 C 89.323 368.151,89.535 368.400,89.063 368.400 C 88.218 368.400,85.993 366.307,86.014 365.531 C 86.022 365.239,86.274 365.443,86.573 365.984 C 86.873 366.526,87.719 367.291,88.453 367.684 " stroke="none" fill="#3f3f3f" fill-rule="evenodd"></path><path id="path1" d="M155.800 52.216 C 150.454 55.838,149.526 57.714,148.388 67.200 C 147.779 72.271,146.293 76.774,144.533 78.881 C 143.763 79.802,142.588 81.646,141.921 82.978 C 140.430 85.959,139.814 86.674,137.885 87.658 C 136.930 88.146,135.855 89.237,134.976 90.610 C 134.210 91.808,133.002 93.089,132.291 93.456 C 130.012 94.635,128.784 95.738,127.589 97.679 C 126.947 98.723,125.702 100.031,124.821 100.587 C 122.940 101.774,122.313 102.651,121.063 105.838 C 120.554 107.137,119.611 108.989,118.969 109.954 C 118.326 110.918,117.504 112.150,117.143 112.691 C 116.445 113.735,116.008 115.082,113.991 122.400 C 113.293 124.930,112.299 127.810,111.782 128.800 C 110.321 131.595,108.969 135.106,108.039 138.524 C 107.030 142.235,105.581 145.223,103.757 147.356 C 103.026 148.212,101.953 150.152,101.375 151.667 C 100.707 153.413,99.636 155.185,98.448 156.510 C 97.416 157.660,95.705 160.130,94.644 162.000 C 93.582 163.870,91.856 166.300,90.807 167.400 C 89.758 168.500,88.223 170.709,87.395 172.310 C 86.478 174.084,85.290 175.695,84.352 176.438 C 83.469 177.137,82.216 178.795,81.409 180.331 C 80.635 181.802,78.844 184.394,77.428 186.090 C 76.012 187.787,74.107 190.609,73.195 192.362 C 72.284 194.115,71.085 195.846,70.531 196.208 C 67.908 197.927,66.576 205.199,67.902 210.568 L 68.752 214.014 72.875 218.384 L 76.998 222.753 82.279 225.012 C 85.184 226.254,87.763 227.515,88.010 227.813 C 89.329 229.401,103.388 232.899,108.149 232.823 C 112.647 232.751,117.200 230.301,117.200 227.953 C 117.200 227.723,118.115 226.615,119.233 225.491 C 120.351 224.367,121.806 222.356,122.467 221.024 C 123.128 219.691,124.626 217.610,125.796 216.400 C 126.966 215.190,128.797 213.297,129.864 212.192 C 131.185 210.827,132.380 210.013,133.603 209.648 C 134.591 209.353,136.120 208.743,137.000 208.293 C 139.293 207.120,143.574 206.401,148.265 206.400 C 155.844 206.400,163.527 203.932,167.746 200.143 C 168.816 199.182,170.941 197.739,172.469 196.936 C 174.444 195.898,175.590 194.977,176.436 193.748 C 177.090 192.797,178.475 191.534,179.513 190.942 C 182.056 189.490,182.727 188.887,183.954 186.946 C 184.529 186.036,185.810 184.680,186.800 183.932 C 187.813 183.167,189.084 181.675,189.706 180.521 C 191.910 176.438,192.593 176.000,196.755 176.000 L 200.389 176.000 201.404 177.534 C 203.527 180.742,205.447 191.731,204.806 197.000 C 204.356 200.688,202.450 207.394,201.351 209.153 C 196.154 217.470,189.825 224.566,182.028 230.817 C 179.922 232.504,177.765 234.359,177.234 234.939 C 176.703 235.518,175.155 236.717,173.795 237.603 C 172.435 238.489,170.734 239.947,170.014 240.842 C 169.295 241.737,167.740 243.088,166.560 243.843 C 165.379 244.598,163.678 246.212,162.779 247.429 C 161.879 248.646,160.282 250.172,159.229 250.820 C 158.058 251.541,156.745 252.856,155.849 254.206 C 155.042 255.420,153.518 257.035,152.462 257.794 C 151.285 258.639,150.111 259.964,149.430 261.216 C 148.818 262.340,147.162 264.641,145.751 266.330 C 144.339 268.018,142.391 270.930,141.422 272.800 C 140.453 274.670,139.091 276.740,138.395 277.400 C 136.576 279.124,136.117 280.213,135.374 284.573 L 134.712 288.455 135.656 289.466 C 138.182 292.170,145.347 291.988,161.400 288.812 C 169.361 287.237,194.639 286.197,218.800 286.450 C 224.190 286.506,231.840 286.408,235.800 286.233 C 244.195 285.860,261.599 287.017,268.321 288.394 C 288.463 292.520,291.089 292.136,294.263 284.600 C 296.052 280.352,296.213 279.808,298.978 268.600 C 299.955 264.640,301.380 259.510,302.145 257.200 C 305.080 248.330,308.974 221.713,308.695 212.434 C 308.257 197.878,304.639 174.712,301.631 167.206 C 300.793 165.113,299.530 161.532,298.826 159.250 C 297.308 154.330,296.011 151.292,294.666 149.505 C 294.126 148.787,293.115 146.850,292.419 145.200 C 290.883 141.557,289.474 139.080,287.834 137.142 C 287.155 136.341,285.900 134.304,285.045 132.617 C 284.060 130.673,282.920 129.091,281.932 128.297 C 281.074 127.608,279.816 126.134,279.134 125.022 C 277.995 123.161,275.986 120.923,270.927 115.878 C 265.725 110.691,263.619 108.800,261.600 107.507 C 260.390 106.732,258.724 105.371,257.898 104.482 C 257.071 103.593,255.235 102.217,253.816 101.424 C 252.398 100.631,250.427 99.363,249.437 98.607 C 246.600 96.442,244.845 95.425,241.289 93.885 C 239.468 93.097,236.912 91.740,235.609 90.869 C 234.020 89.808,231.487 88.730,227.920 87.596 C 224.994 86.667,221.130 85.202,219.333 84.342 C 214.828 82.186,202.107 79.600,196.007 79.600 C 193.413 79.600,191.903 79.041,190.599 77.597 C 190.160 77.111,188.788 76.201,187.550 75.576 C 186.183 74.885,184.614 73.631,183.550 72.379 C 182.588 71.246,181.361 69.932,180.824 69.459 C 180.287 68.987,178.822 67.546,177.567 66.257 C 176.313 64.968,174.862 63.479,174.343 62.947 C 173.824 62.416,172.450 61.146,171.289 60.126 C 170.128 59.105,168.806 57.607,168.350 56.797 C 167.753 55.734,166.474 54.684,163.766 53.031 C 161.700 51.770,159.907 50.573,159.781 50.369 C 159.430 49.801,159.223 49.897,155.800 52.216 M168.019 58.251 C 169.019 59.522,170.865 61.381,172.121 62.381 C 173.377 63.381,174.951 64.974,175.620 65.920 C 176.288 66.867,177.652 68.217,178.651 68.920 C 179.650 69.624,181.084 71.058,181.838 72.107 C 182.592 73.156,183.882 74.470,184.704 75.028 C 185.527 75.586,186.830 76.481,187.600 77.017 C 192.262 80.261,192.431 80.340,195.134 80.565 C 204.685 81.357,213.441 83.096,217.036 84.915 C 218.116 85.462,220.890 86.486,223.200 87.191 C 228.735 88.878,232.145 90.269,234.654 91.862 C 235.784 92.579,238.306 93.855,240.258 94.696 C 242.210 95.538,245.516 97.408,247.604 98.852 C 249.692 100.296,252.327 101.974,253.461 102.581 C 254.594 103.188,256.295 104.496,257.239 105.487 C 258.184 106.478,259.687 107.749,260.579 108.311 C 262.242 109.359,268.831 115.255,270.735 117.400 C 271.321 118.060,273.006 119.805,274.481 121.278 C 275.955 122.751,277.516 124.641,277.948 125.478 C 278.381 126.315,279.665 127.900,280.802 129.000 C 282.078 130.235,283.465 132.178,284.428 134.079 C 285.286 135.773,286.500 137.753,287.125 138.479 C 288.611 140.206,290.473 143.548,291.787 146.846 C 292.367 148.301,293.453 150.441,294.200 151.600 C 295.684 153.903,296.239 155.394,300.160 167.600 C 303.105 176.770,303.218 177.232,304.358 184.800 C 308.076 209.487,307.109 234.875,301.780 252.481 C 301.228 254.306,299.619 260.390,298.207 266.000 C 295.568 276.475,294.987 278.400,292.585 284.600 C 290.246 290.636,288.536 291.023,276.771 288.174 C 267.329 285.888,245.953 284.373,233.810 285.130 C 229.605 285.392,216.893 285.605,205.400 285.605 C 175.227 285.605,165.406 286.166,152.800 288.607 C 142.199 290.660,138.874 290.819,137.270 289.352 L 136.009 288.200 136.428 285.200 C 137.068 280.610,137.092 280.549,139.011 278.387 C 140.001 277.273,141.520 274.949,142.388 273.223 C 143.256 271.497,145.050 268.850,146.374 267.342 C 147.698 265.834,149.343 263.552,150.029 262.272 C 150.864 260.714,151.918 259.483,153.212 258.553 C 154.276 257.789,155.803 256.175,156.604 254.967 C 157.406 253.759,158.723 252.351,159.531 251.838 C 161.286 250.724,162.779 249.265,164.029 247.440 C 164.534 246.702,165.900 245.529,167.064 244.833 C 168.228 244.137,169.932 242.676,170.851 241.586 C 171.769 240.497,173.287 239.156,174.224 238.607 C 175.161 238.058,177.159 236.481,178.664 235.102 C 180.169 233.722,182.536 231.721,183.925 230.654 C 189.693 226.223,196.158 218.967,201.659 210.750 C 204.762 206.116,207.295 194.553,206.292 189.600 C 203.768 177.128,201.882 173.664,198.016 174.397 C 196.847 174.619,195.292 174.800,194.559 174.800 C 192.779 174.800,190.881 176.506,189.242 179.581 C 188.388 181.185,187.379 182.389,186.226 183.182 C 185.273 183.838,183.851 185.269,183.064 186.363 C 182.278 187.458,180.661 188.976,179.469 189.738 C 178.278 190.500,176.605 191.967,175.752 192.998 C 174.766 194.189,173.252 195.357,171.600 196.201 C 170.170 196.932,168.026 198.368,166.837 199.391 C 162.501 203.121,154.655 205.600,149.000 205.026 C 142.307 204.347,132.370 207.446,128.799 211.325 C 124.340 216.170,122.721 218.186,121.785 220.062 C 121.198 221.238,120.007 222.936,119.138 223.836 C 118.269 224.736,116.983 226.342,116.279 227.404 C 113.894 231.005,112.810 231.569,108.200 231.610 C 102.816 231.658,94.781 229.660,89.000 226.836 C 86.800 225.761,83.314 224.200,81.252 223.366 C 77.854 221.992,77.318 221.624,75.504 219.425 C 74.404 218.091,72.698 216.280,71.714 215.400 C 69.018 212.990,67.785 208.234,68.622 203.476 C 68.939 201.674,69.199 200.071,69.199 199.913 C 69.200 199.756,70.035 198.686,71.057 197.536 C 72.078 196.387,73.273 194.626,73.714 193.623 C 74.708 191.358,76.271 189.054,78.715 186.249 C 79.752 185.060,81.140 183.032,81.800 181.743 C 82.460 180.454,84.007 178.320,85.237 177.000 C 86.468 175.680,87.844 173.763,88.297 172.740 C 88.749 171.718,90.086 169.828,91.269 168.540 C 92.451 167.253,94.295 164.670,95.366 162.800 C 96.437 160.930,98.028 158.618,98.901 157.662 C 99.773 156.706,101.184 154.415,102.036 152.572 C 102.887 150.728,104.193 148.540,104.938 147.710 C 106.733 145.707,107.270 144.579,108.802 139.600 C 109.513 137.290,110.794 134.007,111.649 132.304 C 112.505 130.602,113.755 127.182,114.428 124.704 C 116.764 116.106,117.178 114.966,118.973 112.190 C 119.965 110.656,121.261 108.082,121.852 106.472 C 122.777 103.954,123.262 103.254,125.317 101.472 C 126.632 100.332,128.130 98.734,128.646 97.920 C 129.162 97.106,130.661 95.710,131.975 94.817 C 133.290 93.924,134.914 92.397,135.584 91.423 C 136.254 90.450,137.386 89.252,138.101 88.762 C 140.480 87.130,141.665 85.820,142.822 83.542 C 143.453 82.301,144.690 80.451,145.572 79.433 C 147.508 77.195,148.189 75.095,149.210 68.200 C 150.704 58.117,151.315 56.859,156.309 53.571 L 159.217 51.656 162.709 53.798 C 165.186 55.317,166.729 56.611,168.019 58.251 M157.271 111.894 C 156.320 112.695,154.444 114.082,153.103 114.976 C 151.161 116.268,150.207 117.309,148.431 120.071 C 147.204 121.979,145.849 124.027,145.421 124.621 C 144.833 125.436,144.603 126.548,144.485 129.151 C 144.276 133.757,143.934 133.599,153.226 133.189 C 163.786 132.724,166.786 131.822,171.114 127.816 L 173.480 125.625 173.748 122.134 L 174.017 118.642 171.908 116.493 C 168.546 113.065,166.241 111.553,163.470 110.958 C 159.843 110.180,159.186 110.279,157.271 111.894 M163.704 112.418 C 166.263 112.859,166.570 113.034,169.404 115.681 L 172.400 118.479 172.400 121.892 C 172.400 128.689,167.557 131.176,153.700 131.493 L 146.800 131.652 146.400 130.600 C 145.662 128.658,145.911 125.595,146.919 124.238 C 147.424 123.557,148.676 121.638,149.702 119.973 C 151.195 117.548,151.960 116.731,153.544 115.869 C 154.632 115.277,156.394 114.068,157.461 113.183 C 158.748 112.114,159.669 111.637,160.200 111.763 C 160.640 111.868,162.217 112.163,163.704 112.418 M196.400 295.616 C 158.071 296.607,134.007 298.379,128.787 300.597 C 127.364 301.201,124.040 302.577,121.400 303.653 C 117.182 305.373,116.357 305.871,114.600 307.759 C 113.500 308.940,111.745 310.477,110.700 311.173 C 109.655 311.869,108.800 312.482,108.800 312.534 C 108.800 313.106,105.765 319.696,104.979 320.830 C 103.286 323.274,102.784 325.754,102.155 334.800 C 101.052 350.648,101.760 352.806,108.433 353.949 C 113.189 354.764,315.296 354.574,316.920 353.753 C 320.700 351.843,321.201 350.596,321.194 343.120 C 321.177 326.638,319.482 319.265,314.363 313.400 C 307.917 306.014,305.947 304.725,294.800 300.606 C 289.809 298.761,281.804 297.959,252.800 296.397 C 245.265 295.991,212.868 295.156,209.200 295.274 C 208.210 295.305,202.450 295.459,196.400 295.616 M236.600 297.013 C 248.529 297.256,269.781 298.173,277.689 298.786 C 283.249 299.216,292.128 301.012,295.600 302.407 C 296.810 302.893,298.880 303.607,300.200 303.994 C 308.547 306.436,317.069 316.196,318.838 325.338 C 321.187 337.473,320.329 350.343,317.036 352.378 L 315.713 353.196 213.057 353.202 C 99.429 353.210,106.421 353.367,104.223 350.754 C 101.525 347.548,103.039 326.846,106.392 321.086 C 106.804 320.379,107.522 318.656,107.989 317.258 C 109.095 313.942,109.741 313.010,111.961 311.524 C 112.972 310.847,114.610 309.411,115.600 308.332 C 117.263 306.520,117.871 306.195,123.600 304.058 C 127.010 302.785,130.215 301.520,130.723 301.246 C 134.321 299.302,158.793 297.659,196.800 296.809 C 209.416 296.527,213.821 296.550,236.600 297.013 " stroke="none" fill="#8c8c8c" fill-rule="evenodd"></path><path id="path2" d="M156.174 48.182 C 155.280 48.718,154.336 49.623,154.077 50.192 C 153.792 50.817,152.902 51.528,151.825 51.989 C 149.151 53.135,148.085 56.397,146.796 67.365 C 146.256 71.963,145.933 72.994,144.848 73.574 C 144.414 73.807,143.674 75.032,143.203 76.298 C 142.732 77.564,142.059 79.045,141.706 79.589 C 141.353 80.133,140.686 81.557,140.222 82.753 C 139.461 84.717,139.149 85.050,136.992 86.188 C 134.960 87.261,134.443 87.771,133.519 89.621 C 132.633 91.394,132.117 91.928,130.717 92.522 C 128.496 93.465,127.342 94.565,126.178 96.852 C 125.572 98.042,124.894 98.790,124.282 98.944 C 122.644 99.355,121.289 100.736,120.592 102.704 C 119.243 106.513,118.701 107.517,117.759 107.946 C 116.314 108.604,115.435 110.373,114.405 114.694 C 112.683 121.914,111.994 123.997,111.158 124.509 C 109.806 125.336,108.893 127.251,108.255 130.600 C 106.663 138.952,105.777 141.631,104.194 142.876 C 103.107 143.731,100.000 149.676,100.000 150.901 C 100.000 152.247,98.799 153.990,97.158 155.026 C 96.122 155.681,95.332 156.580,94.966 157.524 C 93.760 160.629,92.201 163.079,90.081 165.200 C 88.045 167.238,86.030 170.587,85.991 172.000 C 85.964 172.987,84.983 173.992,83.140 174.922 C 81.640 175.679,81.303 176.094,80.693 177.932 C 79.800 180.624,78.412 182.678,76.841 183.633 C 75.580 184.400,75.081 185.193,72.521 190.500 C 71.698 192.205,70.808 193.600,70.543 193.600 C 64.675 193.600,64.137 215.409,69.933 218.366 C 71.713 219.274,72.162 219.763,73.331 222.073 C 74.007 223.408,74.555 223.909,75.800 224.332 C 80.382 225.891,82.698 227.046,84.000 228.423 C 85.489 229.997,86.995 230.562,93.000 231.803 C 100.683 233.390,101.315 233.614,102.887 235.306 L 104.375 236.906 107.287 236.634 C 110.753 236.311,112.651 235.765,112.942 235.008 C 113.059 234.703,114.155 233.814,115.377 233.032 C 116.600 232.250,117.600 231.461,117.600 231.278 C 117.600 231.096,118.825 229.470,120.323 227.665 C 121.820 225.859,123.281 223.711,123.569 222.891 C 124.604 219.940,125.265 218.870,126.198 218.636 C 127.661 218.269,129.451 216.555,130.122 214.879 C 131.477 211.492,135.149 210.388,146.200 210.047 C 154.694 209.785,155.012 209.714,157.514 207.541 C 158.237 206.914,159.116 206.400,159.468 206.400 C 161.884 206.400,170.000 202.201,170.000 200.951 C 170.000 200.231,172.264 198.655,174.451 197.851 C 176.560 197.076,177.213 196.452,178.258 194.211 C 178.850 192.944,179.365 192.489,180.800 191.970 C 183.020 191.168,184.922 189.367,185.433 187.584 C 185.729 186.551,186.257 186.012,187.698 185.271 C 189.468 184.360,191.600 181.366,191.600 179.791 C 191.600 177.758,198.811 177.128,200.258 179.035 C 202.128 181.499,203.358 196.898,202.095 202.045 C 201.642 203.890,201.168 205.871,201.042 206.447 C 200.915 207.023,200.004 208.156,199.016 208.965 C 197.748 210.005,197.080 210.929,196.740 212.118 C 196.058 214.498,193.984 217.222,189.600 221.493 C 183.069 227.856,181.463 229.260,179.325 230.472 C 178.183 231.119,176.901 232.241,176.472 232.968 C 175.537 234.553,173.580 236.063,171.400 236.881 C 170.140 237.354,169.584 237.898,168.786 239.441 C 167.914 241.127,167.385 241.595,164.989 242.800 C 162.544 244.029,162.130 244.402,161.600 245.860 C 160.800 248.059,159.909 248.981,158.041 249.540 C 156.223 250.085,155.739 250.591,154.400 253.344 C 153.584 255.021,153.049 255.566,151.495 256.298 C 149.683 257.153,148.005 259.092,148.001 260.336 C 147.999 261.289,145.833 263.957,144.663 264.449 C 143.757 264.831,143.044 265.916,141.157 269.793 C 139.137 273.940,138.585 274.755,137.412 275.314 C 135.726 276.118,135.085 277.321,134.274 281.200 C 133.928 282.850,133.422 285.219,133.148 286.465 C 132.167 290.923,135.501 293.513,141.800 293.187 C 156.787 292.410,173.701 293.305,172.153 294.793 C 171.763 295.168,159.999 295.856,144.600 296.404 C 131.326 296.876,124.322 298.316,122.611 300.926 C 122.165 301.608,120.982 302.230,118.702 302.984 C 114.733 304.296,113.556 305.090,112.640 307.076 C 112.117 308.209,111.445 308.832,110.022 309.504 C 108.021 310.449,107.248 311.569,105.814 315.600 C 105.389 316.795,104.741 317.669,103.887 318.200 C 101.143 319.906,100.379 324.883,100.263 341.800 C 100.178 354.222,100.417 354.682,107.600 355.916 C 109.470 356.237,111.720 356.461,112.600 356.413 C 113.480 356.365,159.607 356.265,215.105 356.190 C 329.338 356.036,318.660 356.386,322.310 352.670 C 325.365 349.560,325.667 347.731,324.799 337.600 C 324.315 331.949,323.737 329.359,322.757 328.446 C 322.266 327.989,321.716 326.305,321.164 323.574 C 319.925 317.444,318.243 313.415,316.465 312.316 C 314.660 311.201,312.997 309.415,311.980 307.500 C 311.219 306.066,304.240 302.000,302.540 302.000 C 302.253 302.000,301.734 301.566,301.386 301.034 C 299.594 298.300,291.173 296.960,268.200 295.757 C 254.294 295.028,253.401 294.887,256.032 293.834 C 259.087 292.612,263.983 292.316,276.489 292.601 C 289.969 292.908,290.920 292.771,293.927 290.093 C 294.849 289.272,296.064 288.240,296.628 287.800 C 297.492 287.126,297.742 286.432,298.211 283.400 C 299.957 272.097,301.364 266.041,302.414 265.305 C 303.624 264.457,304.649 261.744,305.174 258.000 C 307.450 241.741,308.270 237.316,309.265 235.914 C 313.154 230.430,313.127 197.759,309.227 190.039 C 308.793 189.180,307.827 184.410,306.829 178.200 C 304.832 165.775,304.414 164.146,302.825 162.624 C 301.635 161.484,301.297 160.666,299.586 154.800 C 297.665 148.213,297.565 147.984,296.208 147.095 C 294.934 146.260,293.495 143.513,291.716 138.518 C 291.387 137.593,290.731 136.475,290.258 136.033 C 287.438 133.397,286.900 132.708,286.436 131.138 C 285.776 128.906,284.263 126.912,282.642 126.139 C 281.754 125.716,281.080 124.912,280.437 123.512 C 279.191 120.796,265.719 107.372,262.901 106.038 C 261.600 105.422,260.676 104.610,259.975 103.464 C 258.983 101.845,258.494 101.519,253.628 99.242 C 252.874 98.889,251.927 98.043,251.525 97.361 C 251.122 96.680,250.210 95.834,249.497 95.482 C 247.048 94.273,243.798 92.900,242.200 92.399 C 241.256 92.103,239.944 91.194,239.000 90.181 C 237.380 88.442,234.713 87.409,227.057 85.554 C 225.742 85.235,224.723 84.654,223.907 83.758 C 222.007 81.670,211.475 79.392,196.290 77.784 C 194.360 77.580,193.681 77.282,192.172 75.976 C 191.101 75.049,189.504 74.162,188.249 73.797 C 186.008 73.146,184.288 71.678,183.798 70.000 C 183.394 68.619,182.567 67.761,181.071 67.174 C 179.432 66.529,177.200 64.441,177.200 63.552 C 177.200 62.515,175.351 60.524,174.101 60.216 C 172.833 59.903,170.400 57.712,170.400 56.882 C 170.400 55.135,169.022 53.515,166.535 52.340 C 164.790 51.515,163.794 50.763,163.374 49.950 C 161.996 47.284,158.929 46.531,156.174 48.182 M159.781 50.369 C 159.907 50.573,161.700 51.770,163.766 53.031 C 166.474 54.684,167.753 55.734,168.350 56.797 C 168.806 57.607,170.128 59.105,171.289 60.126 C 172.450 61.146,173.824 62.416,174.343 62.947 C 174.862 63.479,176.313 64.968,177.567 66.257 C 178.822 67.546,180.287 68.987,180.824 69.459 C 181.361 69.932,182.588 71.246,183.550 72.379 C 184.614 73.631,186.183 74.885,187.550 75.576 C 188.788 76.201,190.160 77.111,190.599 77.597 C 191.903 79.041,193.413 79.600,196.007 79.600 C 202.107 79.600,214.828 82.186,219.333 84.342 C 221.130 85.202,224.994 86.667,227.920 87.596 C 231.487 88.730,234.020 89.808,235.609 90.869 C 236.912 91.740,239.468 93.097,241.289 93.885 C 244.845 95.425,246.600 96.442,249.437 98.607 C 250.427 99.363,252.398 100.631,253.816 101.424 C 255.235 102.217,257.071 103.593,257.898 104.482 C 258.724 105.371,260.390 106.732,261.600 107.507 C 263.619 108.800,265.725 110.691,270.927 115.878 C 275.986 120.923,277.995 123.161,279.134 125.022 C 279.816 126.134,281.074 127.608,281.932 128.297 C 282.920 129.091,284.060 130.673,285.045 132.617 C 285.900 134.304,287.155 136.341,287.834 137.142 C 289.474 139.080,290.883 141.557,292.419 145.200 C 293.115 146.850,294.126 148.787,294.666 149.505 C 296.011 151.292,297.308 154.330,298.826 159.250 C 299.530 161.532,300.793 165.113,301.631 167.206 C 304.639 174.712,308.257 197.878,308.695 212.434 C 308.974 221.713,305.080 248.330,302.145 257.200 C 301.380 259.510,299.955 264.640,298.978 268.600 C 296.213 279.808,296.052 280.352,294.263 284.600 C 291.089 292.136,288.463 292.520,268.321 288.394 C 261.599 287.017,244.195 285.860,235.800 286.233 C 231.840 286.408,224.190 286.506,218.800 286.450 C 194.639 286.197,169.361 287.237,161.400 288.812 C 145.347 291.988,138.182 292.170,135.656 289.466 L 134.712 288.455 135.374 284.573 C 136.117 280.213,136.576 279.124,138.395 277.400 C 139.091 276.740,140.453 274.670,141.422 272.800 C 142.391 270.930,144.339 268.018,145.751 266.330 C 147.162 264.641,148.818 262.340,149.430 261.216 C 150.111 259.964,151.285 258.639,152.462 257.794 C 153.518 257.035,155.042 255.420,155.849 254.206 C 156.745 252.856,158.058 251.541,159.229 250.820 C 160.282 250.172,161.879 248.646,162.779 247.429 C 163.678 246.212,165.379 244.598,166.560 243.843 C 167.740 243.088,169.295 241.737,170.014 240.842 C 170.734 239.947,172.435 238.489,173.795 237.603 C 175.155 236.717,176.703 235.518,177.234 234.939 C 177.765 234.359,179.922 232.504,182.028 230.817 C 189.825 224.566,196.154 217.470,201.351 209.153 C 202.450 207.394,204.356 200.688,204.806 197.000 C 205.447 191.731,203.527 180.742,201.404 177.534 L 200.389 176.000 196.755 176.000 C 192.593 176.000,191.910 176.438,189.706 180.521 C 189.084 181.675,187.813 183.167,186.800 183.932 C 185.810 184.680,184.529 186.036,183.954 186.946 C 182.727 188.887,182.056 189.490,179.513 190.942 C 178.475 191.534,177.090 192.797,176.436 193.748 C 175.590 194.977,174.444 195.898,172.469 196.936 C 170.941 197.739,168.816 199.182,167.746 200.143 C 163.527 203.932,155.844 206.400,148.265 206.400 C 143.574 206.401,139.293 207.120,137.000 208.293 C 136.120 208.743,134.591 209.353,133.603 209.648 C 132.380 210.013,131.185 210.827,129.864 212.192 C 128.797 213.297,126.966 215.190,125.796 216.400 C 124.626 217.610,123.128 219.691,122.467 221.024 C 121.806 222.356,120.351 224.367,119.233 225.491 C 118.115 226.615,117.200 227.723,117.200 227.953 C 117.200 230.301,112.647 232.751,108.149 232.823 C 103.388 232.899,89.329 229.401,88.010 227.813 C 87.763 227.515,85.184 226.254,82.279 225.012 L 76.998 222.753 72.875 218.384 L 68.752 214.014 67.902 210.568 C 66.576 205.199,67.908 197.927,70.531 196.208 C 71.085 195.846,72.284 194.115,73.195 192.362 C 74.107 190.609,76.012 187.787,77.428 186.090 C 78.844 184.394,80.635 181.802,81.409 180.331 C 82.216 178.795,83.469 177.137,84.352 176.438 C 85.290 175.695,86.478 174.084,87.395 172.310 C 88.223 170.709,89.758 168.500,90.807 167.400 C 91.856 166.300,93.582 163.870,94.644 162.000 C 95.705 160.130,97.416 157.660,98.448 156.510 C 99.636 155.185,100.707 153.413,101.375 151.667 C 101.953 150.152,103.026 148.212,103.757 147.356 C 105.581 145.223,107.030 142.235,108.039 138.524 C 108.969 135.106,110.321 131.595,111.782 128.800 C 112.299 127.810,113.293 124.930,113.991 122.400 C 116.008 115.082,116.445 113.735,117.143 112.691 C 117.504 112.150,118.326 110.918,118.969 109.954 C 119.611 108.989,120.554 107.137,121.063 105.838 C 122.313 102.651,122.940 101.774,124.821 100.587 C 125.702 100.031,126.947 98.723,127.589 97.679 C 128.784 95.738,130.012 94.635,132.291 93.456 C 133.002 93.089,134.210 91.808,134.976 90.610 C 135.855 89.237,136.930 88.146,137.885 87.658 C 139.814 86.674,140.430 85.959,141.921 82.978 C 142.588 81.646,143.763 79.802,144.533 78.881 C 146.293 76.774,147.779 72.271,148.388 67.200 C 149.526 57.714,150.454 55.838,155.800 52.216 C 159.223 49.897,159.430 49.801,159.781 50.369 M205.105 64.683 C 205.602 64.779,206.322 64.775,206.705 64.675 C 207.087 64.575,206.680 64.496,205.800 64.501 C 204.920 64.505,204.607 64.587,205.105 64.683 M218.114 66.520 C 218.601 67.026,219.074 67.387,219.164 67.323 C 219.398 67.155,217.942 65.600,217.552 65.600 C 217.374 65.600,217.627 66.014,218.114 66.520 M121.947 79.804 C 121.369 80.118,120.774 80.692,120.625 81.079 C 120.399 81.667,120.506 81.645,121.278 80.945 C 121.785 80.485,122.560 79.910,123.000 79.667 C 123.440 79.423,123.620 79.226,123.400 79.228 C 123.180 79.230,122.526 79.489,121.947 79.804 M113.944 86.424 L 113.000 87.247 114.200 86.545 C 115.779 85.620,115.803 85.600,115.311 85.600 C 115.079 85.600,114.464 85.971,113.944 86.424 M260.800 86.762 C 260.800 86.950,261.599 87.758,262.575 88.558 C 263.551 89.358,264.463 90.370,264.602 90.806 C 264.820 91.493,266.000 91.981,266.000 91.384 C 266.000 90.697,264.335 88.120,263.607 87.680 C 262.255 86.863,260.800 86.387,260.800 86.762 M260.800 89.879 C 260.800 90.415,261.900 91.834,262.133 91.599 C 262.242 91.490,261.987 90.975,261.566 90.456 C 261.145 89.936,260.800 89.677,260.800 89.879 M157.461 113.183 C 156.394 114.068,154.632 115.277,153.544 115.869 C 151.960 116.731,151.195 117.548,149.702 119.973 C 148.676 121.638,147.424 123.557,146.919 124.238 C 145.911 125.595,145.662 128.658,146.400 130.600 L 146.800 131.652 153.700 131.493 C 167.557 131.176,172.400 128.689,172.400 121.892 L 172.400 118.479 169.404 115.681 C 166.570 113.034,166.263 112.859,163.704 112.418 C 162.217 112.163,160.640 111.868,160.200 111.763 C 159.669 111.637,158.748 112.114,157.461 113.183 M164.298 114.621 C 166.053 114.833,166.733 115.177,168.451 116.722 L 170.505 118.569 170.245 121.952 C 169.964 125.609,169.793 125.957,167.440 127.667 C 166.058 128.670,165.532 128.802,162.840 128.814 C 161.168 128.822,158.187 129.073,156.216 129.372 C 151.615 130.070,150.001 129.510,148.553 126.708 C 147.723 125.105,151.610 118.478,154.016 117.393 C 154.878 117.004,156.443 116.087,157.492 115.355 C 158.999 114.303,159.695 114.060,160.800 114.195 C 161.570 114.289,163.144 114.481,164.298 114.621 M316.959 167.791 C 318.958 168.503,319.444 169.013,320.419 171.424 C 321.094 173.094,321.178 173.183,320.961 172.000 C 320.417 169.040,318.510 167.159,316.113 167.218 C 315.721 167.227,316.101 167.485,316.959 167.791 M59.661 181.500 C 59.206 181.885,58.730 182.740,58.603 183.400 C 58.388 184.512,58.418 184.493,59.008 183.151 C 59.358 182.354,60.040 181.511,60.522 181.278 C 61.005 181.045,61.195 180.842,60.944 180.827 C 60.694 180.812,60.116 181.115,59.661 181.500 M170.326 218.088 C 169.735 218.699,169.388 219.200,169.556 219.200 C 169.935 219.200,171.799 217.245,171.568 217.089 C 171.476 217.026,170.916 217.476,170.326 218.088 M142.376 221.300 C 142.128 221.795,141.447 222.631,140.862 223.159 C 139.819 224.101,139.818 224.107,140.800 223.513 C 141.717 222.958,143.567 220.400,143.051 220.400 C 142.928 220.400,142.625 220.805,142.376 221.300 M143.593 222.526 C 142.711 224.368,142.389 224.667,140.706 225.200 C 139.665 225.530,138.716 226.050,138.597 226.357 C 138.440 226.761,138.520 226.803,138.891 226.509 C 139.171 226.286,140.064 225.985,140.876 225.839 C 142.578 225.532,144.191 223.863,144.604 221.981 C 145.024 220.068,144.680 220.253,143.593 222.526 M52.036 221.720 C 51.984 222.754,53.077 224.706,53.978 225.188 C 55.292 225.891,55.314 225.644,54.034 224.567 C 53.358 223.999,52.641 222.964,52.439 222.267 C 52.237 221.570,52.056 221.324,52.036 221.720 M136.716 227.453 C 135.700 228.739,133.375 231.009,132.595 231.476 C 131.963 231.855,131.931 231.958,132.441 231.976 C 133.583 232.018,135.778 230.213,136.684 228.485 C 137.599 226.741,137.612 226.318,136.716 227.453 M320.500 252.788 C 320.242 253.202,319.619 253.619,319.115 253.716 C 318.276 253.877,318.269 253.896,319.038 253.946 C 319.830 253.997,321.534 252.601,321.149 252.216 C 321.050 252.117,320.758 252.375,320.500 252.788 M315.200 254.619 C 315.200 255.627,315.210 255.630,316.160 254.919 C 316.991 254.297,317.032 254.163,316.460 253.928 C 315.357 253.474,315.200 253.560,315.200 254.619 M218.400 288.414 C 214.878 288.810,207.410 288.814,205.200 288.420 C 204.054 288.216,206.595 288.104,212.200 288.111 C 218.064 288.118,220.133 288.219,218.400 288.414 M244.800 288.703 C 242.781 289.671,233.212 289.692,231.200 288.733 C 229.842 288.085,230.044 288.065,238.000 288.048 C 245.959 288.032,246.159 288.051,244.800 288.703 M228.000 295.596 C 244.536 295.966,249.054 296.157,271.200 297.423 C 281.592 298.016,291.357 299.334,294.800 300.606 C 305.947 304.725,307.917 306.014,314.363 313.400 C 319.482 319.265,321.177 326.638,321.194 343.120 C 321.201 350.596,320.700 351.843,316.920 353.753 C 315.296 354.574,113.189 354.764,108.433 353.949 C 101.760 352.806,101.052 350.648,102.155 334.800 C 102.784 325.754,103.286 323.274,104.979 320.830 C 105.765 319.696,108.800 313.106,108.800 312.534 C 108.800 312.482,109.655 311.869,110.700 311.173 C 111.745 310.477,113.500 308.940,114.600 307.759 C 116.357 305.871,117.182 305.373,121.400 303.653 C 124.040 302.577,127.364 301.201,128.787 300.597 C 134.007 298.379,158.071 296.607,196.400 295.616 C 202.450 295.459,208.210 295.305,209.200 295.274 C 210.190 295.242,218.650 295.387,228.000 295.596 M100.654 296.829 C 100.074 297.285,99.614 297.870,99.632 298.129 C 99.652 298.428,99.741 298.406,99.876 298.067 C 99.993 297.774,100.654 297.190,101.344 296.769 C 102.035 296.348,102.399 296.002,102.154 296.001 C 101.909 296.001,101.234 296.373,100.654 296.829 M329.820 310.963 C 331.160 311.546,333.200 313.746,333.200 314.607 C 333.200 314.907,333.389 315.270,333.621 315.413 C 333.852 315.556,333.762 315.004,333.421 314.187 C 333.079 313.371,332.800 312.641,332.800 312.566 C 332.800 312.227,329.750 310.402,329.207 310.416 C 328.873 310.424,329.149 310.670,329.820 310.963 M89.273 324.812 C 87.950 325.619,86.290 328.620,85.802 331.087 L 85.582 332.200 86.013 331.200 C 86.818 329.334,88.995 326.484,90.300 325.589 C 92.569 324.032,91.669 323.351,89.273 324.812 M90.175 328.448 L 89.000 329.697 90.300 329.038 C 91.015 328.676,91.600 328.114,91.600 327.790 C 91.600 326.984,91.517 327.022,90.175 328.448 M85.293 360.800 C 85.293 361.570,85.375 361.885,85.476 361.500 C 85.576 361.115,85.576 360.485,85.476 360.100 C 85.375 359.715,85.293 360.030,85.293 360.800 M86.014 365.531 C 85.993 366.307,88.218 368.400,89.063 368.400 C 89.535 368.400,89.323 368.151,88.453 367.684 C 87.719 367.291,86.873 366.526,86.573 365.984 C 86.274 365.443,86.022 365.239,86.014 365.531 " stroke="none" fill="#7c7c7c" fill-rule="evenodd"></path><path id="path3" d="M157.531 56.206 C 156.455 56.987,155.210 58.427,154.458 59.760 C 153.762 60.992,153.033 62.000,152.836 62.000 C 152.335 62.000,151.729 64.950,150.987 71.000 C 150.103 78.208,149.750 79.411,148.045 81.038 C 147.250 81.796,146.117 82.872,145.527 83.429 C 144.937 83.986,144.335 84.985,144.189 85.650 C 143.820 87.332,141.894 89.395,139.979 90.162 C 138.713 90.668,138.211 91.174,137.631 92.529 C 136.778 94.517,134.939 96.218,133.237 96.592 C 131.839 96.899,131.358 97.425,130.011 100.117 C 129.254 101.629,128.560 102.370,127.248 103.063 C 124.658 104.432,124.533 104.596,123.873 107.516 C 122.898 111.826,121.605 114.813,119.924 116.636 C 118.270 118.430,117.381 121.164,116.398 127.479 C 115.647 132.305,114.893 134.307,113.181 136.019 C 111.757 137.443,111.469 138.091,110.395 142.287 C 109.118 147.272,107.894 149.620,106.088 150.555 C 104.830 151.205,104.297 152.134,103.573 154.943 C 103.057 156.944,100.213 161.221,98.926 161.932 C 98.527 162.153,97.390 163.917,96.400 165.853 C 95.107 168.382,94.206 169.628,93.200 170.276 C 91.008 171.688,90.602 172.220,89.833 174.690 C 89.269 176.502,88.655 177.431,86.986 179.000 C 85.496 180.400,84.279 182.126,82.929 184.754 C 81.868 186.819,80.567 188.799,80.039 189.154 C 77.588 190.801,76.522 192.233,75.682 195.010 C 75.100 196.933,74.436 198.196,73.579 199.010 C 68.895 203.460,69.426 208.282,75.318 214.823 C 76.023 215.606,77.286 217.093,78.125 218.129 C 79.942 220.373,82.666 221.848,86.447 222.637 C 90.173 223.413,93.084 224.599,94.987 226.114 C 97.092 227.790,103.105 229.189,108.230 229.196 C 112.414 229.201,112.934 228.874,114.782 225.087 C 115.459 223.700,116.354 222.633,117.452 221.906 C 118.737 221.055,119.250 220.366,119.760 218.806 C 120.937 215.207,127.007 207.200,128.557 207.200 C 128.891 207.200,129.749 205.942,130.549 204.280 L 131.954 201.359 134.477 201.479 C 135.865 201.545,140.420 201.772,144.600 201.984 C 156.249 202.576,160.668 201.794,162.830 198.757 C 163.668 197.581,169.323 194.272,171.351 193.772 C 172.040 193.602,172.762 193.008,173.151 192.293 C 174.375 190.042,175.625 188.857,177.511 188.160 C 179.982 187.247,180.272 186.999,181.150 185.047 C 182.023 183.107,183.209 181.956,185.383 180.940 C 186.688 180.330,187.092 179.849,187.680 178.200 C 189.155 174.065,194.736 170.205,200.782 169.141 C 203.899 168.591,203.837 168.662,205.322 163.977 L 206.645 159.800 208.151 159.848 C 210.246 159.915,210.564 160.403,210.737 163.815 L 210.888 166.803 208.402 169.198 C 205.671 171.829,205.719 171.663,206.206 176.800 C 206.476 179.647,206.710 180.428,207.648 181.600 C 209.738 184.213,210.127 185.976,210.163 193.000 C 210.198 199.995,209.987 200.847,207.579 203.400 C 206.820 204.204,206.159 205.655,205.575 207.800 C 204.432 211.996,202.735 215.309,201.247 216.252 C 200.038 217.017,197.600 220.055,197.600 220.795 C 197.600 221.427,194.768 224.400,194.167 224.400 C 193.325 224.400,190.911 226.703,190.646 227.760 C 190.380 228.819,188.626 230.408,185.782 232.165 C 184.745 232.806,183.544 233.927,183.114 234.656 C 182.684 235.385,180.935 236.960,179.228 238.156 C 177.521 239.353,174.791 241.606,173.162 243.164 C 171.533 244.721,169.442 246.354,168.516 246.793 C 167.338 247.349,166.418 248.236,165.457 249.738 C 164.091 251.873,162.793 253.013,160.714 253.904 C 160.051 254.189,159.244 255.129,158.640 256.321 C 157.718 258.140,156.335 259.578,153.829 261.322 C 153.258 261.719,152.318 262.979,151.740 264.122 C 150.097 267.372,147.689 270.718,146.789 271.004 C 145.693 271.351,144.245 273.687,143.399 276.471 C 142.756 278.587,140.832 281.200,139.917 281.200 C 139.366 281.200,139.953 284.469,140.632 285.178 C 141.463 286.047,145.464 286.363,147.578 285.726 C 153.210 284.032,162.640 283.589,201.400 283.198 C 222.778 282.983,235.800 282.700,237.200 282.421 C 239.357 281.991,252.507 282.261,273.624 283.169 L 281.447 283.505 284.580 284.953 C 286.303 285.749,287.840 286.400,287.996 286.400 C 288.913 286.400,290.341 281.199,290.542 277.126 C 290.802 271.846,291.368 269.850,292.970 268.570 C 293.647 268.030,294.394 267.433,294.630 267.243 C 295.252 266.745,296.303 260.067,297.028 252.000 C 297.919 242.088,298.450 240.104,300.642 238.508 C 304.109 235.982,303.933 189.112,300.446 186.178 C 298.985 184.948,298.275 182.819,297.645 177.785 C 297.399 175.813,296.930 172.040,296.603 169.400 C 296.085 165.215,295.103 160.435,294.725 160.259 C 291.822 158.900,290.937 157.690,290.443 154.400 C 290.025 151.618,288.637 145.907,288.211 145.217 C 288.069 144.988,287.443 144.800,286.821 144.800 C 285.011 144.800,283.950 143.638,283.571 141.241 C 282.953 137.334,281.586 134.484,279.652 133.074 C 276.714 130.932,276.071 130.070,275.504 127.516 C 274.977 125.144,274.939 125.097,273.008 124.364 C 270.499 123.411,270.065 122.950,269.226 120.344 C 268.744 118.849,268.249 118.079,267.589 117.800 C 264.186 116.361,263.378 115.728,262.400 113.734 C 261.528 111.956,261.118 111.575,259.200 110.768 C 257.720 110.145,256.214 109.031,254.600 107.364 C 252.888 105.596,251.088 104.293,248.321 102.820 C 246.188 101.683,243.925 100.165,243.293 99.445 C 241.802 97.747,241.687 97.684,238.390 96.770 C 234.751 95.762,230.609 93.793,229.702 92.639 C 228.598 91.236,227.741 90.916,221.067 89.421 C 214.860 88.031,210.456 86.537,209.192 85.393 C 208.307 84.592,203.524 83.697,196.574 83.033 C 188.055 82.219,189.146 82.957,173.478 67.382 C 167.935 61.872,162.487 56.808,161.370 56.129 L 159.340 54.894 157.531 56.206 M165.597 107.981 C 167.114 108.274,167.798 108.762,169.997 111.118 C 171.429 112.653,173.281 114.307,174.112 114.795 C 176.596 116.249,177.231 118.007,176.929 122.592 C 176.630 127.154,176.394 127.548,172.335 130.271 C 170.780 131.314,169.247 132.568,168.926 133.056 C 167.345 135.469,163.458 136.258,152.131 136.462 C 143.516 136.617,142.942 136.461,141.526 133.574 C 139.766 129.984,142.666 120.800,145.560 120.800 C 145.904 120.800,147.600 117.532,147.600 116.870 C 147.600 115.955,150.046 113.691,151.730 113.048 C 152.896 112.603,153.799 111.888,154.439 110.903 C 156.480 107.765,159.871 106.877,165.597 107.981 M281.709 153.600 L 281.466 155.000 281.132 153.800 C 280.948 153.140,280.923 151.790,281.076 150.800 L 281.354 149.000 281.653 150.600 C 281.818 151.480,281.843 152.830,281.709 153.600 M288.781 165.350 C 288.980 165.873,289.339 169.878,289.579 174.250 C 290.112 183.970,290.625 188.714,291.454 191.600 C 292.519 195.304,291.452 202.850,289.138 207.985 C 288.206 210.054,287.856 211.675,287.390 216.099 C 286.640 223.202,285.949 224.582,282.591 225.682 L 281.004 226.202 280.532 230.491 C 279.850 236.689,278.921 238.516,276.190 239.028 C 274.526 239.340,274.180 239.748,273.836 241.800 C 273.242 245.342,272.603 245.991,269.000 246.711 C 267.483 247.015,267.395 247.113,267.294 248.616 C 266.854 255.220,265.889 257.247,262.811 258.036 C 260.631 258.594,259.600 259.964,259.600 262.301 C 259.600 265.351,257.864 267.200,255.000 267.200 C 254.436 267.200,253.903 267.425,253.815 267.700 C 253.727 267.975,253.373 269.190,253.029 270.400 C 251.979 274.089,249.914 275.531,246.594 274.897 L 245.579 274.703 245.844 271.051 C 246.138 267.026,247.122 264.400,248.338 264.400 C 249.803 264.400,252.921 259.121,253.510 255.643 C 253.789 253.998,253.917 253.854,255.536 253.376 C 257.923 252.671,258.681 251.855,259.178 249.460 C 259.822 246.347,260.845 244.410,261.846 244.405 C 262.802 244.399,264.800 242.974,264.800 242.297 C 264.800 242.053,265.196 241.034,265.681 240.033 C 266.166 239.032,266.843 237.136,267.187 235.821 C 267.746 233.685,267.940 233.404,269.006 233.185 C 271.895 232.590,272.109 232.250,273.618 225.872 C 274.424 222.464,274.690 221.871,275.626 221.387 C 277.495 220.420,278.697 218.611,278.995 216.317 C 279.145 215.152,279.516 212.670,279.818 210.800 C 280.120 208.930,280.577 205.902,280.834 204.071 C 281.259 201.040,281.395 200.706,282.350 200.343 C 285.477 199.154,285.628 198.309,285.807 180.900 C 285.957 166.452,285.968 166.286,286.849 165.348 C 287.968 164.157,288.328 164.157,288.781 165.350 M288.372 253.713 C 288.407 255.098,287.687 255.401,285.996 254.711 L 284.687 254.177 286.196 252.588 C 287.846 250.853,288.306 251.090,288.372 253.713 M316.254 254.829 C 315.279 255.596,314.783 257.200,315.522 257.200 C 315.911 257.200,318.400 254.676,318.400 254.281 C 318.400 253.730,317.291 254.013,316.254 254.829 M185.800 299.632 C 151.434 300.057,142.253 300.661,137.800 302.788 C 136.480 303.418,133.330 304.412,130.800 304.996 C 121.140 307.226,118.696 308.131,117.800 309.811 C 116.866 311.564,115.194 312.911,113.132 313.571 C 111.176 314.197,110.957 314.527,110.187 318.013 C 109.824 319.656,109.180 322.530,108.755 324.400 C 108.329 326.270,107.714 329.819,107.388 332.287 C 107.062 334.754,106.523 338.066,106.190 339.645 C 105.690 342.026,105.666 343.087,106.053 345.852 L 106.519 349.187 108.760 350.036 C 111.541 351.090,96.863 350.972,214.256 350.880 C 310.971 350.804,315.551 350.768,316.398 350.082 C 317.577 349.127,317.679 332.624,316.548 325.681 L 315.877 321.563 313.738 319.390 C 312.562 318.195,311.600 316.970,311.600 316.669 C 311.600 315.697,309.252 312.843,307.588 311.792 C 306.698 311.231,305.636 310.220,305.226 309.546 C 304.043 307.601,302.437 306.913,296.932 305.991 C 289.850 304.805,287.495 304.163,284.437 302.583 C 280.708 300.656,272.811 300.083,246.167 299.806 C 234.965 299.689,222.290 299.534,218.000 299.462 C 213.710 299.389,199.220 299.466,185.800 299.632 " stroke="none" fill="#f9f9f9" fill-rule="evenodd"></path><path id="path4" d="M156.309 53.571 C 151.315 56.859,150.704 58.117,149.210 68.200 C 148.189 75.095,147.508 77.195,145.572 79.433 C 144.690 80.451,143.453 82.301,142.822 83.542 C 141.665 85.820,140.480 87.130,138.101 88.762 C 137.386 89.252,136.254 90.450,135.584 91.423 C 134.914 92.397,133.290 93.924,131.975 94.817 C 130.661 95.710,129.162 97.106,128.646 97.920 C 128.130 98.734,126.632 100.332,125.317 101.472 C 123.262 103.254,122.777 103.954,121.852 106.472 C 121.261 108.082,119.965 110.656,118.973 112.190 C 117.178 114.966,116.764 116.106,114.428 124.704 C 113.755 127.182,112.505 130.602,111.649 132.304 C 110.794 134.007,109.513 137.290,108.802 139.600 C 107.270 144.579,106.733 145.707,104.938 147.710 C 104.193 148.540,102.887 150.728,102.036 152.572 C 101.184 154.415,99.773 156.706,98.901 157.662 C 98.028 158.618,96.437 160.930,95.366 162.800 C 94.295 164.670,92.451 167.253,91.269 168.540 C 90.086 169.828,88.749 171.718,88.297 172.740 C 87.844 173.763,86.468 175.680,85.237 177.000 C 84.007 178.320,82.460 180.454,81.800 181.743 C 81.140 183.032,79.752 185.060,78.715 186.249 C 76.271 189.054,74.708 191.358,73.714 193.623 C 73.273 194.626,72.078 196.387,71.057 197.536 C 70.035 198.686,69.200 199.756,69.199 199.913 C 69.199 200.071,68.939 201.674,68.622 203.476 C 67.785 208.234,69.018 212.990,71.714 215.400 C 72.698 216.280,74.404 218.091,75.504 219.425 C 77.318 221.624,77.854 221.992,81.252 223.366 C 83.314 224.200,86.800 225.761,89.000 226.836 C 94.781 229.660,102.816 231.658,108.200 231.610 C 112.810 231.569,113.894 231.005,116.279 227.404 C 116.983 226.342,118.269 224.736,119.138 223.836 C 120.007 222.936,121.198 221.238,121.785 220.062 C 122.721 218.186,124.340 216.170,128.799 211.325 C 132.370 207.446,142.307 204.347,149.000 205.026 C 154.655 205.600,162.501 203.121,166.837 199.391 C 168.026 198.368,170.170 196.932,171.600 196.201 C 173.252 195.357,174.766 194.189,175.752 192.998 C 176.605 191.967,178.278 190.500,179.469 189.738 C 180.661 188.976,182.278 187.458,183.064 186.363 C 183.851 185.269,185.273 183.838,186.226 183.182 C 187.379 182.389,188.388 181.185,189.242 179.581 C 190.881 176.506,192.779 174.800,194.559 174.800 C 195.292 174.800,196.847 174.619,198.016 174.397 C 201.882 173.664,203.768 177.128,206.292 189.600 C 207.295 194.553,204.762 206.116,201.659 210.750 C 196.158 218.967,189.693 226.223,183.925 230.654 C 182.536 231.721,180.169 233.722,178.664 235.102 C 177.159 236.481,175.161 238.058,174.224 238.607 C 173.287 239.156,171.769 240.497,170.851 241.586 C 169.932 242.676,168.228 244.137,167.064 244.833 C 165.900 245.529,164.534 246.702,164.029 247.440 C 162.779 249.265,161.286 250.724,159.531 251.838 C 158.723 252.351,157.406 253.759,156.604 254.967 C 155.803 256.175,154.276 257.789,153.212 258.553 C 151.918 259.483,150.864 260.714,150.029 262.272 C 149.343 263.552,147.698 265.834,146.374 267.342 C 145.050 268.850,143.256 271.497,142.388 273.223 C 141.520 274.949,140.001 277.273,139.011 278.387 C 137.092 280.549,137.068 280.610,136.428 285.200 L 136.009 288.200 137.270 289.352 C 138.874 290.819,142.199 290.660,152.800 288.607 C 165.406 286.166,175.227 285.605,205.400 285.605 C 216.893 285.605,229.605 285.392,233.810 285.130 C 245.953 284.373,267.329 285.888,276.771 288.174 C 288.536 291.023,290.246 290.636,292.585 284.600 C 294.987 278.400,295.568 276.475,298.207 266.000 C 299.619 260.390,301.228 254.306,301.780 252.481 C 305.954 238.692,307.719 216.295,306.011 198.800 C 304.226 180.518,303.120 175.581,296.542 156.554 C 296.001 154.989,294.947 152.760,294.200 151.600 C 293.453 150.441,292.367 148.301,291.787 146.846 C 290.473 143.548,288.611 140.206,287.125 138.479 C 286.500 137.753,285.286 135.773,284.428 134.079 C 283.465 132.178,282.078 130.235,280.802 129.000 C 279.665 127.900,278.381 126.315,277.948 125.478 C 277.516 124.641,275.955 122.751,274.481 121.278 C 273.006 119.805,271.321 118.060,270.735 117.400 C 268.831 115.255,262.242 109.359,260.579 108.311 C 259.687 107.749,258.184 106.478,257.239 105.487 C 256.295 104.496,254.594 103.188,253.461 102.581 C 252.327 101.974,249.692 100.296,247.604 98.852 C 245.516 97.408,242.210 95.538,240.258 94.696 C 238.306 93.855,235.784 92.579,234.654 91.862 C 232.145 90.269,228.735 88.878,223.200 87.191 C 220.890 86.486,218.116 85.462,217.036 84.915 C 213.441 83.096,204.685 81.357,195.134 80.565 C 192.431 80.340,192.262 80.261,187.600 77.017 C 186.830 76.481,185.527 75.586,184.704 75.028 C 183.882 74.470,182.592 73.156,181.838 72.107 C 181.084 71.058,179.650 69.624,178.651 68.920 C 177.652 68.217,176.288 66.867,175.620 65.920 C 174.951 64.974,173.377 63.381,172.121 62.381 C 170.865 61.381,169.019 59.522,168.019 58.251 C 166.729 56.611,165.186 55.317,162.709 53.798 L 159.217 51.656 156.309 53.571 M173.478 67.382 C 189.146 82.957,188.055 82.219,196.574 83.033 C 203.524 83.697,208.307 84.592,209.192 85.393 C 210.456 86.537,214.860 88.031,221.067 89.421 C 227.741 90.916,228.598 91.236,229.702 92.639 C 230.609 93.793,234.751 95.762,238.390 96.770 C 241.687 97.684,241.802 97.747,243.293 99.445 C 243.925 100.165,246.188 101.683,248.321 102.820 C 251.088 104.293,252.888 105.596,254.600 107.364 C 256.214 109.031,257.720 110.145,259.200 110.768 C 261.118 111.575,261.528 111.956,262.400 113.734 C 263.378 115.728,264.186 116.361,267.589 117.800 C 268.249 118.079,268.744 118.849,269.226 120.344 C 270.065 122.950,270.499 123.411,273.008 124.364 C 274.939 125.097,274.977 125.144,275.504 127.516 C 276.071 130.070,276.714 130.932,279.652 133.074 C 281.586 134.484,282.953 137.334,283.571 141.241 C 283.950 143.638,285.011 144.800,286.821 144.800 C 287.443 144.800,288.069 144.988,288.211 145.217 C 288.637 145.907,290.025 151.618,290.443 154.400 C 290.937 157.690,291.822 158.900,294.725 160.259 C 295.103 160.435,296.085 165.215,296.603 169.400 C 296.930 172.040,297.399 175.813,297.645 177.785 C 298.275 182.819,298.985 184.948,300.446 186.178 C 303.933 189.112,304.109 235.982,300.642 238.508 C 298.450 240.104,297.919 242.088,297.028 252.000 C 296.303 260.067,295.252 266.745,294.630 267.243 C 294.394 267.433,293.647 268.030,292.970 268.570 C 291.368 269.850,290.802 271.846,290.542 277.126 C 290.341 281.199,288.913 286.400,287.996 286.400 C 287.840 286.400,286.303 285.749,284.580 284.953 L 281.447 283.505 273.624 283.169 C 252.507 282.261,239.357 281.991,237.200 282.421 C 235.800 282.700,222.778 282.983,201.400 283.198 C 162.640 283.589,153.210 284.032,147.578 285.726 C 145.464 286.363,141.463 286.047,140.632 285.178 C 139.953 284.469,139.366 281.200,139.917 281.200 C 140.832 281.200,142.756 278.587,143.399 276.471 C 144.245 273.687,145.693 271.351,146.789 271.004 C 147.689 270.718,150.097 267.372,151.740 264.122 C 152.318 262.979,153.258 261.719,153.829 261.322 C 156.335 259.578,157.718 258.140,158.640 256.321 C 159.244 255.129,160.051 254.189,160.714 253.904 C 162.793 253.013,164.091 251.873,165.457 249.738 C 166.418 248.236,167.338 247.349,168.516 246.793 C 169.442 246.354,171.533 244.721,173.162 243.164 C 174.791 241.606,177.521 239.353,179.228 238.156 C 180.935 236.960,182.684 235.385,183.114 234.656 C 183.544 233.927,184.745 232.806,185.782 232.165 C 188.626 230.408,190.380 228.819,190.646 227.760 C 190.911 226.703,193.325 224.400,194.167 224.400 C 194.768 224.400,197.600 221.427,197.600 220.795 C 197.600 220.055,200.038 217.017,201.247 216.252 C 202.735 215.309,204.432 211.996,205.575 207.800 C 206.159 205.655,206.820 204.204,207.579 203.400 C 211.372 199.378,211.414 186.307,207.648 181.600 C 206.710 180.428,206.476 179.647,206.206 176.800 C 205.719 171.663,205.671 171.829,208.402 169.198 L 210.888 166.803 210.737 163.815 C 210.564 160.403,210.246 159.915,208.151 159.848 L 206.645 159.800 205.322 163.977 C 203.837 168.662,203.899 168.591,200.782 169.141 C 194.736 170.205,189.155 174.065,187.680 178.200 C 187.092 179.849,186.688 180.330,185.383 180.940 C 183.209 181.956,182.023 183.107,181.150 185.047 C 180.272 186.999,179.982 187.247,177.511 188.160 C 175.625 188.857,174.375 190.042,173.151 192.293 C 172.762 193.008,172.040 193.602,171.351 193.772 C 169.323 194.272,163.668 197.581,162.830 198.757 C 160.668 201.794,156.249 202.576,144.600 201.984 C 140.420 201.772,135.865 201.545,134.477 201.479 L 131.954 201.359 130.549 204.280 C 129.749 205.942,128.891 207.200,128.557 207.200 C 127.007 207.200,120.937 215.207,119.760 218.806 C 119.250 220.366,118.737 221.055,117.452 221.906 C 116.354 222.633,115.459 223.700,114.782 225.087 C 112.934 228.874,112.414 229.201,108.230 229.196 C 103.105 229.189,97.092 227.790,94.987 226.114 C 93.084 224.599,90.173 223.413,86.447 222.637 C 82.666 221.848,79.942 220.373,78.125 218.129 C 77.286 217.093,76.023 215.606,75.318 214.823 C 69.426 208.282,68.895 203.460,73.579 199.010 C 74.436 198.196,75.100 196.933,75.682 195.010 C 76.522 192.233,77.588 190.801,80.039 189.154 C 80.567 188.799,81.868 186.819,82.929 184.754 C 84.279 182.126,85.496 180.400,86.986 179.000 C 88.655 177.431,89.269 176.502,89.833 174.690 C 90.602 172.220,91.008 171.688,93.200 170.276 C 94.206 169.628,95.107 168.382,96.400 165.853 C 97.390 163.917,98.527 162.153,98.926 161.932 C 100.213 161.221,103.057 156.944,103.573 154.943 C 104.297 152.134,104.830 151.205,106.088 150.555 C 107.894 149.620,109.118 147.272,110.395 142.287 C 111.469 138.091,111.757 137.443,113.181 136.019 C 114.893 134.307,115.647 132.305,116.398 127.479 C 117.381 121.164,118.270 118.430,119.924 116.636 C 121.605 114.813,122.898 111.826,123.873 107.516 C 124.533 104.596,124.658 104.432,127.248 103.063 C 128.560 102.370,129.254 101.629,130.011 100.117 C 131.358 97.425,131.839 96.899,133.237 96.592 C 134.939 96.218,136.778 94.517,137.631 92.529 C 138.211 91.174,138.713 90.668,139.979 90.162 C 141.894 89.395,143.820 87.332,144.189 85.650 C 144.335 84.985,144.937 83.986,145.527 83.429 C 150.128 79.088,149.944 79.507,150.987 71.000 C 151.729 64.950,152.335 62.000,152.836 62.000 C 153.033 62.000,153.762 60.992,154.458 59.760 C 155.210 58.427,156.455 56.987,157.531 56.206 L 159.340 54.894 161.370 56.129 C 162.487 56.808,167.935 61.872,173.478 67.382 M156.759 108.513 C 156.012 109.015,154.968 110.090,154.439 110.903 C 153.799 111.888,152.896 112.603,151.730 113.048 C 150.046 113.691,147.600 115.955,147.600 116.870 C 147.600 117.532,145.904 120.800,145.560 120.800 C 142.666 120.800,139.766 129.984,141.526 133.574 C 142.942 136.461,143.516 136.617,152.131 136.462 C 163.458 136.258,167.345 135.469,168.926 133.056 C 169.247 132.568,170.780 131.314,172.335 130.271 C 176.394 127.548,176.630 127.154,176.929 122.592 C 177.231 118.007,176.596 116.249,174.112 114.795 C 173.281 114.307,171.429 112.653,169.997 111.118 C 167.079 107.990,166.199 107.650,160.959 107.617 C 158.646 107.603,157.866 107.770,156.759 108.513 M163.470 110.958 C 166.241 111.553,168.546 113.065,171.908 116.493 L 174.017 118.642 173.748 122.134 L 173.480 125.625 171.114 127.816 C 166.786 131.822,163.786 132.724,153.226 133.189 C 143.934 133.599,144.276 133.757,144.485 129.151 C 144.603 126.548,144.833 125.436,145.421 124.621 C 145.849 124.027,147.204 121.979,148.431 120.071 C 150.207 117.309,151.161 116.268,153.103 114.976 C 154.444 114.082,156.320 112.695,157.271 111.894 C 159.186 110.279,159.843 110.180,163.470 110.958 M281.076 150.800 C 280.923 151.790,280.948 153.140,281.132 153.800 L 281.466 155.000 281.709 153.600 C 281.843 152.830,281.818 151.480,281.653 150.600 L 281.354 149.000 281.076 150.800 M286.849 165.348 C 285.968 166.286,285.957 166.452,285.807 180.900 C 285.628 198.309,285.477 199.154,282.350 200.343 C 281.395 200.706,281.259 201.040,280.834 204.071 C 280.577 205.902,280.120 208.930,279.818 210.800 C 279.516 212.670,279.145 215.152,278.995 216.317 C 278.697 218.611,277.495 220.420,275.626 221.387 C 274.690 221.871,274.424 222.464,273.618 225.872 C 272.109 232.250,271.895 232.590,269.006 233.185 C 267.940 233.404,267.746 233.685,267.187 235.821 C 266.843 237.136,266.166 239.032,265.681 240.033 C 265.196 241.034,264.800 242.053,264.800 242.297 C 264.800 242.974,262.802 244.399,261.846 244.405 C 260.845 244.410,259.822 246.347,259.178 249.460 C 258.681 251.855,257.923 252.671,255.536 253.376 C 253.917 253.854,253.789 253.998,253.510 255.643 C 252.921 259.121,249.803 264.400,248.338 264.400 C 247.122 264.400,246.138 267.026,245.844 271.051 L 245.579 274.703 246.594 274.897 C 249.914 275.531,251.979 274.089,253.029 270.400 C 253.373 269.190,253.727 267.975,253.815 267.700 C 253.903 267.425,254.436 267.200,255.000 267.200 C 257.864 267.200,259.600 265.351,259.600 262.301 C 259.600 259.964,260.631 258.594,262.811 258.036 C 265.889 257.247,266.854 255.220,267.294 248.616 C 267.395 247.113,267.483 247.015,269.000 246.711 C 272.603 245.991,273.242 245.342,273.836 241.800 C 274.180 239.748,274.526 239.340,276.190 239.028 C 278.921 238.516,279.850 236.689,280.532 230.491 L 281.004 226.202 282.591 225.682 C 285.949 224.582,286.640 223.202,287.390 216.099 C 287.856 211.675,288.206 210.054,289.138 207.985 C 291.452 202.850,292.519 195.304,291.454 191.600 C 290.625 188.714,290.112 183.970,289.579 174.250 C 289.033 164.299,288.738 163.337,286.849 165.348 M286.196 252.588 L 284.687 254.177 285.996 254.711 C 287.687 255.401,288.407 255.098,288.372 253.713 C 288.306 251.090,287.846 250.853,286.196 252.588 M196.800 296.809 C 158.793 297.659,134.321 299.302,130.723 301.246 C 130.215 301.520,127.010 302.785,123.600 304.058 C 117.871 306.195,117.263 306.520,115.600 308.332 C 114.610 309.411,112.972 310.847,111.961 311.524 C 109.741 313.010,109.095 313.942,107.989 317.258 C 107.522 318.656,106.804 320.379,106.392 321.086 C 103.039 326.846,101.525 347.548,104.223 350.754 C 106.421 353.367,99.429 353.210,213.057 353.202 L 315.713 353.196 317.036 352.378 C 320.020 350.534,320.155 349.901,319.874 339.053 C 319.491 324.242,318.475 320.178,313.733 314.494 C 308.259 307.931,304.993 305.396,300.200 303.994 C 298.880 303.607,296.810 302.893,295.600 302.407 C 286.557 298.773,270.083 297.555,217.800 296.656 C 213.400 296.580,203.950 296.649,196.800 296.809 M246.167 299.806 C 272.811 300.083,280.708 300.656,284.437 302.583 C 287.495 304.163,289.850 304.805,296.932 305.991 C 302.437 306.913,304.043 307.601,305.226 309.546 C 305.636 310.220,306.698 311.231,307.588 311.792 C 309.252 312.843,311.600 315.697,311.600 316.669 C 311.600 316.970,312.562 318.195,313.738 319.390 L 315.877 321.563 316.548 325.681 C 317.679 332.624,317.577 349.127,316.398 350.082 C 315.551 350.768,310.971 350.804,214.256 350.880 C 96.863 350.972,111.541 351.090,108.760 350.036 L 106.519 349.187 106.053 345.852 C 105.666 343.087,105.690 342.026,106.190 339.645 C 106.523 338.066,107.062 334.754,107.388 332.287 C 107.714 329.819,108.329 326.270,108.755 324.400 C 109.180 322.530,109.824 319.656,110.187 318.013 C 110.957 314.527,111.176 314.197,113.132 313.571 C 115.194 312.911,116.866 311.564,117.800 309.811 C 118.696 308.131,121.140 307.226,130.800 304.996 C 133.330 304.412,136.480 303.418,137.800 302.788 C 142.759 300.419,180.942 298.836,218.000 299.462 C 222.290 299.534,234.965 299.689,246.167 299.806 " stroke="none" fill="#acacac" fill-rule="evenodd"></path></g></svg>