<svg id="svg" version="1.1" xmlns="http://www.w3.org/2000/svg" xmlns:xlink="http://www.w3.org/1999/xlink" width="400" height="400" viewBox="0, 0, 400,400"><g id="svgg"><path id="path0" d="M169.294 57.884 C 166.960 58.106,166.283 59.183,166.464 62.386 C 166.539 63.714,166.446 64.801,166.257 64.801 C 166.069 64.800,165.965 66.015,166.026 67.500 C 166.221 72.223,166.195 72.310,164.406 72.845 C 161.026 73.858,159.564 77.689,159.668 85.260 C 159.707 88.084,159.617 90.516,159.469 90.664 C 159.321 90.812,159.192 90.318,159.182 89.567 C 159.032 78.054,159.213 78.568,155.169 78.169 L 152.400 77.897 152.341 74.448 C 152.308 72.552,152.321 69.920,152.369 68.600 C 152.520 64.412,153.161 64.617,139.532 64.494 C 119.516 64.313,119.239 64.367,118.905 68.524 L 118.690 71.200 113.959 71.200 C 98.954 71.200,98.998 71.187,98.530 75.667 L 98.286 78.000 95.743 78.000 C 91.359 78.000,91.651 76.570,91.761 97.467 C 91.860 116.475,91.977 117.704,93.733 118.224 C 94.210 118.365,95.149 119.063,95.821 119.776 C 96.492 120.489,97.343 121.240,97.712 121.447 C 98.319 121.786,98.385 123.236,98.415 136.932 C 98.441 149.183,98.549 152.082,98.984 152.249 C 99.280 152.363,99.635 153.060,99.773 153.799 C 100.118 155.637,101.931 157.476,103.732 157.814 L 105.200 158.089 105.200 161.168 C 105.200 165.317,105.536 165.725,109.114 165.927 L 111.915 166.085 112.070 168.835 C 112.271 172.399,112.494 172.583,116.720 172.679 C 118.634 172.722,121.460 172.791,123.000 172.833 L 125.800 172.909 123.228 173.201 C 119.266 173.649,118.581 175.284,118.816 183.732 C 118.873 185.749,118.892 196.445,118.859 207.500 L 118.800 227.600 117.387 227.600 C 114.969 227.600,113.354 228.529,112.760 230.261 C 112.157 232.021,112.103 234.719,112.042 266.039 L 112.000 287.878 107.300 288.183 C 104.715 288.351,101.845 288.462,100.922 288.430 C 98.754 288.354,98.220 289.237,98.508 292.417 L 98.715 294.702 95.634 294.881 C 91.582 295.115,91.600 295.098,91.600 298.624 L 91.600 301.600 89.000 301.600 C 87.570 301.600,86.400 301.760,86.400 301.956 C 86.400 302.151,86.085 302.286,85.700 302.256 C 85.098 302.208,84.984 302.633,84.883 305.300 L 84.766 308.400 83.083 308.406 C 81.962 308.410,81.585 308.529,81.954 308.763 C 82.294 308.979,81.797 309.034,80.663 308.906 C 77.873 308.591,77.983 307.252,78.098 339.931 L 78.200 369.000 79.200 369.175 C 80.507 369.403,319.493 369.403,320.800 369.175 L 321.800 369.000 321.902 339.931 C 322.017 307.252,322.127 308.591,319.337 308.906 C 318.203 309.034,317.706 308.979,318.046 308.763 C 318.415 308.529,318.038 308.410,316.917 308.406 L 315.234 308.400 315.117 305.300 C 315.016 302.633,314.902 302.208,314.300 302.256 C 313.915 302.286,313.600 302.151,313.600 301.956 C 313.600 301.760,312.430 301.600,311.000 301.600 L 308.400 301.600 308.400 298.624 C 308.400 295.098,308.418 295.115,304.366 294.881 L 301.285 294.702 301.492 292.417 C 301.780 289.237,301.246 288.354,299.078 288.430 C 298.155 288.462,295.285 288.351,292.700 288.183 L 288.000 287.878 287.958 266.039 C 287.897 234.719,287.843 232.021,287.240 230.261 C 286.646 228.529,285.031 227.600,282.613 227.600 L 281.200 227.600 281.137 207.500 C 281.103 196.445,281.122 185.927,281.180 184.126 C 281.459 175.538,280.736 173.741,276.800 173.235 L 274.200 172.901 277.000 172.829 C 278.540 172.790,281.366 172.722,283.280 172.679 C 287.506 172.583,287.729 172.399,287.930 168.835 L 288.085 166.085 290.886 165.927 C 294.464 165.725,294.800 165.317,294.800 161.168 L 294.800 158.089 296.268 157.814 C 298.069 157.476,299.882 155.637,300.227 153.799 C 300.365 153.060,300.720 152.363,301.016 152.249 C 301.451 152.082,301.559 149.183,301.585 136.932 C 301.614 123.852,301.700 121.776,302.226 121.481 C 302.561 121.294,303.381 120.540,304.049 119.806 C 304.718 119.071,305.682 118.366,306.192 118.238 C 308.029 117.777,308.139 116.660,308.239 97.467 C 308.349 76.570,308.641 78.000,304.257 78.000 L 301.714 78.000 301.470 75.667 C 301.001 71.174,301.231 71.240,285.955 71.209 L 281.310 71.200 281.095 68.524 C 280.761 64.367,280.484 64.313,260.468 64.494 C 246.839 64.617,247.480 64.412,247.631 68.600 C 247.679 69.920,247.692 72.552,247.659 74.448 L 247.600 77.897 244.831 78.169 C 240.787 78.568,240.968 78.054,240.818 89.567 C 240.808 90.318,240.679 90.812,240.531 90.664 C 240.383 90.516,240.293 88.084,240.332 85.260 C 240.436 77.689,238.974 73.858,235.594 72.845 C 233.805 72.310,233.779 72.223,233.974 67.500 C 234.035 66.015,233.931 64.800,233.743 64.801 C 233.554 64.801,233.459 63.668,233.531 62.283 C 233.636 60.238,233.512 59.579,232.866 58.782 L 232.071 57.800 201.536 57.761 C 184.741 57.739,170.232 57.795,169.294 57.884 M207.422 72.007 C 220.467 72.692,222.955 73.855,224.186 79.845 C 224.923 83.429,226.400 101.939,226.400 107.588 C 226.400 112.673,226.262 112.478,230.948 114.003 C 233.436 114.813,234.027 114.860,237.204 114.505 C 239.136 114.290,241.587 114.257,242.657 114.433 C 246.708 115.099,247.737 114.929,249.333 113.333 L 250.800 111.867 250.800 107.912 C 250.800 102.808,251.681 98.852,253.164 97.301 C 254.130 96.289,254.427 95.341,255.391 90.167 C 257.348 79.675,257.633 79.392,266.200 79.416 C 275.238 79.441,283.036 81.242,285.006 83.760 C 285.540 84.442,287.104 85.540,288.483 86.200 C 292.971 88.348,293.635 90.777,292.838 102.145 C 292.589 105.695,292.108 114.270,291.769 121.200 C 291.105 134.780,290.630 137.898,288.961 139.641 C 288.331 140.298,287.522 142.130,286.803 144.523 C 285.370 149.296,283.346 152.400,281.666 152.400 C 281.497 152.400,280.974 153.193,280.504 154.161 C 279.582 156.059,277.689 157.732,275.665 158.437 C 274.914 158.699,273.952 159.552,273.295 160.539 C 271.265 163.591,265.236 164.906,257.800 163.918 C 250.209 162.910,227.794 164.046,226.327 165.513 C 225.610 166.230,235.978 167.330,249.800 168.004 C 263.019 168.649,265.092 170.907,265.776 185.400 C 266.172 193.803,267.624 206.462,268.390 208.200 C 269.169 209.966,269.537 211.063,269.823 212.468 C 270.216 214.395,271.543 227.577,271.790 232.000 C 272.759 249.356,274.343 263.619,275.723 267.415 C 277.362 271.926,278.158 277.135,278.102 282.997 L 278.053 288.195 276.466 289.675 C 273.664 292.289,272.079 292.529,257.200 292.603 C 248.469 292.646,243.609 292.826,242.400 293.151 C 241.410 293.418,239.888 293.825,239.017 294.056 C 236.154 294.815,238.299 295.142,249.026 295.584 C 279.535 296.839,289.600 298.249,289.600 301.266 C 289.600 301.623,292.660 303.082,296.310 304.465 C 298.111 305.148,298.558 305.538,299.366 307.132 C 300.445 309.260,301.254 310.052,303.087 310.777 C 304.873 311.484,305.037 311.750,306.812 316.835 C 307.707 319.398,308.811 321.785,309.372 322.371 C 311.752 324.856,312.531 330.368,312.325 343.272 C 312.167 353.226,311.794 353.907,305.600 355.577 C 300.874 356.851,99.126 356.851,94.400 355.577 C 88.206 353.907,87.833 353.226,87.675 343.272 C 87.469 330.368,88.248 324.856,90.628 322.371 C 91.189 321.785,92.293 319.398,93.188 316.835 C 94.963 311.750,95.127 311.484,96.913 310.777 C 98.746 310.052,99.555 309.260,100.634 307.132 C 101.442 305.538,101.889 305.148,103.690 304.465 C 107.340 303.082,110.400 301.623,110.400 301.266 C 110.400 299.948,112.747 298.664,115.963 298.223 C 116.753 298.114,119.470 297.744,122.000 297.400 C 124.530 297.056,130.740 296.604,135.800 296.394 C 150.746 295.775,161.359 295.125,161.980 294.791 C 164.150 293.622,158.284 293.013,144.353 292.960 C 122.086 292.874,121.562 292.639,121.553 282.719 C 121.545 274.296,122.717 266.430,124.544 262.658 C 125.662 260.349,127.360 244.939,127.813 233.000 C 128.354 218.716,129.838 207.870,131.615 205.200 C 132.315 204.147,133.162 196.960,134.017 184.800 C 135.084 169.635,136.234 168.465,150.913 167.614 C 162.930 166.918,168.809 166.236,168.158 165.614 C 166.408 163.944,158.140 163.302,147.800 164.034 C 133.296 165.060,127.835 164.197,126.124 160.611 C 125.689 159.697,125.031 159.074,124.219 158.806 C 122.429 158.215,120.100 156.165,119.187 154.375 C 118.753 153.523,117.993 152.619,117.499 152.364 C 115.286 151.226,114.379 149.854,113.129 145.749 C 112.154 142.550,111.690 141.587,110.963 141.256 C 108.714 140.231,108.297 137.354,107.600 118.000 C 107.358 111.290,106.989 103.910,106.780 101.600 C 105.764 90.353,106.741 86.889,111.316 85.518 C 112.407 85.191,113.162 84.632,113.667 83.777 C 114.926 81.642,117.213 80.977,127.518 79.746 C 135.052 78.847,139.801 79.276,141.624 81.023 C 143.012 82.353,143.277 83.196,144.618 90.542 C 145.472 95.218,145.812 96.312,146.798 97.542 C 148.334 99.458,149.187 103.193,149.194 108.033 L 149.200 111.867 150.667 113.333 C 152.263 114.929,153.292 115.099,157.343 114.433 C 158.413 114.257,160.864 114.290,162.796 114.505 C 165.973 114.860,166.564 114.813,169.052 114.003 C 173.732 112.480,173.600 112.665,173.600 107.645 C 173.600 102.773,174.973 84.008,175.625 79.964 C 176.710 73.241,178.719 72.509,198.400 71.668 C 199.170 71.635,203.230 71.788,207.422 72.007 M101.400 72.883 C 100.960 73.135,100.365 73.625,100.078 73.971 C 99.633 74.507,99.617 74.473,99.973 73.735 C 100.377 72.899,100.964 72.484,101.800 72.444 C 102.020 72.433,101.840 72.631,101.400 72.883 M299.179 72.789 C 299.579 73.003,300.017 73.498,300.154 73.889 C 300.374 74.520,300.345 74.529,299.901 73.971 C 299.625 73.625,299.040 73.135,298.600 72.883 C 297.629 72.326,298.155 72.241,299.179 72.789 M165.634 77.359 C 165.400 77.641,164.479 78.089,163.586 78.357 C 162.484 78.687,161.711 79.255,161.182 80.122 C 160.258 81.638,160.139 81.264,161.010 79.580 C 161.346 78.931,161.786 78.400,161.988 78.400 C 162.190 78.400,163.131 77.571,164.078 76.557 C 165.793 74.723,165.801 74.719,165.929 75.782 C 166.000 76.368,165.867 77.078,165.634 77.359 M238.024 78.400 C 238.220 78.400,238.654 78.931,238.990 79.580 C 239.855 81.254,239.745 81.642,238.829 80.141 C 238.341 79.341,237.504 78.703,236.531 78.389 C 234.411 77.706,233.999 77.293,234.005 75.851 L 234.009 74.600 235.839 76.500 C 236.846 77.545,237.829 78.400,238.024 78.400 M104.469 153.062 C 105.168 153.695,105.506 155.600,104.919 155.600 C 104.524 155.600,102.000 153.111,102.000 152.722 C 102.000 152.146,103.718 152.383,104.469 153.062 M298.000 152.681 C 298.000 153.076,295.511 155.600,295.122 155.600 C 294.546 155.600,294.783 153.882,295.462 153.131 C 296.095 152.432,298.000 152.094,298.000 152.681 M190.000 158.847 C 184.830 158.982,179.975 159.117,179.211 159.147 L 177.822 159.200 178.664 160.041 C 180.168 161.546,183.466 161.989,193.000 161.968 C 213.131 161.923,220.400 161.282,220.400 159.553 C 220.400 158.882,203.566 158.491,190.000 158.847 M114.523 171.964 C 114.355 172.198,112.800 170.742,112.800 170.352 C 112.800 170.174,113.214 170.427,113.720 170.914 C 114.226 171.401,114.587 171.874,114.523 171.964 M286.602 171.198 C 286.203 171.639,285.730 172.000,285.552 172.000 C 285.374 172.000,285.627 171.586,286.114 171.080 C 287.190 169.963,287.625 170.068,286.602 171.198 M122.785 174.900 C 121.285 175.656,120.885 176.119,120.282 177.800 C 119.699 179.423,119.606 179.536,119.786 178.400 C 120.148 176.129,122.158 174.024,123.985 174.006 C 124.306 174.003,123.766 174.405,122.785 174.900 M278.669 175.265 C 279.705 176.239,280.548 178.457,280.276 179.497 C 280.140 180.019,280.081 179.963,280.046 179.280 C 279.944 177.258,278.361 175.270,276.200 174.448 L 275.000 173.992 276.381 174.202 C 277.140 174.318,278.170 174.796,278.669 175.265 M178.200 288.411 C 178.640 288.605,180.800 288.668,183.000 288.550 C 185.550 288.412,188.808 288.564,191.988 288.967 C 194.731 289.315,198.337 289.600,200.000 289.600 C 201.663 289.600,205.269 289.315,208.012 288.967 C 211.192 288.564,214.450 288.412,217.000 288.550 C 219.200 288.668,221.360 288.605,221.800 288.411 C 222.276 288.200,213.458 288.056,200.000 288.056 C 186.542 288.056,177.724 288.200,178.200 288.411 " stroke="none" fill="#454545" fill-rule="evenodd"></path><path id="path1" d="M188.600 73.583 C 179.325 74.334,176.891 77.370,176.238 89.000 C 176.089 91.640,175.706 96.680,175.386 100.200 C 175.065 103.720,174.803 107.867,174.802 109.415 C 174.799 114.010,170.043 117.085,164.254 116.234 C 161.838 115.879,158.619 115.866,155.119 116.198 L 152.038 116.490 149.886 114.338 C 147.882 112.334,147.716 112.020,147.480 109.793 C 147.341 108.477,146.774 106.106,146.220 104.524 C 145.665 102.943,144.669 98.701,144.006 95.098 C 141.745 82.814,141.137 81.834,135.327 81.105 C 130.485 80.499,122.297 81.714,118.800 83.559 C 117.590 84.197,115.124 85.462,113.321 86.369 C 107.594 89.250,107.443 90.090,108.894 111.000 C 110.135 128.875,110.440 131.990,111.180 134.312 C 111.581 135.571,112.478 138.580,113.174 141.000 C 114.874 146.911,116.064 149.372,117.760 150.484 C 118.518 150.981,119.429 151.880,119.784 152.481 C 121.075 154.667,122.536 156.044,125.234 157.620 C 126.748 158.504,128.176 159.581,128.407 160.012 C 130.309 163.567,147.811 163.656,160.000 160.173 C 164.278 158.950,165.207 158.805,172.467 158.222 C 194.762 156.431,229.430 157.391,237.600 160.025 C 239.654 160.687,241.880 160.938,248.200 161.217 C 252.600 161.411,257.100 161.768,258.200 162.009 C 263.133 163.090,268.306 162.072,271.228 159.444 C 272.233 158.540,273.994 157.302,275.141 156.693 C 276.510 155.966,277.669 154.937,278.513 153.700 C 279.221 152.663,280.759 150.791,281.931 149.539 C 286.195 144.985,288.365 134.123,290.431 107.000 C 291.760 89.543,292.050 90.469,283.800 85.825 C 276.350 81.632,272.061 80.481,265.677 80.959 C 258.774 81.477,258.223 82.287,255.848 95.400 C 255.290 98.480,254.371 102.416,253.806 104.146 C 253.241 105.876,252.663 108.393,252.522 109.739 C 252.283 112.032,252.131 112.321,250.114 114.338 L 247.962 116.490 244.881 116.198 C 241.381 115.866,238.162 115.879,235.746 116.234 C 229.958 117.084,225.203 114.011,225.195 109.415 C 225.193 107.867,224.835 102.640,224.400 97.800 C 223.965 92.960,223.607 88.112,223.605 87.027 C 223.584 78.338,219.504 74.234,210.220 73.565 C 205.104 73.196,193.255 73.206,188.600 73.583 M216.225 76.321 C 220.600 78.686,221.751 81.495,222.401 91.400 C 222.647 95.140,222.920 98.470,223.008 98.800 C 223.097 99.130,223.361 102.357,223.596 105.971 C 224.308 116.945,225.394 117.715,240.085 117.663 C 248.896 117.632,249.276 117.541,251.683 114.877 C 253.881 112.444,255.716 106.189,257.183 96.124 C 259.066 83.218,261.434 80.938,271.200 82.638 C 276.643 83.586,288.510 89.704,289.046 91.839 C 289.579 93.964,288.477 108.112,287.243 115.000 C 287.006 116.320,286.538 121.180,286.203 125.800 C 285.163 140.131,283.955 144.864,280.354 148.713 C 279.059 150.097,278.000 151.396,278.000 151.601 C 278.000 152.478,275.287 154.946,273.123 156.039 C 271.832 156.690,270.096 157.838,269.264 158.590 C 267.023 160.614,263.008 161.063,256.800 159.983 C 254.327 159.552,250.991 159.200,249.387 159.200 C 247.783 159.200,243.620 158.760,240.136 158.222 C 218.053 154.813,167.983 155.479,152.853 159.384 C 145.988 161.156,139.123 161.957,135.492 161.412 C 131.907 160.873,131.695 160.777,129.102 158.514 C 128.279 157.795,126.799 156.827,125.814 156.364 C 124.829 155.902,123.433 154.807,122.711 153.933 C 121.990 153.059,120.435 151.321,119.255 150.072 C 116.325 146.969,116.206 146.746,115.052 142.200 C 113.041 134.276,111.555 123.531,110.599 110.000 C 110.467 108.130,110.075 104.359,109.728 101.620 C 108.739 93.808,109.348 90.058,111.800 88.858 C 123.965 82.902,129.779 81.433,135.647 82.835 C 137.461 83.268,139.163 83.804,139.430 84.025 C 140.250 84.706,141.948 90.770,142.614 95.400 C 144.516 108.620,146.959 115.014,150.885 117.044 C 153.952 118.630,171.578 117.630,173.652 115.753 C 176.012 113.617,175.877 114.419,177.184 94.800 C 178.494 75.128,178.948 74.746,200.800 74.912 L 213.800 75.010 216.225 76.321 M188.400 166.841 C 176.091 167.161,171.289 167.428,153.800 168.764 C 137.034 170.046,136.637 170.519,134.984 191.200 C 134.001 203.493,132.450 216.141,131.387 220.534 C 130.377 224.704,129.917 228.469,129.207 238.400 C 128.816 243.856,127.568 256.029,126.192 267.808 C 125.806 271.117,125.192 274.106,124.509 276.008 C 123.206 279.636,123.043 286.490,124.217 288.282 C 125.775 290.659,130.947 291.810,136.400 290.993 C 146.671 289.453,153.565 288.387,155.600 288.024 C 165.994 286.167,223.902 285.932,240.600 287.678 C 243.020 287.931,247.340 288.154,250.200 288.173 C 255.162 288.206,257.752 288.565,262.200 289.837 C 265.852 290.882,267.714 291.067,269.447 290.556 C 270.801 290.157,274.240 288.617,274.726 288.192 C 275.693 287.346,275.831 281.177,274.949 278.229 C 273.467 273.278,273.198 271.165,270.597 244.000 C 269.261 230.039,268.798 226.468,267.979 223.800 C 267.294 221.567,264.228 193.266,263.643 183.774 C 263.004 173.408,259.362 169.623,250.000 169.592 C 247.910 169.585,244.418 169.406,242.240 169.194 C 240.062 168.983,234.302 168.534,229.440 168.197 C 224.578 167.860,217.394 167.318,213.476 166.992 C 209.558 166.667,205.058 166.428,203.476 166.463 C 201.894 166.497,195.110 166.667,188.400 166.841 M225.000 169.614 C 233.140 170.049,241.330 170.582,243.200 170.799 C 245.070 171.016,248.375 171.195,250.546 171.197 C 255.722 171.201,256.685 171.735,259.450 176.137 L 261.500 179.400 261.748 184.000 C 261.884 186.530,262.269 190.925,262.602 193.767 C 262.935 196.608,263.377 200.838,263.584 203.167 C 264.954 218.575,265.970 227.043,267.211 233.400 C 267.939 237.125,268.782 244.584,270.826 265.400 C 271.303 270.254,272.060 275.425,272.620 277.648 C 274.920 286.793,270.581 291.051,262.600 287.480 L 259.800 286.227 251.600 286.183 C 247.090 286.159,238.676 285.907,232.902 285.623 C 200.270 284.016,152.380 285.564,138.662 288.668 L 132.230 290.124 129.565 289.216 C 127.095 288.375,126.866 288.197,126.444 286.790 C 125.428 283.398,125.280 281.594,125.861 279.674 C 126.789 276.609,127.542 271.454,128.210 263.600 C 128.556 259.530,129.013 254.961,129.226 253.446 C 129.438 251.931,129.976 246.891,130.419 242.246 C 131.321 232.804,131.676 230.229,132.802 224.953 C 133.230 222.947,133.852 218.537,134.185 215.153 C 134.518 211.769,135.332 203.493,135.995 196.763 C 136.658 190.033,137.200 183.512,137.200 182.271 C 137.200 176.639,141.706 171.090,146.707 170.565 C 167.436 168.388,195.600 168.046,225.000 169.614 M183.200 295.633 C 176.930 295.800,168.290 296.128,164.000 296.361 C 159.710 296.595,151.790 296.973,146.400 297.202 C 127.633 297.998,119.421 299.058,114.675 301.300 C 113.094 302.046,110.033 303.454,107.873 304.429 C 104.415 305.988,103.657 306.524,101.534 308.910 C 100.207 310.400,98.617 311.881,98.000 312.200 C 96.405 313.025,95.479 314.749,93.808 320.000 C 90.306 331.006,90.029 332.503,89.716 342.126 L 89.484 349.251 91.229 351.029 C 94.897 354.767,83.232 354.405,200.000 354.405 C 316.768 354.405,305.103 354.767,308.771 351.029 L 310.516 349.251 310.284 342.126 C 309.971 332.503,309.694 331.006,306.192 320.000 C 304.521 314.749,303.595 313.025,302.000 312.200 C 301.383 311.881,299.793 310.400,298.466 308.910 C 296.343 306.524,295.585 305.988,292.127 304.429 C 289.967 303.454,286.940 302.069,285.400 301.351 C 281.064 299.327,271.596 297.901,259.200 297.404 C 255.790 297.268,247.463 296.891,240.696 296.567 C 227.487 295.934,202.512 295.185,197.600 295.274 C 195.950 295.304,189.470 295.465,183.200 295.633 M243.000 297.961 C 268.286 299.027,277.907 300.058,282.637 302.206 C 283.758 302.715,285.564 303.396,286.652 303.719 C 290.361 304.820,295.728 307.797,296.852 309.376 C 297.424 310.181,299.058 311.801,300.481 312.975 C 304.491 316.282,306.183 321.753,307.542 335.800 C 308.714 347.911,308.320 349.876,304.289 352.023 C 302.786 352.823,302.214 352.828,200.000 352.828 C 97.786 352.828,97.214 352.823,95.711 352.023 C 91.680 349.876,91.286 347.911,92.458 335.800 C 93.817 321.753,95.509 316.282,99.519 312.975 C 100.942 311.801,102.576 310.181,103.148 309.376 C 104.272 307.797,109.639 304.820,113.348 303.719 C 114.436 303.396,116.242 302.713,117.363 302.200 C 122.117 300.027,133.720 298.854,159.000 297.991 C 165.820 297.758,172.570 297.509,174.000 297.437 C 179.773 297.145,233.297 297.552,243.000 297.961 " stroke="none" fill="#8c8c8c" fill-rule="evenodd"></path><path id="path2" d="M185.972 75.327 C 179.238 77.217,178.202 79.513,177.184 94.800 C 175.877 114.419,176.012 113.617,173.652 115.753 C 171.578 117.630,153.952 118.630,150.885 117.044 C 146.959 115.014,144.516 108.620,142.614 95.400 C 141.948 90.770,140.250 84.706,139.430 84.025 C 139.163 83.804,137.461 83.268,135.647 82.835 C 129.779 81.433,123.965 82.902,111.800 88.858 C 109.348 90.058,108.739 93.808,109.728 101.620 C 110.075 104.359,110.467 108.130,110.599 110.000 C 111.555 123.531,113.041 134.276,115.052 142.200 C 116.206 146.746,116.325 146.969,119.255 150.072 C 120.435 151.321,121.990 153.059,122.711 153.933 C 123.433 154.807,124.829 155.902,125.814 156.364 C 126.799 156.827,128.279 157.795,129.102 158.514 C 131.695 160.777,131.907 160.873,135.492 161.412 C 139.123 161.957,145.988 161.156,152.853 159.384 C 167.983 155.479,218.053 154.813,240.136 158.222 C 243.620 158.760,247.783 159.200,249.387 159.200 C 250.991 159.200,254.327 159.552,256.800 159.983 C 263.008 161.063,267.023 160.614,269.264 158.590 C 270.096 157.838,271.832 156.690,273.123 156.039 C 275.287 154.946,278.000 152.478,278.000 151.601 C 278.000 151.396,279.059 150.097,280.354 148.713 C 283.955 144.864,285.163 140.131,286.203 125.800 C 286.538 121.180,287.006 116.320,287.243 115.000 C 288.477 108.112,289.579 93.964,289.046 91.839 C 288.510 89.704,276.643 83.586,271.200 82.638 C 261.434 80.938,259.066 83.218,257.183 96.124 C 255.716 106.189,253.881 112.444,251.683 114.877 C 249.276 117.541,248.896 117.632,240.085 117.663 C 225.394 117.715,224.308 116.945,223.596 105.971 C 223.361 102.357,223.097 99.130,223.008 98.800 C 222.920 98.470,222.647 95.140,222.401 91.400 C 221.751 81.495,220.600 78.686,216.225 76.321 L 213.800 75.010 200.800 74.912 C 191.177 74.839,187.325 74.947,185.972 75.327 M213.524 77.571 C 214.179 77.745,214.713 78.468,215.356 80.051 C 215.856 81.280,216.666 82.851,217.158 83.540 C 217.831 84.486,218.147 85.739,218.443 88.630 C 218.659 90.739,219.176 93.395,219.593 94.532 C 220.367 96.644,220.895 100.480,221.585 109.000 C 222.489 120.163,225.105 122.001,240.079 121.999 C 249.507 121.997,248.293 122.507,255.831 115.379 C 257.942 113.383,258.275 111.694,259.616 96.200 C 260.163 89.879,260.544 88.654,262.144 88.073 C 262.835 87.822,264.275 86.893,265.344 86.009 C 267.757 84.011,267.337 83.980,272.598 86.553 C 275.019 87.738,277.990 88.933,279.200 89.209 C 284.546 90.430,284.870 91.018,283.306 96.656 L 282.212 100.600 282.130 118.800 C 282.043 138.135,281.886 140.287,280.584 140.069 C 279.187 139.834,278.859 139.072,278.234 134.600 C 277.530 129.564,276.269 124.712,275.241 123.082 L 274.536 121.963 273.092 127.682 C 272.297 130.827,271.444 134.300,271.195 135.400 C 270.574 138.150,269.562 140.129,268.549 140.574 C 267.507 141.031,265.022 145.083,265.102 146.193 C 265.163 147.026,267.285 149.200,268.037 149.200 C 269.063 149.200,270.739 146.880,271.008 145.089 C 271.159 144.077,271.580 142.984,271.942 142.661 C 274.678 140.221,278.580 143.739,276.452 146.727 C 275.982 147.387,275.361 148.969,275.072 150.244 L 274.545 152.563 271.904 153.050 C 270.452 153.318,268.934 153.704,268.532 153.907 C 268.070 154.140,266.568 154.093,264.456 153.780 C 261.335 153.318,260.987 153.340,259.256 154.111 C 256.777 155.216,251.011 155.446,241.287 154.828 C 222.912 153.660,172.541 153.635,158.000 154.786 C 148.836 155.511,144.022 156.666,141.327 158.786 C 139.785 159.999,138.387 159.791,134.717 157.803 C 132.893 156.815,130.742 155.650,129.937 155.214 C 129.132 154.778,127.745 154.305,126.855 154.162 C 124.968 153.861,124.384 153.275,123.453 150.749 C 122.676 148.639,122.052 147.987,119.810 146.942 C 117.790 145.999,117.110 142.866,116.432 131.377 C 115.132 109.320,114.638 105.241,112.838 101.675 C 111.640 99.303,111.578 98.957,111.686 95.311 L 111.800 91.456 116.400 90.127 C 123.857 87.973,127.272 86.776,129.449 85.552 C 132.103 84.059,132.268 84.079,134.539 86.164 C 135.595 87.134,136.995 88.149,137.648 88.420 C 139.339 89.120,139.827 90.653,140.386 97.025 C 141.725 112.269,142.126 113.797,145.536 116.676 C 146.781 117.727,148.033 118.902,148.318 119.288 C 150.030 121.599,151.749 122.000,159.956 122.000 C 174.819 122.000,177.508 120.134,178.401 109.200 C 179.072 100.984,179.677 96.258,180.446 93.236 C 180.861 91.606,181.200 89.131,181.200 87.737 C 181.200 85.500,181.359 84.978,182.550 83.301 C 183.292 82.255,184.269 80.552,184.721 79.515 C 185.644 77.396,185.917 77.274,190.200 77.070 C 194.140 76.881,212.409 77.274,213.524 77.571 M174.800 168.788 C 167.141 169.061,151.766 170.034,146.707 170.565 C 141.706 171.090,137.200 176.639,137.200 182.271 C 137.200 183.512,136.658 190.033,135.995 196.763 C 135.332 203.493,134.518 211.769,134.185 215.153 C 133.852 218.537,133.230 222.947,132.802 224.953 C 131.676 230.229,131.321 232.804,130.419 242.246 C 129.976 246.891,129.438 251.931,129.226 253.446 C 129.013 254.961,128.556 259.530,128.210 263.600 C 127.542 271.454,126.789 276.609,125.861 279.674 C 125.280 281.594,125.428 283.398,126.444 286.790 C 126.866 288.197,127.095 288.375,129.565 289.216 L 132.230 290.124 138.662 288.668 C 152.380 285.564,200.270 284.016,232.902 285.623 C 238.676 285.907,247.090 286.159,251.600 286.183 L 259.800 286.227 262.600 287.480 C 270.581 291.051,274.920 286.793,272.620 277.648 C 272.060 275.425,271.303 270.254,270.826 265.400 C 268.782 244.584,267.939 237.125,267.211 233.400 C 265.970 227.043,264.954 218.575,263.584 203.167 C 263.377 200.838,262.935 196.608,262.602 193.767 C 262.269 190.925,261.884 186.530,261.748 184.000 L 261.500 179.400 259.450 176.137 C 256.685 171.735,255.722 171.201,250.546 171.197 C 248.375 171.195,245.070 171.016,243.200 170.799 C 230.715 169.348,191.460 168.195,174.800 168.788 M199.000 171.803 C 202.740 172.126,210.226 172.392,215.636 172.395 C 229.799 172.402,237.582 172.782,237.324 173.453 C 236.511 175.573,233.308 176.129,222.382 176.044 C 213.459 175.975,213.355 175.984,212.532 176.887 C 210.253 179.387,210.406 179.877,214.057 181.795 C 215.897 182.761,216.824 183.712,218.523 186.376 C 219.020 187.156,220.254 188.192,221.371 188.767 C 222.872 189.539,223.704 190.358,224.854 192.191 C 225.685 193.517,227.141 195.250,228.091 196.044 C 229.465 197.193,230.215 198.375,231.769 201.843 C 232.842 204.240,234.319 206.902,235.050 207.760 C 236.508 209.471,236.884 210.379,238.976 217.240 C 239.753 219.791,240.742 222.326,241.171 222.873 C 242.521 224.589,243.176 226.791,245.381 237.037 C 246.561 242.517,248.007 248.144,248.596 249.543 C 249.692 252.147,251.283 262.609,251.861 271.013 C 252.218 276.206,252.941 277.000,257.600 277.315 L 261.000 277.545 262.669 275.988 C 264.035 274.712,264.424 274.010,264.814 272.115 C 266.094 265.907,267.824 265.156,268.102 270.690 C 268.225 273.158,268.679 276.328,269.163 278.108 L 270.008 281.216 269.210 282.781 C 268.116 284.925,268.178 284.917,264.379 283.408 L 261.000 282.067 255.800 282.496 C 252.456 282.771,236.898 282.889,212.200 282.825 C 159.866 282.690,140.807 283.305,134.787 285.324 L 132.031 286.249 130.776 283.895 L 129.522 281.541 129.946 276.870 C 130.180 274.302,130.471 269.590,130.594 266.400 C 130.896 258.579,131.900 250.196,132.798 248.000 C 134.788 243.134,136.396 230.587,137.205 213.600 C 137.842 200.222,138.733 191.419,139.670 189.251 C 140.110 188.233,140.671 185.690,140.917 183.600 C 141.313 180.240,141.524 179.591,142.736 178.000 C 143.490 177.010,144.479 175.435,144.933 174.500 C 145.422 173.494,146.036 172.800,146.437 172.800 C 146.810 172.800,148.979 172.602,151.258 172.360 C 162.556 171.160,188.095 170.862,199.000 171.803 M255.558 177.535 C 256.983 179.755,257.033 180.222,256.166 183.213 C 255.795 184.492,255.387 188.222,255.184 192.200 C 254.700 201.658,254.468 202.277,253.080 197.801 C 252.482 195.872,251.785 192.562,251.530 190.447 C 251.166 187.414,250.866 186.355,250.112 185.443 C 249.586 184.807,248.719 183.425,248.186 182.373 C 247.620 181.256,246.838 180.337,246.308 180.165 C 245.403 179.872,245.403 179.870,246.481 179.423 C 247.075 179.177,247.975 178.587,248.481 178.113 C 249.515 177.141,252.657 175.622,253.658 175.609 C 254.020 175.604,254.875 176.471,255.558 177.535 M261.333 212.900 C 262.998 232.724,262.265 262.399,260.287 255.282 C 256.615 242.074,255.810 214.510,259.003 211.317 C 260.846 209.474,261.058 209.618,261.333 212.900 M174.000 297.437 C 172.570 297.509,165.820 297.758,159.000 297.991 C 133.720 298.854,122.117 300.027,117.363 302.200 C 116.242 302.713,114.436 303.396,113.348 303.719 C 109.639 304.820,104.272 307.797,103.148 309.376 C 102.576 310.181,100.942 311.801,99.519 312.975 C 95.509 316.282,93.817 321.753,92.458 335.800 C 91.286 347.911,91.680 349.876,95.711 352.023 C 97.214 352.823,97.786 352.828,200.000 352.828 C 302.214 352.828,302.786 352.823,304.289 352.023 C 308.320 349.876,308.714 347.911,307.542 335.800 C 306.183 321.753,304.491 316.282,300.481 312.975 C 299.058 311.801,297.424 310.181,296.852 309.376 C 295.728 307.797,290.361 304.820,286.652 303.719 C 285.564 303.396,283.758 302.715,282.637 302.206 C 275.692 299.052,252.022 297.598,204.600 297.414 C 189.200 297.354,175.430 297.365,174.000 297.437 M262.516 300.938 C 268.474 301.448,269.399 301.625,270.716 302.510 C 273.239 304.205,277.111 305.218,286.400 306.615 C 288.926 306.995,291.930 308.348,292.211 309.233 C 292.341 309.644,292.932 310.325,293.524 310.747 C 295.907 312.447,301.944 318.690,302.506 320.036 C 304.258 324.232,304.782 348.919,303.142 349.944 C 302.038 350.633,97.962 350.633,96.858 349.944 C 95.200 348.908,95.730 324.261,97.502 320.016 C 98.057 318.686,104.110 312.435,106.476 310.747 C 107.068 310.325,107.659 309.644,107.789 309.233 C 108.163 308.057,111.352 306.970,117.200 306.028 C 123.805 304.964,127.369 303.953,129.418 302.562 C 131.353 301.249,134.756 300.894,150.000 300.417 C 167.864 299.857,254.583 300.258,262.516 300.938 " stroke="none" fill="#bcbcbc" fill-rule="evenodd"></path><path id="path3" d="M190.200 77.070 C 185.917 77.274,185.644 77.396,184.721 79.515 C 184.269 80.552,183.292 82.255,182.550 83.301 C 181.359 84.978,181.200 85.500,181.200 87.737 C 181.200 89.131,180.861 91.606,180.446 93.236 C 179.677 96.258,179.072 100.984,178.401 109.200 C 177.508 120.134,174.819 122.000,159.956 122.000 C 151.749 122.000,150.030 121.599,148.318 119.288 C 148.033 118.902,146.781 117.727,145.536 116.676 C 142.126 113.797,141.725 112.269,140.386 97.025 C 139.827 90.653,139.339 89.120,137.648 88.420 C 136.995 88.149,135.595 87.134,134.539 86.164 C 132.268 84.079,132.103 84.059,129.449 85.552 C 127.272 86.776,123.857 87.973,116.400 90.127 L 111.800 91.456 111.686 95.311 C 111.578 98.957,111.640 99.303,112.838 101.675 C 114.638 105.241,115.132 109.320,116.432 131.377 C 117.110 142.866,117.790 145.999,119.810 146.942 C 122.052 147.987,122.676 148.639,123.453 150.749 C 124.384 153.275,124.968 153.861,126.855 154.162 C 127.745 154.305,129.132 154.778,129.937 155.214 C 130.742 155.650,132.893 156.815,134.717 157.803 C 138.387 159.791,139.785 159.999,141.327 158.786 C 144.022 156.666,148.836 155.511,158.000 154.786 C 172.541 153.635,222.912 153.660,241.287 154.828 C 251.011 155.446,256.777 155.216,259.256 154.111 C 260.987 153.340,261.335 153.318,264.456 153.780 C 266.568 154.093,268.070 154.140,268.532 153.907 C 268.934 153.704,270.452 153.318,271.904 153.050 L 274.545 152.563 275.072 150.244 C 275.361 148.969,275.982 147.387,276.452 146.727 C 278.580 143.739,274.678 140.221,271.942 142.661 C 271.580 142.984,271.159 144.077,271.008 145.089 C 270.739 146.880,269.063 149.200,268.037 149.200 C 267.285 149.200,265.163 147.026,265.102 146.193 C 265.022 145.083,267.507 141.031,268.549 140.574 C 269.562 140.129,270.574 138.150,271.195 135.400 C 271.444 134.300,272.297 130.827,273.092 127.682 L 274.536 121.963 275.241 123.082 C 276.269 124.712,277.530 129.564,278.234 134.600 C 278.859 139.072,279.187 139.834,280.584 140.069 C 281.886 140.287,282.043 138.135,282.130 118.800 L 282.212 100.600 283.306 96.656 C 284.870 91.018,284.546 90.430,279.200 89.209 C 277.990 88.933,275.019 87.738,272.598 86.553 C 267.337 83.980,267.757 84.011,265.344 86.009 C 264.275 86.893,262.835 87.822,262.144 88.073 C 260.544 88.654,260.163 89.879,259.616 96.200 C 258.275 111.694,257.942 113.383,255.831 115.379 C 248.293 122.507,249.507 121.997,240.079 121.999 C 225.105 122.001,222.489 120.163,221.585 109.000 C 220.895 100.480,220.367 96.644,219.593 94.532 C 219.176 93.395,218.659 90.739,218.443 88.630 C 218.147 85.739,217.831 84.486,217.158 83.540 C 216.666 82.851,215.856 81.280,215.356 80.051 C 214.713 78.468,214.179 77.745,213.524 77.571 C 212.409 77.274,194.140 76.881,190.200 77.070 M161.200 171.622 C 158.010 171.786,153.536 172.118,151.258 172.360 C 148.979 172.602,146.810 172.800,146.437 172.800 C 146.036 172.800,145.422 173.494,144.933 174.500 C 144.479 175.435,143.490 177.010,142.736 178.000 C 141.524 179.591,141.313 180.240,140.917 183.600 C 140.671 185.690,140.110 188.233,139.670 189.251 C 138.733 191.419,137.842 200.222,137.205 213.600 C 136.396 230.587,134.788 243.134,132.798 248.000 C 131.900 250.196,130.896 258.579,130.594 266.400 C 130.471 269.590,130.180 274.302,129.946 276.870 L 129.522 281.541 130.776 283.895 L 132.031 286.249 134.787 285.324 C 140.807 283.305,159.866 282.690,212.200 282.825 C 236.898 282.889,252.456 282.771,255.800 282.496 L 261.000 282.067 264.379 283.408 C 268.178 284.917,268.116 284.925,269.210 282.781 L 270.008 281.216 269.163 278.108 C 268.679 276.328,268.225 273.158,268.102 270.690 C 267.824 265.156,266.094 265.907,264.814 272.115 C 264.424 274.010,264.035 274.712,262.669 275.988 L 261.000 277.545 257.600 277.315 C 252.941 277.000,252.218 276.206,251.861 271.013 C 251.283 262.609,249.692 252.147,248.596 249.543 C 248.007 248.144,246.561 242.517,245.381 237.037 C 243.176 226.791,242.521 224.589,241.171 222.873 C 240.742 222.326,239.753 219.791,238.976 217.240 C 236.884 210.379,236.508 209.471,235.050 207.760 C 234.319 206.902,232.842 204.240,231.769 201.843 C 230.215 198.375,229.465 197.193,228.091 196.044 C 227.141 195.250,225.685 193.517,224.854 192.191 C 223.704 190.358,222.872 189.539,221.371 188.767 C 220.254 188.192,219.020 187.156,218.523 186.376 C 216.824 183.712,215.897 182.761,214.057 181.795 C 210.406 179.877,210.253 179.387,212.532 176.887 C 213.355 175.984,213.459 175.975,222.382 176.044 C 233.308 176.129,236.511 175.573,237.324 173.453 C 237.582 172.782,229.799 172.402,215.636 172.395 C 210.226 172.392,202.740 172.126,199.000 171.803 C 191.753 171.178,171.722 171.082,161.200 171.622 M251.200 176.434 C 250.210 176.882,248.986 177.638,248.481 178.113 C 247.975 178.587,247.075 179.177,246.481 179.423 C 245.403 179.870,245.403 179.872,246.308 180.165 C 246.838 180.337,247.620 181.256,248.186 182.373 C 248.719 183.425,249.586 184.807,250.112 185.443 C 250.866 186.355,251.166 187.414,251.530 190.447 C 251.785 192.562,252.482 195.872,253.080 197.801 C 254.468 202.277,254.700 201.658,255.184 192.200 C 255.387 188.222,255.795 184.492,256.166 183.213 C 257.033 180.222,256.983 179.755,255.558 177.535 C 254.170 175.371,253.768 175.269,251.200 176.434 M259.003 211.317 C 255.810 214.510,256.615 242.074,260.287 255.282 C 261.880 261.012,262.678 249.631,262.045 230.200 C 261.339 208.482,261.408 208.912,259.003 211.317 M150.000 300.417 C 134.756 300.894,131.353 301.249,129.418 302.562 C 127.369 303.953,123.805 304.964,117.200 306.028 C 111.352 306.970,108.163 308.057,107.789 309.233 C 107.659 309.644,107.068 310.325,106.476 310.747 C 104.110 312.435,98.057 318.686,97.502 320.016 C 95.730 324.261,95.200 348.908,96.858 349.944 C 97.962 350.633,302.038 350.633,303.142 349.944 C 304.782 348.919,304.258 324.232,302.506 320.036 C 301.944 318.690,295.907 312.447,293.524 310.747 C 292.932 310.325,292.341 309.644,292.211 309.233 C 291.930 308.348,288.926 306.995,286.400 306.615 C 277.111 305.218,273.239 304.205,270.716 302.510 C 267.894 300.615,261.438 300.379,208.200 300.223 C 182.020 300.147,155.830 300.234,150.000 300.417 " stroke="none" fill="#fafafa" fill-rule="evenodd"></path><path id="path4" d="M137.100 64.689 C 137.815 64.778,138.985 64.778,139.700 64.689 C 140.415 64.601,139.830 64.528,138.400 64.528 C 136.970 64.528,136.385 64.601,137.100 64.689 M260.300 64.689 C 261.015 64.778,262.185 64.778,262.900 64.689 C 263.615 64.601,263.030 64.528,261.600 64.528 C 260.170 64.528,259.585 64.601,260.300 64.689 M190.800 72.030 C 179.339 72.590,176.583 74.031,175.625 79.964 C 174.973 84.008,173.600 102.773,173.600 107.645 C 173.600 112.665,173.732 112.480,169.052 114.003 C 166.564 114.813,165.973 114.860,162.796 114.505 C 160.864 114.290,158.413 114.257,157.343 114.433 C 153.292 115.099,152.263 114.929,150.667 113.333 L 149.200 111.867 149.194 108.033 C 149.187 103.193,148.334 99.458,146.798 97.542 C 145.812 96.312,145.472 95.218,144.618 90.542 C 143.277 83.196,143.012 82.353,141.624 81.023 C 139.801 79.276,135.052 78.847,127.518 79.746 C 117.213 80.977,114.926 81.642,113.667 83.777 C 113.162 84.632,112.407 85.191,111.316 85.518 C 106.741 86.889,105.764 90.353,106.780 101.600 C 106.989 103.910,107.358 111.290,107.600 118.000 C 108.297 137.354,108.714 140.231,110.963 141.256 C 111.690 141.587,112.154 142.550,113.129 145.749 C 114.379 149.854,115.286 151.226,117.499 152.364 C 117.993 152.619,118.753 153.523,119.187 154.375 C 120.100 156.165,122.429 158.215,124.219 158.806 C 125.031 159.074,125.689 159.697,126.124 160.611 C 127.835 164.197,133.296 165.060,147.800 164.034 C 158.140 163.302,166.408 163.944,168.158 165.614 C 168.809 166.236,162.930 166.918,150.913 167.614 C 136.234 168.465,135.084 169.635,134.017 184.800 C 133.162 196.960,132.315 204.147,131.615 205.200 C 129.838 207.870,128.354 218.716,127.813 233.000 C 127.360 244.939,125.662 260.349,124.544 262.658 C 122.717 266.430,121.545 274.296,121.553 282.719 C 121.562 292.639,122.086 292.874,144.353 292.960 C 158.284 293.013,164.150 293.622,161.980 294.791 C 161.359 295.125,150.746 295.775,135.800 296.394 C 130.740 296.604,124.530 297.056,122.000 297.400 C 119.470 297.744,116.753 298.114,115.963 298.223 C 112.747 298.664,110.400 299.948,110.400 301.266 C 110.400 301.623,107.340 303.082,103.690 304.465 C 101.889 305.148,101.442 305.538,100.634 307.132 C 99.555 309.260,98.746 310.052,96.913 310.777 C 95.127 311.484,94.963 311.750,93.188 316.835 C 92.293 319.398,91.189 321.785,90.628 322.371 C 88.248 324.856,87.469 330.368,87.675 343.272 C 87.833 353.226,88.206 353.907,94.400 355.577 C 99.126 356.851,300.874 356.851,305.600 355.577 C 311.794 353.907,312.167 353.226,312.325 343.272 C 312.531 330.368,311.752 324.856,309.372 322.371 C 308.811 321.785,307.707 319.398,306.812 316.835 C 305.037 311.750,304.873 311.484,303.087 310.777 C 301.254 310.052,300.445 309.260,299.366 307.132 C 298.558 305.538,298.111 305.148,296.310 304.465 C 292.660 303.082,289.600 301.623,289.600 301.266 C 289.600 298.249,279.535 296.839,249.026 295.584 C 238.299 295.142,236.154 294.815,239.017 294.056 C 239.888 293.825,241.410 293.418,242.400 293.151 C 243.609 292.826,248.469 292.646,257.200 292.603 C 272.079 292.529,273.664 292.289,276.466 289.675 L 278.053 288.195 278.102 282.997 C 278.158 277.135,277.362 271.926,275.723 267.415 C 274.343 263.619,272.759 249.356,271.790 232.000 C 271.543 227.577,270.216 214.395,269.823 212.468 C 269.537 211.063,269.169 209.966,268.390 208.200 C 267.624 206.462,266.172 193.803,265.776 185.400 C 265.092 170.907,263.019 168.649,249.800 168.004 C 235.978 167.330,225.610 166.230,226.327 165.513 C 227.794 164.046,250.209 162.910,257.800 163.918 C 265.236 164.906,271.265 163.591,273.295 160.539 C 273.952 159.552,274.914 158.699,275.665 158.437 C 277.689 157.732,279.582 156.059,280.504 154.161 C 280.974 153.193,281.497 152.400,281.666 152.400 C 283.346 152.400,285.370 149.296,286.803 144.523 C 287.522 142.130,288.331 140.298,288.961 139.641 C 290.630 137.898,291.105 134.780,291.769 121.200 C 292.108 114.270,292.589 105.695,292.838 102.145 C 293.635 90.777,292.971 88.348,288.483 86.200 C 287.104 85.540,285.540 84.442,285.006 83.760 C 283.036 81.242,275.238 79.441,266.200 79.416 C 257.633 79.392,257.348 79.675,255.391 90.167 C 254.427 95.341,254.130 96.289,253.164 97.301 C 251.681 98.852,250.800 102.808,250.800 107.912 L 250.800 111.867 249.333 113.333 C 247.737 114.929,246.708 115.099,242.657 114.433 C 241.587 114.257,239.136 114.290,237.204 114.505 C 234.027 114.860,233.436 114.813,230.948 114.003 C 226.262 112.478,226.400 112.673,226.400 107.588 C 226.400 96.926,224.383 78.255,223.005 76.151 C 221.111 73.260,209.714 71.184,198.400 71.668 C 197.630 71.700,194.210 71.864,190.800 72.030 M100.895 72.666 C 100.618 72.778,100.203 73.259,99.973 73.735 C 99.617 74.473,99.633 74.507,100.078 73.971 C 100.365 73.625,100.960 73.135,101.400 72.883 C 102.197 72.426,101.856 72.280,100.895 72.666 M298.600 72.883 C 299.040 73.135,299.625 73.625,299.901 73.971 C 300.345 74.529,300.374 74.520,300.154 73.889 C 300.017 73.498,299.579 73.003,299.179 72.789 C 298.155 72.241,297.629 72.326,298.600 72.883 M210.220 73.565 C 219.504 74.234,223.584 78.338,223.605 87.027 C 223.607 88.112,223.965 92.960,224.400 97.800 C 224.835 102.640,225.193 107.867,225.195 109.415 C 225.203 114.011,229.958 117.084,235.746 116.234 C 238.162 115.879,241.381 115.866,244.881 116.198 L 247.962 116.490 250.114 114.338 C 252.131 112.321,252.283 112.032,252.522 109.739 C 252.663 108.393,253.241 105.876,253.806 104.146 C 254.371 102.416,255.290 98.480,255.848 95.400 C 258.223 82.287,258.774 81.477,265.677 80.959 C 272.061 80.481,276.350 81.632,283.800 85.825 C 292.050 90.469,291.760 89.543,290.431 107.000 C 288.365 134.123,286.195 144.985,281.931 149.539 C 280.759 150.791,279.221 152.663,278.513 153.700 C 277.669 154.937,276.510 155.966,275.141 156.693 C 273.994 157.302,272.233 158.540,271.228 159.444 C 268.306 162.072,263.133 163.090,258.200 162.009 C 257.100 161.768,252.600 161.411,248.200 161.217 C 241.880 160.938,239.654 160.687,237.600 160.025 C 229.430 157.391,194.762 156.431,172.467 158.222 C 165.207 158.805,164.278 158.950,160.000 160.173 C 147.811 163.656,130.309 163.567,128.407 160.012 C 128.176 159.581,126.748 158.504,125.234 157.620 C 122.536 156.044,121.075 154.667,119.784 152.481 C 119.429 151.880,118.518 150.981,117.760 150.484 C 116.064 149.372,114.874 146.911,113.174 141.000 C 112.478 138.580,111.581 135.571,111.180 134.312 C 110.440 131.990,110.135 128.875,108.894 111.000 C 107.443 90.090,107.594 89.250,113.321 86.369 C 115.124 85.462,117.590 84.197,118.800 83.559 C 122.297 81.714,130.485 80.499,135.327 81.105 C 141.137 81.834,141.745 82.814,144.006 95.098 C 144.669 98.701,145.665 102.943,146.220 104.524 C 146.774 106.106,147.341 108.477,147.480 109.793 C 147.716 112.020,147.882 112.334,149.886 114.338 L 152.038 116.490 155.119 116.198 C 158.619 115.866,161.838 115.879,164.254 116.234 C 170.043 117.085,174.799 114.010,174.802 109.415 C 174.803 107.867,175.065 103.720,175.386 100.200 C 175.706 96.680,176.089 91.640,176.238 89.000 C 177.025 74.980,179.303 73.393,198.800 73.285 C 202.650 73.264,207.789 73.390,210.220 73.565 M164.078 76.557 C 163.131 77.571,162.190 78.400,161.988 78.400 C 161.786 78.400,161.346 78.931,161.010 79.580 C 160.139 81.264,160.258 81.638,161.182 80.122 C 161.711 79.255,162.484 78.687,163.586 78.357 C 165.563 77.765,166.098 77.177,165.929 75.782 C 165.801 74.719,165.793 74.723,164.078 76.557 M234.005 75.851 C 233.999 77.293,234.411 77.706,236.531 78.389 C 237.504 78.703,238.341 79.341,238.829 80.141 C 239.745 81.642,239.855 81.254,238.990 79.580 C 238.654 78.931,238.220 78.400,238.024 78.400 C 237.829 78.400,236.846 77.545,235.839 76.500 L 234.009 74.600 234.005 75.851 M91.709 85.600 C 91.709 86.590,91.787 86.995,91.882 86.500 C 91.978 86.005,91.978 85.195,91.882 84.700 C 91.787 84.205,91.709 84.610,91.709 85.600 M308.109 85.600 C 308.109 86.590,308.187 86.995,308.282 86.500 C 308.378 86.005,308.378 85.195,308.282 84.700 C 308.187 84.205,308.109 84.610,308.109 85.600 M102.000 152.722 C 102.000 153.111,104.524 155.600,104.919 155.600 C 105.506 155.600,105.168 153.695,104.469 153.062 C 103.718 152.383,102.000 152.146,102.000 152.722 M295.462 153.131 C 294.783 153.882,294.546 155.600,295.122 155.600 C 295.511 155.600,298.000 153.076,298.000 152.681 C 298.000 152.094,296.095 152.432,295.462 153.131 M215.900 159.042 C 218.375 159.172,220.400 159.402,220.400 159.553 C 220.400 161.282,213.131 161.923,193.000 161.968 C 183.466 161.989,180.168 161.546,178.664 160.041 L 177.822 159.200 179.211 159.147 C 193.353 158.603,206.849 158.565,215.900 159.042 M213.476 166.992 C 217.394 167.318,224.578 167.860,229.440 168.197 C 234.302 168.534,240.062 168.983,242.240 169.194 C 244.418 169.406,247.910 169.585,250.000 169.592 C 259.362 169.623,263.004 173.408,263.643 183.774 C 264.228 193.266,267.294 221.567,267.979 223.800 C 268.798 226.468,269.261 230.039,270.597 244.000 C 273.198 271.165,273.467 273.278,274.949 278.229 C 275.831 281.177,275.693 287.346,274.726 288.192 C 274.240 288.617,270.801 290.157,269.447 290.556 C 267.714 291.067,265.852 290.882,262.200 289.837 C 257.752 288.565,255.162 288.206,250.200 288.173 C 247.340 288.154,243.020 287.931,240.600 287.678 C 223.902 285.932,165.994 286.167,155.600 288.024 C 153.565 288.387,146.671 289.453,136.400 290.993 C 130.947 291.810,125.775 290.659,124.217 288.282 C 123.043 286.490,123.206 279.636,124.509 276.008 C 125.192 274.106,125.806 271.117,126.192 267.808 C 127.568 256.029,128.816 243.856,129.207 238.400 C 129.917 228.469,130.377 224.704,131.387 220.534 C 132.450 216.141,134.001 203.493,134.984 191.200 C 136.637 170.519,137.034 170.046,153.800 168.764 C 173.795 167.236,179.017 166.994,203.476 166.463 C 205.058 166.428,209.558 166.667,213.476 166.992 M112.800 170.352 C 112.800 170.742,114.355 172.198,114.523 171.964 C 114.587 171.874,114.226 171.401,113.720 170.914 C 113.214 170.427,112.800 170.174,112.800 170.352 M286.114 171.080 C 285.627 171.586,285.374 172.000,285.552 172.000 C 285.942 172.000,287.398 170.445,287.164 170.277 C 287.074 170.213,286.601 170.574,286.114 171.080 M122.439 174.506 C 121.106 175.191,120.051 176.740,119.786 178.400 C 119.606 179.536,119.699 179.423,120.282 177.800 C 120.885 176.119,121.285 175.656,122.785 174.900 C 123.766 174.405,124.306 174.003,123.985 174.006 C 123.663 174.009,122.967 174.234,122.439 174.506 M276.200 174.448 C 278.361 175.270,279.944 177.258,280.046 179.280 C 280.081 179.963,280.140 180.019,280.276 179.497 C 280.812 177.445,278.684 174.553,276.381 174.202 L 275.000 173.992 276.200 174.448 M112.101 242.600 C 112.105 243.480,112.187 243.793,112.283 243.295 C 112.379 242.798,112.375 242.078,112.275 241.695 C 112.175 241.313,112.096 241.720,112.101 242.600 M287.701 242.600 C 287.705 243.480,287.787 243.793,287.883 243.295 C 287.979 242.798,287.975 242.078,287.875 241.695 C 287.775 241.313,287.696 241.720,287.701 242.600 M221.800 288.411 C 221.360 288.605,219.200 288.668,217.000 288.550 C 214.450 288.412,211.192 288.564,208.012 288.967 C 205.269 289.315,201.663 289.600,200.000 289.600 C 198.337 289.600,194.731 289.315,191.988 288.967 C 188.808 288.564,185.550 288.412,183.000 288.550 C 180.800 288.668,178.640 288.605,178.200 288.411 C 177.724 288.200,186.542 288.056,200.000 288.056 C 213.458 288.056,222.276 288.200,221.800 288.411 M214.496 295.599 C 222.139 295.807,233.929 296.243,240.696 296.567 C 247.463 296.891,255.790 297.268,259.200 297.404 C 271.596 297.901,281.064 299.327,285.400 301.351 C 286.940 302.069,289.967 303.454,292.127 304.429 C 295.585 305.988,296.343 306.524,298.466 308.910 C 299.793 310.400,301.383 311.881,302.000 312.200 C 303.595 313.025,304.521 314.749,306.192 320.000 C 309.694 331.006,309.971 332.503,310.284 342.126 L 310.516 349.251 308.771 351.029 C 305.103 354.767,316.768 354.405,200.000 354.405 C 83.232 354.405,94.897 354.767,91.229 351.029 L 89.484 349.251 89.716 342.126 C 90.029 332.503,90.306 331.006,93.808 320.000 C 95.479 314.749,96.405 313.025,98.000 312.200 C 98.617 311.881,100.207 310.400,101.534 308.910 C 103.657 306.524,104.415 305.988,107.873 304.429 C 110.033 303.454,113.094 302.046,114.675 301.300 C 119.421 299.058,127.633 297.998,146.400 297.202 C 151.790 296.973,159.710 296.595,164.000 296.361 C 170.665 295.999,187.266 295.462,197.600 295.274 C 199.250 295.244,206.853 295.390,214.496 295.599 " stroke="none" fill="#7c7c7c" fill-rule="evenodd"></path></g></svg>